<svg viewBox="0 0 1225 164" xmlns="http://www.w3.org/2000/svg" fill-rule="evenodd" clip-rule="evenodd" stroke-linejoin="round" stroke-miterlimit="1.414"><path d="M1228.31 47.315l-17.258-1.034-9.267 15.918-9.581.868-29.175-19.296-20.323 2.776-20.787 21.869-19.859 12.575-38.831 9.071-14.758-3.371-7.538-7.108-14.508-7.611-29.494-.99-10.766 1.432-15.768 3.26-16.743.587-38.307-11.076-24.635 1.56-27.738 9.474-25.537 6.39-21.546 3.721-4.704.483-18.093 1.529-11.551 6.166-30.321 27.82-5.563 9.077-1.108 5.455-10.889 3.555-28.155-14.002-11.125-2.667-12.557 1.183-9.232-.99-19.995-4.702-16.319-3.337-28.465.339-12.322 2.023-14.856 3.974-15.741.719-40.114-8.268-23.499 2.317-27.84 10.941-19.357-6.304-18.007-30.463-12.867-5.549-17.97 2.87-26.585 5.679-21.231 7.763-27.213 11.483-24.688 2.269-39.343-7.874-15.003 1.264-15.952 4.263-12.373 2.552-30.1.296-14.276-6.082-9.824-8.9-7.268-10.508-11.749-29.191-14.243-14.742-29.323-9.581-20.592.775-34.37 12.44-17.213.1-13.158-2.697-11.648-1.111-19.577-.19v130.37h1253.56V46.725l-14.762.59z" fill="#77c7a9"/><path d="M1147.74 24.057c-7.215 2.607-10.957 10.582-8.35 17.797 2.607 7.215 10.582 10.957 17.797 8.35 7.216-2.608 10.957-10.582 8.35-17.798-2.607-7.215-10.582-10.956-17.797-8.349zm-37.45 41.248c-7.27 2.627-11.04 10.662-8.413 17.932 2.627 7.27 10.662 11.04 17.932 8.413 7.271-2.627 11.04-10.662 8.413-17.932-2.626-7.27-10.662-11.04-17.932-8.413zm-58.36 18.212c-4.752 1.717-7.215 6.968-5.498 11.72 1.716 4.751 6.968 7.215 11.719 5.498 4.752-1.717 7.216-6.968 5.499-11.72-1.717-4.751-6.969-7.215-11.72-5.498zm-16.18-11.794a3.873 3.873 0 0 0-2.326 4.957 3.873 3.873 0 0 0 7.284-2.631 3.874 3.874 0 0 0-4.958-2.326zm66.64-21.917a3.438 3.438 0 0 0-2.064 4.399 3.437 3.437 0 1 0 2.064-4.399zm23.63-24.156a3.437 3.437 0 1 0 2.337 6.464 3.437 3.437 0 0 0-2.337-6.464zm53.86-15.079a3.74 3.74 0 0 0-2.245 4.787 3.74 3.74 0 0 0 4.786 2.245 3.74 3.74 0 0 0 2.246-4.786 3.74 3.74 0 0 0-4.787-2.246zm28.71 30.484a6.12 6.12 0 0 0-3.674 7.833 6.12 6.12 0 0 0 7.832 3.675 6.122 6.122 0 0 0 3.675-7.833 6.12 6.12 0 0 0-7.833-3.675zm-28.23 73.225a6.326 6.326 0 0 0-3.797 8.094 6.323 6.323 0 0 0 11.89-4.297 6.325 6.325 0 0 0-8.093-3.797zm-106.13-8.019a5.782 5.782 0 0 0-3.471 7.399 5.78 5.78 0 0 0 7.398 3.47 5.78 5.78 0 0 0 3.471-7.398 5.782 5.782 0 0 0-7.398-3.471zm121.98-47.355c-5.017 1.812-7.619 7.358-5.806 12.375 1.813 5.017 7.358 7.619 12.375 5.806 5.018-1.813 7.619-7.358 5.806-12.376-1.813-5.017-7.358-7.618-12.375-5.805z" fill="#3a8d6e"/><path d="M1055.42 90.678c-3.502 3.13-2.917 6.028-.06 3.071l19.123 18.483 1.564-1.618-20.627-19.936z" fill="#3a8d6e" fill-rule="nonzero"/><path d="M1127.72 30.413l22.867 6.614-36.52 39.639-59.305 14.203-17.786-16.605-1.535 1.644 18.669 17.431 61.148-14.645 39.089-42.427-.151-.538-25.851-7.478-.625 2.162z" fill="#3a8d6e" fill-rule="nonzero"/><path d="M1150.53 36.156l.011.327 48.969 33.199 11.187-21.965-1.909-.892-10.145 19.583-44.51-30.208 25.974-20.257-1.384-1.774-28.193 21.987z" fill="#3a8d6e" fill-rule="nonzero"/><path d="M1181.83 119.657l2.14.696 17.416-53.523-2.14-.696-17.416 53.523zm-79.68-65.985l6.741 16.655 2.086-.844-6.741-16.655-2.086.844z" fill="#3a8d6e" fill-rule="nonzero"/><path d="M848.209 93.775c7.587 1.137 14.67-4.1 15.806-11.688 1.137-7.587-4.1-14.67-11.687-15.806-7.587-1.137-14.67 4.1-15.807 11.687-1.137 7.587 4.1 14.67 11.688 15.807zm52.549-18.487c7.645 1.145 14.782-4.131 15.927-11.776 1.146-7.645-4.131-14.782-11.776-15.927-7.645-1.146-14.781 4.131-15.927 11.776-1.145 7.645 4.132 14.781 11.776 15.927zm60.005 11.726c4.997.749 9.661-2.7 10.409-7.697.749-4.996-2.7-9.66-7.696-10.409-4.996-.748-9.661 2.7-10.409 7.697-.749 4.996 2.7 9.66 7.696 10.409zm8.626 18.067a3.874 3.874 0 0 0 4.403-3.255 3.875 3.875 0 0 0-3.256-4.404 3.873 3.873 0 0 0-1.147 7.659zM900.34 92.679a3.438 3.438 0 0 0 3.907-2.889 3.438 3.438 0 0 0-2.889-3.908 3.438 3.438 0 0 0-3.908 2.889 3.438 3.438 0 0 0 2.89 3.908zM868.074 102.7a3.438 3.438 0 0 0 3.908-2.889 3.438 3.438 0 0 0-2.89-3.908 3.438 3.438 0 0 0-3.907 2.889 3.438 3.438 0 0 0 2.889 3.908zm-54.552-12.341a3.74 3.74 0 0 0 1.108-7.394 3.74 3.74 0 0 0-4.251 3.143 3.74 3.74 0 0 0 3.143 4.251zm-17.174-53.644a3.77 3.77 0 0 0 4.285-3.168 3.77 3.77 0 0 0-3.168-4.285 3.77 3.77 0 0 0-4.285 3.168 3.77 3.77 0 0 0 3.168 4.285zM990.17 78.319a7.05 7.05 0 0 0 8.014-5.925 7.05 7.05 0 0 0-5.926-8.013 7.05 7.05 0 0 0-8.013 5.925 7.05 7.05 0 0 0 5.925 8.013zm-38.213-21.917a5.782 5.782 0 0 0 6.571-4.859 5.78 5.78 0 0 0-4.858-6.571 5.782 5.782 0 0 0-6.571 4.859 5.78 5.78 0 0 0 4.858 6.571zm-129.823-16.33c5.276.791 10.201-2.851 10.992-8.127.79-5.276-2.852-10.201-8.127-10.991-5.276-.791-10.201 2.851-10.992 8.127-.79 5.275 2.851 10.201 8.127 10.991z" fill="#3a8d6e"/><path d="M991.231 71.878l44.442 1.738.088-2.248c-36.86-1.442-37.266-3.533-73.151 5.013l-8.036-25.352-2.145.68 8.668 27.345 30.134-7.176z" fill="#3a8d6e" fill-rule="nonzero"/><path d="M868.84 97.7l-16.973-16.691 50.973-17.51 58.927 15.7 7.753 23.065 2.132-.717-8.138-24.211-60.756-16.187-54.56 18.741-.124.545 19.188 18.869 1.578-1.604z" fill="#3a8d6e" fill-rule="nonzero"/><path d="M851.501 81.801l.146-.292L824.35 29.02l-27.087 2.861.236 2.238 25.562-2.7 25.291 48.631-32.482 5.472.374 2.219 35.257-5.94zm50.888 7.591l1.988-17.857-2.236-.249-1.988 17.857 2.236.249z" fill="#3a8d6e" fill-rule="nonzero"/><path d="M1030.1 82.234c4.402 2.379 9.907.736 12.286-3.666 2.379-4.402.737-9.908-3.665-12.287-4.403-2.379-9.908-.736-12.287 3.666-2.379 4.402-.737 9.908 3.666 12.287zM798.002 28.869a3.739 3.739 0 1 0-1.207 7.379 3.739 3.739 0 0 0 1.207-7.379zm16.44 53.874a3.768 3.768 0 1 0-1.217 7.435 3.768 3.768 0 0 0 1.217-7.435zm-66.563 36.92a6.323 6.323 0 0 0-7.26 5.216 6.325 6.325 0 0 0 5.216 7.26 6.325 6.325 0 0 0 7.26-5.216 6.324 6.324 0 0 0-5.216-7.26zm40.825-40.63c-5.264-.862-10.239 2.712-11.101 7.976-.863 5.265 2.711 10.239 7.976 11.102 5.264.862 10.239-2.712 11.101-7.976.863-5.265-2.711-10.239-7.976-11.102z" fill="#3a8d6e"/><path d="M787.659 87.673l-1.322 2.381 27.124-2.491-.206-2.24-25.596 2.35z" fill="#3a8d6e" fill-rule="nonzero"/><path d="M746.542 125.074l1.529 1.65 41.295-38.246-1.529-1.65-41.295 38.246zM97.303 21.14a12.546 12.546 0 0 0-8.82 2.624 12.69 12.69 0 0 0-2.846 3.118 12.543 12.543 0 0 0-1.475 3.218 12.692 12.692 0 0 0-.508 4.11c.053 1.292.307 2.574.752 3.788a12.644 12.644 0 0 0 5.949 6.818 12.596 12.596 0 0 0 4.642 1.392c1.619.16 3.265.005 4.825-.46a12.635 12.635 0 0 0 7.165-5.525 12.53 12.53 0 0 0 1.477-3.568c.326-1.348.43-2.751.303-4.132a12.482 12.482 0 0 0-.819-3.443 12.637 12.637 0 0 0-5.307-6.233 12.483 12.483 0 0 0-5.014-1.675l-.324-.032zm50.87 16.954a12.475 12.475 0 0 0-5.245.665 12.64 12.64 0 0 0-6.421 5.077 12.51 12.51 0 0 0-1.475 3.218 12.671 12.671 0 0 0-.509 4.111 12.544 12.544 0 0 0 3.044 7.686 12.638 12.638 0 0 0 3.658 2.919 12.597 12.597 0 0 0 9.466.933 12.633 12.633 0 0 0 7.166-5.526 12.518 12.518 0 0 0 1.477-3.568c.326-1.348.429-2.75.303-4.131a12.533 12.533 0 0 0-.819-3.444 12.651 12.651 0 0 0-5.307-6.233 12.557 12.557 0 0 0-3.284-1.36 13.352 13.352 0 0 0-1.73-.315l-.324-.032z" fill="#3a8d6e" fill-rule="nonzero"/><path d="M110.743 123.593a7.437 7.437 0 0 0 3.88-9.77 7.435 7.435 0 0 0-9.769-3.88 7.436 7.436 0 0 0-3.881 9.769 7.437 7.437 0 0 0 9.77 3.881zm57.29-16.825c4.63-2.023 6.745-7.424 4.722-12.053-2.023-4.629-7.424-6.745-12.053-4.722-4.63 2.023-6.746 7.424-4.722 12.053 2.023 4.63 7.424 6.746 12.053 4.722zm-88.55-95.933c-2.098-.407-4.135.985-4.547 3.107-.411 2.122.958 4.174 3.056 4.581 2.098.407 4.135-.985 4.547-3.107.411-2.121-.958-4.174-3.056-4.581zm105.47 106.647a3.875 3.875 0 0 0 1.998-5.099 3.874 3.874 0 0 0-5.099-1.997 3.874 3.874 0 0 0-1.998 5.098 3.874 3.874 0 0 0 5.099 1.998zm-65.82 23.218a3.437 3.437 0 0 0-2.752-6.298 3.437 3.437 0 0 0 2.752 6.298z" fill="#3a8d6e"/><path d="M177.363 52.292a3.413 3.413 0 0 0-2.342.667 3.457 3.457 0 0 0-1.207 1.657 3.461 3.461 0 0 0-.05 2.04 3.45 3.45 0 0 0 1.521 1.996 3.46 3.46 0 0 0 1.36.474 3.434 3.434 0 0 0 2.408-.604 3.402 3.402 0 0 0 1.273-1.706 3.444 3.444 0 0 0-.498-3.149 3.442 3.442 0 0 0-2.245-1.349 5.491 5.491 0 0 0-.22-.026z" fill="#3a8d6e" fill-rule="nonzero"/><path d="M37.873 84.449a6.324 6.324 0 0 0 3.26-8.323 6.323 6.323 0 0 0-8.323-3.261 6.324 6.324 0 0 0-3.261 8.323 6.325 6.325 0 0 0 8.324 3.261z" fill="#3a8d6e"/><path d="M15.743 39.74a6.962 6.962 0 0 0-2.937.372 7.113 7.113 0 0 0-3.595 2.842 7.035 7.035 0 0 0-1.11 4.103c.029.723.172 1.441.421 2.121a7.085 7.085 0 0 0 3.331 3.817 7.054 7.054 0 0 0 10.138-4.569 7.036 7.036 0 0 0-.289-4.241 7.112 7.112 0 0 0-2.971-3.49 7.026 7.026 0 0 0-2.807-.938l-.181-.017z" fill="#3a8d6e" fill-rule="nonzero"/><path d="M188.313 83.766a7.05 7.05 0 0 0 3.635-9.279 7.05 7.05 0 0 0-9.279-3.635 7.05 7.05 0 0 0-3.636 9.279 7.05 7.05 0 0 0 9.28 3.635zm-87.18-12.605a5.3 5.3 0 0 0 2.733-6.978 5.301 5.301 0 0 0-6.977-2.734 5.302 5.302 0 0 0-2.734 6.978 5.302 5.302 0 0 0 6.978 2.734z" fill="#3a8d6e"/><path d="M43.053 43.393a9.128 9.128 0 0 0-6.42 1.91 9.21 9.21 0 0 0-2.071 2.269 9.119 9.119 0 0 0-1.074 2.342 9.23 9.23 0 0 0-.37 2.992c.038.94.224 1.874.547 2.757a9.214 9.214 0 0 0 4.331 4.962 9.162 9.162 0 0 0 6.89.679 9.21 9.21 0 0 0 5.215-4.022 9.092 9.092 0 0 0 1.075-2.597 9.128 9.128 0 0 0-1.964-8.143 9.145 9.145 0 0 0-5.924-3.126l-.235-.023zm142.74 34.354l38.56-22.162-1.121-1.951C191.25 72.015 190.544 68.96 164.7 95.281l-15.788-38.196-1.455 1.717L164.09 99.85l21.703-22.103z" fill="#3a8d6e" fill-rule="nonzero"/><path d="M105.163 115.712l1.32 1.947 58.252-18.042 18.832 15.409 1.424-1.741-19.767-16.175-60.061 18.602zm-62.24-59.887c-1.115-.32-2.215-.468-2.215-.468l-5.97 18.813 2.144.683c2.29-7.186 4.203-13.22 6.041-19.028zm-5.53-3.262c.182-1.147.194-2.256.194-2.256l-19.402-3.624-.416 2.211c7.412 1.394 13.635 2.554 19.624 3.669z" fill="#3a8d6e" fill-rule="nonzero"/><path fill="#3a8d6e" d="M-15.474 45.641h25.557v2.213h-25.557zm1230.004 0h25.557v2.213h-25.557z"/><path d="M99.773 61.152l-2.112-29.029-.232-.149-54.291 20.005-1.732 2.96.08.046 54.131-19.946 1.912 26.276 2.244-.163zm-84.72-18.034l3.42-.257L53.13 9.695l25.621 5.98.511-2.192-26.807-6.256-37.408 35.799.006.092z" fill="#3a8d6e" fill-rule="nonzero"/><path d="M94.943 34.863c40.087 12.688 39.753 14.205 81.129 21.687l.4-2.214-29.273-5.294-51.577-16.325-.679 2.146zm24.17 102.713l-7.813-16.18-2.026.979 7.813 16.179 2.026-.978z" fill="#3a8d6e" fill-rule="nonzero"/><path d="M223.223 61.533a5.496 5.496 0 0 0 5.123-5.84 5.496 5.496 0 0 0-5.84-5.123 5.496 5.496 0 0 0-5.123 5.84 5.496 5.496 0 0 0 5.84 5.123zm-168.75-46.5a5.496 5.496 0 0 0 5.123-5.84 5.496 5.496 0 0 0-5.84-5.123 5.496 5.496 0 0 0-5.123 5.84 5.496 5.496 0 0 0 5.84 5.123zm316.182 68.208c-7.645-.639-14.371 5.049-15.01 12.694-.64 7.645 5.048 14.371 12.693 15.011 7.646.639 14.372-5.049 15.011-12.694.639-7.645-5.048-14.371-12.694-15.011zm-51.232 21.876c-7.703-.644-14.48 5.087-15.124 12.791-.645 7.703 5.087 14.48 12.79 15.124 7.703.645 14.48-5.087 15.125-12.79.644-7.703-5.087-14.48-12.791-15.125zm-60.641-7.786c-5.035-.421-9.464 3.325-9.885 8.359-.421 5.035 3.324 9.464 8.359 9.885 5.034.421 9.464-3.324 9.885-8.359.421-5.035-3.325-9.464-8.359-9.885zm-9.786-17.466a3.874 3.874 0 0 0-4.182 3.536 3.874 3.874 0 0 0 3.536 4.181 3.874 3.874 0 0 0 4.182-3.536 3.875 3.875 0 0 0-3.536-4.181zm69.711 7.871a3.438 3.438 0 0 0-3.711 3.138 3.438 3.438 0 0 0 3.138 3.711 3.438 3.438 0 0 0 3.711-3.138 3.438 3.438 0 0 0-3.138-3.711zm31.543-12.105a3.438 3.438 0 0 0-3.711 3.138 3.438 3.438 0 0 0 3.138 3.711 3.438 3.438 0 0 0 3.711-3.138 3.438 3.438 0 0 0-3.138-3.711zm55.241 8.756a3.74 3.74 0 0 0-.624 7.451 3.74 3.74 0 0 0 4.038-3.414 3.74 3.74 0 0 0-3.414-4.037zm20.637 52.41a3.77 3.77 0 0 0-4.069 3.44 3.77 3.77 0 0 0 3.441 4.069 3.77 3.77 0 0 0 4.069-3.44 3.77 3.77 0 0 0-3.441-4.069zm-196.123-28.871a7.05 7.05 0 0 0-7.61 6.435 7.05 7.05 0 0 0 6.435 7.61 7.05 7.05 0 0 0 7.61-6.435 7.05 7.05 0 0 0-6.435-7.61zm39.561 19.378a5.78 5.78 0 0 0-6.24 5.276 5.782 5.782 0 0 0 5.277 6.24 5.78 5.78 0 0 0 6.24-5.276 5.781 5.781 0 0 0-5.277-6.24z" fill="#3a8d6e"/><path d="M229.366 114.423l-44.461 1.164.059 2.249c36.876-.966 37.417 1.095 72.668-9.774l9.673 24.774 2.096-.819-10.434-26.721-29.601 9.127z" fill="#3a8d6e" fill-rule="nonzero"/><path d="M349.812 80.671l18.025 15.548-49.722 20.798-59.825-11.822-9.241-22.51-2.081.855 9.699 23.628 61.684 12.189 53.221-22.261.088-.551-20.378-17.578-1.47 1.704z" fill="#3a8d6e" fill-rule="nonzero"/><path d="M368.151 95.405l-.126.301 3.383 1.241 32.055-7.58-.518-2.19-34.794 8.228zm-51.275-4.255l-.819 17.949 2.248.102.819-17.948-2.248-.103z" fill="#3a8d6e" fill-rule="nonzero"/><path d="M189.913 106.624c-4.548-2.086-9.935-.088-12.022 4.46-2.086 4.548-.088 9.935 4.46 12.021 4.548 2.087 9.935.089 12.021-4.459 2.087-4.548.089-9.935-4.459-12.022zm269.892 39.731c7.636.744 14.439-4.851 15.183-12.487.744-7.636-4.852-14.439-12.487-15.183-7.636-.744-14.439 4.852-15.183 12.488-.744 7.635 4.852 14.439 12.487 15.182zm51.526-21.173c7.694.749 14.549-4.889 15.298-12.583.75-7.694-4.888-14.548-12.582-15.298-7.694-.749-14.548 4.889-15.298 12.582-.749 7.694 4.889 14.549 12.582 15.299zm60.53 8.614c5.028.49 9.509-3.195 9.998-8.223.49-5.029-3.195-9.509-8.223-9.999-5.028-.489-9.508 3.195-9.998 8.224-.49 5.028 3.195 9.508 8.223 9.998zm9.546 17.598a3.874 3.874 0 0 0 4.23-3.478 3.875 3.875 0 0 0-3.479-4.23 3.873 3.873 0 0 0-.751 7.708zm-69.597-8.823a3.438 3.438 0 0 0 3.754-3.087 3.438 3.438 0 0 0-6.841-.666 3.438 3.438 0 0 0 3.087 3.753zm-31.705 11.673a3.439 3.439 0 0 0 3.753-3.087 3.438 3.438 0 0 0-3.087-3.754 3.438 3.438 0 0 0-3.753 3.087 3.438 3.438 0 0 0 3.087 3.754zm-55.116-9.51a3.74 3.74 0 0 0 4.083-3.359 3.74 3.74 0 0 0-3.358-4.083 3.74 3.74 0 0 0-4.084 3.358 3.74 3.74 0 0 0 3.359 4.084zM405.07 92.047a3.77 3.77 0 0 0 4.115-3.385 3.769 3.769 0 0 0-3.385-4.115 3.769 3.769 0 0 0-4.115 3.385 3.77 3.77 0 0 0 3.385 4.115zm64.012-41.184a6.324 6.324 0 0 0 6.905-5.678 6.325 6.325 0 0 0-5.679-6.904 6.323 6.323 0 0 0-6.904 5.678 6.323 6.323 0 0 0 5.678 6.904zm131.698 72.732a7.05 7.05 0 0 0 7.697-6.33 7.05 7.05 0 0 0-6.33-7.697 7.05 7.05 0 0 0-7.697 6.33 7.05 7.05 0 0 0 6.33 7.697zm-39.293-19.916a5.781 5.781 0 0 0 6.312-5.191 5.783 5.783 0 0 0-5.191-6.312 5.783 5.783 0 0 0-6.312 5.191 5.783 5.783 0 0 0 5.191 6.312zM430.995 94.07c5.309.517 10.04-3.374 10.557-8.684.517-5.309-3.373-10.04-8.683-10.557-5.31-.517-10.04 3.373-10.558 8.683-.517 5.31 3.374 10.04 8.684 10.558z" fill="#3a8d6e"/><path d="M601.507 117.108l44.473-.557-.028-2.25c-36.885.462-37.399-1.605-72.795 8.781l-9.333-24.904-2.107.79 10.067 26.861 29.723-8.721z" fill="#3a8d6e" fill-rule="nonzero"/><path d="M480.611 149.21L462.8 133.418l50.002-20.117 59.658 12.639 8.933 22.633 2.093-.826-9.377-23.758-61.511-13.031-53.52 21.532-.095.55 20.136 17.854 1.492-1.684z" fill="#3a8d6e" fill-rule="nonzero"/><path d="M462.475 134.228l.131-.3-29.969-51.01-26.903 4.255.351 2.222 25.389-4.015 27.766 47.261-32.156 7.141.488 2.197 34.903-7.751z" fill="#3a8d6e" fill-rule="nonzero"/><path d="M470.063 45.377l-1.633-1.548-38.712 40.859 1.634 1.547 38.711-40.858zm43.625 93.805l1.064-17.935-2.246-.134-1.064 17.936 2.246.133z" fill="#3a8d6e" fill-rule="nonzero"/><path d="M640.854 125.444c4.519 2.149 9.932.225 12.081-4.294 2.148-4.519.224-9.933-4.295-12.082-4.519-2.148-9.933-.224-12.081 4.295-2.149 4.519-.225 9.933 4.295 12.081zm147.891 3.912c-5.563-2.012-11.713.871-13.725 6.435-2.012 5.563.871 11.713 6.434 13.725 5.564 2.012 11.714-.871 13.726-6.434 2.012-5.564-.871-11.714-6.435-13.726zm-42.537 5.994c-5.606-2.027-11.803.878-13.83 6.483-2.027 5.606.878 11.803 6.484 13.83 5.605 2.028 11.802-.877 13.83-6.483 2.027-5.606-.878-11.803-6.484-13.83zm-43.584-17.98a7.061 7.061 0 0 0-9.038 4.237 7.063 7.063 0 0 0 4.237 9.039 7.062 7.062 0 0 0 9.039-4.238 7.062 7.062 0 0 0-4.238-9.038zm46.543 4.895a2.653 2.653 0 0 0-3.394 1.591 2.65 2.65 0 1 0 3.394-1.591zm26.312-4.937a4.009 4.009 0 0 0-5.13 2.405 4.007 4.007 0 1 0 5.13-2.405zm-96.408 2.148a5.437 5.437 0 0 0-6.958 3.262 5.437 5.437 0 0 0 3.262 6.958 5.437 5.437 0 0 0 6.959-3.262 5.436 5.436 0 0 0-3.263-6.958zm25.561 22.375a4.457 4.457 0 0 0-5.706 2.675 4.457 4.457 0 0 0 2.675 5.705 4.458 4.458 0 0 0 5.706-2.674 4.459 4.459 0 0 0-2.675-5.706z" fill="#3a8d6e"/><path d="M677.291 124.184l-33.335-8.065-.408 1.686c27.648 6.69 27.637 8.333 56.065 7.323l2.224 20.387 1.725-.188-2.399-21.99-23.872.847z" fill="#3a8d6e" fill-rule="nonzero"/><path d="M773.744 123.255l10.296 15.197-41.197 5.494-42.165-20.821-1.604 1.143 43.475 21.468 44.095-5.881.176-.393-11.64-17.18-1.436.973z" fill="#3a8d6e" fill-rule="nonzero"/><path d="M747.118 124.439l-4.216 13.199 1.653.528 4.215-13.199-1.652-.528z" fill="#3a8d6e" fill-rule="nonzero"/></svg>