<svg viewBox="0 0 1225 164" xmlns="http://www.w3.org/2000/svg" fill-rule="evenodd" clip-rule="evenodd" stroke-linejoin="round" stroke-miterlimit="1.414"><path d="M1255.72 154.398h-12.19V48.907l-2.985.119v-1.203h-23.412a6.12 6.12 0 0 0-8.085-4.586 6.12 6.12 0 0 0-2.106 10.217l-3.917 7.561a9.614 9.614 0 0 0-6.357.072 9.615 9.615 0 0 0-4.214 2.992l-27.161-18.435a13.864 13.864 0 0 0 .702-11.056 13.91 13.91 0 0 0-1.932-3.594l15.175-11.834a3.738 3.738 0 0 0 5.887-4.162 3.74 3.74 0 1 0-7.119 2.269l-15.435 12.038c-3.696-3.556-9.228-4.925-14.373-3.066l-.084.031a13.856 13.856 0 0 0-7.919 7.458l-9.113-2.636a3.438 3.438 0 0 0-4.604-3.261 3.437 3.437 0 1 0 3.846 5.385l9.134 2.642a13.826 13.826 0 0 0 .39 8.178 13.833 13.833 0 0 0 2.638 4.462l-19.016 20.64c-3.598-2.481-8.302-3.248-12.722-1.651-.294.106-.582.221-.864.345l-3.951-9.76a3.439 3.439 0 0 0 1.315-4.02 3.439 3.439 0 0 0-4.4-2.065 3.44 3.44 0 0 0-2.064 4.4 3.439 3.439 0 0 0 2.954 2.258l4.152 10.258a14.04 14.04 0 0 0-6.331 13.05l-37.546 8.992c-1.809-4.586-6.959-6.932-11.625-5.246a9.112 9.112 0 0 0-3.063 1.848l-6.762-6.313a8.85 8.85 0 0 0 .281-.484c2.379-4.403.737-9.908-3.666-12.287-4.402-2.379-9.907-.737-12.286 3.666-.176.325-.33.657-.462.992-12.625-.606-20.186-1.135-27.811-.782a7.056 7.056 0 0 0-5.903-5.777 7.05 7.05 0 0 0-8.08 7.378c-3.888.671-8.29 1.573-13.575 2.765a9.152 9.152 0 0 0-10.334-5.529l-4.275-13.485a5.764 5.764 0 0 0 2.534-3.966 5.78 5.78 0 0 0-5.701-6.635h-.037a5.779 5.779 0 0 0-.87 11.487l.037.006a5.74 5.74 0 0 0 1.947-.039l4.234 13.357a9.17 9.17 0 0 0-4.568 4.967l-37.137-9.894c.103-.419.187-.846.252-1.28 1.146-7.645-4.131-14.782-11.776-15.927-7.645-1.146-14.781 4.131-15.927 11.776a13.93 13.93 0 0 0 .511 6.344l-26.361 9.055c-1.799-4.377-5.788-7.728-10.804-8.48a13.833 13.833 0 0 0-7.989 1.176l-15.132-29.096a9.64 9.64 0 0 0 3.919-6.415c.79-5.276-2.852-10.201-8.127-10.992-5.276-.79-10.201 2.851-10.992 8.127a9.8 9.8 0 0 0-.099 1.043l-12.927 1.365a3.74 3.74 0 0 0-2.979-2.619l-.024-.004a3.736 3.736 0 0 0-3.161.988 3.77 3.77 0 1 0 4.923 5.618 3.727 3.727 0 0 0 1.2-1.715l13.138-1.388c.765 3.899 3.904 7.082 8.056 7.704a9.61 9.61 0 0 0 5.105-.619l15.148 29.128a13.862 13.862 0 0 0-5.866 9.387 13.861 13.861 0 0 0-.009 4.077l-18.978 3.197a3.752 3.752 0 0 0-.94-1.344 3.77 3.77 0 0 0-6.431 1.709l-13.509 1.24c-.71-3.909-3.806-7.135-7.95-7.814-5.264-.862-10.239 2.712-11.101 7.976a9.642 9.642 0 0 0 1.924 7.514 691833.75 691833.75 0 0 1-28.629 26.516 6.324 6.324 0 0 0-10.279 3.839 6.328 6.328 0 0 0 4.128 6.982l-.932 2.92a10.826 10.826 0 0 0-10.188 4.615l-26.697-13.183a7.063 7.063 0 0 0-4.306-8.843 7.062 7.062 0 0 0-9.45 6.251l-10.548.375a5.44 5.44 0 0 0-3.555-4.519 5.436 5.436 0 0 0-7.019 3.44l-18.321-4.432c.52-3.807-1.437-7.678-5.091-9.416-4.519-2.148-9.933-.224-12.081 4.295a9.129 9.129 0 0 0-.41 1.015c-12.637.046-20.214-.092-27.81.654a7.052 7.052 0 0 0-6.192-5.465 7.05 7.05 0 0 0-7.689 7.785c-3.848.87-8.198 1.998-13.415 3.461a9.152 9.152 0 0 0-10.605-4.987l-4.964-13.246a5.765 5.765 0 0 0 2.325-4.093 5.781 5.781 0 0 0-5.191-6.311 5.783 5.783 0 0 0-6.312 5.191 5.781 5.781 0 0 0 7.134 6.172l4.917 13.12a9.173 9.173 0 0 0-4.306 5.197l-37.598-7.965c.081-.423.143-.854.186-1.292.75-7.694-4.888-14.549-12.582-15.298-7.694-.749-14.548 4.888-15.298 12.582a13.94 13.94 0 0 0 .837 6.31l-25.858 10.403c-2.022-4.279-6.179-7.419-11.227-7.911a13.827 13.827 0 0 0-7.918 1.587l-16.613-28.277a9.64 9.64 0 0 0 3.582-6.609 9.642 9.642 0 0 0-2.41-7.372l26.838-28.328a6.324 6.324 0 0 0 10.007-4.501 6.326 6.326 0 0 0-5.679-6.905 6.325 6.325 0 0 0-6.904 5.679 6.292 6.292 0 0 0 1.02 4.099L437.916 78.7a9.624 9.624 0 0 0-4.589-1.689c-5.31-.518-10.04 3.373-10.558 8.683a9.975 9.975 0 0 0-.046 1.046l-13.619 2.154a3.739 3.739 0 0 0-7.158.81L382.9 94.207c-1.876-4.774-6.333-8.327-11.787-8.784a13.863 13.863 0 0 0-10.396 3.469l-7.183-6.196a3.438 3.438 0 0 0-2.826-4.883 3.438 3.438 0 0 0-3.711 3.138 3.438 3.438 0 0 0 4.963 3.359l7.199 6.211a13.825 13.825 0 0 0-3.056 7.596c-.15 1.792.048 3.534.537 5.159l-25.885 10.828c-2.237-3.755-6.191-6.414-10.874-6.805a13.856 13.856 0 0 0-.929-.047l.479-10.517a3.438 3.438 0 0 0-.266-6.817 3.438 3.438 0 0 0-1.968 6.422l-.505 11.054a14.042 14.042 0 0 0-11.195 9.221l-37.879-7.486c.268-4.923-3.434-9.203-8.378-9.616a9.11 9.11 0 0 0-3.555.403l-4.424-10.777a3.868 3.868 0 0 0 1.729-2.911 3.874 3.874 0 0 0-3.536-4.181 3.874 3.874 0 0 0-4.182 3.536 3.875 3.875 0 0 0 3.819 4.194l4.551 11.086a9.144 9.144 0 0 0-4.287 7.009 9.146 9.146 0 0 0 .165 2.66l-13.081 4.032a7.05 7.05 0 0 0-5.976-4.456 7.05 7.05 0 0 0-7.626 6.679l-27.194.713a9.074 9.074 0 0 0-5.275-8.694c-3.669-1.684-7.884-.708-10.472 2.12l-7.119-5.825a9.143 9.143 0 0 0 .44-8.204 9.135 9.135 0 0 0-1.41-2.262l9.015-9.18.575-.586a7.053 7.053 0 0 0 7.378 1.079 7.05 7.05 0 0 0 3.533-9.502l26.43-15.191a5.492 5.492 0 0 0 10.069-3.38 5.496 5.496 0 0 0-5.84-5.123 5.496 5.496 0 0 0-5.066 6.351c-13.068 7.34-20.197 10.777-27.001 15.367a7.054 7.054 0 0 0-7.769-1.437 7.052 7.052 0 0 0-3.211 10.102c-2.947 2.633-6.244 5.782-10.179 9.704a9.157 9.157 0 0 0-6.99-1.192l-11.126-26.916a12.663 12.663 0 0 0 6.687-5.372 12.53 12.53 0 0 0 1.524-3.77c4.15.826 8.84 1.713 14.281 2.705a3.445 3.445 0 0 0 4.272 2.932 3.458 3.458 0 0 0 1.988-1.402 3.444 3.444 0 0 0-.089-3.976 3.457 3.457 0 0 0-1.821-1.257 3.855 3.855 0 0 0-.644-.117 3.436 3.436 0 0 0-3.22 1.623l-14.477-2.618a12.525 12.525 0 0 0-.853-5.263 12.637 12.637 0 0 0-5.307-6.233 12.523 12.523 0 0 0-5.014-1.675l-.324-.032a12.475 12.475 0 0 0-5.245.665 12.636 12.636 0 0 0-7.271 6.63l-27.219-8.616.029-.119c.326-1.348.43-2.75.303-4.131a12.482 12.482 0 0 0-.819-3.443 12.637 12.637 0 0 0-5.307-6.233 12.483 12.483 0 0 0-5.014-1.675l-.324-.032a12.546 12.546 0 0 0-8.82 2.624 12.672 12.672 0 0 0-2.846 3.118 12.503 12.503 0 0 0-1.475 3.217 12.701 12.701 0 0 0-.508 4.111c.037.908.174 1.812.406 2.69L51.256 51.337a9.2 9.2 0 0 0-3.856-4.52 9.111 9.111 0 0 0-3.65-1.219c-.118-.013-.117-.013-.235-.023a9.092 9.092 0 0 0-3.818.483 9.221 9.221 0 0 0-4.673 3.696 9.098 9.098 0 0 0-.962 1.991l-11.446-2.138a7.019 7.019 0 0 0-.456-3.24 7.093 7.093 0 0 0-1.84-2.654l29.909-28.622a5.487 5.487 0 0 0 4.705 2.124 5.497 5.497 0 0 0 4.897-3.881l15.495 3.616c.032 1.804 1.305 3.401 3.128 3.755 2.098.407 4.135-.985 4.547-3.107.411-2.121-.958-4.174-3.056-4.581-1.612-.313-3.188.437-4.018 1.763l-15.899-3.711a5.496 5.496 0 0 0-5.811-4.817 5.496 5.496 0 0 0-5 6.692L18.373 42.463a6.948 6.948 0 0 0-1.991-.524l-.181-.018a6.996 6.996 0 0 0-2.937.372 7.12 7.12 0 0 0-3.595 2.843 7.035 7.035 0 0 0-1.026 2.687h-23.655v2.213h4.982v104.362h-39.079V-52.793h1304.83v207.191h-.001z" fill="#f2f2f2"/></svg>