<svg viewBox="0 0 1225 164" xmlns="http://www.w3.org/2000/svg" fill-rule="evenodd" clip-rule="evenodd" stroke-linejoin="round" stroke-miterlimit="1.414"><path d="M-34.107 7.207h12.19v105.491l2.985-.12v1.204H4.48a6.12 6.12 0 0 0 8.085 4.586 6.12 6.12 0 0 0 2.106-10.217l3.917-7.561a9.627 9.627 0 0 0 6.357-.072 9.615 9.615 0 0 0 4.214-2.992L56.32 115.96a13.866 13.866 0 0 0-.702 11.057 13.92 13.92 0 0 0 1.932 3.593l-15.175 11.835a3.738 3.738 0 0 0-5.887 4.162 3.743 3.743 0 0 0 4.787 2.245 3.74 3.74 0 0 0 2.332-4.514L59.042 132.3c3.696 3.555 9.228 4.925 14.373 3.066l.084-.031a13.865 13.865 0 0 0 7.92-7.459l9.112 2.636a3.438 3.438 0 0 0 4.604 3.262 3.437 3.437 0 1 0-3.846-5.385l-9.134-2.642c.674-2.614.596-5.45-.39-8.178a13.837 13.837 0 0 0-2.638-4.463l19.016-20.64c3.598 2.482 8.302 3.249 12.722 1.652.294-.107.582-.222.865-.345l3.95 9.759a3.439 3.439 0 0 0 3.085 6.086 3.437 3.437 0 1 0-.889-6.658l-4.153-10.259a14.038 14.038 0 0 0 6.331-13.05l37.546-8.992c1.809 4.587 6.959 6.933 11.625 5.247a9.12 9.12 0 0 0 3.063-1.849l6.762 6.313a8.879 8.879 0 0 0-.281.485c-2.379 4.403-.737 9.908 3.666 12.287 4.402 2.379 9.907.737 12.286-3.666.176-.326.33-.657.462-.993 12.625.606 20.186 1.135 27.811.782a7.056 7.056 0 0 0 5.903 5.778 7.05 7.05 0 0 0 8.08-7.378c3.888-.671 8.29-1.574 13.575-2.765a9.154 9.154 0 0 0 10.335 5.528l4.274 13.485a5.766 5.766 0 0 0-2.534 3.967 5.78 5.78 0 0 0 5.701 6.635h.037a5.783 5.783 0 0 0 5.691-4.923 5.78 5.78 0 0 0-4.821-6.565l-.037-.005a5.767 5.767 0 0 0-1.947.038l-4.234-13.356a9.175 9.175 0 0 0 4.568-4.968l37.137 9.895c-.102.418-.187.845-.252 1.28-1.146 7.645 4.131 14.782 11.776 15.927 7.645 1.146 14.781-4.131 15.927-11.776.33-2.201.127-4.359-.511-6.344l26.361-9.056c1.799 4.378 5.788 7.729 10.804 8.481a13.833 13.833 0 0 0 7.989-1.177l15.132 29.097a9.635 9.635 0 0 0-3.919 6.415c-.79 5.276 2.852 10.201 8.127 10.992 5.276.79 10.201-2.851 10.992-8.127.052-.35.085-.698.1-1.043l12.926-1.366a3.742 3.742 0 0 0 2.979 2.62l.024.003a3.732 3.732 0 0 0 3.161-.988 3.758 3.758 0 0 0 1.637-2.576 3.77 3.77 0 0 0-6.56-3.042 3.73 3.73 0 0 0-1.2 1.716l-13.138 1.388c-.765-3.899-3.904-7.082-8.056-7.704a9.61 9.61 0 0 0-5.105.618l-15.148-29.127a13.864 13.864 0 0 0 5.866-9.387c.208-1.387.203-2.757.009-4.077l18.978-3.197c.21.512.533.971.94 1.343a3.755 3.755 0 0 0 2.152 1.156 3.77 3.77 0 0 0 4.279-2.864l13.509-1.241c.71 3.91 3.807 7.135 7.95 7.815 5.264.862 10.239-2.712 11.101-7.976a9.644 9.644 0 0 0-1.924-7.515l28.629-26.515a6.324 6.324 0 0 0 10.279-3.839 6.326 6.326 0 0 0-4.128-6.982l.932-2.921a10.824 10.824 0 0 0 10.188-4.615l26.697 13.183a7.064 7.064 0 0 0 4.306 8.844 7.062 7.062 0 0 0 9.45-6.252l10.548-.374a5.44 5.44 0 0 0 3.555 4.519 5.436 5.436 0 0 0 7.019-3.441l18.321 4.432c-.52 3.808 1.437 7.679 5.091 9.417 4.519 2.148 9.933.224 12.081-4.295.159-.334.295-.673.41-1.015 12.637-.047 20.214.091 27.81-.654a7.055 7.055 0 0 0 6.192 5.465 7.05 7.05 0 0 0 7.689-7.785c3.848-.871 8.198-1.999 13.415-3.461a9.157 9.157 0 0 0 10.605 4.987l4.964 13.246a5.763 5.763 0 0 0-2.325 4.093 5.781 5.781 0 0 0 5.191 6.311 5.783 5.783 0 0 0 6.312-5.191 5.781 5.781 0 0 0-7.134-6.172l-4.917-13.121a9.17 9.17 0 0 0 4.306-5.197l37.598 7.965c-.081.424-.143.855-.186 1.293-.75 7.694 4.888 14.549 12.582 15.298 7.694.749 14.548-4.888 15.298-12.582a13.94 13.94 0 0 0-.837-6.31l25.858-10.404c2.022 4.279 6.179 7.42 11.227 7.912a13.827 13.827 0 0 0 7.918-1.587l16.613 28.277a9.638 9.638 0 0 0-3.582 6.609 9.642 9.642 0 0 0 2.411 7.372l-26.839 28.327a6.324 6.324 0 0 0-10.007 4.502 6.326 6.326 0 0 0 5.679 6.905 6.325 6.325 0 0 0 6.904-5.679 6.296 6.296 0 0 0-1.019-4.099l26.965-28.461a9.625 9.625 0 0 0 4.589 1.69c5.31.518 10.04-3.373 10.558-8.683.034-.352.049-.701.046-1.047l13.619-2.154a3.74 3.74 0 0 0 7.158-.809l19.046-4.504c1.876 4.775 6.333 8.328 11.787 8.785a13.863 13.863 0 0 0 10.396-3.47l7.183 6.196a3.438 3.438 0 0 0 2.826 4.884 3.438 3.438 0 0 0 3.711-3.138 3.438 3.438 0 0 0-4.963-3.36l-7.199-6.21a13.831 13.831 0 0 0 3.056-7.596 13.86 13.86 0 0 0-.537-5.16l25.886-10.827c2.236 3.755 6.19 6.413 10.873 6.805.312.026.621.041.93.047l-.48 10.517a3.438 3.438 0 0 0 .266 6.817 3.438 3.438 0 0 0 1.968-6.422l.505-11.055a14.04 14.04 0 0 0 11.195-9.22l37.879 7.486c-.268 4.922 3.434 9.202 8.378 9.616a9.126 9.126 0 0 0 3.555-.403l4.424 10.777a3.866 3.866 0 0 0-1.729 2.911 3.874 3.874 0 0 0 3.536 4.181 3.874 3.874 0 0 0 4.182-3.536 3.875 3.875 0 0 0-3.819-4.195l-4.551-11.086a9.142 9.142 0 0 0 4.287-7.008 9.144 9.144 0 0 0-.165-2.66l13.081-4.033a7.053 7.053 0 0 0 5.976 4.457 7.05 7.05 0 0 0 7.626-6.68l27.194-.712a9.075 9.075 0 0 0 5.275 8.694c3.669 1.683 7.884.708 10.472-2.12l7.119 5.825a9.143 9.143 0 0 0-.44 8.204 9.147 9.147 0 0 0 1.41 2.261l-9.014 9.181-.576.586a7.048 7.048 0 0 0-10.911 8.423l-26.43 15.191a5.49 5.49 0 0 0-4.946-2.46 5.496 5.496 0 0 0-5.123 5.84 5.496 5.496 0 0 0 5.84 5.123 5.496 5.496 0 0 0 5.066-6.352c13.068-7.34 20.197-10.777 27.001-15.367a7.056 7.056 0 0 0 7.769 1.438 7.052 7.052 0 0 0 3.211-10.102c2.947-2.634 6.244-5.783 10.179-9.704a9.161 9.161 0 0 0 6.99 1.192l11.126 26.916a12.663 12.663 0 0 0-6.687 5.372 12.53 12.53 0 0 0-1.477 3.568l-.047.202c-4.15-.826-8.84-1.713-14.281-2.706a3.445 3.445 0 0 0-4.272-2.931 3.458 3.458 0 0 0-1.988 1.402 3.444 3.444 0 0 0 .089 3.976 3.457 3.457 0 0 0 1.821 1.257 3.855 3.855 0 0 0 .644.117 3.436 3.436 0 0 0 3.22-1.623l14.477 2.617a12.525 12.525 0 0 0 .853 5.264 12.637 12.637 0 0 0 5.307 6.233 12.523 12.523 0 0 0 5.338 1.707 12.475 12.475 0 0 0 5.245-.665 12.636 12.636 0 0 0 7.271-6.63l27.22 8.615-.03.12a12.677 12.677 0 0 0-.303 4.131c.108 1.179.384 2.342.819 3.443a12.637 12.637 0 0 0 5.307 6.233 12.483 12.483 0 0 0 5.338 1.707 12.546 12.546 0 0 0 8.82-2.624 12.672 12.672 0 0 0 2.846-3.118 12.503 12.503 0 0 0 1.475-3.217c.393-1.33.565-2.726.508-4.111a12.532 12.532 0 0 0-.406-2.69l33.262-12.256a9.191 9.191 0 0 0 6.246 5.511 9.59 9.59 0 0 0 1.26.229c.118.013.117.013.235.023a9.092 9.092 0 0 0 3.818-.483 9.221 9.221 0 0 0 4.673-3.696 9.075 9.075 0 0 0 .962-1.991l11.446 2.137a7.019 7.019 0 0 0 .456 3.241 7.124 7.124 0 0 0 1.84 2.654l-29.908 28.622a5.49 5.49 0 0 0-4.706-2.124 5.497 5.497 0 0 0-4.897 3.88l-15.495-3.616c-.032-1.804-1.305-3.401-3.128-3.754-2.098-.407-4.135.985-4.547 3.107-.411 2.121.958 4.174 3.056 4.581 1.612.312 3.188-.437 4.018-1.763l15.899 3.71a5.497 5.497 0 0 0 5.811 4.818 5.496 5.496 0 0 0 5-6.693l30.844-29.518a6.948 6.948 0 0 0 1.991.524l.181.018a6.996 6.996 0 0 0 2.937-.372 7.12 7.12 0 0 0 3.595-2.843 7.035 7.035 0 0 0 1.026-2.687h23.655v-2.213h-4.982V7.207h39.079v207.191H-34.108V7.207h.001z" fill="#f2f2f2"/></svg>