<svg viewBox="0 0 392 385" xmlns="http://www.w3.org/2000/svg" fill-rule="evenodd" clip-rule="evenodd" stroke-linejoin="round" stroke-miterlimit="1.414"><path d="M198.365 54.569l-21.424.748-1.642-45.41s-.188-7.084 8.064-8.173C191.615.646 197.913.572 199.46.519c1.547-.053-1.095 54.05-1.095 54.05m-.025 18.532l-28.813.987s-9.236-.38-9.527-8.897c-.292-8.517-.176-5.115-.176-5.115l37.816-2.36m-24.995-36.94l.988 23.996s-10.041 5.783-16.019 12.514c-15.578 2.194-19.489 2.055-30.892 6.768 3.792-11.544 22.106-38.237 45.923-43.278" fill="#f2f2f2"/><path d="M156.87 60.577s-4.41 17.932 17.892 17.169c22.303-.764 21.017-1.153 21.017-1.153l1.98 62.877s-12.574 1.935-12.17 13.759c.405 11.823 13.147 12.18 13.147 12.18l.129 2.76s-24.923.682-41.801-.032c-16.879-.713-26.719-1.432-40.532-14.904-13.813-13.471-8.8-36.021-8.858-39.161l-.059-3.141s.375-19.624 1.117-22.146c.741-2.522 4.106-10.693 10.038-15.872 5.932-5.18 18.696-12.513 38.1-12.336zm79.614-2.726s5.626 17.589-16.676 18.352c-22.302.764-21.047.288-21.047.288l2.326 62.865s12.677 1.071 13.082 12.894c.404 11.824-12.283 13.051-12.283 13.051l.06 2.763s24.911-1.025 41.701-2.891 26.559-3.256 39.418-17.641c12.859-14.385 6.315-36.539 6.159-39.676l-.157-3.137s-1.716-19.552-2.628-22.018c-.913-2.466-4.828-10.387-11.1-15.148-6.273-4.762-19.508-11.206-38.855-9.702z" fill="#f2f2f2"/><path d="M195.968 73.183l28.813-.987s9.188-1.01 8.896-9.527l-.175-5.115-37.888.231m-.939-3.09l21.425-.719-1.468-45.415s-.296-7.081-8.603-7.603c-8.307-.522-14.596-.164-16.143-.111-1.547.053 4.789 53.848 4.789 53.848m23.349-35.473l.656 24.007s10.413 5.084 16.837 11.39c15.691 1.123 19.584.718 31.282 4.639-4.572-11.257-24.669-36.635-48.775-40.036m-18.591 123.507c6.162-.211 11.318 4.087 11.507 9.593.188 5.505-4.662 10.146-10.824 10.356-6.162.211-11.317-4.087-11.506-9.592-.188-5.505 4.661-10.146 10.823-10.357z" fill="#f2f2f2"/><path d="M137.704 186.472l33.741 159.638 83.362 6.182 11.665-171.251-30.716-7.736-70.809 4.423-27.243 8.744z" fill="#2a3440"/><g fill="#f2f2f2"><path d="M235.836 173.331l24.522 16.676-32.3 127.372-25.168-91.322-17.852 93.031-42.131-123.6 22.821-17.93-80.022 19.163s-18.955 2.519-23.143 23.799c-4.188 21.281-19.007 115.183-19.007 115.183v36.396h326.485v-49.968l-29.222-115.824s-2.568-15.33-20.054-18.252c-17.485-2.923-84.929-14.724-84.929-14.724z"/><path d="M200.633 187.637l20.469 7.685-18.503 29.88-20.575-28.32 18.609-9.245z"/></g></svg>