<svg viewBox="0 0 79 142" xmlns="http://www.w3.org/2000/svg" fill-rule="evenodd" clip-rule="evenodd" stroke-linejoin="round" stroke-miterlimit="1.414"><g fill="#f2f2f2"><path d="M47.881 74.308c-1.309 33.988-3.785 67.157-8.462 67.177-9.593.04-12.358-5.525-12.963-12.005-.605-6.481-2.854-66.166-3.173-74.117-.318-7.951-.601-14.766-1.486-18.022-.885-3.257-7.503-8.29-7.503-8.29s-3.745 4.225-6.129 4.403c-2.385.178-6.415-2.871-7.601-4.018-1.185-1.148-.075-7.346 3.852-11.617 3.927-4.272 5.755-7.11 15.394-13.577 9.638-6.467 29.085-3.087 29.085-3.087s.449.996.448 1.352c-.006 1.596-.029 6.636-.109 13.909-2.739-.423-6.302-.671-10.194-.655-8.629.036-15.629 1.357-15.623 2.949.007 1.592 7.018 2.855 15.647 2.819 3.859-.016 7.392-.289 10.118-.729a2411.38 2411.38 0 0 1-.62 32.252 13.889 13.889 0 0 0-9.382-3.578c-7.691.032-13.91 6.294-13.878 13.976.032 7.682 6.303 13.893 13.994 13.861a13.887 13.887 0 0 0 8.585-3.003zm-9.365 11.018a2.884 2.884 0 0 1 .024 5.768 2.885 2.885 0 0 1-.024-5.768zm-.188-45.154a2.884 2.884 0 0 1 .024 5.768 2.883 2.883 0 0 1-.024-5.768z"/><path d="M30.255 52.754a2435.988 2435.988 0 0 1-.676-31.777c2.633.36 5.921.567 9.485.552 8.629-.036 15.629-1.357 15.622-2.949-.006-1.592-7.017-2.855-15.646-2.819-3.585.015-6.888.252-9.525.638C29.39 6.906 29.364.927 29.364.927S48.338-2.207 58.03 4.18c9.692 6.387 11.544 9.21 15.506 13.448 3.962 4.239 5.124 10.428 3.948 11.585-1.175 1.157-5.181 4.239-7.566 4.081-2.386-.158-6.166-4.352-6.166-4.352s-6.576 5.088-7.434 8.352c-.858 3.264-1.084 10.08-1.336 18.034-.253 7.953-2.005 67.656-2.556 74.141-.551 6.484-3.27 12.072-12.863 12.112-4.644.02-7.182-32.947-8.564-66.966a13.878 13.878 0 0 0 8.297 2.696c7.691-.032 13.909-6.295 13.878-13.977-.032-7.682-6.303-13.892-13.994-13.86a13.887 13.887 0 0 0-8.925 3.28zm8.261 32.572a2.884 2.884 0 0 1 .024 5.768 2.885 2.885 0 0 1-.024-5.768zm-.188-45.154a2.884 2.884 0 0 1 .024 5.768 2.883 2.883 0 0 1-.024-5.768z"/></g></svg>