<?xml version="1.0" encoding="UTF-8" standalone="no"?><!DOCTYPE svg PUBLIC "-//W3C//DTD SVG 1.1//EN" "http://www.w3.org/Graphics/SVG/1.1/DTD/svg11.dtd"><svg width="100%" height="100%" viewBox="0 0 1225 164" version="1.1" xmlns="http://www.w3.org/2000/svg" xmlns:xlink="http://www.w3.org/1999/xlink" xml:space="preserve" style="fill-rule:evenodd;clip-rule:evenodd;stroke-linejoin:round;stroke-miterlimit:1.41421;"><path d="M1255.72,154.398l-12.19,0l0,-105.491l-2.985,0.119l0,-1.203l-23.412,0c-0.059,-0.305 -0.143,-0.61 -0.252,-0.911c-1.147,-3.176 -4.657,-4.822 -7.833,-3.675c-3.175,1.147 -4.822,4.657 -3.674,7.833c0.339,0.939 0.885,1.745 1.568,2.384l-3.917,7.561c-1.996,-0.672 -4.224,-0.699 -6.357,0.072c-1.713,0.619 -3.144,1.673 -4.214,2.992l-27.161,-18.435c1.693,-3.31 2.064,-7.286 0.702,-11.056c-0.477,-1.32 -1.134,-2.524 -1.932,-3.594l15.175,-11.834c0.986,0.806 2.358,1.089 3.641,0.625c1.941,-0.701 2.947,-2.846 2.246,-4.787c-0.701,-1.94 -2.846,-2.946 -4.787,-2.245c-1.85,0.668 -2.851,2.649 -2.332,4.514c-5.145,4.013 -10.29,8.025 -15.435,12.038c-3.696,-3.556 -9.228,-4.925 -14.373,-3.066l-0.084,0.031c-3.685,1.357 -6.453,4.118 -7.919,7.458l-9.113,-2.636c0.004,-0.397 -0.062,-0.801 -0.205,-1.196c-0.644,-1.784 -2.615,-2.709 -4.399,-2.065c-1.784,0.645 -2.709,2.616 -2.064,4.4c0.644,1.784 2.616,2.709 4.399,2.064c0.616,-0.222 1.129,-0.603 1.511,-1.079l9.134,2.642c-0.674,2.614 -0.596,5.45 0.39,8.178c0.611,1.691 1.516,3.19 2.638,4.462l-19.016,20.64c-3.598,-2.481 -8.302,-3.248 -12.722,-1.651c-0.294,0.106 -0.582,0.221 -0.864,0.345l-3.951,-9.76c1.279,-0.858 1.862,-2.507 1.315,-4.02c-0.644,-1.784 -2.616,-2.709 -4.4,-2.065c-1.783,0.645 -2.708,2.616 -2.064,4.4c0.472,1.306 1.654,2.151 2.954,2.258l4.152,10.258c-4.368,2.827 -6.812,7.888 -6.331,13.05l-37.546,8.992c-1.809,-4.586 -6.959,-6.932 -11.625,-5.246c-1.169,0.422 -2.199,1.058 -3.063,1.848l-6.762,-6.313c0.098,-0.157 0.192,-0.319 0.281,-0.484c2.379,-4.403 0.737,-9.908 -3.666,-12.287c-4.402,-2.379 -9.907,-0.737 -12.286,3.666c-0.176,0.325 -0.33,0.657 -0.462,0.992c-12.625,-0.606 -20.186,-1.135 -27.811,-0.782c-0.501,-2.915 -2.819,-5.314 -5.903,-5.777c-3.846,-0.576 -7.437,2.079 -8.013,5.925c-0.073,0.49 -0.094,0.977 -0.067,1.453c-3.888,0.671 -8.29,1.573 -13.575,2.765c-1.178,-2.898 -3.812,-5.118 -7.127,-5.615c-1.098,-0.165 -2.18,-0.126 -3.207,0.086l-4.275,-13.485c1.321,-0.872 2.281,-2.279 2.534,-3.966c0.473,-3.154 -1.704,-6.098 -4.858,-6.571c-0.283,-0.042 -0.565,-0.063 -0.843,-0.064l-0.037,0c-2.804,0.009 -5.263,2.065 -5.691,4.923c-0.471,3.142 1.687,6.075 4.821,6.564l0.037,0.006c0.666,0.1 1.322,0.082 1.947,-0.039l4.234,13.357c-2.062,0.999 -3.723,2.757 -4.568,4.967l-37.137,-9.894c0.103,-0.419 0.187,-0.846 0.252,-1.28c1.146,-7.645 -4.131,-14.782 -11.776,-15.927c-7.645,-1.146 -14.781,4.131 -15.927,11.776c-0.33,2.2 -0.127,4.358 0.511,6.344l-26.361,9.055c-1.799,-4.377 -5.788,-7.728 -10.804,-8.48c-2.827,-0.423 -5.584,0.038 -7.989,1.176l-15.132,-29.096c2.044,-1.47 3.517,-3.731 3.919,-6.415c0.79,-5.276 -2.852,-10.201 -8.127,-10.992c-5.276,-0.79 -10.201,2.851 -10.992,8.127c-0.052,0.35 -0.085,0.698 -0.099,1.043l-12.927,1.365c-0.398,-1.326 -1.52,-2.381 -2.979,-2.619l-0.024,-0.004c-1.193,-0.188 -2.346,0.213 -3.161,0.988c-0.853,0.569 -1.473,1.483 -1.637,2.577c-0.308,2.056 1.111,3.976 3.168,4.284c1.316,0.198 2.575,-0.312 3.392,-1.243c0.544,-0.437 0.967,-1.025 1.2,-1.715l13.138,-1.388c0.765,3.899 3.904,7.082 8.056,7.704c1.792,0.268 3.543,0.026 5.105,-0.619l15.148,29.128c-3.059,2.107 -5.273,5.427 -5.866,9.387c-0.208,1.387 -0.203,2.757 -0.009,4.077l-18.978,3.197c-0.21,-0.512 -0.532,-0.971 -0.94,-1.344c-0.55,-0.593 -1.293,-1.014 -2.152,-1.155c-1.969,-0.323 -3.834,0.947 -4.279,2.864l-13.509,1.24c-0.71,-3.909 -3.806,-7.135 -7.95,-7.814c-5.264,-0.862 -10.239,2.712 -11.101,7.976c-0.454,2.771 0.321,5.461 1.924,7.514c-9.543,8.839 -19.086,17.678 -28.629,26.516c-0.838,-0.698 -1.866,-1.188 -3.019,-1.377c-3.443,-0.564 -6.696,1.773 -7.26,5.216c-0.502,3.066 1.297,5.982 4.128,6.982l-0.932,2.92c-3.984,-0.478 -7.928,1.318 -10.188,4.615l-26.697,-13.183c1.189,-3.611 -0.707,-7.542 -4.306,-8.843c-3.663,-1.325 -7.713,0.574 -9.038,4.238c-0.24,0.664 -0.375,1.342 -0.412,2.013c-3.516,0.125 -7.032,0.25 -10.548,0.375c-0.221,-1.994 -1.542,-3.791 -3.555,-4.519c-2.82,-1.02 -5.938,0.441 -6.958,3.262c-0.021,0.059 -0.042,0.119 -0.061,0.178l-18.321,-4.432c0.52,-3.807 -1.437,-7.678 -5.091,-9.416c-4.519,-2.148 -9.933,-0.224 -12.081,4.295c-0.159,0.334 -0.295,0.673 -0.41,1.015c-12.637,0.046 -20.214,-0.092 -27.81,0.654c-0.65,-2.886 -3.089,-5.163 -6.192,-5.465c-3.871,-0.377 -7.32,2.46 -7.697,6.331c-0.048,0.493 -0.044,0.98 0.008,1.454c-3.848,0.87 -8.198,1.998 -13.415,3.461c-1.326,-2.833 -4.071,-4.914 -7.407,-5.239c-1.105,-0.108 -2.183,-0.014 -3.198,0.252l-4.964,-13.246c1.274,-0.939 2.16,-2.395 2.325,-4.093c0.309,-3.174 -2.017,-6.002 -5.191,-6.311c-3.174,-0.309 -6.002,2.017 -6.312,5.191c-0.309,3.174 2.017,6.002 5.191,6.311c0.67,0.065 1.325,0.013 1.943,-0.139l4.917,13.12c-2.008,1.105 -3.576,2.946 -4.306,5.197l-37.598,-7.965c0.081,-0.423 0.143,-0.854 0.186,-1.292c0.75,-7.694 -4.888,-14.549 -12.582,-15.298c-7.694,-0.749 -14.548,4.888 -15.298,12.582c-0.216,2.215 0.098,4.36 0.837,6.31l-25.858,10.403c-2.022,-4.279 -6.179,-7.419 -11.227,-7.911c-2.845,-0.277 -5.575,0.326 -7.918,1.587l-16.613,-28.277c1.965,-1.573 3.319,-3.908 3.582,-6.609c0.272,-2.795 -0.677,-5.429 -2.41,-7.372c8.946,-9.443 17.892,-18.886 26.838,-28.328c0.881,0.642 1.94,1.064 3.102,1.177c3.473,0.339 6.566,-2.206 6.905,-5.678c0.338,-3.473 -2.207,-6.566 -5.679,-6.905c-3.472,-0.338 -6.566,2.207 -6.904,5.679c-0.146,1.501 0.246,2.931 1.02,4.099l-26.966,28.46c-1.316,-0.919 -2.879,-1.522 -4.589,-1.689c-5.31,-0.518 -10.04,3.373 -10.558,8.683c-0.034,0.352 -0.049,0.701 -0.046,1.046l-13.619,2.154c-0.513,-1.265 -1.703,-2.203 -3.155,-2.325c-1.963,-0.164 -3.7,1.221 -4.003,3.135c-6.349,1.501 -12.698,3.002 -19.046,4.503c-1.876,-4.774 -6.333,-8.327 -11.787,-8.784c-3.947,-0.33 -7.65,1.027 -10.396,3.469l-7.183,-6.196c0.168,-0.359 0.277,-0.754 0.312,-1.172c0.158,-1.89 -1.248,-3.553 -3.138,-3.711c-1.89,-0.158 -3.553,1.248 -3.711,3.138c-0.158,1.89 1.248,3.553 3.138,3.711c0.653,0.055 1.279,-0.077 1.825,-0.352l7.199,6.211c-1.703,2.094 -2.814,4.705 -3.056,7.596c-0.15,1.792 0.048,3.534 0.537,5.159l-25.885,10.828c-2.237,-3.755 -6.191,-6.414 -10.874,-6.805c-0.311,-0.026 -0.621,-0.042 -0.929,-0.047l0.479,-10.517c1.521,-0.247 2.738,-1.503 2.872,-3.106c0.158,-1.89 -1.248,-3.553 -3.138,-3.711c-1.89,-0.158 -3.553,1.248 -3.711,3.138c-0.116,1.383 0.606,2.645 1.743,3.284l-0.505,11.054c-5.148,0.749 -9.479,4.329 -11.195,9.221l-37.879,-7.486c0.268,-4.923 -3.434,-9.203 -8.378,-9.616c-1.238,-0.104 -2.44,0.045 -3.555,0.403l-4.424,-10.777c0.957,-0.632 1.626,-1.68 1.729,-2.911c0.178,-2.13 -1.407,-4.003 -3.536,-4.181c-2.13,-0.178 -4.004,1.406 -4.182,3.536c-0.178,2.129 1.407,4.003 3.536,4.181c0.095,0.008 0.189,0.012 0.283,0.013l4.551,11.086c-2.369,1.478 -4.037,4.015 -4.287,7.009c-0.076,0.913 -0.016,1.807 0.165,2.66l-13.081,4.032c-0.95,-2.422 -3.21,-4.225 -5.976,-4.456c-3.876,-0.325 -7.286,2.559 -7.61,6.435c-0.007,0.082 -0.012,0.163 -0.016,0.244l-27.194,0.713c0.178,-3.594 -1.808,-7.103 -5.275,-8.694c-3.669,-1.684 -7.884,-0.708 -10.472,2.12l-7.119,-5.825c1.382,-2.426 1.643,-5.452 0.44,-8.204c-0.367,-0.84 -0.845,-1.597 -1.41,-2.262l9.015,-9.18l0.575,-0.586c1.988,1.679 4.834,2.191 7.378,1.079c3.564,-1.558 5.193,-5.715 3.635,-9.279c-0.033,-0.075 -0.067,-0.15 -0.102,-0.223l26.43,-15.191c1.052,1.593 2.906,2.594 4.946,2.46c3.025,-0.198 5.321,-2.815 5.123,-5.84c-0.198,-3.025 -2.815,-5.321 -5.84,-5.123c-3.025,0.198 -5.321,2.814 -5.123,5.84c0.011,0.173 0.031,0.343 0.057,0.511c-13.068,7.34 -20.197,10.777 -27.001,15.367c-1.992,-1.96 -5.053,-2.624 -7.769,-1.437c-3.564,1.558 -5.193,5.716 -3.636,9.28c0.125,0.287 0.267,0.561 0.425,0.822c-2.947,2.633 -6.244,5.782 -10.179,9.704c-2.037,-1.293 -4.554,-1.763 -6.99,-1.192l-11.126,-26.916c1.326,-0.454 2.574,-1.132 3.679,-1.996c1.194,-0.933 2.219,-2.082 3.008,-3.376c0.673,-1.104 1.173,-2.312 1.477,-3.568c0.016,-0.067 0.032,-0.135 0.047,-0.202c4.15,0.826 8.84,1.713 14.281,2.705c0.021,0.184 0.056,0.366 0.107,0.544c0.114,0.399 0.301,0.776 0.549,1.109c0.263,0.355 0.595,0.657 0.972,0.887c0.415,0.253 0.879,0.411 1.36,0.474c0.427,0.056 0.868,0.026 1.284,-0.082c0.403,-0.104 0.785,-0.282 1.124,-0.522c0.338,-0.239 0.632,-0.538 0.864,-0.88c0.173,-0.255 0.311,-0.534 0.409,-0.826c0.24,-0.709 0.241,-1.491 0,-2.2c-0.115,-0.34 -0.284,-0.662 -0.498,-0.95c-0.23,-0.309 -0.513,-0.58 -0.832,-0.796c-0.302,-0.206 -0.637,-0.362 -0.989,-0.461c-0.14,-0.039 -0.281,-0.068 -0.424,-0.091c-0.074,-0.01 -0.146,-0.019 -0.22,-0.026c-0.471,-0.037 -0.944,0.016 -1.392,0.168c-0.341,0.115 -0.662,0.284 -0.95,0.498c-0.31,0.231 -0.58,0.513 -0.797,0.832c-0.028,0.041 -0.055,0.083 -0.081,0.125l-14.477,-2.618c0.032,-0.606 0.021,-1.215 -0.034,-1.819c-0.108,-1.18 -0.385,-2.342 -0.819,-3.444c-0.518,-1.316 -1.26,-2.542 -2.183,-3.613c-0.891,-1.035 -1.949,-1.923 -3.124,-2.62c-1.023,-0.606 -2.131,-1.066 -3.284,-1.36c-0.569,-0.145 -1.147,-0.246 -1.73,-0.315c-0.162,-0.017 -0.162,-0.017 -0.324,-0.032c-0.586,-0.046 -1.172,-0.06 -1.759,-0.028c-1.187,0.063 -2.364,0.297 -3.486,0.693c-1.288,0.453 -2.499,1.119 -3.575,1.959c-1.114,0.871 -2.081,1.929 -2.846,3.118c-0.32,0.497 -0.604,1.016 -0.85,1.553l-27.219,-8.616c0.01,-0.039 0.019,-0.079 0.029,-0.119c0.326,-1.348 0.43,-2.75 0.303,-4.131c-0.108,-1.179 -0.384,-2.342 -0.819,-3.443c-0.518,-1.316 -1.26,-2.542 -2.183,-3.613c-0.891,-1.035 -1.949,-1.924 -3.124,-2.62c-1.022,-0.607 -2.131,-1.066 -3.283,-1.36c-0.57,-0.146 -1.148,-0.247 -1.731,-0.315c-0.162,-0.017 -0.162,-0.017 -0.324,-0.032c-0.585,-0.047 -1.172,-0.06 -1.759,-0.029c-1.187,0.064 -2.364,0.298 -3.486,0.693c-1.287,0.454 -2.499,1.119 -3.575,1.96c-1.114,0.871 -2.08,1.928 -2.846,3.118c-0.641,0.995 -1.139,2.082 -1.475,3.217c-0.393,1.33 -0.565,2.726 -0.508,4.111c0.037,0.908 0.174,1.812 0.406,2.69l-33.262,12.255c-0.376,-0.951 -0.914,-1.837 -1.582,-2.613c-0.648,-0.753 -1.419,-1.4 -2.274,-1.907c-0.744,-0.441 -1.551,-0.776 -2.39,-0.99c-0.414,-0.106 -0.835,-0.179 -1.26,-0.229c-0.118,-0.013 -0.117,-0.013 -0.235,-0.023c-0.426,-0.034 -0.853,-0.044 -1.28,-0.021c-0.865,0.046 -1.721,0.216 -2.538,0.504c-0.937,0.331 -1.819,0.815 -2.602,1.427c-0.811,0.634 -1.514,1.403 -2.071,2.269c-0.4,0.622 -0.724,1.291 -0.962,1.991l-11.446,-2.138c0.041,-0.436 0.043,-0.876 0.003,-1.312c-0.061,-0.661 -0.216,-1.312 -0.459,-1.928c-0.399,-1.014 -1.035,-1.926 -1.84,-2.654l29.909,-28.622c1.08,1.396 2.813,2.248 4.705,2.124c2.344,-0.153 4.25,-1.759 4.897,-3.881l15.495,3.616c0.032,1.804 1.305,3.401 3.128,3.755c2.098,0.407 4.135,-0.985 4.547,-3.107c0.411,-2.121 -0.958,-4.174 -3.056,-4.581c-1.612,-0.313 -3.188,0.437 -4.018,1.763l-15.899,-3.711c-0.347,-2.872 -2.889,-5.008 -5.811,-4.817c-3.025,0.198 -5.321,2.814 -5.123,5.84c0.019,0.291 0.061,0.576 0.123,0.852l-30.844,29.519c-0.331,-0.142 -0.673,-0.258 -1.022,-0.347c-0.319,-0.082 -0.643,-0.138 -0.969,-0.177c-0.091,-0.009 -0.091,-0.009 -0.181,-0.018c-0.328,-0.026 -0.657,-0.033 -0.985,-0.015c-0.665,0.035 -1.324,0.166 -1.952,0.387c-1.471,0.519 -2.75,1.531 -3.595,2.843c-0.358,0.558 -0.637,1.166 -0.825,1.802c-0.086,0.29 -0.153,0.586 -0.201,0.885l-23.655,0l0,2.213l4.982,0l0,104.362l-39.079,0l0,-207.191l1304.83,0l0,207.191l-0.001,0Z" style="fill:#f2f2f2;"/></svg>