<?xml version="1.0" encoding="UTF-8" standalone="no"?><!DOCTYPE svg PUBLIC "-//W3C//DTD SVG 1.1//EN" "http://www.w3.org/Graphics/SVG/1.1/DTD/svg11.dtd"><svg width="100%" height="100%" viewBox="0 0 1225 164" version="1.1" xmlns="http://www.w3.org/2000/svg" xmlns:xlink="http://www.w3.org/1999/xlink" xml:space="preserve" style="fill-rule:evenodd;clip-rule:evenodd;stroke-linejoin:round;stroke-miterlimit:1.41421;"><path d="M1228.31,47.315l-17.258,-1.034l-9.267,15.918l-9.581,0.868l-29.175,-19.296l-20.323,2.776l-20.787,21.869l-19.859,12.575l-38.831,9.071l-14.758,-3.371l-7.538,-7.108l-14.508,-7.611l-29.494,-0.99l-10.766,1.432l-15.768,3.26l-16.743,0.587l-38.307,-11.076l-24.635,1.56l-27.738,9.474l-25.537,6.39l-21.546,3.721l-4.704,0.483l-18.093,1.529l-11.551,6.166l-30.321,27.82l-5.563,9.077l-1.108,5.455l-10.889,3.555l-28.155,-14.002l-11.125,-2.667l-12.557,1.183l-9.232,-0.99l-19.995,-4.702l-16.319,-3.337l-28.465,0.339l-12.322,2.023l-14.856,3.974l-15.741,0.719l-40.114,-8.268l-23.499,2.317l-27.84,10.941l-19.357,-6.304l-18.007,-30.463l-12.867,-5.549l-17.97,2.87l-26.585,5.679l-21.231,7.763l-27.213,11.483l-24.688,2.269l-39.343,-7.874l-15.003,1.264l-15.952,4.263l-12.373,2.552l-30.1,0.296l-14.276,-6.082l-9.824,-8.9l-7.268,-10.508l-11.749,-29.191l-14.243,-14.742l-29.323,-9.581l-20.592,0.775l-34.37,12.44l-17.213,0.1l-13.158,-2.697l-11.648,-1.111l-19.577,-0.19l0,130.37l1253.56,0l0,-130.152l-14.762,0.59l0,0Z" style="fill:#77c7a9;"/><path d="M1147.74,24.057c-7.215,2.607 -10.957,10.582 -8.35,17.797c2.607,7.215 10.582,10.957 17.797,8.35c7.216,-2.608 10.957,-10.582 8.35,-17.798c-2.607,-7.215 -10.582,-10.956 -17.797,-8.349Z" style="fill:#3a8d6e;"/><path d="M1110.29,65.305c-7.27,2.627 -11.04,10.662 -8.413,17.932c2.627,7.27 10.662,11.04 17.932,8.413c7.271,-2.627 11.04,-10.662 8.413,-17.932c-2.626,-7.27 -10.662,-11.04 -17.932,-8.413Z" style="fill:#3a8d6e;"/><path d="M1051.93,83.517c-4.752,1.717 -7.215,6.968 -5.498,11.72c1.716,4.751 6.968,7.215 11.719,5.498c4.752,-1.717 7.216,-6.968 5.499,-11.72c-1.717,-4.751 -6.969,-7.215 -11.72,-5.498l0,0Z" style="fill:#3a8d6e;"/><path d="M1035.75,71.723c-2.01,0.726 -3.052,2.947 -2.326,4.957c0.726,2.01 2.948,3.052 4.958,2.326c2.01,-0.726 3.052,-2.947 2.326,-4.957c-0.727,-2.01 -2.948,-3.053 -4.958,-2.326Z" style="fill:#3a8d6e;"/><path d="M1102.39,49.806c-1.783,0.644 -2.708,2.616 -2.064,4.399c0.645,1.784 2.616,2.709 4.4,2.064c1.784,-0.644 2.709,-2.616 2.064,-4.399c-0.644,-1.784 -2.616,-2.709 -4.4,-2.064l0,0Z" style="fill:#3a8d6e;"/><path d="M1126.02,25.65c-1.784,0.644 -2.709,2.616 -2.064,4.399c0.644,1.784 2.616,2.709 4.399,2.064c1.784,-0.644 2.709,-2.615 2.064,-4.399c-0.644,-1.784 -2.615,-2.709 -4.399,-2.064Z" style="fill:#3a8d6e;"/><path d="M1179.88,10.571c-1.94,0.701 -2.947,2.846 -2.245,4.787c0.701,1.94 2.846,2.946 4.786,2.245c1.941,-0.701 2.947,-2.846 2.246,-4.786c-0.701,-1.941 -2.846,-2.947 -4.787,-2.246l0,0Z" style="fill:#3a8d6e;"/><path d="M1208.59,41.055c-3.175,1.148 -4.822,4.657 -3.674,7.833c1.147,3.175 4.657,4.822 7.832,3.675c3.176,-1.148 4.822,-4.658 3.675,-7.833c-1.147,-3.176 -4.657,-4.822 -7.833,-3.675l0,0Z" style="fill:#3a8d6e;"/><path d="M1180.36,114.28c-3.281,1.186 -4.982,4.812 -3.797,8.094c1.186,3.281 4.812,4.982 8.093,3.796c3.282,-1.185 4.983,-4.811 3.797,-8.093c-1.185,-3.281 -4.812,-4.982 -8.093,-3.797l0,0Z" style="fill:#3a8d6e;"/><path d="M1074.23,106.261c-2.999,1.084 -4.555,4.399 -3.471,7.399c1.084,2.999 4.399,4.554 7.398,3.47c3,-1.083 4.555,-4.398 3.471,-7.398c-1.084,-2.999 -4.399,-4.554 -7.398,-3.471l0,0Z" style="fill:#3a8d6e;"/><path d="M1196.21,58.906c-5.017,1.812 -7.619,7.358 -5.806,12.375c1.813,5.017 7.358,7.619 12.375,5.806c5.018,-1.813 7.619,-7.358 5.806,-12.376c-1.813,-5.017 -7.358,-7.618 -12.375,-5.805Z" style="fill:#3a8d6e;"/><path d="M1055.42,90.678c-3.502,3.13 -2.917,6.028 -0.06,3.071l19.123,18.483l1.564,-1.618l-20.627,-19.936Z" style="fill:#3a8d6e;fill-rule:nonzero;"/><path d="M1127.72,30.413l22.867,6.614l-36.52,39.639l-59.305,14.203l-17.786,-16.605l-1.535,1.644l18.669,17.431l61.148,-14.645l39.089,-42.427l-0.151,-0.538l-25.851,-7.478c-0.208,0.721 -0.417,1.441 -0.625,2.162l0,0Z" style="fill:#3a8d6e;fill-rule:nonzero;"/><path d="M1150.53,36.156l0.011,0.327l48.969,33.199l11.187,-21.965l-1.909,-0.892l-10.145,19.583l-44.51,-30.208l25.974,-20.257l-1.384,-1.774c-9.397,7.329 -18.795,14.658 -28.193,21.987Z" style="fill:#3a8d6e;fill-rule:nonzero;"/><path d="M1181.83,119.657l2.14,0.696l17.416,-53.523l-2.14,-0.696c-5.805,17.841 -11.61,35.682 -17.416,53.523Z" style="fill:#3a8d6e;fill-rule:nonzero;"/><path d="M1102.15,53.672l6.741,16.655l2.086,-0.844l-6.741,-16.655c-0.695,0.282 -1.391,0.563 -2.086,0.844Z" style="fill:#3a8d6e;fill-rule:nonzero;"/><path d="M848.209,93.775c7.587,1.137 14.67,-4.1 15.806,-11.688c1.137,-7.587 -4.1,-14.67 -11.687,-15.806c-7.587,-1.137 -14.67,4.1 -15.807,11.687c-1.137,7.587 4.1,14.67 11.688,15.807l0,0Z" style="fill:#3a8d6e;"/><path d="M900.758,75.288c7.645,1.145 14.782,-4.131 15.927,-11.776c1.146,-7.645 -4.131,-14.782 -11.776,-15.927c-7.645,-1.146 -14.781,4.131 -15.927,11.776c-1.145,7.645 4.132,14.781 11.776,15.927l0,0Z" style="fill:#3a8d6e;"/><path d="M960.763,87.014c4.997,0.749 9.661,-2.7 10.409,-7.697c0.749,-4.996 -2.7,-9.66 -7.696,-10.409c-4.996,-0.748 -9.661,2.7 -10.409,7.697c-0.749,4.996 2.7,9.66 7.696,10.409Z" style="fill:#3a8d6e;"/><path d="M969.389,105.081c2.113,0.317 4.086,-1.142 4.403,-3.255c0.316,-2.114 -1.142,-4.087 -3.256,-4.404c-2.113,-0.316 -4.086,1.143 -4.403,3.256c-0.317,2.114 1.142,4.087 3.256,4.403l0,0Z" style="fill:#3a8d6e;"/><path d="M900.34,92.679c1.875,0.281 3.626,-1.014 3.907,-2.889c0.281,-1.876 -1.013,-3.627 -2.889,-3.908c-1.876,-0.281 -3.627,1.014 -3.908,2.889c-0.281,1.876 1.014,3.627 2.89,3.908l0,0Z" style="fill:#3a8d6e;"/><path d="M868.074,102.7c1.876,0.281 3.627,-1.014 3.908,-2.889c0.281,-1.876 -1.014,-3.627 -2.89,-3.908c-1.875,-0.281 -3.626,1.014 -3.907,2.889c-0.281,1.876 1.013,3.627 2.889,3.908l0,0Z" style="fill:#3a8d6e;"/><path d="M813.522,90.359c2.041,0.306 3.946,-1.103 4.251,-3.143c0.306,-2.041 -1.102,-3.946 -3.143,-4.251c-2.04,-0.306 -3.945,1.102 -4.251,3.143c-0.306,2.04 1.103,3.945 3.143,4.251Z" style="fill:#3a8d6e;"/><path d="M796.348,36.715c2.057,0.308 3.976,-1.112 4.285,-3.168c0.308,-2.057 -1.112,-3.977 -3.168,-4.285c-2.057,-0.308 -3.977,1.112 -4.285,3.168c-0.308,2.057 1.111,3.977 3.168,4.285Z" style="fill:#3a8d6e;"/><path d="M990.17,78.319c3.847,0.576 7.437,-2.078 8.014,-5.925c0.576,-3.846 -2.079,-7.437 -5.926,-8.013c-3.846,-0.577 -7.437,2.078 -8.013,5.925c-0.576,3.846 2.079,7.437 5.925,8.013l0,0Z" style="fill:#3a8d6e;"/><path d="M951.957,56.402c3.154,0.472 6.098,-1.705 6.571,-4.859c0.473,-3.154 -1.704,-6.098 -4.858,-6.571c-3.154,-0.472 -6.099,1.705 -6.571,4.859c-0.473,3.154 1.704,6.098 4.858,6.571Z" style="fill:#3a8d6e;"/><path d="M822.134,40.072c5.276,0.791 10.201,-2.851 10.992,-8.127c0.79,-5.276 -2.852,-10.201 -8.127,-10.991c-5.276,-0.791 -10.201,2.851 -10.992,8.127c-0.79,5.275 2.851,10.201 8.127,10.991l0,0Z" style="fill:#3a8d6e;"/><path d="M991.231,71.878l44.442,1.738l0.088,-2.248c-36.86,-1.442 -37.266,-3.533 -73.151,5.013l-8.036,-25.352l-2.145,0.68l8.668,27.345c10.045,-2.392 20.089,-4.784 30.134,-7.176l0,0Z" style="fill:#3a8d6e;fill-rule:nonzero;"/><path d="M868.84,97.7l-16.973,-16.691l50.973,-17.51l58.927,15.7l7.753,23.065l2.132,-0.717l-8.138,-24.211l-60.756,-16.187l-54.56,18.741l-0.124,0.545l19.188,18.869c0.526,-0.535 1.052,-1.07 1.578,-1.604Z" style="fill:#3a8d6e;fill-rule:nonzero;"/><path d="M851.501,81.801l0.146,-0.292l-27.297,-52.489l-27.087,2.861l0.236,2.238l25.562,-2.7l25.291,48.631l-32.482,5.472l0.374,2.219c11.752,-1.98 23.505,-3.96 35.257,-5.94l0,0Z" style="fill:#3a8d6e;fill-rule:nonzero;"/><path d="M902.389,89.392l1.988,-17.857l-2.236,-0.249l-1.988,17.857c0.745,0.083 1.491,0.166 2.236,0.249Z" style="fill:#3a8d6e;fill-rule:nonzero;"/><path d="M1030.1,82.234c4.402,2.379 9.907,0.736 12.286,-3.666c2.379,-4.402 0.737,-9.908 -3.665,-12.287c-4.403,-2.379 -9.908,-0.736 -12.287,3.666c-2.379,4.402 -0.737,9.908 3.666,12.287Z" style="fill:#3a8d6e;"/><path d="M798.002,28.869c-2.036,-0.334 -3.96,1.048 -4.293,3.085c-0.334,2.036 1.048,3.96 3.085,4.293c2.036,0.334 3.96,-1.048 4.293,-3.084c0.334,-2.037 -1.048,-3.961 -3.085,-4.294Z" style="fill:#3a8d6e;"/><path d="M814.442,82.743c-2.052,-0.336 -3.991,1.057 -4.327,3.109c-0.337,2.052 1.056,3.991 3.109,4.327c2.052,0.337 3.991,-1.057 4.327,-3.109c0.336,-2.052 -1.057,-3.991 -3.109,-4.327Z" style="fill:#3a8d6e;"/><path d="M747.879,119.663c-3.443,-0.565 -6.696,1.773 -7.26,5.216c-0.564,3.442 1.773,6.696 5.216,7.26c3.443,0.564 6.696,-1.774 7.26,-5.216c0.564,-3.443 -1.773,-6.696 -5.216,-7.26Z" style="fill:#3a8d6e;"/><path d="M788.704,79.033c-5.264,-0.862 -10.239,2.712 -11.101,7.976c-0.863,5.265 2.711,10.239 7.976,11.102c5.264,0.862 10.239,-2.712 11.101,-7.976c0.863,-5.265 -2.711,-10.239 -7.976,-11.102Z" style="fill:#3a8d6e;"/><path d="M787.659,87.673l-1.322,2.381l27.124,-2.491l-0.206,-2.24l-25.596,2.35Z" style="fill:#3a8d6e;fill-rule:nonzero;"/><path d="M746.542,125.074l1.529,1.65l41.295,-38.246l-1.529,-1.65c-13.765,12.748 -27.53,25.497 -41.295,38.246Z" style="fill:#3a8d6e;fill-rule:nonzero;"/><path d="M97.303,21.14c-0.585,-0.047 -1.172,-0.06 -1.759,-0.029c-1.187,0.064 -2.364,0.298 -3.486,0.693c-1.287,0.454 -2.499,1.12 -3.575,1.96c-1.114,0.871 -2.08,1.929 -2.846,3.118c-0.64,0.996 -1.139,2.082 -1.475,3.218c-0.393,1.329 -0.565,2.725 -0.508,4.11c0.053,1.292 0.307,2.574 0.752,3.788c0.521,1.424 1.302,2.75 2.291,3.898c1.025,1.19 2.27,2.186 3.658,2.92c1.439,0.76 3.023,1.233 4.642,1.392c1.619,0.16 3.265,0.005 4.825,-0.46c1.504,-0.449 2.92,-1.182 4.157,-2.149c1.195,-0.934 2.219,-2.082 3.008,-3.376c0.673,-1.104 1.173,-2.312 1.477,-3.568c0.326,-1.348 0.43,-2.751 0.303,-4.132c-0.108,-1.179 -0.384,-2.342 -0.819,-3.443c-0.518,-1.316 -1.26,-2.542 -2.183,-3.613c-0.891,-1.035 -1.949,-1.924 -3.124,-2.62c-1.022,-0.607 -2.131,-1.066 -3.283,-1.36c-0.57,-0.145 -1.148,-0.247 -1.731,-0.315l-0.324,-0.032Z" style="fill:#3a8d6e;fill-rule:nonzero;"/><path d="M148.173,38.094c-0.586,-0.046 -1.172,-0.06 -1.759,-0.028c-1.187,0.063 -2.364,0.297 -3.486,0.693c-1.288,0.454 -2.499,1.119 -3.575,1.96c-1.114,0.87 -2.081,1.928 -2.846,3.117c-0.641,0.996 -1.139,2.082 -1.475,3.218c-0.394,1.33 -0.566,2.725 -0.509,4.111c0.053,1.292 0.308,2.574 0.752,3.788c0.522,1.423 1.303,2.749 2.292,3.898c1.024,1.189 2.27,2.185 3.658,2.919c1.439,0.761 3.023,1.233 4.642,1.393c1.619,0.159 3.265,0.005 4.824,-0.46c1.505,-0.449 2.921,-1.183 4.158,-2.15c1.194,-0.933 2.219,-2.081 3.008,-3.376c0.673,-1.104 1.173,-2.311 1.477,-3.568c0.326,-1.348 0.429,-2.75 0.303,-4.131c-0.108,-1.179 -0.385,-2.342 -0.819,-3.444c-0.518,-1.316 -1.26,-2.541 -2.183,-3.613c-0.891,-1.034 -1.949,-1.923 -3.124,-2.62c-1.023,-0.606 -2.131,-1.065 -3.284,-1.36c-0.569,-0.145 -1.147,-0.246 -1.73,-0.315l-0.324,-0.032Z" style="fill:#3a8d6e;fill-rule:nonzero;"/><path d="M110.743,123.593c3.767,-1.626 5.505,-6.003 3.88,-9.77c-1.625,-3.767 -6.002,-5.506 -9.769,-3.88c-3.767,1.625 -5.506,6.002 -3.881,9.769c1.625,3.767 6.003,5.506 9.77,3.881Z" style="fill:#3a8d6e;"/><path d="M168.033,106.768c4.63,-2.023 6.745,-7.424 4.722,-12.053c-2.023,-4.629 -7.424,-6.745 -12.053,-4.722c-4.63,2.023 -6.746,7.424 -4.722,12.053c2.023,4.63 7.424,6.746 12.053,4.722l0,0Z" style="fill:#3a8d6e;"/><path d="M79.483,10.835c-2.098,-0.407 -4.135,0.985 -4.547,3.107c-0.411,2.122 0.958,4.174 3.056,4.581c2.098,0.407 4.135,-0.985 4.547,-3.107c0.411,-2.121 -0.958,-4.174 -3.056,-4.581Z" style="fill:#3a8d6e;"/><path d="M184.953,117.482c1.958,-0.856 2.854,-3.141 1.998,-5.099c-0.856,-1.958 -3.141,-2.853 -5.099,-1.997c-1.958,0.855 -2.853,3.14 -1.998,5.098c0.856,1.959 3.141,2.854 5.099,1.998l0,0Z" style="fill:#3a8d6e;"/><path d="M119.133,140.7c1.738,-0.759 2.533,-2.787 1.773,-4.525c-0.759,-1.738 -2.787,-2.532 -4.525,-1.773c-1.738,0.76 -2.532,2.787 -1.772,4.525c0.759,1.738 2.787,2.532 4.524,1.773l0,0Z" style="fill:#3a8d6e;"/><path d="M177.363,52.292c-0.471,-0.037 -0.944,0.016 -1.392,0.168c-0.341,0.115 -0.662,0.284 -0.95,0.499c-0.31,0.23 -0.58,0.512 -0.797,0.831c-0.173,0.255 -0.311,0.534 -0.41,0.826c-0.221,0.655 -0.239,1.375 -0.05,2.04c0.114,0.399 0.301,0.777 0.549,1.11c0.263,0.354 0.595,0.657 0.972,0.886c0.415,0.254 0.879,0.411 1.36,0.474c0.427,0.056 0.868,0.026 1.284,-0.082c0.403,-0.104 0.785,-0.282 1.124,-0.522c0.338,-0.239 0.632,-0.538 0.864,-0.88c0.173,-0.255 0.311,-0.534 0.409,-0.826c0.24,-0.709 0.241,-1.491 0,-2.2c-0.115,-0.34 -0.284,-0.661 -0.498,-0.949c-0.23,-0.31 -0.513,-0.581 -0.832,-0.797c-0.302,-0.205 -0.637,-0.361 -0.989,-0.461c-0.14,-0.039 -0.281,-0.068 -0.424,-0.091c-0.074,-0.01 -0.146,-0.019 -0.22,-0.026l0,0Z" style="fill:#3a8d6e;fill-rule:nonzero;"/><path d="M37.873,84.449c3.196,-1.397 4.657,-5.127 3.26,-8.323c-1.397,-3.197 -5.126,-4.658 -8.323,-3.261c-3.197,1.397 -4.658,5.127 -3.261,8.323c1.397,3.197 5.127,4.658 8.324,3.261l0,0Z" style="fill:#3a8d6e;"/><path d="M15.743,39.74c-0.328,-0.026 -0.657,-0.034 -0.985,-0.016c-0.665,0.035 -1.324,0.166 -1.952,0.388c-1.471,0.518 -2.75,1.53 -3.595,2.842c-0.358,0.558 -0.637,1.166 -0.825,1.802c-0.221,0.744 -0.317,1.525 -0.285,2.301c0.029,0.723 0.172,1.441 0.421,2.121c0.292,0.797 0.729,1.539 1.283,2.182c0.573,0.666 1.271,1.224 2.048,1.635c0.805,0.425 1.692,0.69 2.599,0.779c0.906,0.09 1.827,0.003 2.7,-0.257c0.843,-0.252 1.636,-0.662 2.328,-1.204c0.669,-0.522 1.242,-1.165 1.684,-1.89c0.377,-0.618 0.657,-1.294 0.827,-1.997c0.182,-0.755 0.24,-1.54 0.17,-2.313c-0.061,-0.66 -0.216,-1.311 -0.459,-1.928c-0.572,-1.452 -1.629,-2.694 -2.971,-3.49c-0.572,-0.339 -1.193,-0.596 -1.838,-0.761c-0.319,-0.081 -0.643,-0.138 -0.969,-0.177l-0.181,-0.017Z" style="fill:#3a8d6e;fill-rule:nonzero;"/><path d="M188.313,83.766c3.564,-1.557 5.193,-5.715 3.635,-9.279c-1.557,-3.564 -5.715,-5.193 -9.279,-3.635c-3.564,1.557 -5.193,5.715 -3.636,9.279c1.558,3.564 5.716,5.193 9.28,3.635Z" style="fill:#3a8d6e;"/><path d="M101.133,71.161c2.68,-1.171 3.905,-4.298 2.733,-6.978c-1.171,-2.68 -4.297,-3.905 -6.977,-2.734c-2.68,1.172 -3.905,4.298 -2.734,6.978c1.171,2.68 4.298,3.905 6.978,2.734Z" style="fill:#3a8d6e;"/><path d="M43.053,43.393c-0.426,-0.034 -0.853,-0.044 -1.28,-0.021c-0.865,0.046 -1.721,0.217 -2.538,0.504c-0.937,0.331 -1.819,0.815 -2.602,1.427c-0.811,0.634 -1.514,1.403 -2.071,2.269c-0.467,0.725 -0.829,1.516 -1.074,2.342c-0.286,0.968 -0.412,1.984 -0.37,2.992c0.038,0.94 0.224,1.874 0.547,2.757c0.38,1.036 0.948,2.002 1.668,2.838c0.746,0.865 1.653,1.59 2.663,2.124c1.047,0.554 2.2,0.898 3.378,1.014c1.179,0.116 2.377,0.004 3.512,-0.335c1.095,-0.327 2.126,-0.861 3.026,-1.564c0.869,-0.68 1.615,-1.515 2.189,-2.458c0.49,-0.803 0.854,-1.682 1.075,-2.597c0.238,-0.981 0.313,-2.001 0.221,-3.007c-0.079,-0.858 -0.28,-1.704 -0.596,-2.506c-0.377,-0.958 -0.917,-1.85 -1.589,-2.63c-0.648,-0.753 -1.419,-1.4 -2.274,-1.907c-0.744,-0.441 -1.551,-0.775 -2.39,-0.99c-0.414,-0.105 -0.835,-0.179 -1.26,-0.229c-0.118,-0.012 -0.117,-0.012 -0.235,-0.023l0,0Z" style="fill:#3a8d6e;fill-rule:nonzero;"/><path d="M185.793,77.747l38.56,-22.162l-1.121,-1.951c-31.982,18.381 -32.688,15.326 -58.532,41.647l-15.788,-38.196l-1.455,1.717l16.633,41.048c7.234,-7.368 14.468,-14.735 21.703,-22.103l0,0Z" style="fill:#3a8d6e;fill-rule:nonzero;"/><path d="M105.163,115.712l1.32,1.947l58.252,-18.042l18.832,15.409l1.424,-1.741l-19.767,-16.175l-60.061,18.602Z" style="fill:#3a8d6e;fill-rule:nonzero;"/><path d="M42.923,55.825c-1.115,-0.32 -2.215,-0.468 -2.215,-0.468l-5.97,18.813l2.144,0.683c2.29,-7.186 4.203,-13.22 6.041,-19.028l0,0Z" style="fill:#3a8d6e;fill-rule:nonzero;"/><path d="M37.393,52.563c0.182,-1.147 0.194,-2.256 0.194,-2.256l-19.402,-3.624l-0.416,2.211c7.412,1.394 13.635,2.554 19.624,3.669Z" style="fill:#3a8d6e;fill-rule:nonzero;"/><rect x="-15.474" y="45.641" width="25.557" height="2.213" style="fill:#3a8d6e;"/><rect x="1214.53" y="45.641" width="25.557" height="2.213" style="fill:#3a8d6e;"/><path d="M99.773,61.152l-2.112,-29.029l-0.232,-0.149l-54.291,20.005l-1.732,2.96l0.08,0.046l54.131,-19.946l1.912,26.276c0.748,-0.054 1.496,-0.109 2.244,-0.163l0,0Z" style="fill:#3a8d6e;fill-rule:nonzero;"/><path d="M15.053,43.118l3.42,-0.257l34.657,-33.166l25.621,5.98l0.511,-2.192l-26.807,-6.256l-37.408,35.799l0.006,0.092l0,0Z" style="fill:#3a8d6e;fill-rule:nonzero;"/><path d="M94.943,34.863c40.087,12.688 39.753,14.205 81.129,21.687l0.4,-2.214l-29.273,-5.294l-51.577,-16.325c-0.226,0.715 -0.452,1.431 -0.679,2.146l0,0Z" style="fill:#3a8d6e;fill-rule:nonzero;"/><path d="M119.113,137.576l-7.813,-16.18l-2.026,0.979l7.813,16.179c0.675,-0.326 1.351,-0.652 2.026,-0.978l0,0Z" style="fill:#3a8d6e;fill-rule:nonzero;"/><path d="M223.223,61.533c3.025,-0.198 5.321,-2.814 5.123,-5.84c-0.198,-3.025 -2.814,-5.321 -5.84,-5.123c-3.025,0.198 -5.321,2.815 -5.123,5.84c0.198,3.025 2.815,5.321 5.84,5.123Z" style="fill:#3a8d6e;"/><path d="M54.473,15.033c3.025,-0.198 5.321,-2.814 5.123,-5.84c-0.198,-3.025 -2.814,-5.321 -5.84,-5.123c-3.025,0.198 -5.321,2.815 -5.123,5.84c0.198,3.025 2.815,5.321 5.84,5.123Z" style="fill:#3a8d6e;"/><path d="M370.655,83.241c-7.645,-0.639 -14.371,5.049 -15.01,12.694c-0.64,7.645 5.048,14.371 12.693,15.011c7.646,0.639 14.372,-5.049 15.011,-12.694c0.639,-7.645 -5.048,-14.371 -12.694,-15.011Z" style="fill:#3a8d6e;"/><path d="M319.423,105.117c-7.703,-0.644 -14.48,5.087 -15.124,12.791c-0.645,7.703 5.087,14.48 12.79,15.124c7.703,0.645 14.48,-5.087 15.125,-12.79c0.644,-7.703 -5.087,-14.48 -12.791,-15.125l0,0Z" style="fill:#3a8d6e;"/><path d="M258.782,97.331c-5.035,-0.421 -9.464,3.325 -9.885,8.359c-0.421,5.035 3.324,9.464 8.359,9.885c5.034,0.421 9.464,-3.324 9.885,-8.359c0.421,-5.035 -3.325,-9.464 -8.359,-9.885Z" style="fill:#3a8d6e;"/><path d="M248.996,79.865c-2.13,-0.178 -4.004,1.406 -4.182,3.536c-0.178,2.13 1.407,4.003 3.536,4.181c2.13,0.178 4.004,-1.406 4.182,-3.536c0.178,-2.129 -1.407,-4.003 -3.536,-4.181Z" style="fill:#3a8d6e;"/><path d="M318.707,87.736c-1.89,-0.158 -3.553,1.248 -3.711,3.138c-0.158,1.89 1.248,3.553 3.138,3.711c1.89,0.158 3.553,-1.248 3.711,-3.138c0.158,-1.89 -1.248,-3.553 -3.138,-3.711Z" style="fill:#3a8d6e;"/><path d="M350.25,75.631c-1.89,-0.158 -3.553,1.248 -3.711,3.138c-0.158,1.89 1.248,3.553 3.138,3.711c1.89,0.158 3.553,-1.248 3.711,-3.138c0.158,-1.89 -1.248,-3.553 -3.138,-3.711Z" style="fill:#3a8d6e;"/><path d="M405.491,84.387c-2.057,-0.172 -3.866,1.358 -4.037,3.414c-0.172,2.056 1.357,3.865 3.413,4.037c2.057,0.172 3.866,-1.358 4.038,-3.414c0.172,-2.056 -1.358,-3.865 -3.414,-4.037Z" style="fill:#3a8d6e;"/><path d="M426.128,136.797c-2.072,-0.174 -3.895,1.368 -4.069,3.44c-0.173,2.073 1.369,3.896 3.441,4.069c2.072,0.174 3.895,-1.368 4.069,-3.44c0.173,-2.073 -1.369,-3.896 -3.441,-4.069Z" style="fill:#3a8d6e;"/><path d="M230.005,107.926c-3.876,-0.324 -7.286,2.559 -7.61,6.435c-0.324,3.876 2.559,7.286 6.435,7.61c3.876,0.324 7.286,-2.56 7.61,-6.435c0.324,-3.876 -2.56,-7.286 -6.435,-7.61Z" style="fill:#3a8d6e;"/><path d="M269.566,127.304c-3.178,-0.266 -5.974,2.098 -6.24,5.276c-0.266,3.178 2.099,5.974 5.277,6.24c3.178,0.266 5.974,-2.098 6.24,-5.276c0.265,-3.179 -2.099,-5.975 -5.277,-6.24Z" style="fill:#3a8d6e;"/><path d="M229.366,114.423l-44.461,1.164l0.059,2.249c36.876,-0.966 37.417,1.095 72.668,-9.774l9.673,24.774l2.096,-0.819l-10.434,-26.721c-9.867,3.042 -19.734,6.084 -29.601,9.127l0,0Z" style="fill:#3a8d6e;fill-rule:nonzero;"/><path d="M349.812,80.671l18.025,15.548l-49.722,20.798l-59.825,-11.822l-9.241,-22.51l-2.081,0.855l9.699,23.628l61.684,12.189l53.221,-22.261l0.088,-0.551l-20.378,-17.578c-0.49,0.568 -0.98,1.136 -1.47,1.704l0,0Z" style="fill:#3a8d6e;fill-rule:nonzero;"/><path d="M368.151,95.405l-0.126,0.301l3.383,1.241l32.055,-7.58l-0.518,-2.19c-11.598,2.743 -23.196,5.485 -34.794,8.228Z" style="fill:#3a8d6e;fill-rule:nonzero;"/><path d="M316.876,91.15l-0.819,17.949l2.248,0.102l0.819,-17.948c-0.75,-0.034 -1.499,-0.069 -2.248,-0.103Z" style="fill:#3a8d6e;fill-rule:nonzero;"/><path d="M189.913,106.624c-4.548,-2.086 -9.935,-0.088 -12.022,4.46c-2.086,4.548 -0.088,9.935 4.46,12.021c4.548,2.087 9.935,0.089 12.021,-4.459c2.087,-4.548 0.089,-9.935 -4.459,-12.022Z" style="fill:#3a8d6e;"/><path d="M459.805,146.355c7.636,0.744 14.439,-4.851 15.183,-12.487c0.744,-7.636 -4.852,-14.439 -12.487,-15.183c-7.636,-0.744 -14.439,4.852 -15.183,12.488c-0.744,7.635 4.852,14.439 12.487,15.182Z" style="fill:#3a8d6e;"/><path d="M511.331,125.182c7.694,0.749 14.549,-4.889 15.298,-12.583c0.75,-7.694 -4.888,-14.548 -12.582,-15.298c-7.694,-0.749 -14.548,4.889 -15.298,12.582c-0.749,7.694 4.889,14.549 12.582,15.299Z" style="fill:#3a8d6e;"/><path d="M571.861,133.796c5.028,0.49 9.509,-3.195 9.998,-8.223c0.49,-5.029 -3.195,-9.509 -8.223,-9.999c-5.028,-0.489 -9.508,3.195 -9.998,8.224c-0.49,5.028 3.195,9.508 8.223,9.998l0,0Z" style="fill:#3a8d6e;"/><path d="M581.407,151.394c2.127,0.207 4.023,-1.351 4.23,-3.478c0.207,-2.127 -1.352,-4.023 -3.479,-4.23c-2.127,-0.207 -4.022,1.352 -4.229,3.479c-0.207,2.127 1.351,4.022 3.478,4.229l0,0Z" style="fill:#3a8d6e;"/><path d="M511.81,142.571c1.888,0.184 3.57,-1.199 3.754,-3.087c0.184,-1.888 -1.2,-3.569 -3.087,-3.753c-1.888,-0.184 -3.57,1.199 -3.754,3.087c-0.184,1.887 1.2,3.569 3.087,3.753Z" style="fill:#3a8d6e;"/><path d="M480.105,154.244c1.888,0.183 3.569,-1.2 3.753,-3.087c0.184,-1.888 -1.199,-3.57 -3.087,-3.754c-1.887,-0.184 -3.569,1.2 -3.753,3.087c-0.184,1.888 1.199,3.57 3.087,3.754l0,0Z" style="fill:#3a8d6e;"/><path d="M424.989,144.734c2.054,0.2 3.883,-1.305 4.083,-3.359c0.2,-2.053 -1.305,-3.883 -3.358,-4.083c-2.054,-0.2 -3.884,1.305 -4.084,3.358c-0.2,2.054 1.305,3.884 3.359,4.084l0,0Z" style="fill:#3a8d6e;"/><path d="M405.07,92.047c2.069,0.202 3.913,-1.315 4.115,-3.385c0.202,-2.069 -1.315,-3.914 -3.385,-4.115c-2.069,-0.202 -3.914,1.315 -4.115,3.385c-0.202,2.069 1.315,3.913 3.385,4.115Z" style="fill:#3a8d6e;"/><path d="M469.082,50.863c3.473,0.339 6.566,-2.206 6.905,-5.678c0.338,-3.472 -2.207,-6.566 -5.679,-6.904c-3.472,-0.339 -6.566,2.206 -6.904,5.678c-0.338,3.473 2.206,6.566 5.678,6.904Z" style="fill:#3a8d6e;"/><path d="M600.78,123.595c3.871,0.377 7.32,-2.459 7.697,-6.33c0.377,-3.871 -2.459,-7.32 -6.33,-7.697c-3.871,-0.377 -7.32,2.459 -7.697,6.33c-0.377,3.871 2.459,7.32 6.33,7.697Z" style="fill:#3a8d6e;"/><path d="M561.487,103.679c3.175,0.309 6.003,-2.017 6.312,-5.191c0.309,-3.174 -2.017,-6.002 -5.191,-6.312c-3.174,-0.309 -6.002,2.017 -6.312,5.191c-0.309,3.174 2.017,6.002 5.191,6.312Z" style="fill:#3a8d6e;"/><path d="M430.995,94.07c5.309,0.517 10.04,-3.374 10.557,-8.684c0.517,-5.309 -3.373,-10.04 -8.683,-10.557c-5.31,-0.517 -10.04,3.373 -10.558,8.683c-0.517,5.31 3.374,10.04 8.684,10.558l0,0Z" style="fill:#3a8d6e;"/><path d="M601.507,117.108l44.473,-0.557l-0.028,-2.25c-36.885,0.462 -37.399,-1.605 -72.795,8.781l-9.333,-24.904l-2.107,0.79l10.067,26.861c9.908,-2.907 19.816,-5.814 29.723,-8.721l0,0Z" style="fill:#3a8d6e;fill-rule:nonzero;"/><path d="M480.611,149.21l-17.811,-15.792l50.002,-20.117l59.658,12.639l8.933,22.633l2.093,-0.826l-9.377,-23.758l-61.511,-13.031l-53.52,21.532l-0.095,0.55l20.136,17.854c0.497,-0.561 0.995,-1.123 1.492,-1.684l0,0Z" style="fill:#3a8d6e;fill-rule:nonzero;"/><path d="M462.475,134.228l0.131,-0.3l-29.969,-51.01l-26.903,4.255l0.351,2.222l25.389,-4.015l27.766,47.261l-32.156,7.141l0.488,2.197c11.635,-2.584 23.269,-5.168 34.903,-7.751l0,0Z" style="fill:#3a8d6e;fill-rule:nonzero;"/><path d="M470.063,45.377l-1.633,-1.548l-38.712,40.859l1.634,1.547c12.904,-13.619 25.807,-27.239 38.711,-40.858l0,0Z" style="fill:#3a8d6e;fill-rule:nonzero;"/><path d="M513.688,139.182l1.064,-17.935l-2.246,-0.134l-1.064,17.936c0.748,0.044 1.497,0.089 2.246,0.133l0,0Z" style="fill:#3a8d6e;fill-rule:nonzero;"/><path d="M640.854,125.444c4.519,2.149 9.932,0.225 12.081,-4.294c2.148,-4.519 0.224,-9.933 -4.295,-12.082c-4.519,-2.148 -9.933,-0.224 -12.081,4.295c-2.149,4.519 -0.225,9.933 4.295,12.081Z" style="fill:#3a8d6e;"/><path d="M788.745,129.356c-5.563,-2.012 -11.713,0.871 -13.725,6.435c-2.012,5.563 0.871,11.713 6.434,13.725c5.564,2.012 11.714,-0.871 13.726,-6.434c2.012,-5.564 -0.871,-11.714 -6.435,-13.726Z" style="fill:#3a8d6e;"/><path d="M746.208,135.35c-5.606,-2.027 -11.803,0.878 -13.83,6.483c-2.027,5.606 0.878,11.803 6.484,13.83c5.605,2.028 11.802,-0.877 13.83,-6.483c2.027,-5.606 -0.878,-11.803 -6.484,-13.83Z" style="fill:#3a8d6e;"/><path d="M702.624,117.37c-3.663,-1.325 -7.713,0.573 -9.038,4.237c-1.325,3.664 0.574,7.714 4.237,9.039c3.664,1.325 7.714,-0.574 9.039,-4.238c1.325,-3.663 -0.574,-7.713 -4.238,-9.038l0,0Z" style="fill:#3a8d6e;"/><path d="M749.167,122.265c-1.376,-0.497 -2.896,0.216 -3.394,1.591c-0.497,1.375 0.216,2.896 1.591,3.393c1.376,0.498 2.896,-0.215 3.393,-1.59c0.498,-1.376 -0.215,-2.896 -1.59,-3.394Z" style="fill:#3a8d6e;"/><path d="M775.479,117.328c-2.079,-0.752 -4.378,0.326 -5.13,2.405c-0.752,2.079 0.326,4.378 2.405,5.13c2.08,0.752 4.378,-0.325 5.13,-2.405c0.752,-2.079 -0.325,-4.378 -2.405,-5.13Z" style="fill:#3a8d6e;"/><path d="M679.071,119.476c-2.82,-1.02 -5.938,0.442 -6.958,3.262c-1.02,2.82 0.442,5.938 3.262,6.958c2.821,1.02 5.939,-0.441 6.959,-3.262c1.02,-2.82 -0.442,-5.938 -3.263,-6.958l0,0Z" style="fill:#3a8d6e;"/><path d="M704.632,141.851c-2.313,-0.837 -4.87,0.362 -5.706,2.675c-0.836,2.312 0.362,4.869 2.675,5.705c2.313,0.837 4.869,-0.362 5.706,-2.674c0.836,-2.313 -0.363,-4.87 -2.675,-5.706Z" style="fill:#3a8d6e;"/><path d="M677.291,124.184l-33.335,-8.065l-0.408,1.686c27.648,6.69 27.637,8.333 56.065,7.323l2.224,20.387l1.725,-0.188l-2.399,-21.99c-7.958,0.282 -15.915,0.565 -23.872,0.847l0,0Z" style="fill:#3a8d6e;fill-rule:nonzero;"/><path d="M773.744,123.255l10.296,15.197l-41.197,5.494l-42.165,-20.821l-1.604,1.143l43.475,21.468l44.095,-5.881l0.176,-0.393l-11.64,-17.18c-0.478,0.324 -0.957,0.648 -1.436,0.973l0,0Z" style="fill:#3a8d6e;fill-rule:nonzero;"/><path d="M747.118,124.439l-4.216,13.199l1.653,0.528l4.215,-13.199c-0.551,-0.176 -1.101,-0.352 -1.652,-0.528Z" style="fill:#3a8d6e;fill-rule:nonzero;"/></svg>