<?xml version="1.0" encoding="UTF-8" standalone="no"?><!DOCTYPE svg PUBLIC "-//W3C//DTD SVG 1.1//EN" "http://www.w3.org/Graphics/SVG/1.1/DTD/svg11.dtd"><svg width="100%" height="100%" viewBox="0 0 1225 164" version="1.1" xmlns="http://www.w3.org/2000/svg" xmlns:xlink="http://www.w3.org/1999/xlink" xml:space="preserve" style="fill-rule:evenodd;clip-rule:evenodd;stroke-linejoin:round;stroke-miterlimit:1.41421;"><path d="M120.402,10.679l0,147.736l5.142,0l0,-147.614l-5.142,-0.122Z" style="fill:#77c7a9;"/><path d="M940.702,58.595l0,99.911l-5.142,0l0,-99.829l5.142,-0.082l0,0Z" style="fill:#77c7a9;"/><path d="M878.382,110.349l-8.09,0.005l-0.032,-17.148c0,0 0.02,-2.674 3.146,-2.978c3.127,-0.304 5.503,-0.251 6.087,-0.251c0.584,0 -1.111,20.372 -1.111,20.372" style="fill:#77c7a9;"/><path d="M878.133,117.338l-10.879,0c0,0 -3.479,-0.262 -3.479,-3.478c0,-3.216 0,-1.932 0,-1.932l14.293,-0.402" style="fill:#77c7a9;"/><path d="M869.118,97.271l0.063,9.063c0,0 -3.862,2.052 -6.203,4.513c-5.904,0.627 -7.378,0.524 -11.739,2.154c1.579,-4.305 8.831,-14.136 17.879,-15.73" style="fill:#77c7a9;"/><path d="M862.654,112.079c0,0 -1.895,6.706 6.527,6.706c8.421,0 7.942,-0.163 7.942,-0.163l-0.066,23.74c0,0 -4.767,0.568 -4.767,5.032c0,4.465 4.801,4.764 4.801,4.764l0.013,1.043c0,0 -9.409,-0.065 -15.765,-0.552c-6.357,-0.487 -10.059,-0.885 -15.095,-6.145c-5.036,-5.259 -2.854,-13.699 -2.835,-14.884l0.018,-1.185c0,0 0.395,-7.397 0.707,-8.339c0.313,-0.941 1.687,-3.98 3.991,-5.856c2.304,-1.877 7.213,-4.478 14.529,-4.161Z" style="fill:#77c7a9;"/><path d="M892.717,112.079c0,0 1.895,6.706 -6.527,6.706c-8.421,0 -7.941,-0.163 -7.941,-0.163l0.065,23.74c0,0 4.767,0.568 4.767,5.032c0,4.465 -4.8,4.764 -4.8,4.764l-0.014,1.043c0,0 9.409,-0.065 15.766,-0.552c6.356,-0.487 10.059,-0.885 15.094,-6.145c5.036,-5.259 2.854,-13.699 2.836,-14.884l-0.019,-1.185c0,0 -0.395,-7.397 -0.707,-8.339c-0.312,-0.941 -1.687,-3.98 -3.991,-5.856c-2.304,-1.877 -7.213,-4.478 -14.529,-4.161l0,0Z" style="fill:#77c7a9;"/><path d="M877.238,117.338l10.88,0c0,0 3.478,-0.262 3.478,-3.478c0,-3.216 0,-1.932 0,-1.932l-14.293,-0.402" style="fill:#77c7a9;"/><path d="M876.989,110.349l8.09,0.005l0.033,-17.148c0,0 -0.021,-2.674 -3.147,-2.978c-3.126,-0.304 -5.503,-0.251 -6.087,-0.251c-0.584,0 1.111,20.372 1.111,20.372" style="fill:#77c7a9;"/><path d="M886.253,97.271l-0.062,9.063c0,0 3.861,2.052 6.203,4.513c5.904,0.627 7.377,0.524 11.738,2.154c-1.579,-4.305 -8.831,-14.136 -17.879,-15.73" style="fill:#77c7a9;"/><ellipse cx="877.647" cy="147.38" rx="4.216" ry="3.766" style="fill:#77c7a9;"/><path d="M937.498,94.793l-48.812,0c0,0 6.083,3.811 11.357,7.115c12.533,0.199 21.752,0.118 37.223,-0.088c0.154,-6.116 0.232,-7.027 0.232,-7.027l0,0Z" style="fill:#77c7a9;"/><path d="M1113.14,49.985l0,1.532c0,0 2.317,0.697 4.399,2.446c1.35,1.133 2.601,3.017 3.06,4.397c0.656,1.973 1.597,4.325 1.229,6.937c-0.287,2.033 -1.575,4.223 -3.053,6.514l-18.056,0c0,0 -3.412,-2.647 -3.412,-8.767c0,-2.744 1.262,-5.824 3.241,-7.803c2.435,-2.435 5.683,-3.474 5.683,-3.474l0,-1.782l6.909,0Zm-6.909,-6.428l0,-3.84l-1.615,-3.458l9.472,-0.286l-0.948,3.172l0,4.412l-6.909,0l0,0Z" style="fill:#77c7a9;"/><path d="M1146.59,49.985l0,1.532c0,0 2.317,0.697 4.399,2.446c1.35,1.133 2.601,3.017 3.06,4.397c0.657,1.973 1.597,4.325 1.229,6.937c-0.286,2.033 -1.575,4.223 -3.053,6.514l-18.056,0c0,0 -3.412,-2.647 -3.412,-8.767c0,-2.744 1.262,-5.824 3.241,-7.803c2.435,-2.435 5.683,-3.474 5.683,-3.474l0,-1.782l6.909,0Zm-6.909,-6.428l0,-3.84l-1.615,-3.458l9.472,-0.286l-0.948,3.172l0,4.412l-6.909,0l0,0Z" style="fill:#77c7a9;"/><path d="M788.765,110.188l8.09,0.006l0.033,-17.148c0,0 -0.021,-2.675 -3.147,-2.979c-3.127,-0.304 -5.503,-0.25 -6.087,-0.25c-0.584,0 1.111,20.371 1.111,20.371" style="fill:#77c7a9;"/><path d="M789.014,117.178l10.879,0c0,0 3.479,-0.263 3.479,-3.479c0,-3.216 0,-1.931 0,-1.931l-14.293,-0.402" style="fill:#77c7a9;"/><path d="M798.029,97.111l-0.063,9.063c0,0 3.862,2.051 6.204,4.513c5.903,0.626 7.377,0.523 11.738,2.153c-1.579,-4.304 -8.831,-14.135 -17.879,-15.729" style="fill:#77c7a9;"/><path d="M804.493,111.918c0,0 1.895,6.707 -6.527,6.707c-8.421,0 -7.942,-0.164 -7.942,-0.164l0.066,23.741c0,0 4.767,0.567 4.767,5.032c0,4.464 -4.801,4.764 -4.801,4.764l-0.013,1.042c0,0 9.409,-0.064 15.766,-0.552c6.356,-0.487 10.058,-0.885 15.094,-6.144c5.036,-5.26 2.854,-13.699 2.835,-14.885l-0.018,-1.185c0,0 -0.395,-7.396 -0.707,-8.338c-0.312,-0.942 -1.687,-3.98 -3.991,-5.857c-2.304,-1.877 -7.213,-4.478 -14.529,-4.161l0,0Z" style="fill:#77c7a9;"/><path d="M774.43,111.918c0,0 -1.895,6.707 6.527,6.707c8.421,0 7.941,-0.164 7.941,-0.164l-0.065,23.741c0,0 -4.767,0.567 -4.767,5.032c0,4.464 4.801,4.764 4.801,4.764l0.013,1.042c0,0 -9.409,-0.064 -15.766,-0.552c-6.356,-0.487 -10.059,-0.885 -15.094,-6.144c-5.036,-5.26 -2.854,-13.699 -2.836,-14.885l0.019,-1.185c0,0 0.395,-7.396 0.707,-8.338c0.312,-0.942 1.687,-3.98 3.991,-5.857c2.304,-1.877 7.213,-4.478 14.529,-4.161l0,0Z" style="fill:#77c7a9;"/><path d="M789.909,117.178l-10.88,0c0,0 -3.478,-0.263 -3.478,-3.479c0,-3.216 0,-1.931 0,-1.931l14.293,-0.402" style="fill:#77c7a9;"/><path d="M790.158,110.188l-8.09,0.006l-0.033,-17.148c0,0 0.021,-2.675 3.147,-2.979c3.126,-0.304 5.503,-0.25 6.087,-0.25c0.584,0 -1.111,20.371 -1.111,20.371" style="fill:#77c7a9;"/><path d="M780.894,97.111l0.062,9.063c0,0 -3.861,2.051 -6.203,4.513c-5.903,0.626 -7.377,0.523 -11.738,2.153c1.579,-4.304 8.831,-14.135 17.879,-15.729" style="fill:#77c7a9;"/><ellipse cx="789.5" cy="147.219" rx="4.216" ry="3.766" style="fill:#77c7a9;"/><path d="M729.649,94.632l48.812,0c0,0 -6.083,3.811 -11.357,7.115c-12.533,0.199 -21.751,0.118 -37.223,-0.088c-0.154,-6.116 -0.232,-7.027 -0.232,-7.027l0,0Z" style="fill:#77c7a9;"/><path d="M659.533,85.541l0,58.195l-103.463,0l0,-58.195l103.463,0Zm-2.963,3.105l-97.756,0l0,52.228l97.756,0l0,-52.228l0,0Z" style="fill:#77c7a9;"/><path d="M150.993,109.47l8.12,-12.759l1.155,0.684l0.467,-4.649l-3.422,2.109l0.727,0.942l-8.373,12.775l1.326,0.898" style="fill:#77c7a9;"/><circle cx="187.361" cy="71.011" r="11.575" style="fill:#77c7a9;"/><circle cx="203.535" cy="87.463" r="10.079" style="fill:#77c7a9;"/><circle cx="217.192" cy="101.241" r="8.909" style="fill:#77c7a9;"/><path d="M116.546,13.67l-90.233,0c0,0 -5.612,-0.18 -5.612,5.612c0,5.791 0,28.534 0,28.534l5.419,0l0,-29.279l92.341,0l-1.915,-4.867l0,0Z" style="fill:#77c7a9;"/><path d="M227.804,128.4l-146.928,0c0,0 -5.612,-0.18 -5.612,5.611c0,5.792 0,28.535 0,28.535l5.419,0l0,-29.279l146.912,0l0.209,-4.867l0,0Z" style="fill:#77c7a9;"/><rect x="97.646" y="17.155" width="4.217" height="14.879" style="fill:#77c7a9;"/><rect x="64.194" y="17.155" width="4.217" height="14.879" style="fill:#77c7a9;"/><path d="M124.068,16.398l4.102,-4.405l49.069,45.698l-4.101,4.404l-49.07,-45.697l0,0Z" style="fill:#77c7a9;"/><path d="M172.216,59.702l2.674,-2.87l53.322,49.658l-2.673,2.87l-53.323,-49.658l0,0Z" style="fill:#77c7a9;"/><rect x="19.147" y="142.975" width="7.119" height="17.304" style="fill:#77c7a9;"/><rect x="483.405" y="104.802" width="6.172" height="54.237" style="fill:#77c7a9;"/><rect x="717.058" y="46.842" width="7.955" height="11.225" style="fill:#77c7a9;"/><rect x="123.44" y="98.001" width="15.745" height="7.583" style="fill:#77c7a9;"/><path d="M92.149,45.222c0,-0.742 0.602,-1.345 1.344,-1.345l11.883,0c0.742,0 1.344,0.603 1.344,1.345l0,2.69c0,0.742 -0.602,1.345 -1.344,1.345l-11.883,0c-0.742,0 -1.344,-0.603 -1.344,-1.345l0,-2.69Z" style="fill:#77c7a9;"/><path d="M58.696,45.222c0,-0.742 0.603,-1.345 1.345,-1.345l11.883,0c0.742,0 1.344,0.603 1.344,1.345l0,2.69c0,0.742 -0.602,1.345 -1.344,1.345l-11.883,0c-0.742,0 -1.345,-0.603 -1.345,-1.345l0,-2.69Z" style="fill:#77c7a9;"/><circle cx="123.289" cy="81.018" r="8.429" style="fill:#77c7a9;"/><circle cx="123.289" cy="130.4" r="8.429" style="fill:#77c7a9;"/><circle cx="225.769" cy="130.4" r="8.429" style="fill:#77c7a9;"/><circle cx="289.221" cy="130.931" r="8.429" style="fill:#77c7a9;"/><circle cx="289.221" cy="99.072" r="8.429" style="fill:#77c7a9;"/><circle cx="485.686" cy="99.072" r="8.429" style="fill:#77c7a9;"/><circle cx="123.289" cy="17.3" r="8.429" style="fill:#77c7a9;"/><path d="M160.813,91.258l0.743,0.47l1.418,-1.658l-1.092,-0.821l-1.069,2.009Z" style="fill:#77c7a9;"/><path d="M165.064,95.228l0.52,0.709l1.925,-1.025l-0.716,-1.163l-1.729,1.479Z" style="fill:#77c7a9;"/><path d="M167.133,101.179l0.045,0.879l2.172,0.2l0.04,-1.365l-2.257,0.286l0,0Z" style="fill:#77c7a9;"/><path d="M165.672,107.405l-0.372,0.797l1.825,1.195l0.675,-1.187l-2.128,-0.805l0,0Z" style="fill:#77c7a9;"/><path d="M161.526,111.936l-0.712,0.515l1.014,1.931l1.168,-0.709l-1.47,-1.737l0,0Z" style="fill:#77c7a9;"/><path d="M1178.15,152.274l0,-3.806l12.303,0l0,3.806c-0.013,0 -0.026,0 -0.04,0c-0.579,0 -1.049,0.47 -1.049,1.049c0,0.58 0.47,1.05 1.049,1.05c0.014,0 0.027,0 0.04,-0.001l0,2.476l-12.303,0l0,-2.475c0.572,-0.009 1.034,-0.476 1.034,-1.05c0,-0.574 -0.462,-1.041 -1.034,-1.049Z" style="fill:#77c7a9;"/><path d="M155.75,113.595l-0.878,-0.058l-0.452,2.134l1.352,0.199l-0.022,-2.275l0,0Z" style="fill:#77c7a9;"/><path d="M149.6,112.584l-0.73,-0.491l-1.462,1.62l1.069,0.85l1.123,-1.979l0,0Z" style="fill:#77c7a9;"/><path d="M145.172,108.187l-0.49,-0.73l-1.966,0.944l0.667,1.192l1.789,-1.406l0,0Z" style="fill:#77c7a9;"/><rect x="63.191" y="45.736" width="58.132" height="2.337" style="fill:#77c7a9;"/><path d="M348.825,110.124l8.09,0.005l0.033,-17.148c0,0 -0.02,-2.674 -3.147,-2.978c-3.126,-0.304 -5.502,-0.251 -6.087,-0.251c-0.584,0 1.111,20.372 1.111,20.372" style="fill:#77c7a9;"/><path d="M349.074,117.113l10.88,0c0,0 3.479,-0.262 3.479,-3.478c0,-3.216 0,-1.932 0,-1.932l-14.293,-0.402" style="fill:#77c7a9;"/><path d="M358.09,97.046l-0.063,9.063c0,0 3.862,2.052 6.203,4.513c5.904,0.627 7.377,0.524 11.739,2.154c-1.579,-4.305 -8.831,-14.136 -17.879,-15.73" style="fill:#77c7a9;"/><path d="M364.553,111.854c0,0 1.895,6.706 -6.526,6.706c-8.422,0 -7.942,-0.163 -7.942,-0.163l0.065,23.74c0,0 4.768,0.568 4.768,5.032c0,4.465 -4.801,4.764 -4.801,4.764l-0.013,1.043c0,0 9.408,-0.065 15.765,-0.552c6.357,-0.487 10.059,-0.885 15.095,-6.145c5.035,-5.259 2.853,-13.699 2.835,-14.884l-0.018,-1.185c0,0 -0.395,-7.397 -0.708,-8.339c-0.312,-0.941 -1.686,-3.98 -3.991,-5.856c-2.304,-1.877 -7.212,-4.478 -14.529,-4.161l0,0Z" style="fill:#77c7a9;"/><path d="M334.491,111.854c0,0 -1.895,6.706 6.526,6.706c8.422,0 7.942,-0.163 7.942,-0.163l-0.065,23.74c0,0 -4.768,0.568 -4.768,5.032c0,4.465 4.801,4.764 4.801,4.764l0.013,1.043c0,0 -9.408,-0.065 -15.765,-0.552c-6.357,-0.487 -10.059,-0.885 -15.095,-6.145c-5.035,-5.259 -2.853,-13.699 -2.835,-14.884l0.019,-1.185c0,0 0.394,-7.397 0.707,-8.339c0.312,-0.941 1.686,-3.98 3.991,-5.856c2.304,-1.877 7.213,-4.478 14.529,-4.161l0,0Z" style="fill:#77c7a9;"/><path d="M349.97,117.113l-10.88,0c0,0 -3.478,-0.262 -3.478,-3.478c0,-3.216 0,-1.932 0,-1.932l14.292,-0.402" style="fill:#77c7a9;"/><path d="M350.219,110.124l-8.09,0.005l-0.033,-17.148c0,0 0.02,-2.674 3.147,-2.978c3.126,-0.304 5.502,-0.251 6.087,-0.251c0.584,0 -1.111,20.372 -1.111,20.372" style="fill:#77c7a9;"/><path d="M340.954,97.046l0.063,9.063c0,0 -3.862,2.052 -6.203,4.513c-5.904,0.627 -7.377,0.524 -11.739,2.154c1.579,-4.305 8.831,-14.136 17.879,-15.73" style="fill:#77c7a9;"/><ellipse cx="349.561" cy="147.155" rx="4.216" ry="3.766" style="fill:#77c7a9;"/><path d="M289.71,94.568l48.812,0c0,0 -6.083,3.811 -11.358,7.115c-12.532,0.199 -21.751,0.118 -37.222,-0.088c-0.155,-6.116 -0.232,-7.027 -0.232,-7.027l0,0Z" style="fill:#77c7a9;"/><path d="M96.069,49.76l0,1.532c0,0 -2.316,0.697 -4.399,2.446c-1.349,1.133 -2.6,3.017 -3.059,4.397c-0.657,1.973 -1.597,4.325 -1.229,6.937c0.286,2.033 1.575,4.223 3.053,6.514l18.055,0c0,0 3.413,-2.647 3.413,-8.767c0,-2.744 -1.262,-5.824 -3.241,-7.803c-2.436,-2.435 -5.683,-3.474 -5.683,-3.474l0,-1.782l-6.91,0l0,0Zm6.91,-6.428l0,-3.84l1.615,-3.458l-9.472,-0.286l0.947,3.172l0,4.412l6.91,0Z" style="fill:#77c7a9;"/><path d="M62.617,49.76l0,1.532c0,0 -2.316,0.697 -4.399,2.446c-1.349,1.133 -2.6,3.017 -3.059,4.397c-0.657,1.973 -1.597,4.325 -1.229,6.937c0.286,2.033 1.574,4.223 3.053,6.514l18.055,0c0,0 3.413,-2.647 3.413,-8.767c0,-2.744 -1.262,-5.824 -3.241,-7.803c-2.436,-2.435 -5.683,-3.474 -5.683,-3.474l0,-1.782l-6.91,0l0,0Zm6.91,-6.428l0,-3.84l1.615,-3.458l-9.472,-0.286l0.947,3.172l0,4.412l6.91,0Z" style="fill:#77c7a9;"/><path d="M15.752,57.859c0,-0.743 0.603,-1.345 1.345,-1.345l11.882,0c0.742,0 1.345,0.602 1.345,1.345l0,2.689c0,0.743 -0.603,1.345 -1.345,1.345l-11.882,0c-0.742,0 -1.345,-0.602 -1.345,-1.345l0,-2.689l0,0Z" style="fill:#77c7a9;"/><path d="M15.752,140.664c0,-0.743 0.603,-1.345 1.345,-1.345l11.882,0c0.742,0 1.345,0.602 1.345,1.345l0,2.689c0,0.743 -0.603,1.345 -1.345,1.345l-11.882,0c-0.742,0 -1.345,-0.602 -1.345,-1.345l0,-2.689Z" style="fill:#77c7a9;"/><path d="M19.964,62.396l0,1.532c0,0 -9.055,10.408 -8.687,13.02c0.286,2.033 1.574,58.16 3.053,60.452l18.055,0c0,0 3.413,-55.065 3.413,-61.185c0,-2.744 -8.924,-12.037 -8.924,-12.037l0,-1.782l-6.91,0l0,0Zm6.91,-6.428l0,-3.84l1.615,-3.458l-9.472,-0.286l0.947,3.172l0,4.412l6.91,0Z" style="fill:#77c7a9;"/><path d="M422.443,109.963l-8.09,0.006l-0.033,-17.148c0,0 0.02,-2.675 3.147,-2.979c3.126,-0.304 5.503,-0.25 6.087,-0.25c0.584,0 -1.111,20.371 -1.111,20.371" style="fill:#77c7a9;"/><path d="M422.194,116.953l-10.88,0c0,0 -3.478,-0.263 -3.478,-3.479c0,-3.216 0,-1.931 0,-1.931l14.293,-0.402" style="fill:#77c7a9;"/><path d="M413.178,96.886l0.063,9.063c0,0 -3.861,2.051 -6.203,4.513c-5.904,0.626 -7.377,0.523 -11.738,2.153c1.579,-4.304 8.831,-14.135 17.878,-15.729" style="fill:#77c7a9;"/><path d="M406.715,111.693c0,0 -1.895,6.707 6.526,6.707c8.422,0 7.942,-0.164 7.942,-0.164l-0.065,23.741c0,0 -4.768,0.567 -4.768,5.032c0,4.464 4.801,4.764 4.801,4.764l0.014,1.042c0,0 -9.409,-0.064 -15.766,-0.552c-6.357,-0.487 -10.059,-0.885 -15.094,-6.144c-5.036,-5.26 -2.854,-13.699 -2.836,-14.885l0.019,-1.185c0,0 0.395,-7.396 0.707,-8.338c0.312,-0.942 1.687,-3.98 3.991,-5.857c2.304,-1.877 7.213,-4.478 14.529,-4.161l0,0Z" style="fill:#77c7a9;"/><path d="M436.778,111.693c0,0 1.894,6.707 -6.527,6.707c-8.421,0 -7.942,-0.164 -7.942,-0.164l0.065,23.741c0,0 4.768,0.567 4.768,5.032c0,4.464 -4.801,4.764 -4.801,4.764l-0.013,1.042c0,0 9.409,-0.064 15.765,-0.552c6.357,-0.487 10.059,-0.885 15.095,-6.144c5.036,-5.26 2.854,-13.699 2.835,-14.885l-0.018,-1.185c0,0 -0.395,-7.396 -0.707,-8.338c-0.313,-0.942 -1.687,-3.98 -3.991,-5.857c-2.305,-1.877 -7.213,-4.478 -14.529,-4.161l0,0Z" style="fill:#77c7a9;"/><path d="M421.298,116.953l10.88,0c0,0 3.479,-0.263 3.479,-3.479c0,-3.216 0,-1.931 0,-1.931l-14.293,-0.402" style="fill:#77c7a9;"/><path d="M421.05,109.963l8.09,0.006l0.032,-17.148c0,0 -0.02,-2.675 -3.146,-2.979c-3.127,-0.304 -5.503,-0.25 -6.087,-0.25c-0.585,0 1.111,20.371 1.111,20.371" style="fill:#77c7a9;"/><path d="M430.314,96.886l-0.063,9.063c0,0 3.862,2.051 6.203,4.513c5.904,0.626 7.377,0.523 11.739,2.153c-1.579,-4.304 -8.831,-14.135 -17.879,-15.729" style="fill:#77c7a9;"/><ellipse cx="421.707" cy="146.994" rx="4.216" ry="3.766" style="fill:#77c7a9;"/><path d="M481.559,94.407l-48.813,0c0,0 6.084,3.811 11.358,7.115c12.533,0.199 21.751,0.118 37.223,-0.088c0.154,-6.116 0.232,-7.027 0.232,-7.027l0,0Z" style="fill:#77c7a9;"/><path d="M638.621,29.842l0,46.839l77.217,0l0,-46.839l-77.217,0Zm2.212,2.499l72.956,0l0,42.037l-72.956,0l0,-42.037Z" style="fill:#77c7a9;"/><path d="M702.758,80.845c0.407,0.008 0.812,0.031 1.216,0.077c0.887,0.102 1.762,0.303 2.603,0.6c1.727,0.608 3.304,1.619 4.583,2.928c1.178,1.206 2.096,2.659 2.676,4.242c0.324,0.884 0.542,1.806 0.649,2.741c0.047,0.404 0.07,0.81 0.077,1.216c0.114,17.111 0.001,34.223 0.001,51.334c-0.002,0.405 -0.02,0.809 -0.061,1.212c-0.096,0.938 -0.302,1.864 -0.616,2.754c-0.608,1.726 -1.619,3.304 -2.929,4.582c-1.206,1.178 -2.659,2.097 -4.242,2.677c-0.836,0.306 -1.707,0.518 -2.591,0.631c-0.453,0.057 -0.909,0.086 -1.366,0.095c-6.507,0.041 -13.014,0.001 -19.521,0.001c-0.405,-0.003 -0.81,-0.021 -1.213,-0.062c-0.889,-0.09 -1.768,-0.281 -2.614,-0.568c-1.736,-0.587 -3.326,-1.579 -4.621,-2.874c-1.226,-1.226 -2.181,-2.716 -2.777,-4.344c-0.324,-0.884 -0.542,-1.806 -0.649,-2.741c-0.047,-0.404 -0.07,-0.81 -0.077,-1.217c-0.106,-17.11 -0.001,-34.222 -0.001,-51.333c0.002,-0.405 0.02,-0.809 0.061,-1.212c0.096,-0.938 0.303,-1.865 0.616,-2.754c0.545,-1.546 1.412,-2.973 2.528,-4.172c1.279,-1.374 2.88,-2.441 4.643,-3.087c0.836,-0.306 1.707,-0.518 2.591,-0.631c0.454,-0.057 0.909,-0.086 1.366,-0.095c6.556,-0.042 13.112,-0.042 19.668,0l0,0Zm-19.507,4.557c-0.287,0.002 -0.573,0.016 -0.859,0.049c-0.577,0.066 -1.146,0.2 -1.691,0.4c-1.26,0.462 -2.383,1.272 -3.224,2.317c-0.525,0.65 -0.938,1.39 -1.216,2.178c-0.183,0.519 -0.307,1.059 -0.37,1.606c-0.028,0.251 -0.043,0.503 -0.048,0.755c-0.105,17.121 -0.105,34.244 0,51.365c0.005,0.252 0.019,0.504 0.048,0.755c0.063,0.547 0.187,1.087 0.37,1.606c0.278,0.788 0.691,1.528 1.216,2.179c0.841,1.044 1.964,1.854 3.224,2.316c0.516,0.189 1.053,0.32 1.599,0.389c0.281,0.036 0.564,0.054 0.848,0.059c6.517,0.042 13.035,0.042 19.552,0c0.284,-0.005 0.567,-0.023 0.848,-0.059c0.546,-0.069 1.083,-0.2 1.599,-0.389c1.036,-0.38 1.981,-0.994 2.752,-1.784c0.729,-0.746 1.298,-1.646 1.658,-2.626c0.189,-0.516 0.319,-1.053 0.389,-1.598c0.036,-0.282 0.053,-0.565 0.059,-0.849c0.113,-17.12 0.113,-34.242 0,-51.363c-0.006,-0.284 -0.023,-0.567 -0.059,-0.849c-0.07,-0.545 -0.2,-1.082 -0.389,-1.598c-0.36,-0.98 -0.929,-1.88 -1.658,-2.626c-0.792,-0.811 -1.768,-1.438 -2.837,-1.815c-0.519,-0.183 -1.059,-0.307 -1.606,-0.369c-0.251,-0.029 -0.503,-0.043 -0.756,-0.048c-6.483,-0.041 -12.966,-0.001 -19.449,-0.001l0,0Z" style="fill:#77c7a9;fill-rule:nonzero;"/><path d="M711.766,89.252l0,57.844l-37.97,0l0,-57.844l37.97,0Zm-6.272,6.205l-25.442,0l0,6.749l25.442,0l0,-6.749Z" style="fill:#77c7a9;"/><path d="M534.11,80.845c0.406,0.008 0.811,0.031 1.216,0.077c0.886,0.102 1.761,0.303 2.603,0.6c1.5,0.529 2.89,1.361 4.067,2.431c1.424,1.295 2.53,2.932 3.192,4.74c0.306,0.836 0.518,1.707 0.631,2.591c0.057,0.453 0.086,0.908 0.095,1.365c0.113,17.111 0.001,34.223 0.001,51.334c-0.003,0.405 -0.021,0.809 -0.062,1.212c-0.095,0.938 -0.302,1.864 -0.615,2.754c-0.561,1.59 -1.463,3.056 -2.627,4.277c-1.262,1.324 -2.826,2.352 -4.544,2.982c-0.837,0.306 -1.708,0.518 -2.591,0.631c-0.454,0.057 -0.909,0.086 -1.366,0.095c-6.507,0.041 -13.015,0.001 -19.522,0.001c-0.405,-0.003 -0.809,-0.021 -1.212,-0.062c-0.89,-0.09 -1.768,-0.281 -2.615,-0.568c-1.599,-0.541 -3.076,-1.426 -4.311,-2.576c-1.374,-1.279 -2.441,-2.88 -3.087,-4.643c-0.307,-0.836 -0.518,-1.707 -0.631,-2.591c-0.058,-0.453 -0.086,-0.909 -0.095,-1.366c-0.106,-17.11 -0.001,-34.222 -0.001,-51.333c0.003,-0.455 0.026,-0.909 0.078,-1.362c0.096,-0.838 0.281,-1.666 0.551,-2.465c0.542,-1.599 1.427,-3.076 2.577,-4.311c1.279,-1.374 2.879,-2.441 4.642,-3.087c0.837,-0.306 1.708,-0.518 2.591,-0.631c0.454,-0.057 0.909,-0.086 1.366,-0.095c6.556,-0.042 13.113,-0.042 19.669,0l0,0Zm-19.507,4.557c-0.288,0.002 -0.574,0.016 -0.859,0.049c-0.577,0.066 -1.146,0.2 -1.691,0.4c-0.813,0.298 -1.571,0.74 -2.231,1.299c-0.979,0.827 -1.738,1.907 -2.179,3.11c-0.189,0.516 -0.32,1.054 -0.389,1.599c-0.036,0.282 -0.054,0.564 -0.059,0.848c-0.106,17.121 -0.106,34.244 0,51.365c0.005,0.284 0.023,0.566 0.059,0.848c0.069,0.545 0.2,1.083 0.389,1.599c0.369,1.007 0.962,1.93 1.72,2.689c0.759,0.758 1.682,1.351 2.689,1.72c0.517,0.189 1.054,0.32 1.599,0.389c0.282,0.036 0.564,0.054 0.848,0.059c6.518,0.042 13.035,0.042 19.553,0c0.283,-0.005 0.566,-0.023 0.848,-0.059c0.545,-0.069 1.082,-0.2 1.598,-0.389c0.841,-0.308 1.622,-0.771 2.299,-1.357c0.946,-0.819 1.68,-1.877 2.111,-3.052c0.189,-0.516 0.32,-1.054 0.389,-1.599c0.036,-0.282 0.054,-0.565 0.059,-0.849c0.113,-17.12 0.113,-34.242 0,-51.363c-0.005,-0.284 -0.023,-0.567 -0.059,-0.849c-0.069,-0.545 -0.2,-1.082 -0.389,-1.599c-0.431,-1.175 -1.165,-2.233 -2.111,-3.052c-0.677,-0.586 -1.458,-1.049 -2.299,-1.357c-0.516,-0.189 -1.053,-0.32 -1.598,-0.389c-0.282,-0.036 -0.565,-0.054 -0.848,-0.059c-6.483,-0.041 -12.966,-0.001 -19.449,-0.001l0,0Z" style="fill:#77c7a9;fill-rule:nonzero;"/><path d="M543.117,89.252l0,57.844l-37.97,0l0,-57.844l37.97,0Zm-6.272,6.205l-25.442,0l0,6.749l25.442,0l0,-6.749Z" style="fill:#77c7a9;"/><rect x="61.667" y="88.973" width="7.119" height="72.733" style="fill:#77c7a9;"/><path d="M58.272,86.662c0,-0.742 0.603,-1.345 1.345,-1.345l11.882,0c0.742,0 1.345,0.603 1.345,1.345l0,2.69c0,0.742 -0.603,1.345 -1.345,1.345l-11.882,0c-0.742,0 -1.345,-0.603 -1.345,-1.345l0,-2.69Z" style="fill:#77c7a9;"/><rect x="95.093" y="88.973" width="7.119" height="67.404" style="fill:#77c7a9;"/><path d="M91.698,86.662c0,-0.742 0.602,-1.345 1.345,-1.345l11.882,0c0.742,0 1.345,0.603 1.345,1.345l0,2.69c0,0.742 -0.603,1.345 -1.345,1.345l-11.882,0c-0.743,0 -1.345,-0.603 -1.345,-1.345l0,-2.69Z" style="fill:#77c7a9;"/><path d="M31.995,57.308c0.378,0.003 0.755,0.014 1.132,0.037c0.348,0.022 0.695,0.052 1.04,0.094c1.101,0.131 2.193,0.366 3.236,0.744c1.049,0.38 2.047,0.906 2.924,1.597c0.343,0.271 0.667,0.566 0.968,0.884c0.467,0.492 0.871,1.036 1.219,1.616c0.312,0.532 0.618,1.068 0.925,1.603c0.952,1.668 1.89,3.348 2.695,5.094c0.483,1.046 0.915,2.115 1.277,3.209c0.601,1.811 1.006,3.679 1.283,5.565c0.102,0.696 0.188,1.395 0.261,2.095c0.046,0.437 0.084,0.875 0.127,1.312c0.019,0.185 0.039,0.369 0.061,0.553c0.248,2.023 0.679,4.03 1.395,5.941c0.449,1.198 1.01,2.361 1.728,3.421c0.143,0.21 0.292,0.417 0.447,0.617c0.125,0.161 0.254,0.318 0.388,0.471c0.789,0.905 1.762,1.691 2.906,2.091c0.33,0.116 0.671,0.198 1.018,0.242c0.194,0.025 0.389,0.034 0.584,0.042c0.202,0.008 0.404,0.013 0.606,0.015c0.865,0.009 1.73,-0.031 2.59,-0.12c0.866,-0.088 1.727,-0.225 2.577,-0.412c0.553,-0.123 1.105,-0.262 1.642,-0.444l0.036,-0.013c0.028,-0.008 0.056,-0.017 0.085,-0.022c0.058,-0.01 0.117,-0.011 0.175,-0.001c0.058,0.009 0.114,0.028 0.166,0.056c0.184,0.098 0.296,0.301 0.28,0.51c-0.005,0.058 -0.019,0.116 -0.042,0.17c-0.047,0.108 -0.129,0.198 -0.232,0.255c-0.026,0.014 -0.054,0.024 -0.081,0.036c-0.083,0.029 -0.168,0.056 -0.252,0.083c-0.72,0.224 -1.454,0.4 -2.194,0.541c-0.857,0.163 -1.723,0.279 -2.593,0.349c-0.721,0.058 -1.445,0.083 -2.168,0.075c-0.212,-0.002 -0.424,-0.007 -0.636,-0.015c-0.188,-0.008 -0.375,-0.016 -0.562,-0.037c-0.422,-0.045 -0.838,-0.136 -1.24,-0.268c-0.221,-0.073 -0.438,-0.158 -0.65,-0.255c-1.466,-0.667 -2.649,-1.838 -3.571,-3.139c-0.163,-0.231 -0.32,-0.467 -0.469,-0.708c-0.18,-0.29 -0.351,-0.587 -0.512,-0.889c-0.216,-0.406 -0.416,-0.82 -0.601,-1.241c-0.238,-0.542 -0.451,-1.095 -0.642,-1.655c-0.221,-0.647 -0.412,-1.303 -0.578,-1.966c-0.205,-0.819 -0.371,-1.648 -0.502,-2.483c-0.078,-0.498 -0.144,-0.999 -0.197,-1.501c-0.054,-0.499 -0.095,-1 -0.147,-1.5c-0.031,-0.294 -0.064,-0.588 -0.099,-0.882c-0.16,-1.305 -0.366,-2.605 -0.657,-3.888c-0.272,-1.203 -0.62,-2.389 -1.048,-3.546c-0.711,-1.922 -1.64,-3.754 -2.629,-5.546c-0.366,-0.663 -0.739,-1.322 -1.117,-1.978c-0.248,-0.432 -0.495,-0.864 -0.747,-1.294c-0.058,-0.096 -0.118,-0.192 -0.178,-0.287c-0.296,-0.449 -0.63,-0.87 -1.007,-1.253c-0.235,-0.238 -0.484,-0.461 -0.747,-0.667c-1.565,-1.235 -3.528,-1.853 -5.484,-2.104c-0.281,-0.036 -0.563,-0.064 -0.846,-0.086c-0.405,-0.031 -0.812,-0.049 -1.218,-0.054c-0.53,-0.006 -1.061,0.009 -1.59,0.043c-0.487,0.032 -0.973,0.08 -1.456,0.144c-0.359,0.049 -0.717,0.106 -1.072,0.179l-0.027,0.005c-0.029,0.004 -0.058,0.01 -0.087,0.012c-0.058,0.002 -0.117,-0.005 -0.174,-0.021c-0.056,-0.016 -0.109,-0.042 -0.157,-0.076c-0.048,-0.034 -0.09,-0.075 -0.125,-0.123c-0.122,-0.169 -0.133,-0.401 -0.027,-0.581c0.06,-0.102 0.153,-0.181 0.262,-0.225c0.027,-0.011 0.056,-0.017 0.084,-0.025c0.122,-0.027 0.245,-0.05 0.368,-0.072c1.19,-0.209 2.397,-0.311 3.605,-0.324l0.271,0Z" style="fill:#77c7a9;fill-rule:nonzero;"/><rect x="1129.91" y="125.585" width="2.835" height="6.891" style="fill:#77c7a9;"/><rect x="1130.11" y="83.42" width="2.835" height="4.731" style="fill:#77c7a9;"/><path d="M1128.4,92.006c0,-0.295 0.24,-0.535 0.536,-0.535l4.732,0c0.295,0 0.535,0.24 0.535,0.535l0,1.071c0,0.296 -0.24,0.536 -0.535,0.536l-4.732,0c-0.296,0 -0.536,-0.24 -0.536,-0.536l0,-1.071Z" style="fill:#77c7a9;"/><path d="M1128.56,124.665c0,-0.296 0.24,-0.536 0.535,-0.536l4.732,0c0.296,0 0.535,0.24 0.535,0.536l0,1.071c0,0.295 -0.239,0.535 -0.535,0.535l-4.732,0c-0.295,0 -0.535,-0.24 -0.535,-0.535l0,-1.071Z" style="fill:#77c7a9;"/><path d="M1129.96,93.813l0,0.61c0,0 -3.606,4.145 -3.46,5.185c0.114,0.81 0.627,23.161 1.216,24.073l7.19,0c0,0 1.359,-21.928 1.359,-24.365c0,-1.092 -3.554,-4.793 -3.554,-4.793l0,-0.71l-2.751,0l0,0Zm2.751,-2.56l0,-1.529l0.643,-1.377l-3.777,0.024l0.474,1.345l-0.024,1.519l2.684,0.018Z" style="fill:#77c7a9;"/><path d="M1137.91,92.063c0.378,0.003 0.755,0.014 1.132,0.037c0.347,0.022 0.694,0.052 1.04,0.094c1.101,0.131 2.193,0.366 3.236,0.744c1.049,0.38 2.046,0.906 2.924,1.598c0.343,0.27 0.667,0.565 0.968,0.883c0.466,0.492 0.871,1.036 1.219,1.617c0.312,0.532 0.618,1.067 0.925,1.602c0.952,1.668 1.89,3.348 2.695,5.094c0.483,1.046 0.914,2.116 1.277,3.209c0.601,1.811 1.006,3.679 1.283,5.565c0.102,0.696 0.188,1.395 0.261,2.096c0.046,0.436 7.68,22.905 7.723,23.342c0.02,0.185 0.04,0.369 0.061,0.553c0.248,2.023 0.679,4.03 1.396,5.941c0.449,1.197 1.009,2.361 1.728,3.421c0.142,0.21 0.291,0.416 0.447,0.617c0.125,0.161 0.254,0.318 0.387,0.471c0.79,0.905 1.762,1.691 2.907,2.091c0.33,0.116 0.671,0.198 1.017,0.242c0.194,0.024 0.389,0.034 0.585,0.042c0.202,0.007 0.404,0.012 0.606,0.015c0.865,0.009 1.73,-0.032 2.59,-0.12c0.866,-0.089 1.727,-0.225 2.577,-0.413c0.553,-0.122 1.105,-0.262 1.641,-0.444l0.037,-0.012c0.028,-0.008 0.056,-0.017 0.085,-0.022c0.058,-0.01 0.117,-0.011 0.175,-0.001c0.058,0.009 0.114,0.028 0.166,0.055c0.184,0.099 0.296,0.302 0.28,0.51c-0.005,0.059 -0.019,0.116 -0.042,0.17c-0.047,0.108 -0.13,0.199 -0.233,0.256c-0.025,0.014 -0.053,0.024 -0.08,0.036c-0.084,0.029 -0.168,0.056 -0.252,0.083c-0.72,0.224 -1.454,0.4 -2.194,0.541c-0.857,0.163 -1.723,0.279 -2.593,0.349c-0.721,0.057 -1.445,0.083 -2.169,0.075c-0.212,-0.002 -0.423,-0.007 -0.635,-0.016c-0.188,-0.007 -0.376,-0.016 -0.563,-0.036c-0.421,-0.045 -0.837,-0.136 -1.24,-0.269c-0.221,-0.072 -0.438,-0.158 -0.65,-0.254c-1.466,-0.667 -2.648,-1.839 -3.57,-3.139c-0.164,-0.231 -0.32,-0.467 -0.469,-0.708c-0.181,-0.291 -0.351,-0.588 -0.512,-0.89c-0.217,-0.405 -0.416,-0.82 -0.601,-1.24c-0.238,-0.543 -0.451,-1.095 -0.642,-1.656c-0.221,-0.646 -0.413,-1.302 -0.578,-1.965c-0.205,-0.819 -0.371,-1.649 -0.502,-2.483c-0.078,-0.499 -0.144,-0.999 -0.198,-1.501c-0.054,-0.5 -7.691,-23.031 -7.743,-23.531c-0.031,-0.294 -0.064,-0.588 -0.099,-0.882c-0.16,-1.305 -0.366,-2.605 -0.657,-3.888c-0.272,-1.203 -0.62,-2.388 -1.048,-3.546c-0.711,-1.922 -1.64,-3.754 -2.629,-5.546c-0.366,-0.663 -0.739,-1.321 -1.117,-1.978c-0.248,-0.431 -0.496,-0.864 -0.748,-1.294c-0.058,-0.096 -0.117,-0.192 -0.178,-0.286c-0.295,-0.45 -0.629,-0.871 -1.007,-1.254c-0.234,-0.238 -0.484,-0.461 -0.746,-0.667c-1.566,-1.234 -3.528,-1.853 -5.484,-2.104c-0.281,-0.036 -0.563,-0.064 -0.846,-0.086c-0.405,-0.031 -0.812,-0.049 -1.218,-0.053c-0.531,-0.007 -1.865,-0.031 -2.751,-0.269c-0.35,-0.093 -1.012,-0.199 -1.367,-0.126l-0.027,0.006c-0.029,0.004 -0.058,0.01 -0.087,0.011c-0.059,0.003 -0.117,-0.004 -0.174,-0.021c-0.056,-0.016 -0.109,-0.042 -0.157,-0.076c-0.048,-0.033 -0.091,-0.075 -0.125,-0.123c-0.122,-0.169 -0.133,-0.401 -0.027,-0.581c0.059,-0.101 0.153,-0.181 0.262,-0.224c0.027,-0.011 0.056,-0.017 0.084,-0.026c0.122,-0.026 0.355,0.067 0.377,0.194c1.191,-0.209 2.388,0.183 3.596,0.17l0.271,0Z" style="fill:#77c7a9;fill-rule:nonzero;"/><path d="M29.306,59.264c0.426,0.022 0.85,0.062 1.273,0.112c0.557,0.066 1.112,0.15 1.664,0.249c1.498,0.269 2.977,0.65 4.418,1.139c2.405,0.817 4.712,1.943 6.79,3.408c1.046,0.737 2.031,1.559 2.938,2.462c0.849,0.845 1.629,1.76 2.327,2.734c1.096,1.53 1.988,3.203 2.67,4.957c0.432,1.109 0.78,2.25 1.054,3.408c0.205,0.869 0.359,1.749 0.517,2.627c0.281,1.558 0.545,3.119 0.786,4.683c0.344,2.237 0.644,4.481 0.867,6.733c0.186,1.878 0.32,3.762 0.36,5.648c0.012,0.536 0.013,1.071 0.009,1.606l-0.002,0.178c0.418,0.013 0.837,0.029 1.255,0.047c0.354,0.015 0.707,0.032 1.061,0.05c4.778,0.255 9.551,0.799 14.228,1.83c1.351,0.298 2.693,0.637 4.021,1.024c0.41,0.12 0.818,0.244 1.225,0.373c0.297,0.094 0.592,0.19 0.89,0.281c0.188,0.057 0.377,0.113 0.566,0.168c0.567,0.161 1.137,0.309 1.713,0.436c0.431,0.095 0.865,0.179 1.302,0.247c0.356,0.056 0.714,0.103 1.073,0.136c0.261,0.025 0.523,0.043 0.785,0.053c0.212,0.008 0.424,0.011 0.636,0.007c1.2,-0.018 2.432,-0.229 3.478,-0.845c0.181,-0.107 0.356,-0.225 0.522,-0.354c0.26,-0.201 0.499,-0.429 0.714,-0.678c0.448,-0.515 0.789,-1.112 1.072,-1.731c0.225,-0.491 0.413,-0.997 0.613,-1.498c0.049,-0.119 0.099,-0.239 0.15,-0.357c0.08,-0.179 0.164,-0.356 0.263,-0.525c0.071,-0.122 0.152,-0.237 0.228,-0.356c0.06,-0.097 0.06,-0.096 0.117,-0.193c0.22,-0.382 0.417,-0.776 0.611,-1.171c0.177,-0.362 0.352,-0.725 0.533,-1.085c0.071,-0.14 0.143,-0.28 0.215,-0.419c0.125,-0.235 0.251,-0.468 0.386,-0.697c0.094,-0.16 0.192,-0.319 0.293,-0.475c0.539,-0.828 1.212,-1.616 2.111,-2.062c0.119,-0.059 0.24,-0.112 0.364,-0.157c0.39,-0.143 0.804,-0.213 1.219,-0.212c0.059,0 0.116,0.001 0.175,0.004c0.109,0.005 0.212,0.017 0.31,0.071c0.214,0.119 0.321,0.378 0.252,0.613c-0.011,0.038 -0.027,0.075 -0.046,0.11c-0.039,0.07 -0.093,0.13 -0.158,0.176c-0.065,0.046 -0.14,0.077 -0.219,0.09c-0.083,0.014 -0.169,0.003 -0.253,0c-0.062,-0.001 -0.062,-0.001 -0.124,0c-0.195,0.006 -0.388,0.03 -0.577,0.08c-0.09,0.024 -0.179,0.053 -0.265,0.087c-0.673,0.263 -1.196,0.804 -1.617,1.374c-0.083,0.113 -0.164,0.229 -0.241,0.346c-0.107,0.161 -0.209,0.326 -0.307,0.494c-0.1,0.171 -0.197,0.345 -0.291,0.52c-0.142,0.266 -0.279,0.535 -0.412,0.806c-0.196,0.398 -0.388,0.797 -0.586,1.194c-0.063,0.125 -0.128,0.251 -0.193,0.376c-0.105,0.197 -0.212,0.394 -0.328,0.586c-0.081,0.134 -0.171,0.263 -0.254,0.396c-0.027,0.043 -0.051,0.087 -0.076,0.131c-0.135,0.258 -0.244,0.527 -0.351,0.796c-0.104,0.264 -0.207,0.528 -0.313,0.79c-0.059,0.145 -0.12,0.289 -0.182,0.432c-0.136,0.306 -0.281,0.608 -0.443,0.902c-0.249,0.448 -0.537,0.874 -0.873,1.262c-0.274,0.316 -0.58,0.605 -0.914,0.858c-0.222,0.169 -0.457,0.322 -0.7,0.459c-1.416,0.792 -3.083,0.985 -4.682,0.913c-0.247,-0.011 -0.495,-0.029 -0.742,-0.052c-0.341,-0.032 -0.681,-0.074 -1.02,-0.126c-0.454,-0.068 -0.906,-0.153 -1.355,-0.249c-0.544,-0.117 -1.084,-0.252 -1.621,-0.4c-0.34,-0.095 -0.68,-0.195 -1.017,-0.299c-0.352,-0.109 -0.701,-0.223 -1.052,-0.333c-0.2,-0.062 -0.4,-0.123 -0.601,-0.183c-1.004,-0.296 -2.014,-0.569 -3.032,-0.814c-2.794,-0.672 -5.632,-1.157 -8.484,-1.505c-3.014,-0.368 -6.046,-0.583 -9.081,-0.679c-0.01,0.241 -0.022,0.482 -0.037,0.723c-0.068,1.082 -0.181,2.163 -0.383,3.23c-0.146,0.77 -0.337,1.533 -0.602,2.271c-0.43,1.201 -1.07,2.37 -2.062,3.197c-0.256,0.213 -0.532,0.401 -0.826,0.557c-0.462,0.247 -0.964,0.415 -1.48,0.505c-0.49,0.086 -0.991,0.103 -1.488,0.068c-0.667,-0.047 -1.321,-0.189 -1.963,-0.37c-0.273,-0.077 -0.544,-0.162 -0.811,-0.256c-0.189,-0.067 -0.376,-0.138 -0.562,-0.214c-1.271,-0.523 -2.485,-1.303 -3.278,-2.448c-0.116,-0.167 -0.222,-0.342 -0.317,-0.522c-0.142,-0.268 -0.258,-0.55 -0.347,-0.84c-0.079,-0.259 -0.136,-0.526 -0.171,-0.795c-0.187,-1.467 0.308,-2.966 1.204,-4.125c0.165,-0.213 0.343,-0.414 0.534,-0.603c0.641,-0.632 1.442,-1.131 2.329,-1.324c0.195,-0.042 0.392,-0.068 0.591,-0.079c0.168,-0.008 0.337,-0.009 0.506,-0.013c0.153,-0.004 0.306,-0.008 0.46,-0.012c0.575,-0.015 1.151,-0.029 1.726,-0.042c1.007,-0.02 2.015,-0.032 3.022,-0.033c0.908,0 1.815,0.011 2.722,0.028l0.199,0.005c0.021,-1.474 -0.031,-2.947 -0.125,-4.418c-0.094,-1.465 -0.232,-2.928 -0.398,-4.386c-0.425,-3.732 -1.036,-7.441 -1.72,-11.133c-0.041,-0.215 -0.041,-0.214 -0.083,-0.429c-0.072,-0.348 -0.148,-0.695 -0.233,-1.041c-0.192,-0.788 -0.422,-1.568 -0.691,-2.334c-0.642,-1.829 -1.514,-3.579 -2.618,-5.174c-0.623,-0.9 -1.317,-1.749 -2.074,-2.538c-0.468,-0.487 -0.96,-0.952 -1.473,-1.392c-2.801,-2.405 -6.192,-4.056 -9.736,-5.043c-1.052,-0.293 -2.12,-0.528 -3.198,-0.703c-0.743,-0.12 -1.492,-0.214 -2.244,-0.258l-0.064,-0.003l-0.053,-0.002l-0.118,-0.019c-0.037,-0.014 -0.075,-0.025 -0.11,-0.044c-0.071,-0.037 -0.132,-0.09 -0.179,-0.155c-0.024,-0.032 -0.044,-0.066 -0.059,-0.103c-0.098,-0.225 -0.024,-0.495 0.174,-0.64c0.064,-0.047 0.138,-0.079 0.217,-0.094c0.039,-0.007 0.079,-0.005 0.119,-0.008c0.019,0.001 0.039,0.001 0.058,0.002l0,0Zm21.272,40.947c-0.861,0.004 -1.723,0.013 -2.584,0.032c-0.861,0.018 -1.722,0.043 -2.583,0.062c-0.064,0.002 -0.128,0.006 -0.192,0.011c-0.81,0.085 -1.542,0.527 -2.113,1.091c-0.18,0.177 -0.346,0.369 -0.497,0.572c-0.727,0.976 -1.122,2.241 -0.903,3.455c0.034,0.193 0.085,0.383 0.15,0.569c0.061,0.176 0.137,0.348 0.224,0.513c0.55,1.045 1.543,1.775 2.589,2.274c0.181,0.087 0.365,0.167 0.552,0.241c0.23,0.093 0.463,0.176 0.699,0.253c0.223,0.072 0.448,0.138 0.675,0.199c0.297,0.079 0.597,0.149 0.901,0.2c0.718,0.12 1.463,0.139 2.173,-0.039c0.164,-0.041 0.326,-0.092 0.483,-0.155c0.197,-0.077 0.387,-0.172 0.568,-0.283c0.288,-0.175 0.55,-0.389 0.785,-0.63c0.357,-0.366 0.649,-0.792 0.892,-1.241c0.306,-0.565 0.536,-1.169 0.72,-1.784c0.208,-0.694 0.357,-1.406 0.47,-2.122c0.152,-0.969 0.237,-1.947 0.286,-2.927l0.007,-0.144l0.005,-0.116c-0.377,-0.009 -0.754,-0.015 -1.13,-0.02c-0.301,-0.004 -0.601,-0.007 -0.901,-0.009c-0.425,-0.002 -0.85,-0.003 -1.276,-0.002l0,0Z" style="fill:#77c7a9;fill-rule:nonzero;"/><path d="M65.77,71.883c0,0 -0.029,3.328 2.828,6.873c1.383,1.715 0.325,6.349 -3.431,6.386c-4.69,0.047 -4.139,-4.834 -3.109,-7.159c0.649,-1.464 2.051,-2.858 1.44,-5.183c1.847,1.654 -0.782,7.218 2.003,7.195c2.661,-0.022 -1.387,-4.592 0.269,-8.112l0,0Z" style="fill:#77c7a9;"/><path d="M65.491,76.846c-1.708,2.027 -1.496,4.298 -0.005,4.456c1.49,0.158 1.701,-1.129 1.085,-1.773c-0.616,-0.644 -1.446,-0.258 -1.08,-2.683Z" style="fill:#77c7a9;"/><path d="M1185.05,135.335c0,0 -0.035,3.961 3.366,8.182c1.645,2.041 0.386,7.557 -4.085,7.601c-5.582,0.056 -4.927,-5.754 -3.7,-8.522c0.772,-1.742 2.442,-3.401 1.713,-6.17c2.199,1.97 -0.93,8.593 2.386,8.566c3.167,-0.026 -1.652,-5.467 0.32,-9.657l0,0Z" style="fill:#77c7a9;"/><path d="M1184.72,141.244c-2.033,2.411 -1.78,5.115 -0.006,5.303c1.773,0.188 2.025,-1.344 1.292,-2.111c-0.733,-0.766 -1.721,-0.306 -1.286,-3.192l0,0Z" style="fill:#77c7a9;"/><path d="M1180.1,140.423c-1.291,3.425 -0.271,6.69 1.51,6.52c1.781,-0.171 1.588,-2.111 0.655,-2.887c-0.933,-0.776 -1.764,0.013 -2.165,-3.633Z" style="fill:#77c7a9;"/><path d="M1187.67,138.32c2.034,4.366 1.781,9.26 0.007,9.6c-1.774,0.341 -2.025,-2.433 -1.292,-3.821c0.733,-1.387 1.721,-0.555 1.285,-5.779l0,0Z" style="fill:#77c7a9;"/><path d="M99.196,71.883c0,0 -0.029,3.328 2.828,6.873c1.382,1.715 0.324,6.349 -3.432,6.386c-4.689,0.047 -4.138,-4.834 -3.108,-7.159c0.649,-1.464 2.051,-2.858 1.439,-5.183c1.848,1.654 -0.781,7.218 2.004,7.195c2.661,-0.022 -1.387,-4.592 0.269,-8.112l0,0Z" style="fill:#77c7a9;"/><path d="M95.994,74.208c-1.472,2.535 -1.253,5.355 0.059,5.536c1.313,0.181 1.48,-1.421 0.929,-2.214c-0.551,-0.794 -1.275,-0.306 -0.988,-3.322Z" style="fill:#77c7a9;"/><path d="M102.458,74.476c1.25,3.629 0.541,7.424 -0.971,7.497c-1.512,0.073 -1.44,-2.12 -0.688,-3.124c0.752,-1.004 1.49,-0.247 1.659,-4.373Z" style="fill:#77c7a9;"/><path d="M1061.64,119.292l-26.423,0c-2.093,0 -3.792,-1.705 -3.792,-3.804l0,-33.123c0,-2.099 1.699,-3.804 3.792,-3.804l26.423,0c2.093,0 3.793,1.705 3.793,3.804l0,33.123c0,2.099 -1.699,3.804 -3.793,3.804Zm-13.153,-3.254c0.679,0 1.231,0.553 1.231,1.234c0,0.682 -0.552,1.235 -1.231,1.235c-0.679,0 -1.23,-0.553 -1.23,-1.235c0,-0.681 0.551,-1.234 1.23,-1.234Zm13.926,-34.093l-28.11,0l0,33.234l28.11,0l0,-33.234l0,0Z" style="fill:#77c7a9;"/><path d="M264.761,154.642l-14.091,0c-2.625,0 -4.759,-2.137 -4.759,-4.772l0,-31.079c0,-2.633 2.134,-4.772 4.759,-4.772l14.091,0c2.627,0 4.759,2.139 4.759,4.772l0,31.079c0,2.635 -2.132,4.772 -4.759,4.772Zm-6.973,-4.082c0.854,0 1.545,0.694 1.545,1.549c0,0.854 -0.691,1.548 -1.545,1.548c-0.851,0 -1.542,-0.694 -1.542,-1.548c0,-0.855 0.691,-1.549 1.542,-1.549Zm8.897,-33.249l-18.115,0l0,32.172l18.115,0l0,-32.172Z" style="fill:#77c7a9;"/><circle cx="1021.85" cy="71.236" r="11.575" style="fill:#77c7a9;"/><path d="M938.667,25.738c0.785,0.008 1.568,0.064 2.345,0.178c1.538,0.226 3.044,0.667 4.461,1.308c1.6,0.724 3.084,1.701 4.384,2.882c1.496,1.36 2.745,2.989 3.668,4.789c0.721,1.407 1.241,2.917 1.539,4.47c0.342,1.783 0.393,3.623 0.152,5.423c-0.229,1.712 -0.725,3.387 -1.466,4.948c-0.854,1.798 -2.029,3.441 -3.453,4.831c-1.499,1.463 -3.269,2.645 -5.199,3.461c-2.03,0.859 -4.226,1.308 -6.431,1.322c-2.208,0.014 -4.414,-0.407 -6.459,-1.243c-1.94,-0.794 -3.725,-1.954 -5.242,-3.4c-1.465,-1.396 -2.675,-3.056 -3.554,-4.878c-0.736,-1.524 -1.235,-3.159 -1.481,-4.832c-0.259,-1.762 -0.237,-3.567 0.066,-5.322c0.264,-1.528 0.74,-3.019 1.415,-4.415c0.733,-1.52 1.695,-2.927 2.845,-4.162c1.472,-1.58 3.245,-2.874 5.202,-3.789c1.407,-0.657 2.905,-1.116 4.438,-1.361c0.774,-0.123 1.554,-0.189 2.337,-0.207c0.144,-0.002 0.289,-0.003 0.433,-0.003l0,0Zm-0.207,1.5c-0.715,0.007 -1.429,0.059 -2.137,0.162c-1.4,0.206 -2.771,0.607 -4.06,1.191c-1.513,0.685 -2.913,1.617 -4.128,2.75c-1.327,1.235 -2.432,2.703 -3.249,4.321c-0.621,1.229 -1.073,2.542 -1.341,3.892c-0.328,1.654 -0.38,3.363 -0.157,5.035c0.209,1.559 0.661,3.083 1.335,4.504c0.777,1.639 1.849,3.134 3.146,4.401c1.364,1.333 2.978,2.409 4.735,3.153c1.849,0.783 3.848,1.19 5.856,1.203c2.011,0.012 4.019,-0.37 5.881,-1.132c1.768,-0.722 3.394,-1.779 4.776,-3.096c1.312,-1.251 2.4,-2.734 3.197,-4.362c0.677,-1.381 1.142,-2.865 1.374,-4.385c0.26,-1.7 0.234,-3.443 -0.08,-5.134c-0.268,-1.446 -0.747,-2.852 -1.418,-4.162c-0.743,-1.449 -1.718,-2.776 -2.876,-3.921c-1.268,-1.253 -2.755,-2.284 -4.375,-3.029c-1.285,-0.591 -2.652,-1 -4.05,-1.214c-0.706,-0.108 -1.418,-0.164 -2.132,-0.176c-0.099,-0.001 -0.198,-0.001 -0.297,-0.001l0,0Z" style="fill:#77c7a9;fill-rule:nonzero;"/><path d="M938.84,24.241c0.8,0.017 1.597,0.075 2.389,0.191c1.795,0.263 3.551,0.796 5.188,1.577c2.241,1.068 4.256,2.594 5.894,4.458c1.533,1.744 2.732,3.778 3.507,5.968c0.739,2.087 1.092,4.306 1.043,6.52c-0.046,2.033 -0.43,4.055 -1.138,5.961c-0.562,1.513 -1.327,2.948 -2.265,4.261c-0.713,0.997 -1.526,1.923 -2.423,2.759c-1.73,1.611 -3.77,2.887 -5.98,3.725c-2.068,0.785 -4.279,1.189 -6.491,1.189c-2.178,0 -4.356,-0.388 -6.398,-1.149c-2.248,-0.838 -4.324,-2.127 -6.079,-3.761c-1.01,-0.94 -1.912,-1.994 -2.686,-3.135c-0.891,-1.313 -1.611,-2.741 -2.133,-4.24c-0.678,-1.947 -1.021,-4.007 -1.016,-6.068c0.006,-2.194 0.406,-4.382 1.183,-6.433c0.839,-2.215 2.114,-4.253 3.724,-5.988c0.55,-0.592 1.141,-1.146 1.764,-1.66c1.19,-0.981 2.504,-1.815 3.902,-2.466c1.534,-0.714 3.165,-1.217 4.836,-1.483c0.843,-0.134 1.692,-0.203 2.545,-0.226c0.211,-0.002 0.423,-0.003 0.634,0l0,0Zm-0.37,4.497c-0.646,0.009 -1.29,0.053 -1.929,0.147c-1.308,0.191 -2.588,0.573 -3.787,1.131c-1.641,0.763 -3.128,1.851 -4.353,3.183c-1.18,1.283 -2.117,2.787 -2.741,4.415c-0.583,1.524 -0.89,3.151 -0.907,4.783c-0.017,1.686 0.273,3.371 0.86,4.952c0.459,1.236 1.098,2.404 1.889,3.459c0.687,0.917 1.488,1.749 2.379,2.471c1.047,0.847 2.217,1.542 3.464,2.052c1.675,0.684 3.485,1.03 5.294,1.019c1.727,-0.01 3.453,-0.344 5.056,-0.988c1.374,-0.552 2.657,-1.329 3.786,-2.286c0.869,-0.737 1.645,-1.58 2.308,-2.505c0.749,-1.046 1.352,-2.195 1.783,-3.407c0.567,-1.594 0.832,-3.29 0.788,-4.982c-0.041,-1.598 -0.36,-3.185 -0.944,-4.673c-0.635,-1.621 -1.583,-3.117 -2.772,-4.389c-1.252,-1.339 -2.769,-2.426 -4.44,-3.177c-1.163,-0.523 -2.399,-0.882 -3.661,-1.063c-0.687,-0.099 -1.379,-0.142 -2.073,-0.142l0,0Z" style="fill:#77c7a9;fill-rule:nonzero;"/><path d="M155.299,84.811c0.785,0.007 1.568,0.064 2.344,0.178c1.539,0.225 3.045,0.666 4.462,1.308c1.6,0.724 3.083,1.7 4.383,2.882c1.497,1.36 2.746,2.989 3.668,4.789c0.721,1.407 1.241,2.916 1.539,4.469c0.342,1.784 0.393,3.623 0.152,5.423c-0.228,1.713 -0.724,3.388 -1.465,4.949c-0.854,1.798 -2.03,3.44 -3.454,4.831c-1.499,1.463 -3.269,2.644 -5.198,3.461c-2.031,0.859 -4.227,1.307 -6.431,1.321c-2.209,0.014 -4.415,-0.406 -6.459,-1.243c-1.94,-0.793 -3.726,-1.953 -5.243,-3.399c-1.465,-1.397 -2.674,-3.056 -3.554,-4.879c-0.735,-1.523 -1.235,-3.158 -1.481,-4.831c-0.258,-1.762 -0.237,-3.568 0.067,-5.323c0.264,-1.528 0.74,-3.018 1.414,-4.415c0.734,-1.519 1.696,-2.927 2.846,-4.162c1.472,-1.58 3.245,-2.874 5.201,-3.788c1.407,-0.658 2.905,-1.117 4.439,-1.361c0.773,-0.124 1.553,-0.19 2.336,-0.207c0.145,-0.003 0.289,-0.004 0.434,-0.003l0,0Zm-0.208,1.5c-0.715,0.007 -1.428,0.058 -2.136,0.162c-1.401,0.205 -2.771,0.607 -4.061,1.19c-1.513,0.685 -2.912,1.618 -4.128,2.75c-1.326,1.235 -2.432,2.703 -3.249,4.321c-0.62,1.229 -1.073,2.542 -1.34,3.892c-0.328,1.655 -0.381,3.364 -0.157,5.035c0.208,1.559 0.66,3.083 1.334,4.505c0.777,1.638 1.849,3.134 3.146,4.401c1.365,1.333 2.978,2.408 4.735,3.152c1.849,0.783 3.849,1.191 5.856,1.203c2.011,0.013 4.02,-0.369 5.882,-1.131c1.767,-0.723 3.393,-1.78 4.775,-3.097c1.312,-1.251 2.4,-2.734 3.198,-4.362c0.677,-1.38 1.142,-2.865 1.374,-4.385c0.259,-1.699 0.233,-3.443 -0.08,-5.133c-0.268,-1.447 -0.748,-2.853 -1.419,-4.162c-0.742,-1.449 -1.718,-2.776 -2.875,-3.921c-1.268,-1.254 -2.755,-2.284 -4.375,-3.029c-1.285,-0.591 -2.652,-1.001 -4.05,-1.215c-0.707,-0.108 -1.419,-0.164 -2.133,-0.175c-0.099,-0.001 -0.198,-0.001 -0.297,-0.001l0,0Z" style="fill:#77c7a9;fill-rule:nonzero;"/><path d="M155.472,83.313c0.799,0.017 1.597,0.076 2.388,0.191c1.796,0.263 3.551,0.797 5.189,1.577c2.24,1.068 4.256,2.594 5.894,4.459c1.533,1.744 2.731,3.778 3.507,5.967c0.739,2.087 1.091,4.306 1.042,6.52c-0.045,2.033 -0.43,4.055 -1.138,5.962c-0.562,1.512 -1.326,2.948 -2.265,4.261c-0.713,0.997 -1.526,1.923 -2.423,2.758c-1.756,1.637 -3.834,2.928 -6.085,3.766c-2.038,0.758 -4.211,1.148 -6.385,1.149c-2.254,0 -4.507,-0.416 -6.609,-1.23c-2.134,-0.826 -4.107,-2.059 -5.79,-3.608c-1.041,-0.958 -1.971,-2.037 -2.765,-3.208c-0.891,-1.313 -1.61,-2.741 -2.132,-4.24c-0.678,-1.947 -1.022,-4.006 -1.016,-6.068c0.005,-2.193 0.406,-4.382 1.183,-6.433c0.838,-2.214 2.113,-4.253 3.723,-5.987c1.598,-1.721 3.538,-3.135 5.666,-4.127c1.534,-0.714 3.165,-1.216 4.837,-1.483c0.842,-0.134 1.692,-0.203 2.544,-0.225c0.212,-0.003 0.423,-0.004 0.635,-0.001l0,0Zm-0.371,4.498c-0.645,0.008 -1.29,0.052 -1.929,0.146c-1.308,0.192 -2.588,0.574 -3.787,1.131c-1.641,0.763 -3.127,1.852 -4.353,3.184c-1.18,1.282 -2.117,2.786 -2.74,4.414c-0.584,1.525 -0.89,3.151 -0.907,4.783c-0.018,1.686 0.273,3.371 0.86,4.952c0.441,1.188 1.048,2.313 1.797,3.336c0.708,0.966 1.539,1.841 2.47,2.594c1.069,0.865 2.267,1.571 3.543,2.084c1.6,0.642 3.322,0.976 5.046,0.987c1.303,0.009 2.607,-0.168 3.861,-0.522c0.489,-0.139 0.971,-0.303 1.441,-0.497c1.196,-0.493 2.32,-1.147 3.335,-1.948c0.9,-0.711 1.71,-1.533 2.408,-2.442c0.798,-1.039 1.448,-2.19 1.922,-3.411c0.606,-1.563 0.919,-3.234 0.928,-4.911c0.009,-1.619 -0.266,-3.237 -0.816,-4.76c-0.588,-1.626 -1.485,-3.135 -2.627,-4.432c-1.209,-1.374 -2.691,-2.504 -4.337,-3.306c-1.236,-0.601 -2.563,-1.015 -3.922,-1.223c-0.599,-0.092 -1.202,-0.139 -1.807,-0.156c-0.129,-0.003 -0.257,-0.003 -0.386,-0.003l0,0Z" style="fill:#77c7a9;fill-rule:nonzero;"/><circle cx="1005.67" cy="87.688" r="10.079" style="fill:#77c7a9;"/><circle cx="992.016" cy="101.466" r="8.909" style="fill:#77c7a9;"/><path d="M1088.81,11.649l0,146.991l-5.142,0l0,-146.87l5.142,-0.121l0,0Z" style="fill:#77c7a9;"/><path d="M1092.66,13.895l90.234,0c0,0 5.611,-0.18 5.611,5.612c0,5.791 0,28.534 0,28.534l-5.418,0l0,-29.279l-92.342,0l1.915,-4.867l0,0Z" style="fill:#77c7a9;"/><path d="M981.404,128.625l146.928,0c0,0 5.611,-0.18 5.611,5.611c0,5.792 0,28.535 0,28.535l-5.418,0l0,-29.279l-146.912,0l-0.209,-4.867l0,0Z" style="fill:#77c7a9;"/><rect x="1107.35" y="17.38" width="4.217" height="14.879" style="fill:#77c7a9;"/><rect x="1140.8" y="17.38" width="4.217" height="14.879" style="fill:#77c7a9;"/><rect x="1090.6" y="79.542" width="87.012" height="4.089" style="fill:#77c7a9;"/><path d="M1085.14,16.623l-4.102,-4.405l-49.07,45.698l4.102,4.404l49.07,-45.697l0,0Z" style="fill:#77c7a9;"/><path d="M1036.99,59.927l-2.673,-2.87l-53.322,49.658l2.673,2.87l53.322,-49.658Z" style="fill:#77c7a9;"/><rect x="1052.54" y="131.045" width="8.379" height="30.451" style="fill:#77c7a9;"/><rect x="1177.6" y="148.07" width="13.47" height="1.804" style="fill:#77c7a9;"/><rect x="723.158" y="29.425" width="4.627" height="129.839" style="fill:#77c7a9;"/><rect x="598.294" y="145.068" width="20.129" height="11.225" style="fill:#77c7a9;"/><rect x="-0.145" y="155.797" width="1226.41" height="11.743" style="fill:#77c7a9;"/><rect x="1045.3" y="119.786" width="6.089" height="11.234" style="fill:#77c7a9;"/><path d="M1117.06,45.447c0,-0.742 -0.603,-1.345 -1.345,-1.345l-11.882,0c-0.742,0 -1.345,0.603 -1.345,1.345l0,2.69c0,0.742 0.603,1.345 1.345,1.345l11.882,0c0.742,0 1.345,-0.603 1.345,-1.345l0,-2.69Z" style="fill:#77c7a9;"/><path d="M1150.51,45.447c0,-0.742 -0.602,-1.345 -1.345,-1.345l-11.882,0c-0.742,0 -1.345,0.603 -1.345,1.345l0,2.69c0,0.742 0.603,1.345 1.345,1.345l11.882,0c0.743,0 1.345,-0.603 1.345,-1.345l0,-2.69Z" style="fill:#77c7a9;"/><circle cx="1085.92" cy="81.243" r="8.429" style="fill:#77c7a9;"/><circle cx="1085.92" cy="130.625" r="8.429" style="fill:#77c7a9;"/><circle cx="981.919" cy="130.625" r="8.429" style="fill:#77c7a9;"/><circle cx="937.987" cy="131.156" r="8.429" style="fill:#77c7a9;"/><circle cx="937.987" cy="99.297" r="8.429" style="fill:#77c7a9;"/><circle cx="725.522" cy="99.297" r="8.429" style="fill:#77c7a9;"/><circle cx="725.478" cy="33.16" r="6.195" style="fill:#77c7a9;"/><circle cx="1085.92" cy="17.525" r="8.429" style="fill:#77c7a9;"/><path d="M1175.03,55.005l19.401,0c0,0 -2.477,1.263 -2.628,5.626c-0.151,4.363 0.22,15.983 0.22,15.983l-14.461,0c0,0 0.827,-14.72 0.199,-16.76c-0.628,-2.039 -2.731,-4.849 -2.731,-4.849l0,0Z" style="fill:#77c7a9;"/><path d="M1192.18,85.962l0.054,1.268c0,0 8.35,3.397 10.941,6.102c2.59,2.705 6.858,9.742 7.071,14.325c0.213,4.583 -3.084,11.293 -6.117,15.428c-3.034,4.136 -10.514,8.995 -13.714,10.352c-3.2,1.356 -12.522,2.721 -20.184,-4.456c-7.662,-7.176 -9.31,-10.892 -10.647,-17.399c-1.337,-6.508 2.176,-14.678 7.922,-19.575c5.746,-4.897 10.136,-5.086 10.136,-5.086l0.055,-0.882l14.483,-0.077l0,0Z" style="fill:#77c7a9;"/><path d="M930.804,46.994l12.76,-8.12l-0.685,-1.155l4.65,-0.467l-2.109,3.422l-0.943,-0.728l-12.774,8.374l-0.899,-1.326" style="fill:#77c7a9;"/><path d="M949.017,37.174l-0.471,-0.743l1.658,-1.418l0.821,1.092l-2.008,1.069Z" style="fill:#77c7a9;"/><path d="M945.047,32.923l-0.71,-0.52l1.025,-1.926l1.164,0.716l-1.479,1.73l0,0Z" style="fill:#77c7a9;"/><path d="M939.095,30.854l-0.878,-0.045l-0.201,-2.172l1.366,-0.04l-0.287,2.257l0,0Z" style="fill:#77c7a9;"/><path d="M932.869,32.315l-0.797,0.372l-1.195,-1.825l1.188,-0.675l0.804,2.128Z" style="fill:#77c7a9;"/><path d="M928.339,36.461l-0.516,0.712l-1.931,-1.014l0.71,-1.168l1.737,1.47Z" style="fill:#77c7a9;"/><path d="M926.679,42.237l0.058,0.877l-2.134,0.453l-0.199,-1.352l2.275,0.022Z" style="fill:#77c7a9;"/><path d="M927.691,48.387l0.49,0.73l-1.619,1.462l-0.85,-1.07l1.979,-1.122l0,0Z" style="fill:#77c7a9;"/><path d="M932.087,52.815l0.731,0.489l-0.945,1.967l-1.192,-0.668l1.406,-1.788l0,0Z" style="fill:#77c7a9;"/><rect x="1087.88" y="45.961" width="58.132" height="2.337" style="fill:#77c7a9;"/><path d="M1202.23,79.661c0,-1.01 -0.82,-1.83 -1.83,-1.83l-30.195,0c-1.01,0 -1.829,0.82 -1.829,1.83l0,3.659c0,1.009 0.819,1.829 1.829,1.829l30.195,0c1.01,0 1.83,-0.82 1.83,-1.829l0,-3.659Z" style="fill:#77c7a9;"/><path d="M286.78,98.74l0,62.823l4.682,0l0,-62.771l-4.682,-0.052l0,0Z" style="fill:#77c7a9;"/><path d="M223.138,110.41l6.172,-5.841l0,61.397l-6.172,0l0,-55.556l0,0Z" style="fill:#77c7a9;"/><rect x="193.658" y="130.93" width="6.172" height="32.785" style="fill:#77c7a9;"/><rect x="163.486" y="130.82" width="6.172" height="30.346" style="fill:#77c7a9;"/><path d="M985.31,110.635l-6.172,-5.841l0,61.397l6.172,0l0,-55.556Z" style="fill:#77c7a9;"/><rect x="1009.38" y="131.155" width="6.172" height="31.729" style="fill:#77c7a9;"/></svg>