<?xml version="1.0" encoding="UTF-8" standalone="no"?><!DOCTYPE svg PUBLIC "-//W3C//DTD SVG 1.1//EN" "http://www.w3.org/Graphics/SVG/1.1/DTD/svg11.dtd"><svg width="100%" height="100%" viewBox="0 0 1225 164" version="1.1" xmlns="http://www.w3.org/2000/svg" xmlns:xlink="http://www.w3.org/1999/xlink" xml:space="preserve" style="fill-rule:evenodd;clip-rule:evenodd;stroke-linejoin:round;stroke-miterlimit:1.41421;"><path d="M-1.712,113.62l17.258,1.034l9.267,-15.918l9.581,-0.868l29.175,19.296l20.323,-2.776l20.787,-21.869l19.859,-12.575l38.831,-9.071l14.758,3.371l7.538,7.108l14.508,7.611l29.494,0.99l10.766,-1.432l15.768,-3.26l16.743,-0.587l38.307,11.076l24.635,-1.56l27.738,-9.474l25.537,-6.39l21.546,-3.721l4.704,-0.483l18.093,-1.529l11.551,-6.166l30.321,-27.82l5.563,-9.077l1.108,-5.455l10.889,-3.555l28.155,14.002l11.125,2.667l12.557,-1.183l9.232,0.99l19.995,4.702l16.319,3.337l28.465,-0.339l12.322,-2.023l14.856,-3.974l15.741,-0.719l40.114,8.268l23.499,-2.317l27.84,-10.941l19.357,6.304l18.007,30.463l12.867,5.549l17.97,-2.87l26.585,-5.679l21.231,-7.763l27.213,-11.483l24.688,-2.269l39.343,7.874l15.003,-1.264l15.952,-4.263l12.373,-2.552l30.1,-0.296l14.276,6.082l9.824,8.9l7.268,10.508l11.749,29.191l14.243,14.742l29.323,9.581l20.592,-0.775l34.37,-12.44l17.213,-0.1l13.158,2.697l11.648,1.111l19.577,0.19l0,-130.37l-1253.56,0l0,130.152l14.762,-0.59Z" style="fill:#2a3440;"/><path d="M78.857,136.878c7.215,-2.607 10.957,-10.582 8.35,-17.797c-2.607,-7.215 -10.582,-10.957 -17.797,-8.35c-7.216,2.608 -10.957,10.582 -8.35,17.798c2.607,7.215 10.582,10.956 17.797,8.349Z" style="fill:#2a3440;"/><path d="M116.299,95.63c7.27,-2.627 11.04,-10.662 8.413,-17.932c-2.627,-7.27 -10.662,-11.04 -17.932,-8.413c-7.271,2.627 -11.04,10.662 -8.413,17.932c2.626,7.27 10.662,11.04 17.932,8.413Z" style="fill:#2a3440;"/><path d="M174.663,77.418c4.752,-1.717 7.215,-6.968 5.498,-11.72c-1.716,-4.751 -6.968,-7.215 -11.719,-5.498c-4.752,1.717 -7.216,6.968 -5.499,11.72c1.717,4.751 6.969,7.215 11.72,5.498Z" style="fill:#2a3440;"/><path d="M190.841,89.212c2.01,-0.726 3.052,-2.947 2.326,-4.957c-0.726,-2.01 -2.948,-3.052 -4.958,-2.326c-2.01,0.726 -3.052,2.947 -2.326,4.957c0.727,2.01 2.948,3.053 4.958,2.326Z" style="fill:#2a3440;"/><path d="M124.199,111.129c1.783,-0.644 2.708,-2.616 2.064,-4.399c-0.645,-1.784 -2.616,-2.709 -4.4,-2.064c-1.784,0.644 -2.709,2.616 -2.064,4.399c0.644,1.784 2.616,2.709 4.4,2.064Z" style="fill:#2a3440;"/><path d="M100.577,135.285c1.784,-0.644 2.709,-2.616 2.064,-4.399c-0.644,-1.784 -2.616,-2.709 -4.399,-2.064c-1.784,0.644 -2.709,2.615 -2.064,4.399c0.644,1.784 2.615,2.709 4.399,2.064Z" style="fill:#2a3440;"/><path d="M46.718,150.364c1.94,-0.701 2.947,-2.846 2.245,-4.787c-0.701,-1.94 -2.846,-2.946 -4.786,-2.245c-1.941,0.701 -2.947,2.846 -2.246,4.786c0.701,1.941 2.846,2.947 4.787,2.246Z" style="fill:#2a3440;"/><path d="M18.002,119.88c3.175,-1.148 4.822,-4.657 3.674,-7.833c-1.147,-3.175 -4.657,-4.822 -7.832,-3.675c-3.176,1.148 -4.822,4.658 -3.675,7.833c1.147,3.176 4.657,4.822 7.833,3.675Z" style="fill:#2a3440;"/><path d="M46.231,46.655c3.281,-1.186 4.982,-4.812 3.797,-8.094c-1.186,-3.281 -4.812,-4.982 -8.093,-3.796c-3.282,1.185 -4.983,4.811 -3.797,8.093c1.185,3.281 4.812,4.982 8.093,3.797Z" style="fill:#2a3440;"/><path d="M152.362,54.674c2.999,-1.084 4.555,-4.399 3.471,-7.399c-1.084,-2.999 -4.399,-4.554 -7.398,-3.47c-3,1.083 -4.555,4.398 -3.471,7.398c1.084,2.999 4.399,4.554 7.398,3.471Z" style="fill:#2a3440;"/><path d="M30.386,102.029c5.017,-1.812 7.619,-7.358 5.806,-12.375c-1.813,-5.017 -7.358,-7.619 -12.375,-5.806c-5.018,1.813 -7.619,7.358 -5.806,12.376c1.813,5.017 7.358,7.618 12.375,5.805Z" style="fill:#2a3440;"/><path d="M171.173,70.257c3.502,-3.13 2.917,-6.028 0.06,-3.071l-19.123,-18.483l-1.564,1.618l20.627,19.936Z" style="fill:#2a3440;fill-rule:nonzero;"/><path d="M98.873,130.522l-22.867,-6.614l36.52,-39.639l59.305,-14.203l17.786,16.605l1.535,-1.644l-18.669,-17.431l-61.148,14.645l-39.089,42.427l0.151,0.538l25.851,7.478c0.208,-0.721 0.417,-1.441 0.625,-2.162Z" style="fill:#2a3440;fill-rule:nonzero;"/><path d="M76.061,124.779l-0.011,-0.327l-48.969,-33.199l-11.187,21.965l1.909,0.892l10.145,-19.583l44.51,30.208l-25.974,20.257l1.384,1.774c9.397,-7.329 18.795,-14.658 28.193,-21.987Z" style="fill:#2a3440;fill-rule:nonzero;"/><path d="M44.761,41.278l-2.14,-0.696l-17.416,53.523l2.14,0.696c5.805,-17.841 11.61,-35.682 17.416,-53.523Z" style="fill:#2a3440;fill-rule:nonzero;"/><path d="M124.439,107.263l-6.741,-16.655l-2.086,0.844l6.741,16.655c0.695,-0.282 1.391,-0.563 2.086,-0.844Z" style="fill:#2a3440;fill-rule:nonzero;"/><path d="M378.384,67.16c-7.587,-1.137 -14.67,4.1 -15.806,11.688c-1.137,7.587 4.1,14.67 11.687,15.806c7.587,1.137 14.67,-4.1 15.807,-11.687c1.137,-7.587 -4.1,-14.67 -11.688,-15.807Z" style="fill:#2a3440;"/><path d="M325.835,85.647c-7.645,-1.145 -14.782,4.131 -15.927,11.776c-1.146,7.645 4.131,14.782 11.776,15.927c7.645,1.146 14.781,-4.131 15.927,-11.776c1.145,-7.645 -4.132,-14.781 -11.776,-15.927Z" style="fill:#2a3440;"/><path d="M265.83,73.921c-4.997,-0.749 -9.661,2.7 -10.409,7.697c-0.749,4.996 2.7,9.66 7.696,10.409c4.996,0.748 9.661,-2.7 10.409,-7.697c0.749,-4.996 -2.7,-9.66 -7.696,-10.409Z" style="fill:#2a3440;"/><path d="M257.204,55.854c-2.113,-0.317 -4.086,1.142 -4.403,3.255c-0.316,2.114 1.142,4.087 3.256,4.404c2.113,0.316 4.086,-1.143 4.403,-3.256c0.317,-2.114 -1.142,-4.087 -3.256,-4.403Z" style="fill:#2a3440;"/><path d="M326.253,68.256c-1.875,-0.281 -3.626,1.014 -3.907,2.889c-0.281,1.876 1.013,3.627 2.889,3.908c1.876,0.281 3.627,-1.014 3.908,-2.889c0.281,-1.876 -1.014,-3.627 -2.89,-3.908Z" style="fill:#2a3440;"/><path d="M358.519,58.235c-1.876,-0.281 -3.627,1.014 -3.908,2.889c-0.281,1.876 1.014,3.627 2.89,3.908c1.875,0.281 3.626,-1.014 3.907,-2.889c0.281,-1.876 -1.013,-3.627 -2.889,-3.908Z" style="fill:#2a3440;"/><path d="M413.071,70.576c-2.041,-0.306 -3.946,1.103 -4.251,3.143c-0.306,2.041 1.102,3.946 3.143,4.251c2.04,0.306 3.945,-1.102 4.251,-3.143c0.306,-2.04 -1.103,-3.945 -3.143,-4.251Z" style="fill:#2a3440;"/><path d="M430.245,124.22c-2.057,-0.308 -3.976,1.112 -4.285,3.168c-0.308,2.057 1.112,3.977 3.168,4.285c2.057,0.308 3.977,-1.112 4.285,-3.168c0.308,-2.057 -1.111,-3.977 -3.168,-4.285Z" style="fill:#2a3440;"/><path d="M236.423,82.616c-3.847,-0.576 -7.437,2.078 -8.014,5.925c-0.576,3.846 2.079,7.437 5.926,8.013c3.846,0.577 7.437,-2.078 8.013,-5.925c0.576,-3.846 -2.079,-7.437 -5.925,-8.013Z" style="fill:#2a3440;"/><path d="M274.636,104.533c-3.154,-0.472 -6.098,1.705 -6.571,4.859c-0.473,3.154 1.704,6.098 4.858,6.571c3.154,0.472 6.099,-1.705 6.571,-4.859c0.473,-3.154 -1.704,-6.098 -4.858,-6.571Z" style="fill:#2a3440;"/><path d="M404.459,120.863c-5.276,-0.791 -10.201,2.851 -10.992,8.127c-0.79,5.276 2.852,10.201 8.127,10.991c5.276,0.791 10.201,-2.851 10.992,-8.127c0.79,-5.275 -2.851,-10.201 -8.127,-10.991Z" style="fill:#2a3440;"/><path d="M235.362,89.057l-44.442,-1.738l-0.088,2.248c36.86,1.442 37.266,3.533 73.151,-5.013l8.036,25.352l2.145,-0.68l-8.668,-27.345c-10.045,2.392 -20.089,4.784 -30.134,7.176Z" style="fill:#2a3440;fill-rule:nonzero;"/><path d="M357.753,63.235l16.973,16.691l-50.973,17.51l-58.927,-15.7l-7.753,-23.065l-2.132,0.717l8.138,24.211l60.756,16.187l54.56,-18.741l0.124,-0.545l-19.188,-18.869c-0.526,0.535 -1.052,1.07 -1.578,1.604Z" style="fill:#2a3440;fill-rule:nonzero;"/><path d="M375.092,79.134l-0.146,0.292l27.297,52.489l27.087,-2.861l-0.236,-2.238l-25.562,2.7l-25.291,-48.631l32.482,-5.472l-0.374,-2.219c-11.752,1.98 -23.505,3.96 -35.257,5.94Z" style="fill:#2a3440;fill-rule:nonzero;"/><path d="M324.204,71.543l-1.988,17.857l2.236,0.249l1.988,-17.857c-0.745,-0.083 -1.491,-0.166 -2.236,-0.249Z" style="fill:#2a3440;fill-rule:nonzero;"/><path d="M196.498,78.701c-4.402,-2.379 -9.907,-0.736 -12.286,3.666c-2.379,4.402 -0.737,9.908 3.665,12.287c4.403,2.379 9.908,0.736 12.287,-3.666c2.379,-4.402 0.737,-9.908 -3.666,-12.287Z" style="fill:#2a3440;"/><path d="M428.591,132.066c2.036,0.334 3.96,-1.048 4.293,-3.085c0.334,-2.036 -1.048,-3.96 -3.085,-4.293c-2.036,-0.334 -3.96,1.048 -4.293,3.084c-0.334,2.037 1.048,3.961 3.085,4.294Z" style="fill:#2a3440;"/><path d="M412.151,78.192c2.052,0.336 3.991,-1.057 4.327,-3.109c0.337,-2.052 -1.056,-3.991 -3.109,-4.327c-2.052,-0.337 -3.991,1.057 -4.327,3.109c-0.336,2.052 1.057,3.991 3.109,4.327Z" style="fill:#2a3440;"/><path d="M478.714,41.272c3.443,0.565 6.696,-1.773 7.26,-5.216c0.564,-3.442 -1.773,-6.696 -5.216,-7.26c-3.443,-0.564 -6.696,1.774 -7.26,5.216c-0.564,3.443 1.773,6.696 5.216,7.26Z" style="fill:#2a3440;"/><path d="M437.889,81.902c5.264,0.862 10.239,-2.712 11.101,-7.976c0.863,-5.265 -2.711,-10.239 -7.976,-11.102c-5.264,-0.862 -10.239,2.712 -11.101,7.976c-0.863,5.265 2.711,10.239 7.976,11.102Z" style="fill:#2a3440;"/><path d="M438.934,73.262l1.322,-2.381l-27.124,2.491l0.206,2.24l25.596,-2.35Z" style="fill:#2a3440;fill-rule:nonzero;"/><path d="M480.051,35.861l-1.529,-1.65l-41.295,38.246l1.529,1.65c13.765,-12.748 27.53,-25.497 41.295,-38.246Z" style="fill:#2a3440;fill-rule:nonzero;"/><path d="M1129.29,139.795c0.585,0.047 1.172,0.06 1.759,0.029c1.187,-0.064 2.364,-0.298 3.486,-0.693c1.287,-0.454 2.499,-1.12 3.575,-1.96c1.114,-0.871 2.08,-1.929 2.846,-3.118c0.64,-0.996 1.139,-2.082 1.475,-3.218c0.393,-1.329 0.565,-2.725 0.508,-4.11c-0.053,-1.292 -0.307,-2.574 -0.752,-3.788c-0.521,-1.424 -1.302,-2.75 -2.291,-3.898c-1.025,-1.19 -2.27,-2.186 -3.658,-2.92c-1.439,-0.76 -3.023,-1.233 -4.642,-1.392c-1.619,-0.16 -3.265,-0.005 -4.825,0.46c-1.504,0.449 -2.92,1.182 -4.157,2.149c-1.195,0.934 -2.219,2.082 -3.008,3.376c-0.673,1.104 -1.173,2.312 -1.477,3.568c-0.326,1.348 -0.43,2.751 -0.303,4.132c0.108,1.179 0.384,2.342 0.819,3.443c0.518,1.316 1.26,2.542 2.183,3.613c0.891,1.035 1.949,1.924 3.124,2.62c1.022,0.607 2.131,1.066 3.283,1.36c0.57,0.145 1.148,0.247 1.731,0.315c0.162,0.017 0.162,0.017 0.324,0.032Z" style="fill:#2a3440;fill-rule:nonzero;"/><path d="M1078.42,122.841c0.586,0.046 1.172,0.06 1.759,0.028c1.187,-0.063 2.364,-0.297 3.486,-0.693c1.288,-0.454 2.499,-1.119 3.575,-1.96c1.114,-0.87 2.081,-1.928 2.846,-3.117c0.641,-0.996 1.139,-2.082 1.475,-3.218c0.394,-1.33 0.566,-2.725 0.509,-4.111c-0.053,-1.292 -0.308,-2.574 -0.752,-3.788c-0.522,-1.423 -1.303,-2.749 -2.292,-3.898c-1.024,-1.189 -2.27,-2.185 -3.658,-2.919c-1.439,-0.761 -3.023,-1.233 -4.642,-1.393c-1.619,-0.159 -3.265,-0.005 -4.824,0.46c-1.505,0.449 -2.921,1.183 -4.158,2.15c-1.194,0.933 -2.219,2.081 -3.008,3.376c-0.673,1.104 -1.173,2.311 -1.477,3.568c-0.326,1.348 -0.429,2.75 -0.303,4.131c0.108,1.179 0.385,2.342 0.819,3.444c0.518,1.316 1.26,2.541 2.183,3.613c0.891,1.034 1.949,1.923 3.124,2.62c1.023,0.606 2.131,1.065 3.284,1.36c0.569,0.145 1.147,0.246 1.73,0.315c0.162,0.017 0.162,0.017 0.324,0.032Z" style="fill:#2a3440;fill-rule:nonzero;"/><path d="M1115.85,37.342c-3.767,1.626 -5.505,6.003 -3.88,9.77c1.625,3.767 6.002,5.506 9.769,3.88c3.767,-1.625 5.506,-6.002 3.881,-9.769c-1.625,-3.767 -6.003,-5.506 -9.77,-3.881Z" style="fill:#2a3440;"/><path d="M1058.56,54.167c-4.63,2.023 -6.745,7.424 -4.722,12.053c2.023,4.629 7.424,6.745 12.053,4.722c4.63,-2.023 6.746,-7.424 4.722,-12.053c-2.023,-4.63 -7.424,-6.746 -12.053,-4.722Z" style="fill:#2a3440;"/><path d="M1147.11,150.1c2.098,0.407 4.135,-0.985 4.547,-3.107c0.411,-2.122 -0.958,-4.174 -3.056,-4.581c-2.098,-0.407 -4.135,0.985 -4.547,3.107c-0.411,2.121 0.958,4.174 3.056,4.581Z" style="fill:#2a3440;"/><path d="M1041.64,43.453c-1.958,0.856 -2.854,3.141 -1.998,5.099c0.856,1.958 3.141,2.853 5.099,1.997c1.958,-0.855 2.853,-3.14 1.998,-5.098c-0.856,-1.959 -3.141,-2.854 -5.099,-1.998Z" style="fill:#2a3440;"/><path d="M1107.46,20.235c-1.738,0.759 -2.533,2.787 -1.773,4.525c0.759,1.738 2.787,2.532 4.525,1.773c1.738,-0.76 2.532,-2.787 1.772,-4.525c-0.759,-1.738 -2.787,-2.532 -4.524,-1.773Z" style="fill:#2a3440;"/><path d="M1049.23,108.643c0.471,0.037 0.944,-0.016 1.392,-0.168c0.341,-0.115 0.662,-0.284 0.95,-0.499c0.31,-0.23 0.58,-0.512 0.797,-0.831c0.173,-0.255 0.311,-0.534 0.41,-0.826c0.221,-0.655 0.239,-1.375 0.05,-2.04c-0.114,-0.399 -0.301,-0.777 -0.549,-1.11c-0.263,-0.354 -0.595,-0.657 -0.972,-0.886c-0.415,-0.254 -0.879,-0.411 -1.36,-0.474c-0.427,-0.056 -0.868,-0.026 -1.284,0.082c-0.403,0.104 -0.785,0.282 -1.124,0.522c-0.338,0.239 -0.632,0.538 -0.864,0.88c-0.173,0.255 -0.311,0.534 -0.409,0.826c-0.24,0.709 -0.241,1.491 0,2.2c0.115,0.34 0.284,0.661 0.498,0.949c0.23,0.31 0.513,0.581 0.832,0.797c0.302,0.205 0.637,0.361 0.989,0.461c0.14,0.039 0.281,0.068 0.424,0.091c0.074,0.01 0.146,0.019 0.22,0.026Z" style="fill:#2a3440;fill-rule:nonzero;"/><path d="M1188.72,76.486c-3.196,1.397 -4.657,5.127 -3.26,8.323c1.397,3.197 5.126,4.658 8.323,3.261c3.197,-1.397 4.658,-5.127 3.261,-8.323c-1.397,-3.197 -5.127,-4.658 -8.324,-3.261Z" style="fill:#2a3440;"/><path d="M1210.85,121.195c0.328,0.026 0.657,0.034 0.985,0.016c0.665,-0.035 1.324,-0.166 1.952,-0.388c1.471,-0.518 2.75,-1.53 3.595,-2.842c0.358,-0.558 0.637,-1.166 0.825,-1.802c0.221,-0.744 0.317,-1.525 0.285,-2.301c-0.029,-0.723 -0.172,-1.441 -0.421,-2.121c-0.292,-0.797 -0.729,-1.539 -1.283,-2.182c-0.573,-0.666 -1.271,-1.224 -2.048,-1.635c-0.805,-0.425 -1.692,-0.69 -2.599,-0.779c-0.906,-0.09 -1.827,-0.003 -2.7,0.257c-0.843,0.252 -1.636,0.662 -2.328,1.204c-0.669,0.522 -1.242,1.165 -1.684,1.89c-0.377,0.618 -0.657,1.294 -0.827,1.997c-0.182,0.755 -0.24,1.54 -0.17,2.313c0.061,0.66 0.216,1.311 0.459,1.928c0.572,1.452 1.629,2.694 2.971,3.49c0.572,0.339 1.193,0.596 1.838,0.761c0.319,0.081 0.643,0.138 0.969,0.177c0.091,0.009 0.091,0.009 0.181,0.017Z" style="fill:#2a3440;fill-rule:nonzero;"/><path d="M1038.28,77.169c-3.564,1.557 -5.193,5.715 -3.635,9.279c1.557,3.564 5.715,5.193 9.279,3.635c3.564,-1.557 5.193,-5.715 3.636,-9.279c-1.558,-3.564 -5.716,-5.193 -9.28,-3.635Z" style="fill:#2a3440;"/><path d="M1125.46,89.774c-2.68,1.171 -3.905,4.298 -2.733,6.978c1.171,2.68 4.297,3.905 6.977,2.734c2.68,-1.172 3.905,-4.298 2.734,-6.978c-1.171,-2.68 -4.298,-3.905 -6.978,-2.734Z" style="fill:#2a3440;"/><path d="M1183.54,117.542c0.426,0.034 0.853,0.044 1.28,0.021c0.865,-0.046 1.721,-0.217 2.538,-0.504c0.937,-0.331 1.819,-0.815 2.602,-1.427c0.811,-0.634 1.514,-1.403 2.071,-2.269c0.467,-0.725 0.829,-1.516 1.074,-2.342c0.286,-0.968 0.412,-1.984 0.37,-2.992c-0.038,-0.94 -0.224,-1.874 -0.547,-2.757c-0.38,-1.036 -0.948,-2.002 -1.668,-2.838c-0.746,-0.865 -1.653,-1.59 -2.663,-2.124c-1.047,-0.554 -2.2,-0.898 -3.378,-1.014c-1.179,-0.116 -2.377,-0.004 -3.512,0.335c-1.095,0.327 -2.126,0.861 -3.026,1.564c-0.869,0.68 -1.615,1.515 -2.189,2.458c-0.49,0.803 -0.854,1.682 -1.075,2.597c-0.238,0.981 -0.313,2.001 -0.221,3.007c0.079,0.858 0.28,1.704 0.596,2.506c0.377,0.958 0.917,1.85 1.589,2.63c0.648,0.753 1.419,1.4 2.274,1.907c0.744,0.441 1.551,0.775 2.39,0.99c0.414,0.105 0.835,0.179 1.26,0.229c0.118,0.012 0.117,0.012 0.235,0.023Z" style="fill:#2a3440;fill-rule:nonzero;"/><path d="M1040.8,83.188l-38.56,22.162l1.121,1.951c31.982,-18.381 32.688,-15.326 58.532,-41.647l15.788,38.196l1.455,-1.717l-16.633,-41.048c-7.234,7.368 -14.468,14.735 -21.703,22.103Z" style="fill:#2a3440;fill-rule:nonzero;"/><path d="M1121.43,45.223l-1.32,-1.947l-58.252,18.042l-18.832,-15.409l-1.424,1.741l19.767,16.175l60.061,-18.602Z" style="fill:#2a3440;fill-rule:nonzero;"/><path d="M1183.67,105.11c1.115,0.32 2.215,0.468 2.215,0.468l5.97,-18.813l-2.144,-0.683c-2.29,7.186 -4.203,13.22 -6.041,19.028Z" style="fill:#2a3440;fill-rule:nonzero;"/><path d="M1189.2,108.372c-0.182,1.147 -0.194,2.256 -0.194,2.256l19.402,3.624l0.416,-2.211c-7.412,-1.394 -13.635,-2.554 -19.624,-3.669Z" style="fill:#2a3440;fill-rule:nonzero;"/><rect x="1216.51" y="113.081" width="25.557" height="2.213" style="fill:#2a3440;"/><rect x="-13.494" y="113.081" width="25.557" height="2.213" style="fill:#2a3440;"/><path d="M1126.82,99.783l2.112,29.029l0.232,0.149l54.291,-20.005l1.732,-2.96l-0.08,-0.046l-54.131,19.946l-1.912,-26.276c-0.748,0.054 -1.496,0.109 -2.244,0.163Z" style="fill:#2a3440;fill-rule:nonzero;"/><path d="M1211.54,117.817l-3.42,0.257l-34.657,33.166l-25.621,-5.98l-0.511,2.192l26.807,6.256l37.408,-35.799l-0.006,-0.092Z" style="fill:#2a3440;fill-rule:nonzero;"/><path d="M1131.65,126.072c-40.087,-12.688 -39.753,-14.205 -81.129,-21.687l-0.4,2.214l29.273,5.294l51.577,16.325c0.226,-0.715 0.452,-1.431 0.679,-2.146Z" style="fill:#2a3440;fill-rule:nonzero;"/><path d="M1107.48,23.359l7.813,16.18l2.026,-0.979l-7.813,-16.179c-0.675,0.326 -1.351,0.652 -2.026,0.978Z" style="fill:#2a3440;fill-rule:nonzero;"/><path d="M1003.37,99.402c-3.025,0.198 -5.321,2.814 -5.123,5.84c0.198,3.025 2.814,5.321 5.84,5.123c3.025,-0.198 5.321,-2.815 5.123,-5.84c-0.198,-3.025 -2.815,-5.321 -5.84,-5.123Z" style="fill:#2a3440;"/><path d="M1172.12,145.902c-3.025,0.198 -5.321,2.814 -5.123,5.84c0.198,3.025 2.814,5.321 5.84,5.123c3.025,-0.198 5.321,-2.815 5.123,-5.84c-0.198,-3.025 -2.815,-5.321 -5.84,-5.123Z" style="fill:#2a3440;"/><path d="M855.938,77.694c7.645,0.639 14.371,-5.049 15.01,-12.694c0.64,-7.645 -5.048,-14.371 -12.693,-15.011c-7.646,-0.639 -14.372,5.049 -15.011,12.694c-0.639,7.645 5.048,14.371 12.694,15.011Z" style="fill:#2a3440;"/><path d="M907.17,55.818c7.703,0.644 14.48,-5.087 15.124,-12.791c0.645,-7.703 -5.087,-14.48 -12.79,-15.124c-7.703,-0.645 -14.48,5.087 -15.125,12.79c-0.644,7.703 5.087,14.48 12.791,15.125Z" style="fill:#2a3440;"/><path d="M967.811,63.604c5.035,0.421 9.464,-3.325 9.885,-8.359c0.421,-5.035 -3.324,-9.464 -8.359,-9.885c-5.034,-0.421 -9.464,3.324 -9.885,8.359c-0.421,5.035 3.325,9.464 8.359,9.885Z" style="fill:#2a3440;"/><path d="M977.597,81.07c2.13,0.178 4.004,-1.406 4.182,-3.536c0.178,-2.13 -1.407,-4.003 -3.536,-4.181c-2.13,-0.178 -4.004,1.406 -4.182,3.536c-0.178,2.129 1.407,4.003 3.536,4.181Z" style="fill:#2a3440;"/><path d="M907.886,73.199c1.89,0.158 3.553,-1.248 3.711,-3.138c0.158,-1.89 -1.248,-3.553 -3.138,-3.711c-1.89,-0.158 -3.553,1.248 -3.711,3.138c-0.158,1.89 1.248,3.553 3.138,3.711Z" style="fill:#2a3440;"/><path d="M876.343,85.304c1.89,0.158 3.553,-1.248 3.711,-3.138c0.158,-1.89 -1.248,-3.553 -3.138,-3.711c-1.89,-0.158 -3.553,1.248 -3.711,3.138c-0.158,1.89 1.248,3.553 3.138,3.711Z" style="fill:#2a3440;"/><path d="M821.102,76.548c2.057,0.172 3.866,-1.358 4.037,-3.414c0.172,-2.056 -1.357,-3.865 -3.413,-4.037c-2.057,-0.172 -3.866,1.358 -4.038,3.414c-0.172,2.056 1.358,3.865 3.414,4.037Z" style="fill:#2a3440;"/><path d="M800.465,24.138c2.072,0.174 3.895,-1.368 4.069,-3.44c0.173,-2.073 -1.369,-3.896 -3.441,-4.069c-2.072,-0.174 -3.895,1.368 -4.069,3.44c-0.173,2.073 1.369,3.896 3.441,4.069Z" style="fill:#2a3440;"/><path d="M996.588,53.009c3.876,0.324 7.286,-2.559 7.61,-6.435c0.324,-3.876 -2.559,-7.286 -6.435,-7.61c-3.876,-0.324 -7.286,2.56 -7.61,6.435c-0.324,3.876 2.56,7.286 6.435,7.61Z" style="fill:#2a3440;"/><path d="M957.027,33.631c3.178,0.266 5.974,-2.098 6.24,-5.276c0.266,-3.178 -2.099,-5.974 -5.277,-6.24c-3.178,-0.266 -5.974,2.098 -6.24,5.276c-0.265,3.179 2.099,5.975 5.277,6.24Z" style="fill:#2a3440;"/><path d="M997.227,46.512l44.461,-1.164l-0.059,-2.249c-36.876,0.966 -37.417,-1.095 -72.668,9.774l-9.673,-24.774l-2.096,0.819l10.434,26.721c9.867,-3.042 19.734,-6.084 29.601,-9.127Z" style="fill:#2a3440;fill-rule:nonzero;"/><path d="M876.781,80.264l-18.025,-15.548l49.722,-20.798l59.825,11.822l9.241,22.51l2.081,-0.855l-9.699,-23.628l-61.684,-12.189l-53.221,22.261l-0.088,0.551l20.378,17.578c0.49,-0.568 0.98,-1.136 1.47,-1.704Z" style="fill:#2a3440;fill-rule:nonzero;"/><path d="M858.442,65.53l0.126,-0.301l-3.383,-1.241l-32.055,7.58l0.518,2.19c11.598,-2.743 23.196,-5.485 34.794,-8.228Z" style="fill:#2a3440;fill-rule:nonzero;"/><path d="M909.717,69.785l0.819,-17.949l-2.248,-0.102l-0.819,17.948c0.75,0.034 1.499,0.069 2.248,0.103Z" style="fill:#2a3440;fill-rule:nonzero;"/><path d="M1036.68,54.311c4.548,2.086 9.935,0.088 12.022,-4.46c2.086,-4.548 0.088,-9.935 -4.46,-12.021c-4.548,-2.087 -9.935,-0.089 -12.021,4.459c-2.087,4.548 -0.089,9.935 4.459,12.022Z" style="fill:#2a3440;"/><path d="M766.788,14.58c-7.636,-0.744 -14.439,4.851 -15.183,12.487c-0.744,7.636 4.852,14.439 12.487,15.183c7.636,0.744 14.439,-4.852 15.183,-12.488c0.744,-7.635 -4.852,-14.439 -12.487,-15.182Z" style="fill:#2a3440;"/><path d="M715.262,35.753c-7.694,-0.749 -14.549,4.889 -15.298,12.583c-0.75,7.694 4.888,14.548 12.582,15.298c7.694,0.749 14.548,-4.889 15.298,-12.582c0.749,-7.694 -4.889,-14.549 -12.582,-15.299Z" style="fill:#2a3440;"/><path d="M654.732,27.139c-5.028,-0.49 -9.509,3.195 -9.998,8.223c-0.49,5.029 3.195,9.509 8.223,9.999c5.028,0.489 9.508,-3.195 9.998,-8.224c0.49,-5.028 -3.195,-9.508 -8.223,-9.998Z" style="fill:#2a3440;"/><path d="M645.186,9.541c-2.127,-0.207 -4.023,1.351 -4.23,3.478c-0.207,2.127 1.352,4.023 3.479,4.23c2.127,0.207 4.022,-1.352 4.229,-3.479c0.207,-2.127 -1.351,-4.022 -3.478,-4.229Z" style="fill:#2a3440;"/><path d="M714.783,18.364c-1.888,-0.184 -3.57,1.199 -3.754,3.087c-0.184,1.888 1.2,3.569 3.087,3.753c1.888,0.184 3.57,-1.199 3.754,-3.087c0.184,-1.887 -1.2,-3.569 -3.087,-3.753Z" style="fill:#2a3440;"/><path d="M746.488,6.691c-1.888,-0.183 -3.569,1.2 -3.753,3.087c-0.184,1.888 1.199,3.57 3.087,3.754c1.887,0.184 3.569,-1.2 3.753,-3.087c0.184,-1.888 -1.199,-3.57 -3.087,-3.754Z" style="fill:#2a3440;"/><path d="M801.604,16.201c-2.054,-0.2 -3.883,1.305 -4.083,3.359c-0.2,2.053 1.305,3.883 3.358,4.083c2.054,0.2 3.884,-1.305 4.084,-3.358c0.2,-2.054 -1.305,-3.884 -3.359,-4.084Z" style="fill:#2a3440;"/><path d="M821.523,68.888c-2.069,-0.202 -3.913,1.315 -4.115,3.385c-0.202,2.069 1.315,3.914 3.385,4.115c2.069,0.202 3.914,-1.315 4.115,-3.385c0.202,-2.069 -1.315,-3.913 -3.385,-4.115Z" style="fill:#2a3440;"/><path d="M757.511,110.072c-3.473,-0.339 -6.566,2.206 -6.905,5.678c-0.338,3.472 2.207,6.566 5.679,6.904c3.472,0.339 6.566,-2.206 6.904,-5.678c0.338,-3.473 -2.206,-6.566 -5.678,-6.904Z" style="fill:#2a3440;"/><path d="M625.813,37.34c-3.871,-0.377 -7.32,2.459 -7.697,6.33c-0.377,3.871 2.459,7.32 6.33,7.697c3.871,0.377 7.32,-2.459 7.697,-6.33c0.377,-3.871 -2.459,-7.32 -6.33,-7.697Z" style="fill:#2a3440;"/><path d="M665.106,57.256c-3.175,-0.309 -6.003,2.017 -6.312,5.191c-0.309,3.174 2.017,6.002 5.191,6.312c3.174,0.309 6.002,-2.017 6.312,-5.191c0.309,-3.174 -2.017,-6.002 -5.191,-6.312Z" style="fill:#2a3440;"/><path d="M795.598,66.865c-5.309,-0.517 -10.04,3.374 -10.557,8.684c-0.517,5.309 3.373,10.04 8.683,10.557c5.31,0.517 10.04,-3.373 10.558,-8.683c0.517,-5.31 -3.374,-10.04 -8.684,-10.558Z" style="fill:#2a3440;"/><path d="M625.086,43.827l-44.473,0.557l0.028,2.25c36.885,-0.462 37.399,1.605 72.795,-8.781l9.333,24.904l2.107,-0.79l-10.067,-26.861c-9.908,2.907 -19.816,5.814 -29.723,8.721Z" style="fill:#2a3440;fill-rule:nonzero;"/><path d="M745.982,11.725l17.811,15.792l-50.002,20.117l-59.658,-12.639l-8.933,-22.633l-2.093,0.826l9.377,23.758l61.511,13.031l53.52,-21.532l0.095,-0.55l-20.136,-17.854c-0.497,0.561 -0.995,1.123 -1.492,1.684Z" style="fill:#2a3440;fill-rule:nonzero;"/><path d="M764.118,26.707l-0.131,0.3l29.969,51.01l26.903,-4.255l-0.351,-2.222l-25.389,4.015l-27.766,-47.261l32.156,-7.141l-0.488,-2.197c-11.635,2.584 -23.269,5.168 -34.903,7.751Z" style="fill:#2a3440;fill-rule:nonzero;"/><path d="M756.53,115.558l1.633,1.548l38.712,-40.859l-1.634,-1.547c-12.904,13.619 -25.807,27.239 -38.711,40.858Z" style="fill:#2a3440;fill-rule:nonzero;"/><path d="M712.905,21.753l-1.064,17.935l2.246,0.134l1.064,-17.936c-0.748,-0.044 -1.497,-0.089 -2.246,-0.133Z" style="fill:#2a3440;fill-rule:nonzero;"/><path d="M585.739,35.491c-4.519,-2.149 -9.932,-0.225 -12.081,4.294c-2.148,4.519 -0.224,9.933 4.295,12.082c4.519,2.148 9.933,0.224 12.081,-4.295c2.149,-4.519 0.225,-9.933 -4.295,-12.081Z" style="fill:#2a3440;"/><path d="M437.848,31.579c5.563,2.012 11.713,-0.871 13.725,-6.435c2.012,-5.563 -0.871,-11.713 -6.434,-13.725c-5.564,-2.012 -11.714,0.871 -13.726,6.434c-2.012,5.564 0.871,11.714 6.435,13.726Z" style="fill:#2a3440;"/><path d="M480.385,25.585c5.606,2.027 11.803,-0.878 13.83,-6.483c2.027,-5.606 -0.878,-11.803 -6.484,-13.83c-5.605,-2.028 -11.802,0.877 -13.83,6.483c-2.027,5.606 0.878,11.803 6.484,13.83Z" style="fill:#2a3440;"/><path d="M523.969,43.565c3.663,1.325 7.713,-0.573 9.038,-4.237c1.325,-3.664 -0.574,-7.714 -4.237,-9.039c-3.664,-1.325 -7.714,0.574 -9.039,4.238c-1.325,3.663 0.574,7.713 4.238,9.038Z" style="fill:#2a3440;"/><path d="M477.426,38.67c1.376,0.497 2.896,-0.216 3.394,-1.591c0.497,-1.375 -0.216,-2.896 -1.591,-3.393c-1.376,-0.498 -2.896,0.215 -3.393,1.59c-0.498,1.376 0.215,2.896 1.59,3.394Z" style="fill:#2a3440;"/><path d="M451.114,43.607c2.079,0.752 4.378,-0.326 5.13,-2.405c0.752,-2.079 -0.326,-4.378 -2.405,-5.13c-2.08,-0.752 -4.378,0.325 -5.13,2.405c-0.752,2.079 0.325,4.378 2.405,5.13Z" style="fill:#2a3440;"/><path d="M547.522,41.459c2.82,1.02 5.938,-0.442 6.958,-3.262c1.02,-2.82 -0.442,-5.938 -3.262,-6.958c-2.821,-1.02 -5.939,0.441 -6.959,3.262c-1.02,2.82 0.442,5.938 3.263,6.958Z" style="fill:#2a3440;"/><path d="M521.961,19.084c2.313,0.837 4.87,-0.362 5.706,-2.675c0.836,-2.312 -0.362,-4.869 -2.675,-5.705c-2.313,-0.837 -4.869,0.362 -5.706,2.674c-0.836,2.313 0.363,4.87 2.675,5.706Z" style="fill:#2a3440;"/><path d="M549.302,36.751l33.335,8.065l0.408,-1.686c-27.648,-6.69 -27.637,-8.333 -56.065,-7.323l-2.224,-20.387l-1.725,0.188l2.399,21.99c7.958,-0.282 15.915,-0.565 23.872,-0.847Z" style="fill:#2a3440;fill-rule:nonzero;"/><path d="M452.849,37.68l-10.296,-15.197l41.197,-5.494l42.165,20.821l1.604,-1.143l-43.475,-21.468l-44.095,5.881l-0.176,0.393l11.64,17.18c0.478,-0.324 0.957,-0.648 1.436,-0.973Z" style="fill:#2a3440;fill-rule:nonzero;"/><path d="M479.475,36.496l4.216,-13.199l-1.653,-0.528l-4.215,13.199c0.551,0.176 1.101,0.352 1.652,0.528Z" style="fill:#2a3440;fill-rule:nonzero;"/></svg>