<?xml version="1.0" encoding="UTF-8" standalone="no"?><!DOCTYPE svg PUBLIC "-//W3C//DTD SVG 1.1//EN" "http://www.w3.org/Graphics/SVG/1.1/DTD/svg11.dtd"><svg width="100%" height="100%" viewBox="0 0 1225 164" version="1.1" xmlns="http://www.w3.org/2000/svg" xmlns:xlink="http://www.w3.org/1999/xlink" xml:space="preserve" style="fill-rule:evenodd;clip-rule:evenodd;stroke-linejoin:round;stroke-miterlimit:1.41421;"><path d="M-34.107,7.207l12.19,0l0,105.491l2.985,-0.12l0,1.204l23.412,0c0.059,0.305 0.143,0.609 0.252,0.911c1.147,3.176 4.657,4.822 7.833,3.675c3.175,-1.147 4.822,-4.657 3.674,-7.833c-0.339,-0.94 -0.885,-1.745 -1.568,-2.384l3.917,-7.561c1.996,0.671 4.224,0.698 6.357,-0.072c1.713,-0.619 3.144,-1.673 4.214,-2.992l27.161,18.434c-1.693,3.31 -2.064,7.287 -0.702,11.057c0.477,1.319 1.134,2.523 1.932,3.593l-15.175,11.835c-0.986,-0.806 -2.358,-1.089 -3.641,-0.625c-1.941,0.701 -2.947,2.846 -2.246,4.787c0.701,1.939 2.846,2.945 4.787,2.245c1.85,-0.669 2.851,-2.65 2.332,-4.514c5.145,-4.013 10.29,-8.026 15.435,-12.038c3.696,3.555 9.228,4.925 14.373,3.066l0.084,-0.031c3.685,-1.358 6.453,-4.119 7.92,-7.459l9.112,2.636c-0.004,0.397 0.062,0.802 0.205,1.197c0.644,1.784 2.615,2.709 4.399,2.065c1.784,-0.645 2.709,-2.616 2.064,-4.4c-0.644,-1.784 -2.616,-2.709 -4.399,-2.064c-0.616,0.222 -1.129,0.602 -1.511,1.079l-9.134,-2.642c0.674,-2.614 0.596,-5.45 -0.39,-8.178c-0.611,-1.691 -1.516,-3.191 -2.638,-4.463l19.016,-20.64c3.598,2.482 8.302,3.249 12.722,1.652c0.294,-0.107 0.582,-0.222 0.865,-0.345l3.95,9.759c-1.279,0.859 -1.862,2.508 -1.315,4.021c0.644,1.784 2.616,2.709 4.4,2.065c1.783,-0.645 2.708,-2.616 2.064,-4.4c-0.472,-1.306 -1.654,-2.152 -2.953,-2.258l-4.153,-10.259c4.368,-2.826 6.812,-7.887 6.331,-13.05l37.546,-8.992c1.809,4.587 6.959,6.933 11.625,5.247c1.169,-0.423 2.2,-1.059 3.063,-1.849l6.762,6.313c-0.098,0.158 -0.192,0.319 -0.281,0.485c-2.379,4.403 -0.737,9.908 3.666,12.287c4.402,2.379 9.907,0.737 12.286,-3.666c0.176,-0.326 0.33,-0.657 0.462,-0.993c12.625,0.606 20.186,1.135 27.811,0.782c0.501,2.916 2.819,5.315 5.903,5.778c3.846,0.576 7.437,-2.079 8.013,-5.925c0.074,-0.491 0.094,-0.977 0.067,-1.453c3.888,-0.671 8.29,-1.574 13.575,-2.765c1.178,2.897 3.812,5.118 7.127,5.615c1.098,0.164 2.18,0.126 3.208,-0.087l4.274,13.485c-1.321,0.872 -2.281,2.28 -2.534,3.967c-0.473,3.154 1.704,6.098 4.858,6.571c0.283,0.042 0.565,0.063 0.843,0.064l0.037,0c2.805,-0.009 5.263,-2.065 5.691,-4.923c0.471,-3.142 -1.687,-6.075 -4.821,-6.565l-0.037,-0.005c-0.665,-0.1 -1.322,-0.082 -1.947,0.038l-4.234,-13.356c2.062,-1 3.723,-2.758 4.568,-4.968l37.137,9.895c-0.102,0.418 -0.187,0.845 -0.252,1.28c-1.146,7.645 4.131,14.782 11.776,15.927c7.645,1.146 14.781,-4.131 15.927,-11.776c0.33,-2.201 0.127,-4.359 -0.511,-6.344l26.361,-9.056c1.799,4.378 5.788,7.729 10.804,8.481c2.827,0.423 5.584,-0.039 7.989,-1.177l15.132,29.097c-2.044,1.469 -3.517,3.73 -3.919,6.415c-0.79,5.276 2.852,10.201 8.127,10.992c5.276,0.79 10.201,-2.851 10.992,-8.127c0.052,-0.35 0.085,-0.698 0.1,-1.043l12.926,-1.366c0.398,1.327 1.521,2.381 2.979,2.62l0.024,0.003c1.193,0.188 2.346,-0.212 3.161,-0.988c0.853,-0.569 1.473,-1.482 1.637,-2.576c0.308,-2.056 -1.111,-3.976 -3.168,-4.284c-1.315,-0.198 -2.575,0.311 -3.392,1.242c-0.544,0.437 -0.967,1.026 -1.2,1.716l-13.138,1.388c-0.765,-3.899 -3.904,-7.082 -8.056,-7.704c-1.792,-0.269 -3.543,-0.026 -5.105,0.618l-15.148,-29.127c3.059,-2.108 5.273,-5.427 5.866,-9.387c0.208,-1.387 0.203,-2.757 0.009,-4.077l18.978,-3.197c0.21,0.512 0.533,0.971 0.94,1.343c0.55,0.593 1.293,1.015 2.152,1.156c1.969,0.323 3.834,-0.948 4.279,-2.864l13.509,-1.241c0.71,3.91 3.807,7.135 7.95,7.815c5.264,0.862 10.239,-2.712 11.101,-7.976c0.454,-2.772 -0.321,-5.462 -1.924,-7.515c9.543,-8.839 19.086,-17.677 28.629,-26.515c0.838,0.697 1.866,1.188 3.019,1.377c3.443,0.564 6.696,-1.773 7.26,-5.216c0.502,-3.067 -1.296,-5.983 -4.128,-6.982l0.932,-2.921c3.984,0.478 7.928,-1.317 10.188,-4.615l26.697,13.183c-1.189,3.612 0.707,7.542 4.306,8.844c3.663,1.325 7.713,-0.574 9.038,-4.238c0.24,-0.665 0.375,-1.342 0.412,-2.014c3.516,-0.125 7.032,-0.249 10.548,-0.374c0.221,1.994 1.542,3.791 3.555,4.519c2.82,1.02 5.938,-0.441 6.958,-3.262c0.022,-0.06 0.042,-0.119 0.061,-0.179l18.321,4.432c-0.52,3.808 1.437,7.679 5.091,9.417c4.519,2.148 9.933,0.224 12.081,-4.295c0.159,-0.334 0.295,-0.673 0.41,-1.015c12.637,-0.047 20.214,0.091 27.81,-0.654c0.65,2.885 3.089,5.162 6.192,5.465c3.871,0.377 7.32,-2.46 7.697,-6.331c0.048,-0.494 0.044,-0.98 -0.008,-1.454c3.848,-0.871 8.198,-1.999 13.415,-3.461c1.327,2.832 4.071,4.913 7.407,5.239c1.105,0.107 2.183,0.013 3.198,-0.252l4.964,13.246c-1.274,0.939 -2.16,2.394 -2.325,4.093c-0.309,3.174 2.017,6.002 5.191,6.311c3.174,0.309 6.002,-2.017 6.312,-5.191c0.309,-3.174 -2.017,-6.002 -5.191,-6.311c-0.67,-0.066 -1.325,-0.014 -1.943,0.139l-4.917,-13.121c2.008,-1.104 3.576,-2.946 4.306,-5.197l37.598,7.965c-0.081,0.424 -0.143,0.855 -0.186,1.293c-0.75,7.694 4.888,14.549 12.582,15.298c7.694,0.749 14.548,-4.888 15.298,-12.582c0.216,-2.215 -0.098,-4.36 -0.837,-6.31l25.858,-10.404c2.022,4.279 6.179,7.42 11.227,7.912c2.845,0.277 5.575,-0.326 7.918,-1.587l16.613,28.277c-1.965,1.573 -3.319,3.907 -3.582,6.609c-0.272,2.794 0.677,5.428 2.411,7.372c-8.947,9.442 -17.893,18.885 -26.839,28.327c-0.881,-0.641 -1.94,-1.063 -3.102,-1.176c-3.473,-0.339 -6.566,2.206 -6.905,5.678c-0.338,3.473 2.207,6.566 5.679,6.905c3.472,0.338 6.566,-2.207 6.904,-5.679c0.146,-1.501 -0.246,-2.932 -1.019,-4.099l26.965,-28.461c1.316,0.919 2.879,1.523 4.589,1.69c5.31,0.518 10.04,-3.373 10.558,-8.683c0.034,-0.352 0.049,-0.701 0.046,-1.047l13.619,-2.154c0.513,1.266 1.703,2.204 3.155,2.326c1.963,0.164 3.7,-1.222 4.003,-3.135c6.349,-1.502 12.698,-3.003 19.046,-4.504c1.876,4.775 6.333,8.328 11.787,8.785c3.948,0.329 7.65,-1.027 10.396,-3.47l7.183,6.196c-0.168,0.36 -0.277,0.754 -0.312,1.173c-0.158,1.89 1.248,3.553 3.138,3.711c1.89,0.158 3.553,-1.248 3.711,-3.138c0.158,-1.89 -1.248,-3.553 -3.138,-3.711c-0.653,-0.055 -1.279,0.077 -1.825,0.351l-7.199,-6.21c1.703,-2.095 2.814,-4.706 3.056,-7.596c0.15,-1.793 -0.048,-3.535 -0.537,-5.16l25.886,-10.827c2.236,3.755 6.19,6.413 10.873,6.805c0.312,0.026 0.621,0.041 0.93,0.047l-0.48,10.517c-1.521,0.247 -2.738,1.502 -2.872,3.106c-0.158,1.89 1.248,3.553 3.138,3.711c1.89,0.158 3.553,-1.248 3.711,-3.138c0.116,-1.384 -0.606,-2.645 -1.743,-3.284l0.505,-11.055c5.148,-0.748 9.479,-4.328 11.195,-9.22l37.879,7.486c-0.268,4.922 3.434,9.202 8.378,9.616c1.239,0.103 2.44,-0.045 3.555,-0.403l4.424,10.777c-0.957,0.631 -1.626,1.68 -1.729,2.911c-0.178,2.13 1.407,4.003 3.536,4.181c2.13,0.178 4.004,-1.406 4.182,-3.536c0.178,-2.129 -1.407,-4.003 -3.536,-4.181c-0.095,-0.008 -0.189,-0.013 -0.283,-0.014l-4.551,-11.086c2.369,-1.477 4.037,-4.015 4.287,-7.008c0.076,-0.914 0.016,-1.807 -0.165,-2.66l13.081,-4.033c0.95,2.422 3.211,4.225 5.976,4.457c3.876,0.325 7.286,-2.559 7.61,-6.435c0.007,-0.082 0.012,-0.163 0.016,-0.245l27.194,-0.712c-0.178,3.593 1.808,7.102 5.275,8.694c3.669,1.683 7.884,0.708 10.472,-2.12l7.119,5.825c-1.382,2.426 -1.643,5.451 -0.44,8.204c0.367,0.839 0.845,1.596 1.41,2.261l-9.014,9.181l-0.576,0.586c-1.988,-1.68 -4.834,-2.192 -7.378,-1.079c-3.564,1.558 -5.193,5.715 -3.635,9.279c0.033,0.075 0.067,0.149 0.102,0.223l-26.43,15.191c-1.052,-1.594 -2.906,-2.594 -4.946,-2.46c-3.025,0.198 -5.321,2.815 -5.123,5.84c0.198,3.025 2.815,5.321 5.84,5.123c3.025,-0.198 5.321,-2.814 5.123,-5.84c-0.011,-0.173 -0.03,-0.344 -0.057,-0.512c13.068,-7.34 20.197,-10.777 27.001,-15.367c1.992,1.96 5.053,2.624 7.769,1.438c3.564,-1.558 5.193,-5.716 3.636,-9.28c-0.125,-0.287 -0.267,-0.561 -0.425,-0.822c2.947,-2.634 6.244,-5.783 10.179,-9.704c2.037,1.292 4.554,1.763 6.99,1.192l11.126,26.916c-1.326,0.454 -2.574,1.132 -3.679,1.996c-1.194,0.933 -2.219,2.082 -3.008,3.376c-0.673,1.104 -1.173,2.312 -1.477,3.568c-0.016,0.067 -0.032,0.134 -0.047,0.202c-4.15,-0.826 -8.84,-1.713 -14.281,-2.706c-0.021,-0.183 -0.056,-0.365 -0.107,-0.543c-0.114,-0.399 -0.301,-0.776 -0.549,-1.109c-0.263,-0.355 -0.595,-0.657 -0.972,-0.887c-0.415,-0.253 -0.879,-0.411 -1.36,-0.474c-0.427,-0.056 -0.868,-0.026 -1.284,0.082c-0.403,0.104 -0.785,0.282 -1.124,0.522c-0.338,0.239 -0.632,0.538 -0.864,0.88c-0.173,0.255 -0.311,0.534 -0.409,0.826c-0.24,0.709 -0.241,1.491 0,2.2c0.115,0.34 0.284,0.662 0.498,0.95c0.23,0.309 0.513,0.58 0.832,0.796c0.302,0.206 0.637,0.362 0.989,0.461c0.14,0.039 0.281,0.068 0.424,0.091c0.074,0.01 0.146,0.019 0.22,0.026c0.471,0.037 0.944,-0.016 1.392,-0.168c0.341,-0.115 0.662,-0.284 0.95,-0.498c0.31,-0.231 0.58,-0.513 0.797,-0.832c0.028,-0.041 0.055,-0.083 0.081,-0.125l14.477,2.617c-0.032,0.607 -0.021,1.215 0.034,1.82c0.108,1.18 0.385,2.342 0.819,3.444c0.518,1.316 1.26,2.542 2.183,3.613c0.891,1.035 1.949,1.923 3.124,2.62c1.023,0.606 2.131,1.066 3.284,1.36c0.569,0.145 1.147,0.246 1.73,0.315c0.162,0.017 0.162,0.017 0.324,0.032c0.586,0.046 1.172,0.06 1.759,0.028c1.187,-0.063 2.364,-0.297 3.486,-0.693c1.288,-0.453 2.499,-1.119 3.575,-1.959c1.114,-0.871 2.081,-1.929 2.846,-3.118c0.32,-0.497 0.604,-1.017 0.85,-1.553l27.22,8.615c-0.01,0.04 -0.02,0.08 -0.03,0.12c-0.326,1.348 -0.43,2.75 -0.303,4.131c0.108,1.179 0.384,2.342 0.819,3.443c0.518,1.316 1.26,2.542 2.183,3.613c0.891,1.035 1.949,1.924 3.124,2.62c1.022,0.607 2.131,1.066 3.283,1.36c0.57,0.146 1.148,0.247 1.731,0.315c0.162,0.017 0.162,0.017 0.324,0.032c0.585,0.047 1.172,0.06 1.759,0.029c1.187,-0.064 2.364,-0.298 3.486,-0.693c1.287,-0.454 2.499,-1.119 3.575,-1.96c1.114,-0.871 2.08,-1.928 2.846,-3.118c0.641,-0.995 1.139,-2.082 1.475,-3.217c0.393,-1.33 0.565,-2.726 0.508,-4.111c-0.037,-0.909 -0.174,-1.812 -0.406,-2.69l33.262,-12.256c0.376,0.952 0.914,1.838 1.582,2.614c0.648,0.753 1.419,1.4 2.274,1.907c0.744,0.441 1.551,0.776 2.39,0.99c0.414,0.106 0.835,0.179 1.26,0.229c0.118,0.013 0.117,0.013 0.235,0.023c0.426,0.034 0.853,0.044 1.28,0.021c0.865,-0.046 1.721,-0.216 2.538,-0.504c0.937,-0.331 1.819,-0.815 2.602,-1.427c0.811,-0.634 1.514,-1.403 2.071,-2.269c0.401,-0.622 0.724,-1.292 0.962,-1.991l11.446,2.137c-0.041,0.436 -0.042,0.876 -0.003,1.313c0.061,0.661 0.216,1.312 0.459,1.928c0.4,1.014 1.036,1.925 1.84,2.654l-29.908,28.622c-1.081,-1.396 -2.814,-2.248 -4.706,-2.124c-2.343,0.153 -4.25,1.758 -4.897,3.88l-15.495,-3.616c-0.032,-1.804 -1.305,-3.401 -3.128,-3.754c-2.098,-0.407 -4.135,0.985 -4.547,3.107c-0.411,2.121 0.958,4.174 3.056,4.581c1.612,0.312 3.188,-0.437 4.018,-1.763l15.899,3.71c0.348,2.873 2.889,5.009 5.811,4.818c3.025,-0.198 5.321,-2.814 5.123,-5.84c-0.019,-0.292 -0.061,-0.577 -0.123,-0.853l30.844,-29.518c0.331,0.142 0.673,0.258 1.022,0.347c0.319,0.082 0.643,0.138 0.969,0.177c0.091,0.009 0.091,0.009 0.181,0.018c0.328,0.026 0.657,0.033 0.985,0.015c0.665,-0.035 1.324,-0.166 1.952,-0.387c1.471,-0.519 2.75,-1.531 3.595,-2.843c0.358,-0.558 0.637,-1.166 0.825,-1.802c0.086,-0.291 0.153,-0.586 0.201,-0.885l23.655,0l0,-2.213l-4.982,0l0,-104.362l39.079,0l0,207.191l-1304.83,0l0,-207.191l0.001,0Z" style="fill:#f2f2f2;"/></svg>