<?xml version="1.0" encoding="UTF-8" standalone="no"?><!DOCTYPE svg PUBLIC "-//W3C//DTD SVG 1.1//EN" "http://www.w3.org/Graphics/SVG/1.1/DTD/svg11.dtd"><svg width="100%" height="100%" viewBox="0 0 812 302" version="1.1" xmlns="http://www.w3.org/2000/svg" xmlns:xlink="http://www.w3.org/1999/xlink" xml:space="preserve" style="fill-rule:evenodd;clip-rule:evenodd;stroke-linejoin:round;stroke-miterlimit:1.41421;"><circle cx="704.822" cy="286.893" r="4.952" style="fill:#a7d1ff;"/><path d="M144.395,279.604c1.772,-0.676 2.662,-2.663 1.986,-4.435c-0.676,-1.772 -2.663,-2.662 -4.435,-1.986c-1.772,0.676 -2.662,2.663 -1.986,4.435c0.676,1.772 2.663,2.662 4.435,1.986Z" style="fill:#7d9dbf;"/><path d="M144.436,279.588c0.439,-0.177 0.838,-0.436 1.172,-0.771c0.253,-0.255 0.465,-0.55 0.627,-0.871c0.174,-0.344 0.291,-0.717 0.342,-1.099c0.041,-0.306 0.04,-0.617 -0.002,-0.922c-0.094,-0.685 -0.399,-1.337 -0.866,-1.848c-0.28,-0.306 -0.616,-0.561 -0.986,-0.748c-0.394,-0.2 -0.825,-0.323 -1.265,-0.36c-0.485,-0.041 -0.97,0.025 -1.429,0.183c-0.407,0.141 -0.788,0.364 -1.112,0.647c-0.314,0.272 -0.577,0.602 -0.773,0.969c-0.196,0.364 -0.325,0.763 -0.38,1.172c-0.041,0.306 -0.041,0.617 0.001,0.922c0.103,0.741 0.451,1.442 0.982,1.969c0.255,0.253 0.55,0.465 0.87,0.627c0.345,0.175 0.718,0.291 1.1,0.342c0.362,0.049 0.732,0.039 1.091,-0.029c0.143,-0.027 0.282,-0.065 0.42,-0.108c0.07,-0.024 0.14,-0.048 0.208,-0.075Zm-0.858,-2.08c-0.161,0.058 -0.333,0.083 -0.505,0.068c-0.334,-0.028 -0.652,-0.202 -0.853,-0.472c-0.097,-0.129 -0.166,-0.278 -0.204,-0.434c-0.025,-0.104 -0.035,-0.21 -0.032,-0.316c0.005,-0.144 0.037,-0.286 0.093,-0.419c0.055,-0.132 0.135,-0.255 0.233,-0.359c0.107,-0.113 0.237,-0.204 0.38,-0.267c0.146,-0.064 0.303,-0.1 0.463,-0.102c0.144,-0.002 0.287,0.023 0.422,0.072c0.135,0.049 0.261,0.123 0.37,0.216c0.088,0.075 0.164,0.163 0.225,0.259c0.113,0.177 0.178,0.384 0.186,0.594c0.011,0.278 -0.081,0.557 -0.251,0.776c-0.108,0.139 -0.244,0.248 -0.399,0.328c-0.042,0.02 -0.084,0.039 -0.128,0.056Z" style="fill:none;"/><path d="M90.811,295.633c1.928,-0.735 2.896,-2.897 2.16,-4.825c-0.735,-1.928 -2.897,-2.896 -4.825,-2.161c-1.928,0.736 -2.896,2.898 -2.161,4.826c0.736,1.928 2.898,2.896 4.826,2.16Z" style="fill:#7d9dbf;"/><path d="M90.856,295.616c0.505,-0.204 0.963,-0.508 1.337,-0.905c0.351,-0.371 0.623,-0.813 0.798,-1.293c0.124,-0.338 0.198,-0.695 0.22,-1.055c0.048,-0.797 -0.167,-1.602 -0.604,-2.271c-0.192,-0.293 -0.426,-0.559 -0.692,-0.788c-0.296,-0.253 -0.632,-0.46 -0.991,-0.611c-0.416,-0.174 -0.863,-0.273 -1.314,-0.289c-0.482,-0.018 -0.966,0.06 -1.419,0.226c-0.44,0.162 -0.849,0.406 -1.199,0.718c-0.326,0.29 -0.6,0.639 -0.806,1.023c-0.184,0.344 -0.315,0.715 -0.385,1.098c-0.072,0.389 -0.081,0.789 -0.027,1.181c0.103,0.743 0.432,1.46 0.942,2.011c0.246,0.266 0.526,0.497 0.837,0.684c0.437,0.262 0.927,0.434 1.433,0.502c0.553,0.074 1.112,0.019 1.644,-0.15c0.076,-0.025 0.151,-0.052 0.226,-0.081Zm-0.866,-2.078c-0.203,0.073 -0.418,0.105 -0.634,0.086c-0.203,-0.017 -0.403,-0.077 -0.583,-0.174c-0.153,-0.082 -0.292,-0.19 -0.408,-0.32c-0.284,-0.32 -0.419,-0.759 -0.363,-1.183c0.023,-0.167 0.074,-0.33 0.15,-0.48c0.076,-0.149 0.176,-0.287 0.298,-0.403c0.138,-0.132 0.301,-0.237 0.48,-0.307c0.175,-0.07 0.367,-0.109 0.556,-0.106c0.207,0.004 0.411,0.047 0.6,0.132c0.143,0.063 0.275,0.149 0.392,0.254c0.308,0.278 0.489,0.685 0.49,1.1c0,0.162 -0.027,0.324 -0.079,0.477c-0.065,0.194 -0.17,0.374 -0.307,0.525c-0.144,0.161 -0.321,0.285 -0.518,0.37c-0.025,0.01 -0.049,0.02 -0.074,0.029Z" style="fill:none;"/><path d="M154.175,144.089c7.033,2.77 14.993,-0.691 17.764,-7.724c2.77,-7.034 -0.691,-14.994 -7.724,-17.764c-7.034,-2.771 -14.994,0.69 -17.764,7.724c-2.771,7.034 0.69,14.993 7.724,17.764Z" style="fill:#96bce5;"/><path d="M102.604,96.788c6.464,2.546 13.779,-0.634 16.325,-7.098c2.546,-6.464 -0.635,-13.779 -7.098,-16.325c-6.464,-2.546 -13.779,0.635 -16.325,7.098c-2.546,6.464 0.634,13.779 7.098,16.325Z" style="fill:#96bce5;"/><path d="M58.314,66.568c6.464,2.546 13.779,-0.635 16.325,-7.099c2.546,-6.464 -0.635,-13.778 -7.098,-16.325c-6.464,-2.546 -13.779,0.635 -16.325,7.099c-2.546,6.464 0.634,13.779 7.098,16.325Z" style="fill:#96bce5;"/><path d="M122.707,281.581c7.168,-2.734 10.767,-10.774 8.033,-17.942c-2.734,-7.168 -10.774,-10.768 -17.942,-8.033c-7.168,2.734 -10.768,10.774 -8.033,17.942c2.734,7.168 10.774,10.767 17.942,8.033Z" style="fill:#7d9dbf;"/><path d="M122.791,281.549c0.631,-0.248 1.245,-0.537 1.835,-0.872c1.142,-0.648 2.19,-1.459 3.104,-2.403c1.126,-1.163 2.045,-2.524 2.707,-4.001c0.592,-1.324 0.978,-2.739 1.136,-4.181c0.13,-1.185 0.106,-2.386 -0.072,-3.565c-0.315,-2.087 -1.111,-4.098 -2.309,-5.835c-0.612,-0.887 -1.328,-1.701 -2.128,-2.421c-1.12,-1.008 -2.403,-1.83 -3.785,-2.429c-1.59,-0.69 -3.306,-1.08 -5.038,-1.143c-1.822,-0.065 -3.651,0.236 -5.359,0.875c-1.711,0.64 -3.291,1.615 -4.625,2.864c-1.265,1.185 -2.303,2.608 -3.049,4.173c-0.648,1.359 -1.075,2.822 -1.257,4.317c-0.13,1.067 -0.135,2.15 -0.015,3.219c0.237,2.097 0.959,4.136 2.091,5.916c0.64,1.007 1.412,1.93 2.29,2.739c1.066,0.984 2.287,1.798 3.604,2.407c1.469,0.679 3.056,1.1 4.668,1.238c1.249,0.106 2.511,0.041 3.742,-0.192c0.693,-0.132 1.374,-0.318 2.039,-0.55c0.141,-0.051 0.281,-0.103 0.421,-0.156Zm-0.957,-2.044c-0.579,0.215 -1.173,0.388 -1.779,0.511c-1.029,0.209 -2.087,0.276 -3.134,0.2c-1.354,-0.099 -2.689,-0.437 -3.928,-0.992c-1.154,-0.516 -2.222,-1.219 -3.151,-2.076c-0.735,-0.677 -1.381,-1.449 -1.917,-2.293c-0.923,-1.451 -1.522,-3.11 -1.736,-4.817c-0.112,-0.895 -0.119,-1.802 -0.021,-2.698c0.138,-1.256 0.482,-2.487 1.012,-3.634c0.609,-1.319 1.464,-2.522 2.512,-3.528c1.103,-1.058 2.414,-1.89 3.837,-2.443c1.427,-0.554 2.959,-0.828 4.489,-0.791c1.453,0.034 2.897,0.345 4.237,0.907c1.165,0.489 2.249,1.165 3.198,1.999c0.677,0.594 1.284,1.267 1.805,2.002c1.022,1.443 1.71,3.122 1.996,4.868c0.161,0.986 0.194,1.992 0.097,2.986c-0.118,1.212 -0.427,2.403 -0.911,3.519c-0.54,1.245 -1.297,2.395 -2.229,3.382c-0.754,0.798 -1.621,1.487 -2.569,2.041c-0.49,0.286 -1.001,0.534 -1.527,0.748c-0.093,0.037 -0.187,0.074 -0.281,0.109Z" style="fill:none;"/><path d="M159.413,239.677c7.222,-2.755 10.849,-10.855 8.094,-18.078c-2.755,-7.223 -10.856,-10.85 -18.078,-8.094c-7.223,2.755 -10.85,10.855 -8.095,18.078c2.756,7.222 10.856,10.849 18.079,8.094Z" style="fill:#7d9dbf;"/><path d="M159.497,239.645c0.691,-0.271 1.361,-0.591 2.002,-0.966c1.092,-0.638 2.095,-1.425 2.975,-2.334c1.135,-1.172 2.061,-2.543 2.728,-4.032c0.597,-1.333 0.985,-2.759 1.144,-4.212c0.112,-1.021 0.111,-2.055 -0.004,-3.076c-0.245,-2.17 -1.006,-4.279 -2.201,-6.107c-0.657,-1.005 -1.445,-1.925 -2.338,-2.728c-1.128,-1.015 -2.421,-1.844 -3.813,-2.448c-1.602,-0.694 -3.332,-1.088 -5.077,-1.151c-1.866,-0.067 -3.74,0.248 -5.484,0.914c-1.745,0.665 -3.352,1.678 -4.699,2.971c-1.26,1.209 -2.288,2.655 -3.02,4.239c-0.637,1.378 -1.049,2.857 -1.215,4.366c-0.112,1.021 -0.11,2.055 0.005,3.076c0.245,2.17 1.005,4.279 2.2,6.107c0.658,1.005 1.446,1.924 2.339,2.728c1.086,0.977 2.326,1.783 3.659,2.38c1.489,0.666 3.093,1.072 4.72,1.191c1.261,0.092 2.534,0.01 3.773,-0.241c0.728,-0.147 1.441,-0.355 2.137,-0.613c0.057,-0.021 0.113,-0.043 0.169,-0.064Zm-0.958,-2.043c-0.584,0.217 -1.183,0.391 -1.795,0.515c-1.038,0.211 -2.105,0.279 -3.162,0.202c-1.367,-0.1 -2.714,-0.441 -3.964,-1.001c-1.12,-0.501 -2.162,-1.178 -3.074,-1.999c-0.64,-0.576 -1.217,-1.223 -1.714,-1.925c-1.089,-1.536 -1.8,-3.336 -2.058,-5.201c-0.131,-0.949 -0.145,-1.914 -0.04,-2.867c0.134,-1.22 0.46,-2.418 0.962,-3.538c0.598,-1.338 1.446,-2.562 2.491,-3.589c1.115,-1.097 2.45,-1.961 3.904,-2.537c1.37,-0.543 2.839,-0.828 4.314,-0.83c1.373,-0.001 2.745,0.243 4.035,0.713c1.197,0.436 2.321,1.066 3.318,1.858c0.745,0.594 1.418,1.279 1.998,2.035c1.174,1.533 1.96,3.357 2.272,5.262c0.14,0.854 0.184,1.724 0.132,2.588c-0.071,1.18 -0.323,2.347 -0.741,3.453c-0.551,1.458 -1.39,2.804 -2.461,3.936c-0.727,0.769 -1.558,1.439 -2.466,1.984c-0.511,0.308 -1.045,0.574 -1.596,0.802c-0.118,0.048 -0.236,0.094 -0.355,0.139Z" style="fill:none;"/><path d="M25.647,102.473c4.701,1.852 10.02,-0.461 11.872,-5.162c1.851,-4.7 -0.462,-10.02 -5.162,-11.872c-4.701,-1.851 -10.021,0.462 -11.872,5.163c-1.852,4.7 0.461,10.02 5.162,11.871Z" style="fill:#96bce5;"/><path d="M217.446,220.435c4.72,-1.8 7.09,-7.094 5.29,-11.815c-1.801,-4.72 -7.095,-7.091 -11.815,-5.29c-4.721,1.801 -7.091,7.095 -5.291,11.815c1.801,4.721 7.095,7.091 11.816,5.29Z" style="fill:#7d9dbf;"/><path d="M217.556,220.393c0.396,-0.16 0.782,-0.342 1.154,-0.553c0.752,-0.427 1.442,-0.961 2.043,-1.582c0.691,-0.713 1.264,-1.54 1.691,-2.436c0.442,-0.928 0.728,-1.93 0.84,-2.952c0.094,-0.856 0.066,-1.725 -0.084,-2.573c-0.176,-0.993 -0.517,-1.957 -1.003,-2.841c-0.454,-0.823 -1.036,-1.575 -1.719,-2.22c-0.801,-0.758 -1.74,-1.367 -2.756,-1.794c-1.053,-0.441 -2.187,-0.685 -3.329,-0.712c-1.183,-0.028 -2.367,0.178 -3.472,0.6c-1.106,0.422 -2.127,1.056 -2.991,1.865c-0.833,0.781 -1.517,1.718 -2.008,2.748c-0.474,0.995 -0.768,2.075 -0.862,3.174c-0.079,0.937 -0.013,1.885 0.197,2.801c0.226,0.983 0.613,1.929 1.144,2.787c0.453,0.732 1.01,1.399 1.65,1.975c0.765,0.688 1.645,1.245 2.594,1.643c0.915,0.384 1.893,0.619 2.883,0.691c0.862,0.063 1.733,0.002 2.578,-0.181c0.418,-0.09 0.827,-0.211 1.229,-0.356c0.111,-0.042 0.111,-0.042 0.221,-0.084Zm-0.996,-2.028c-0.304,0.109 -0.613,0.201 -0.929,0.269c-0.636,0.137 -1.291,0.183 -1.94,0.136c-1.469,-0.107 -2.89,-0.693 -4.009,-1.652c-0.513,-0.439 -0.96,-0.954 -1.322,-1.524c-0.424,-0.667 -0.733,-1.408 -0.909,-2.178c-0.158,-0.69 -0.209,-1.404 -0.149,-2.109c0.071,-0.829 0.293,-1.644 0.651,-2.396c0.371,-0.777 0.886,-1.485 1.515,-2.073c0.651,-0.61 1.421,-1.088 2.254,-1.406c0.834,-0.318 1.726,-0.474 2.618,-0.453c0.861,0.021 1.717,0.205 2.511,0.538c0.768,0.322 1.477,0.782 2.082,1.354c0.514,0.486 0.952,1.052 1.293,1.671c0.395,0.718 0.664,1.506 0.786,2.316c0.101,0.667 0.102,1.348 0.004,2.015c-0.21,1.43 -0.874,2.781 -1.879,3.82c-0.453,0.467 -0.972,0.869 -1.538,1.19c-0.281,0.16 -0.572,0.297 -0.872,0.418c-0.083,0.032 -0.083,0.032 -0.167,0.064Z" style="fill:none;"/><path d="M284.936,57.83c5.656,1.269 9.218,6.892 7.949,12.549c-1.269,5.656 -6.892,9.218 -12.549,7.949c-5.657,-1.27 -9.219,-6.893 -7.949,-12.549c1.269,-5.657 6.892,-9.219 12.549,-7.949Z" style="fill:#7d9dbf;"/><path d="M495.698,39.055c8.629,-0.174 15.775,6.69 15.949,15.319c0.174,8.628 -6.69,15.774 -15.319,15.948c-8.628,0.174 -15.775,-6.69 -15.949,-15.319c-0.173,-8.628 6.691,-15.775 15.319,-15.948Z" style="fill:#96bce5;"/><path d="M562.209,18.224c6.507,-0.132 11.897,5.045 12.028,11.552c0.131,6.508 -5.046,11.897 -11.553,12.028c-6.507,0.131 -11.897,-5.045 -12.028,-11.553c-0.131,-6.507 5.046,-11.896 11.553,-12.027Z" style="fill:#96bce5;"/><path d="M617.965,89.269c4.641,-0.094 8.485,3.598 8.578,8.239c0.093,4.64 -3.598,8.484 -8.239,8.577c-4.641,0.094 -8.484,-3.598 -8.578,-8.239c-0.093,-4.64 3.599,-8.484 8.239,-8.577Z" style="fill:#7d9dbf;"/><path d="M660.877,92.951c8.243,2.558 12.858,11.327 10.3,19.569c-2.558,8.243 -11.327,12.858 -19.569,10.3c-8.243,-2.558 -12.858,-11.327 -10.3,-19.569c2.558,-8.243 11.327,-12.858 19.569,-10.3Z" style="fill:#7d9dbf;"/><circle cx="659.417" cy="208.821" r="15.637" style="fill:#a7d1ff;"/><path d="M659.518,193.184c0.763,0.008 1.525,0.065 2.279,0.18c1.429,0.219 2.826,0.638 4.139,1.242c1.912,0.879 3.639,2.147 5.054,3.703c1.185,1.304 2.148,2.806 2.834,4.428c0.464,1.095 0.801,2.242 1.003,3.414c0.331,1.923 0.301,3.908 -0.091,5.82c-0.314,1.532 -0.861,3.014 -1.616,4.384c-0.832,1.51 -1.915,2.879 -3.191,4.039c-1.374,1.249 -2.969,2.251 -4.692,2.943c-1.815,0.729 -3.763,1.108 -5.719,1.121c-1.959,0.012 -3.916,-0.343 -5.743,-1.051c-1.733,-0.671 -3.34,-1.655 -4.73,-2.888c-1.289,-1.144 -2.388,-2.5 -3.239,-3.999c-0.786,-1.387 -1.358,-2.894 -1.688,-4.454c-0.41,-1.941 -0.447,-3.96 -0.11,-5.915c0.207,-1.203 0.557,-2.381 1.039,-3.502c0.684,-1.588 1.634,-3.06 2.797,-4.34c1.394,-1.533 3.091,-2.786 4.968,-3.663c1.308,-0.612 2.702,-1.039 4.128,-1.267c0.753,-0.12 1.513,-0.182 2.275,-0.194c0.101,-0.001 0.202,-0.001 0.303,-0.001Zm-0.188,2.25c-0.654,0.007 -1.306,0.056 -1.953,0.154c-1.221,0.187 -2.416,0.546 -3.539,1.062c-1.637,0.753 -3.117,1.839 -4.329,3.173c-1.05,1.156 -1.898,2.495 -2.49,3.941c-0.353,0.865 -0.615,1.767 -0.779,2.686c-0.3,1.673 -0.279,3.404 0.062,5.069c0.263,1.284 0.718,2.527 1.344,3.679c0.718,1.321 1.66,2.519 2.773,3.531c1.156,1.051 2.495,1.899 3.941,2.49c1.548,0.632 3.212,0.967 4.884,0.988c1.678,0.021 3.357,-0.271 4.926,-0.868c1.462,-0.557 2.823,-1.372 4.005,-2.397c1.135,-0.984 2.106,-2.158 2.855,-3.462c0.666,-1.157 1.157,-2.414 1.45,-3.717c0.384,-1.712 0.427,-3.501 0.129,-5.23c-0.163,-0.948 -0.43,-1.878 -0.794,-2.769c-0.551,-1.347 -1.324,-2.601 -2.276,-3.7c-1.18,-1.361 -2.632,-2.483 -4.249,-3.275c-1.132,-0.554 -2.343,-0.946 -3.585,-1.16c-0.642,-0.111 -1.291,-0.172 -1.942,-0.191c-0.144,-0.003 -0.288,-0.004 -0.433,-0.004Z" style="fill:none;"/><circle cx="667.218" cy="276.48" r="15.637" style="fill:#a7d1ff;"/><path d="M667.319,260.843c0.763,0.007 1.525,0.065 2.279,0.18c1.429,0.219 2.826,0.638 4.139,1.242c1.912,0.878 3.639,2.146 5.054,3.703c1.185,1.304 2.148,2.806 2.834,4.428c0.464,1.094 0.801,2.242 1.003,3.414c0.331,1.923 0.301,3.908 -0.091,5.82c-0.314,1.532 -0.861,3.014 -1.616,4.384c-0.832,1.509 -1.915,2.879 -3.191,4.039c-1.374,1.248 -2.969,2.251 -4.692,2.943c-1.815,0.729 -3.763,1.108 -5.719,1.121c-1.959,0.012 -3.916,-0.343 -5.743,-1.051c-1.733,-0.671 -3.34,-1.655 -4.73,-2.888c-1.289,-1.144 -2.388,-2.5 -3.239,-3.999c-0.786,-1.387 -1.358,-2.894 -1.688,-4.454c-0.41,-1.941 -0.447,-3.96 -0.11,-5.915c0.207,-1.203 0.557,-2.381 1.039,-3.502c0.684,-1.588 1.634,-3.06 2.797,-4.34c1.394,-1.533 3.091,-2.786 4.968,-3.664c1.308,-0.611 2.702,-1.038 4.128,-1.266c0.753,-0.12 1.513,-0.182 2.275,-0.194c0.101,-0.001 0.202,-0.001 0.303,-0.001Zm-0.188,2.25c-0.654,0.006 -1.306,0.055 -1.953,0.154c-1.221,0.187 -2.416,0.545 -3.539,1.062c-1.637,0.753 -3.117,1.839 -4.329,3.173c-1.05,1.156 -1.898,2.494 -2.49,3.941c-0.343,0.839 -0.599,1.713 -0.765,2.604c-0.309,1.671 -0.299,3.402 0.032,5.069c0.26,1.312 0.72,2.585 1.359,3.76c0.719,1.321 1.66,2.519 2.774,3.532c1.156,1.05 2.495,1.898 3.941,2.49c1.548,0.632 3.212,0.967 4.884,0.988c1.678,0.021 3.357,-0.271 4.926,-0.868c1.462,-0.557 2.823,-1.373 4.005,-2.397c1.135,-0.984 2.106,-2.158 2.855,-3.462c0.652,-1.133 1.137,-2.362 1.431,-3.636c0.408,-1.764 0.452,-3.611 0.134,-5.394c-0.165,-0.919 -0.427,-1.821 -0.78,-2.686c-0.551,-1.347 -1.324,-2.601 -2.276,-3.701c-1.18,-1.361 -2.632,-2.482 -4.25,-3.274c-1.131,-0.555 -2.342,-0.946 -3.584,-1.16c-0.642,-0.111 -1.291,-0.172 -1.942,-0.191c-0.144,-0.003 -0.288,-0.004 -0.433,-0.004Z" style="fill:none;"/><circle cx="599.506" cy="224.03" r="10.708" style="fill:#a7d1ff;"/><path d="M599.645,213.323c0.499,0.009 0.997,0.047 1.491,0.122c1,0.153 1.977,0.449 2.894,0.878c1.052,0.491 2.022,1.156 2.863,1.957c0.87,0.83 1.601,1.806 2.149,2.877c0.46,0.896 0.791,1.858 0.981,2.847c0.222,1.159 0.251,2.354 0.088,3.523c-0.153,1.089 -0.475,2.153 -0.953,3.144c-0.56,1.161 -1.332,2.219 -2.265,3.109c-0.967,0.921 -2.105,1.661 -3.341,2.166c-1.281,0.524 -2.662,0.792 -4.046,0.792c-1.384,0 -2.764,-0.268 -4.046,-0.792c-1.236,-0.505 -2.374,-1.245 -3.34,-2.166c-0.934,-0.89 -1.705,-1.948 -2.265,-3.109c-0.478,-0.991 -0.801,-2.055 -0.953,-3.144c-0.164,-1.169 -0.135,-2.364 0.088,-3.523c0.189,-0.989 0.521,-1.951 0.98,-2.847c0.549,-1.071 1.279,-2.047 2.15,-2.877c0.84,-0.801 1.811,-1.466 2.863,-1.957c0.916,-0.429 1.893,-0.725 2.893,-0.878c0.495,-0.075 0.992,-0.113 1.492,-0.122c0.138,-0.001 0.138,-0.001 0.277,0Zm-0.249,2.249c-0.395,0.008 -0.788,0.038 -1.179,0.097c-0.789,0.121 -1.559,0.355 -2.282,0.692c-1.635,0.764 -3.005,2.056 -3.867,3.641c-0.395,0.727 -0.682,1.512 -0.848,2.323c-0.195,0.948 -0.224,1.931 -0.09,2.89c0.12,0.859 0.375,1.698 0.751,2.479c0.443,0.918 1.054,1.754 1.791,2.458c0.764,0.728 1.663,1.312 2.64,1.712c1.012,0.413 2.101,0.624 3.194,0.624c1.093,0 2.183,-0.211 3.195,-0.624c0.976,-0.4 1.875,-0.984 2.639,-1.712c0.738,-0.704 1.348,-1.54 1.791,-2.458c0.377,-0.782 0.631,-1.621 0.751,-2.48c0.135,-0.958 0.105,-1.941 -0.089,-2.889c-0.167,-0.811 -0.454,-1.596 -0.849,-2.323c-0.861,-1.586 -2.232,-2.877 -3.867,-3.641c-0.722,-0.338 -1.493,-0.571 -2.281,-0.692c-0.391,-0.06 -0.785,-0.089 -1.18,-0.097c-0.11,0 -0.109,0 -0.22,0Z" style="fill:none;"/><circle cx="561.206" cy="220.2" r="10.708" style="fill:#a7d1ff;"/><path d="M561.344,209.492c0.5,0.01 0.997,0.047 1.491,0.123c1,0.153 1.977,0.449 2.894,0.877c1.052,0.492 2.023,1.156 2.863,1.958c0.871,0.83 1.601,1.806 2.15,2.877c0.459,0.896 0.79,1.858 0.98,2.847c0.222,1.159 0.252,2.354 0.088,3.523c-0.153,1.089 -0.475,2.153 -0.953,3.144c-0.56,1.161 -1.331,2.219 -2.265,3.109c-0.966,0.921 -2.104,1.661 -3.34,2.166c-1.282,0.524 -2.662,0.792 -4.046,0.792c-1.385,0 -2.765,-0.268 -4.046,-0.792c-1.237,-0.505 -2.374,-1.245 -3.341,-2.166c-0.933,-0.89 -1.705,-1.948 -2.265,-3.109c-0.478,-0.991 -0.8,-2.055 -0.953,-3.144c-0.163,-1.169 -0.134,-2.364 0.088,-3.523c0.19,-0.989 0.521,-1.951 0.98,-2.847c0.549,-1.071 1.279,-2.047 2.15,-2.877c0.841,-0.802 1.811,-1.466 2.863,-1.958c0.917,-0.428 1.894,-0.724 2.894,-0.877c0.494,-0.076 0.992,-0.113 1.491,-0.123c0.139,0 0.139,0 0.277,0Zm-0.248,2.25c-0.396,0.008 -0.789,0.037 -1.18,0.097c-0.789,0.121 -1.559,0.355 -2.281,0.692c-1.635,0.764 -3.006,2.055 -3.868,3.641c-0.395,0.727 -0.682,1.512 -0.848,2.323c-0.194,0.948 -0.224,1.931 -0.089,2.89c0.12,0.858 0.374,1.697 0.751,2.479c0.442,0.918 1.053,1.754 1.791,2.457c0.763,0.729 1.662,1.313 2.639,1.713c1.012,0.413 2.102,0.624 3.195,0.624c1.092,0 2.182,-0.211 3.194,-0.624c0.977,-0.4 1.876,-0.984 2.639,-1.713c0.738,-0.703 1.349,-1.539 1.791,-2.457c0.377,-0.782 0.631,-1.621 0.752,-2.48c0.134,-0.958 0.104,-1.941 -0.09,-2.889c-0.166,-0.811 -0.453,-1.596 -0.848,-2.323c-0.862,-1.586 -2.233,-2.877 -3.868,-3.641c-0.722,-0.338 -1.492,-0.571 -2.281,-0.692c-0.391,-0.06 -0.784,-0.089 -1.18,-0.097c-0.11,0 -0.109,0 -0.219,0Z" style="fill:none;"/><circle cx="710.096" cy="232.578" r="10.708"/><path d="M710.235,221.871c0.499,0.009 0.997,0.047 1.491,0.122c1,0.153 1.977,0.45 2.894,0.878c1.052,0.491 2.022,1.156 2.863,1.957c0.871,0.83 1.601,1.806 2.149,2.877c0.46,0.896 0.791,1.858 0.981,2.847c0.222,1.159 0.251,2.355 0.088,3.523c-0.153,1.089 -0.475,2.153 -0.953,3.144c-0.56,1.162 -1.332,2.219 -2.265,3.109c-0.967,0.922 -2.104,1.661 -3.341,2.167c-1.281,0.523 -2.662,0.791 -4.046,0.791c-1.384,0 -2.764,-0.268 -4.046,-0.791c-1.236,-0.506 -2.374,-1.245 -3.34,-2.167c-0.934,-0.89 -1.705,-1.947 -2.265,-3.109c-0.478,-0.991 -0.8,-2.055 -0.953,-3.144c-0.164,-1.168 -0.134,-2.364 0.088,-3.523c0.19,-0.989 0.521,-1.951 0.98,-2.847c0.549,-1.071 1.279,-2.047 2.15,-2.877c0.84,-0.801 1.811,-1.466 2.863,-1.957c0.916,-0.428 1.894,-0.725 2.893,-0.878c0.495,-0.075 0.992,-0.113 1.492,-0.122c0.138,-0.001 0.138,-0.001 0.277,0Zm-0.248,2.25c-0.396,0.007 -0.789,0.037 -1.18,0.096c-0.789,0.121 -1.559,0.355 -2.282,0.692c-1.635,0.764 -3.005,2.055 -3.867,3.641c-0.395,0.727 -0.682,1.512 -0.848,2.323c-0.194,0.948 -0.224,1.931 -0.09,2.889c0.121,0.859 0.375,1.698 0.751,2.48c0.443,0.918 1.054,1.754 1.791,2.458c0.764,0.728 1.663,1.312 2.64,1.712c1.012,0.414 2.102,0.624 3.194,0.624c1.093,0 2.183,-0.211 3.195,-0.624c0.977,-0.4 1.876,-0.984 2.639,-1.712c0.738,-0.704 1.348,-1.54 1.791,-2.458c0.377,-0.781 0.631,-1.62 0.751,-2.479c0.135,-0.959 0.105,-1.941 -0.089,-2.89c-0.166,-0.811 -0.453,-1.596 -0.849,-2.323c-0.861,-1.585 -2.232,-2.877 -3.867,-3.641c-0.722,-0.337 -1.493,-0.571 -2.281,-0.692c-0.391,-0.059 -0.785,-0.089 -1.18,-0.096c-0.11,-0.001 -0.11,-0.001 -0.219,0Z" style="fill:none;"/><circle cx="710.096" cy="232.578" r="10.708" style="fill:#a7d1ff;"/><path d="M710.235,221.871c0.499,0.009 0.997,0.047 1.491,0.122c1,0.153 1.977,0.45 2.894,0.878c1.052,0.491 2.022,1.156 2.863,1.957c0.871,0.83 1.601,1.806 2.149,2.877c0.46,0.896 0.791,1.858 0.981,2.847c0.222,1.159 0.251,2.355 0.088,3.523c-0.153,1.089 -0.475,2.153 -0.953,3.144c-0.56,1.162 -1.332,2.219 -2.265,3.109c-0.967,0.922 -2.104,1.661 -3.341,2.167c-1.281,0.523 -2.662,0.791 -4.046,0.791c-1.384,0 -2.764,-0.268 -4.046,-0.791c-1.236,-0.506 -2.374,-1.245 -3.34,-2.167c-0.934,-0.89 -1.705,-1.947 -2.265,-3.109c-0.478,-0.991 -0.8,-2.055 -0.953,-3.144c-0.164,-1.168 -0.134,-2.364 0.088,-3.523c0.19,-0.989 0.521,-1.951 0.98,-2.847c0.549,-1.071 1.279,-2.047 2.15,-2.877c0.84,-0.801 1.811,-1.466 2.863,-1.957c0.916,-0.428 1.894,-0.725 2.893,-0.878c0.495,-0.075 0.992,-0.113 1.492,-0.122c0.138,-0.001 0.138,-0.001 0.277,0Zm-0.248,2.25c-0.396,0.007 -0.789,0.037 -1.18,0.096c-0.789,0.121 -1.559,0.355 -2.282,0.692c-1.635,0.764 -3.005,2.055 -3.867,3.641c-0.395,0.727 -0.682,1.512 -0.848,2.323c-0.194,0.948 -0.224,1.931 -0.09,2.889c0.121,0.859 0.375,1.698 0.751,2.48c0.443,0.918 1.054,1.754 1.791,2.458c0.764,0.728 1.663,1.312 2.64,1.712c1.012,0.414 2.102,0.624 3.194,0.624c1.093,0 2.183,-0.211 3.195,-0.624c0.977,-0.4 1.876,-0.984 2.639,-1.712c0.738,-0.704 1.348,-1.54 1.791,-2.458c0.377,-0.781 0.631,-1.62 0.751,-2.479c0.135,-0.959 0.105,-1.941 -0.089,-2.89c-0.166,-0.811 -0.453,-1.596 -0.849,-2.323c-0.861,-1.585 -2.232,-2.877 -3.867,-3.641c-0.722,-0.337 -1.493,-0.571 -2.281,-0.692c-0.391,-0.059 -0.785,-0.089 -1.18,-0.096c-0.11,-0.001 -0.11,-0.001 -0.219,0Z" style="fill:none;"/><circle cx="733.47" cy="188.691" r="14.364" style="fill:#a7d1ff;"/><path d="M733.562,174.327c0.731,0.007 1.461,0.064 2.183,0.179c1.31,0.209 2.59,0.602 3.792,1.164c1.725,0.805 3.283,1.957 4.563,3.365c0.932,1.025 1.715,2.183 2.316,3.431c0.485,1.005 0.851,2.066 1.089,3.157c0.514,2.362 0.424,4.851 -0.266,7.168c-0.316,1.062 -0.757,2.087 -1.31,3.047c-0.746,1.298 -1.696,2.477 -2.804,3.483c-1.24,1.128 -2.676,2.037 -4.228,2.671c-1.69,0.692 -3.509,1.051 -5.335,1.062c-1.828,0.012 -3.655,-0.325 -5.357,-0.996c-1.56,-0.616 -3.009,-1.508 -4.263,-2.621c-1.119,-0.994 -2.083,-2.161 -2.845,-3.449c-0.593,-1.004 -1.064,-2.079 -1.396,-3.197c-0.673,-2.26 -0.776,-4.684 -0.303,-6.993c0.224,-1.095 0.577,-2.163 1.05,-3.175c0.562,-1.203 1.293,-2.326 2.162,-3.33c1.246,-1.438 2.775,-2.625 4.478,-3.472c1.185,-0.589 2.451,-1.012 3.752,-1.253c0.746,-0.139 1.501,-0.215 2.259,-0.236c0.155,-0.004 0.309,-0.005 0.463,-0.005Zm-0.171,2.25c-0.642,0.006 -1.283,0.058 -1.917,0.164c-1.078,0.178 -2.13,0.505 -3.12,0.967c-1.455,0.68 -2.77,1.652 -3.85,2.84c-0.786,0.865 -1.447,1.842 -1.954,2.895c-0.43,0.892 -0.749,1.836 -0.948,2.806c-0.389,1.9 -0.317,3.892 0.213,5.757c0.256,0.899 0.617,1.767 1.073,2.583c0.641,1.145 1.468,2.185 2.439,3.067c1.046,0.951 2.258,1.719 3.567,2.254c1.425,0.582 2.958,0.885 4.497,0.894c1.542,0.01 3.082,-0.273 4.518,-0.839c1.315,-0.52 2.537,-1.273 3.595,-2.211c0.981,-0.871 1.821,-1.9 2.475,-3.038c0.49,-0.852 0.876,-1.764 1.145,-2.71c0.377,-1.327 0.523,-2.718 0.435,-4.094c-0.032,-0.507 -0.094,-1.013 -0.192,-1.512c-0.19,-0.975 -0.494,-1.924 -0.915,-2.824c-0.494,-1.059 -1.143,-2.045 -1.919,-2.919c-1.066,-1.201 -2.369,-2.188 -3.816,-2.886c-1.005,-0.485 -2.077,-0.828 -3.177,-1.018c-0.606,-0.104 -1.22,-0.16 -1.835,-0.174c-0.105,-0.001 -0.209,-0.002 -0.314,-0.002Z" style="fill:none;"/><path d="M735.898,188.877l-24.162,43.37l33.623,4.833l-0.32,2.227l-36.503,-5.247l-0.181,-0.366l24.9,-44.696l-29.094,-42.562l1.858,-1.269c9.959,14.57 19.919,29.14 29.879,43.71Z" style="fill:#a7d1ff;fill-rule:nonzero;"/><circle cx="589.17" cy="250.092" r="4.952" style="fill:#a7d1ff;"/><path d="M589.234,245.14c0.231,0.005 0.461,0.022 0.69,0.057c0.462,0.071 0.914,0.208 1.338,0.406c0.957,0.447 1.758,1.202 2.262,2.129c0.232,0.427 0.4,0.887 0.498,1.363c0.109,0.534 0.129,1.086 0.061,1.627c-0.065,0.506 -0.208,1.001 -0.423,1.462c-0.253,0.541 -0.604,1.034 -1.031,1.451c-0.442,0.431 -0.963,0.779 -1.532,1.02c-0.588,0.249 -1.224,0.381 -1.863,0.389c-0.641,0.008 -1.282,-0.108 -1.879,-0.343c-0.575,-0.227 -1.105,-0.563 -1.558,-0.984c-0.436,-0.406 -0.799,-0.891 -1.064,-1.425c-0.226,-0.455 -0.381,-0.944 -0.458,-1.446c-0.079,-0.519 -0.076,-1.051 0.01,-1.569c0.076,-0.461 0.219,-0.91 0.422,-1.331c0.476,-0.988 1.281,-1.803 2.263,-2.291c0.418,-0.208 0.865,-0.356 1.324,-0.438c0.226,-0.04 0.455,-0.063 0.685,-0.074c0.085,-0.002 0.17,-0.003 0.255,-0.003Zm-0.099,2.25c-0.382,0.007 -0.758,0.089 -1.104,0.251c-0.746,0.349 -1.309,1.037 -1.494,1.84c-0.075,0.323 -0.089,0.661 -0.043,0.99c0.037,0.263 0.113,0.52 0.225,0.761c0.139,0.296 0.331,0.565 0.565,0.793c0.241,0.236 0.526,0.426 0.836,0.558c0.321,0.136 0.667,0.207 1.015,0.211c0.36,0.005 0.721,-0.062 1.055,-0.199c0.312,-0.127 0.599,-0.315 0.844,-0.547c0.236,-0.225 0.431,-0.493 0.573,-0.787c0.115,-0.238 0.194,-0.493 0.234,-0.755c0.05,-0.328 0.041,-0.667 -0.03,-0.992c-0.057,-0.257 -0.151,-0.506 -0.279,-0.736c-0.271,-0.484 -0.692,-0.882 -1.193,-1.123c-0.343,-0.165 -0.717,-0.252 -1.098,-0.264c-0.036,-0.001 -0.071,-0.001 -0.106,-0.001Z" style="fill:none;"/><circle cx="745.675" cy="238.38" r="4.315" style="fill:#a7d1ff;"/><path d="M745.73,234.065c0.202,0.004 0.402,0.019 0.602,0.049c0.402,0.062 0.796,0.181 1.166,0.354c0.833,0.389 1.532,1.047 1.971,1.856c0.202,0.371 0.348,0.772 0.433,1.187c0.096,0.465 0.113,0.947 0.053,1.418c-0.056,0.441 -0.18,0.872 -0.368,1.274c-0.22,0.471 -0.526,0.901 -0.898,1.264c-0.385,0.376 -0.84,0.679 -1.335,0.889c-0.513,0.217 -1.067,0.332 -1.624,0.339c-0.558,0.007 -1.117,-0.094 -1.637,-0.299c-0.501,-0.198 -0.963,-0.49 -1.357,-0.857c-0.381,-0.354 -0.696,-0.777 -0.928,-1.242c-0.197,-0.396 -0.332,-0.823 -0.399,-1.26c-0.069,-0.452 -0.066,-0.916 0.009,-1.367c0.066,-0.402 0.19,-0.794 0.367,-1.16c0.415,-0.861 1.117,-1.571 1.973,-1.997c0.364,-0.18 0.753,-0.309 1.153,-0.381c0.198,-0.035 0.397,-0.055 0.597,-0.064c0.074,-0.003 0.148,-0.003 0.222,-0.003Zm-0.082,2.25c-0.292,0.005 -0.579,0.068 -0.844,0.192c-0.578,0.27 -1.011,0.807 -1.147,1.431c-0.055,0.249 -0.062,0.508 -0.023,0.76c0.03,0.199 0.09,0.393 0.178,0.574c0.108,0.225 0.258,0.43 0.438,0.602c0.181,0.172 0.392,0.312 0.622,0.41c0.245,0.103 0.509,0.158 0.776,0.161c0.275,0.004 0.551,-0.047 0.806,-0.152c0.231,-0.094 0.444,-0.232 0.627,-0.402c0.183,-0.17 0.334,-0.373 0.446,-0.596c0.089,-0.18 0.152,-0.374 0.185,-0.573c0.046,-0.276 0.036,-0.562 -0.031,-0.835c-0.145,-0.594 -0.563,-1.104 -1.114,-1.37c-0.262,-0.126 -0.547,-0.192 -0.838,-0.202c-0.027,0 -0.054,0 -0.081,0Z" style="fill:none;"/><circle cx="636.296" cy="257.417" r="4.952" style="fill:#a7d1ff;"/><path d="M636.36,252.465c0.231,0.005 0.461,0.022 0.69,0.057c0.462,0.071 0.914,0.208 1.338,0.406c0.956,0.447 1.758,1.202 2.262,2.13c0.232,0.426 0.4,0.886 0.498,1.362c0.109,0.534 0.129,1.087 0.06,1.628c-0.064,0.505 -0.207,1 -0.423,1.461c-0.252,0.541 -0.603,1.034 -1.03,1.451c-0.442,0.431 -0.964,0.779 -1.532,1.02c-0.589,0.249 -1.224,0.381 -1.863,0.389c-0.641,0.008 -1.283,-0.108 -1.879,-0.343c-0.575,-0.227 -1.106,-0.563 -1.558,-0.984c-0.436,-0.406 -0.799,-0.891 -1.064,-1.425c-0.226,-0.454 -0.381,-0.944 -0.458,-1.446c-0.08,-0.519 -0.076,-1.051 0.01,-1.569c0.076,-0.461 0.218,-0.91 0.421,-1.331c0.476,-0.987 1.282,-1.803 2.264,-2.291c0.417,-0.208 0.865,-0.355 1.324,-0.438c0.226,-0.04 0.455,-0.063 0.685,-0.073c0.085,-0.003 0.17,-0.004 0.255,-0.004Zm-0.099,2.25c-0.382,0.008 -0.758,0.09 -1.105,0.251c-0.734,0.344 -1.293,1.019 -1.485,1.807c-0.082,0.334 -0.099,0.684 -0.051,1.025c0.037,0.262 0.113,0.518 0.225,0.758c0.138,0.296 0.33,0.566 0.564,0.794c0.241,0.236 0.526,0.426 0.837,0.558c0.332,0.14 0.69,0.212 1.05,0.212c0.36,0 0.718,-0.072 1.05,-0.212c0.311,-0.132 0.595,-0.322 0.837,-0.558c0.233,-0.228 0.426,-0.497 0.564,-0.793c0.112,-0.24 0.188,-0.497 0.225,-0.759c0.046,-0.33 0.032,-0.668 -0.043,-0.992c-0.185,-0.802 -0.748,-1.491 -1.494,-1.84c-0.346,-0.161 -0.722,-0.243 -1.104,-0.251c-0.035,0 -0.035,0 -0.07,0Z" style="fill:none;"/><path d="M663.279,135.673c3.171,0.984 4.946,4.357 3.962,7.527c-0.984,3.171 -4.357,4.946 -7.528,3.962c-3.17,-0.984 -4.946,-4.357 -3.962,-7.527c0.984,-3.171 4.357,-4.946 7.528,-3.962Z" style="fill:#7d9dbf;"/><path d="M434.37,210.844c-2.695,3.427 -2.1,8.397 1.327,11.092c3.427,2.694 8.397,2.1 11.092,-1.327c2.695,-3.427 2.1,-8.397 -1.327,-11.092c-3.427,-2.695 -8.397,-2.1 -11.092,1.327Z" style="fill:#96bce5;"/><path d="M434.308,210.924c-0.223,0.294 -0.428,0.6 -0.609,0.921c-0.368,0.649 -0.641,1.351 -0.811,2.078c-0.397,1.703 -0.213,3.522 0.518,5.111c0.31,0.675 0.716,1.305 1.204,1.867c0.57,0.657 1.25,1.219 2.002,1.657c0.701,0.408 1.466,0.706 2.258,0.881c0.929,0.205 1.894,0.24 2.836,0.104c0.975,-0.14 1.922,-0.463 2.779,-0.949c0.888,-0.504 1.673,-1.183 2.304,-1.985c0.631,-0.803 1.105,-1.726 1.386,-2.707c0.27,-0.948 0.36,-1.945 0.267,-2.925c-0.091,-0.947 -0.352,-1.877 -0.771,-2.731c-0.356,-0.729 -0.826,-1.401 -1.388,-1.986c-0.603,-0.628 -1.31,-1.156 -2.083,-1.556c-0.66,-0.341 -1.369,-0.587 -2.098,-0.729c-1.716,-0.335 -3.528,-0.086 -5.089,0.702c-0.666,0.336 -1.283,0.768 -1.828,1.278c-0.269,0.252 -0.518,0.523 -0.751,0.809c-0.064,0.08 -0.064,0.08 -0.126,0.16Zm1.877,1.253c0.167,-0.205 0.345,-0.399 0.538,-0.58c0.389,-0.364 0.829,-0.672 1.304,-0.911c1.076,-0.544 2.321,-0.73 3.509,-0.528c0.545,0.093 1.075,0.266 1.569,0.513c0.6,0.301 1.145,0.709 1.604,1.199c0.379,0.405 0.698,0.866 0.942,1.365c0.299,0.612 0.486,1.278 0.551,1.956c0.067,0.701 0.003,1.415 -0.191,2.093c-0.2,0.701 -0.54,1.36 -0.991,1.934c-0.451,0.574 -1.011,1.059 -1.646,1.419c-0.613,0.348 -1.291,0.579 -1.989,0.679c-0.674,0.097 -1.365,0.072 -2.031,-0.074c-0.542,-0.12 -1.065,-0.321 -1.549,-0.594c-0.563,-0.318 -1.072,-0.734 -1.496,-1.223c-0.333,-0.383 -0.613,-0.811 -0.83,-1.269c-0.537,-1.131 -0.684,-2.433 -0.415,-3.655c0.115,-0.519 0.303,-1.021 0.559,-1.487c0.127,-0.231 0.271,-0.451 0.427,-0.663c0.044,-0.059 0.089,-0.117 0.135,-0.174Z" style="fill:none;"/><path d="M454.875,209.553c-1.313,1.669 -1.023,4.09 0.646,5.403c1.669,1.312 4.09,1.023 5.403,-0.647c1.312,-1.669 1.023,-4.09 -0.647,-5.402c-1.669,-1.313 -4.09,-1.023 -5.402,0.646Z" style="fill:#96bce5;"/><circle cx="705.397" cy="145.963" r="6.537" style="fill:#a7d1ff;"/><path d="M705.481,139.426c0.305,0.006 0.609,0.029 0.911,0.075c0.61,0.094 1.206,0.274 1.766,0.536c1.311,0.612 2.4,1.663 3.06,2.951c0.28,0.547 0.483,1.134 0.598,1.738c0.136,0.707 0.154,1.437 0.054,2.15c-0.093,0.665 -0.29,1.315 -0.582,1.919c-0.341,0.71 -0.813,1.355 -1.382,1.898c-0.59,0.563 -1.285,1.014 -2.039,1.323c-0.783,0.32 -1.625,0.483 -2.47,0.483c-0.845,0 -1.688,-0.163 -2.47,-0.483c-0.755,-0.309 -1.449,-0.76 -2.039,-1.323c-0.57,-0.543 -1.041,-1.188 -1.383,-1.898c-0.292,-0.604 -0.488,-1.254 -0.581,-1.919c-0.1,-0.713 -0.083,-1.443 0.053,-2.15c0.116,-0.604 0.318,-1.191 0.599,-1.738c0.66,-1.288 1.749,-2.339 3.06,-2.951c0.559,-0.262 1.155,-0.442 1.766,-0.536c0.302,-0.046 0.605,-0.069 0.91,-0.075c0.085,0 0.085,0 0.169,0Zm-0.14,2.25c-0.201,0.004 -0.401,0.019 -0.599,0.049c-0.399,0.061 -0.789,0.18 -1.154,0.351c-0.814,0.379 -1.499,1.018 -1.937,1.801c-0.204,0.365 -0.354,0.76 -0.443,1.169c-0.108,0.497 -0.127,1.014 -0.056,1.518c0.058,0.417 0.179,0.825 0.357,1.207c0.219,0.468 0.524,0.896 0.894,1.258c0.383,0.373 0.834,0.676 1.327,0.884c0.509,0.215 1.058,0.329 1.611,0.336c0.555,0.007 1.109,-0.093 1.626,-0.296c0.498,-0.197 0.957,-0.488 1.349,-0.853c0.378,-0.352 0.693,-0.773 0.923,-1.236c0.187,-0.376 0.318,-0.779 0.386,-1.194c0.084,-0.502 0.078,-1.02 -0.018,-1.52c-0.07,-0.361 -0.186,-0.712 -0.345,-1.043c-0.413,-0.856 -1.112,-1.564 -1.963,-1.986c-0.36,-0.18 -0.746,-0.307 -1.142,-0.378c-0.196,-0.035 -0.394,-0.055 -0.593,-0.064c-0.075,-0.002 -0.149,-0.003 -0.223,-0.003Z" style="fill:none;"/><path d="M794.103,97.882c5.881,1.825 9.173,8.081 7.348,13.961c-1.825,5.88 -8.08,9.173 -13.96,7.348c-5.881,-1.825 -9.173,-8.081 -7.348,-13.961c1.825,-5.88 8.08,-9.172 13.96,-7.348Z" style="fill:#7d9dbf;"/><path d="M794.241,97.926c0.494,0.164 0.978,0.355 1.446,0.583c0.948,0.461 1.828,1.057 2.608,1.766c0.895,0.814 1.655,1.775 2.244,2.832c0.61,1.094 1.035,2.291 1.251,3.526c0.18,1.033 0.213,2.092 0.096,3.135c-0.137,1.221 -0.477,2.42 -1,3.532c-0.489,1.037 -1.138,1.996 -1.919,2.834c-0.916,0.983 -2.01,1.797 -3.214,2.394c-1.246,0.619 -2.606,1.003 -3.992,1.124c-1.437,0.126 -2.893,-0.034 -4.27,-0.461c-1.377,-0.428 -2.668,-1.121 -3.781,-2.038c-1.074,-0.884 -1.978,-1.971 -2.655,-3.186c-0.654,-1.174 -1.095,-2.464 -1.294,-3.793c-0.169,-1.133 -0.161,-2.292 0.023,-3.423c0.198,-1.213 0.596,-2.393 1.175,-3.477c0.495,-0.926 1.121,-1.78 1.855,-2.53c0.876,-0.896 1.904,-1.642 3.027,-2.199c1.084,-0.538 2.254,-0.899 3.453,-1.063c1.044,-0.143 2.108,-0.136 3.15,0.02c0.515,0.077 1.021,0.194 1.522,0.339c0.137,0.041 0.137,0.041 0.275,0.085Zm-0.915,2.072c-0.4,-0.116 -0.805,-0.209 -1.217,-0.271c-0.83,-0.125 -1.678,-0.13 -2.51,-0.016c-1.882,0.258 -3.663,1.128 -5.024,2.454c-0.625,0.608 -1.158,1.308 -1.578,2.071c-0.491,0.893 -0.828,1.872 -0.992,2.877c-0.147,0.902 -0.153,1.825 -0.018,2.728c0.158,1.062 0.511,2.093 1.033,3.031c0.541,0.97 1.263,1.838 2.12,2.545c0.888,0.732 1.919,1.284 3.018,1.625c1.098,0.341 2.26,0.469 3.407,0.369c1.107,-0.097 2.193,-0.404 3.188,-0.898c0.961,-0.478 1.836,-1.128 2.568,-1.913c0.597,-0.641 1.098,-1.37 1.481,-2.157c0.446,-0.918 0.734,-1.912 0.848,-2.925c0.089,-0.796 0.069,-1.603 -0.059,-2.393c-0.154,-0.953 -0.466,-1.88 -0.915,-2.735c-0.467,-0.887 -1.083,-1.694 -1.816,-2.377c-0.613,-0.572 -1.308,-1.055 -2.057,-1.432c-0.371,-0.186 -0.755,-0.343 -1.147,-0.478c-0.11,-0.037 -0.219,-0.072 -0.33,-0.105Z" style="fill:none;"/><path d="M805.71,79.357c3.202,0.994 4.995,4.4 4.001,7.602c-0.993,3.202 -4.4,4.995 -7.602,4.001c-3.202,-0.993 -4.994,-4.4 -4.001,-7.602c0.994,-3.201 4.4,-4.994 7.602,-4.001Z" style="fill:#7d9dbf;"/><path d="M554.417,63.21c4.4,-0.589 8.452,2.505 9.041,6.906c0.589,4.401 -2.505,8.452 -6.906,9.041c-4.4,0.589 -8.451,-2.505 -9.041,-6.906c-0.589,-4.4 2.505,-8.451 6.906,-9.041Z" style="fill:#96bce5;"/><path d="M701.42,28.826c3.279,1.017 5.114,4.505 4.097,7.784c-1.018,3.278 -4.506,5.114 -7.784,4.097c-3.279,-1.018 -5.115,-4.506 -4.097,-7.784c1.017,-3.279 4.505,-5.115 7.784,-4.097Z" style="fill:#7d9dbf;"/><path d="M764.867,90.165c3.279,1.018 5.114,4.506 4.097,7.784c-1.018,3.279 -4.506,5.115 -7.784,4.097c-3.279,-1.017 -5.115,-4.505 -4.097,-7.784c1.017,-3.279 4.505,-5.114 7.784,-4.097Z" style="fill:#7d9dbf;"/><path d="M764.943,90.19c0.276,0.091 0.546,0.197 0.807,0.324c0.528,0.257 1.019,0.59 1.454,0.985c1.019,0.927 1.712,2.189 1.949,3.545c0.1,0.577 0.118,1.167 0.053,1.748c-0.076,0.681 -0.266,1.35 -0.558,1.97c-0.272,0.578 -0.634,1.113 -1.069,1.58c-0.511,0.548 -1.121,1.002 -1.792,1.335c-0.695,0.345 -1.454,0.559 -2.226,0.627c-0.801,0.07 -1.613,-0.019 -2.381,-0.258c-0.768,-0.238 -1.488,-0.624 -2.109,-1.136c-0.598,-0.493 -1.102,-1.099 -1.48,-1.777c-0.364,-0.654 -0.61,-1.374 -0.721,-2.114c-0.094,-0.632 -0.09,-1.278 0.013,-1.909c0.11,-0.676 0.332,-1.334 0.655,-1.939c0.276,-0.516 0.625,-0.992 1.034,-1.41c0.963,-0.985 2.249,-1.632 3.613,-1.819c0.582,-0.08 1.175,-0.076 1.756,0.011c0.288,0.043 0.57,0.108 0.849,0.189c0.077,0.023 0.077,0.023 0.153,0.048Zm-0.793,2.109c-0.539,-0.156 -1.103,-0.204 -1.659,-0.128c-0.856,0.117 -1.665,0.519 -2.277,1.129c-0.263,0.262 -0.489,0.562 -0.668,0.888c-0.227,0.413 -0.38,0.868 -0.45,1.335c-0.058,0.385 -0.058,0.778 -0.001,1.163c0.071,0.474 0.229,0.934 0.462,1.352c0.241,0.433 0.563,0.82 0.945,1.136c0.409,0.337 0.886,0.588 1.394,0.738c0.506,0.15 1.04,0.199 1.564,0.14c0.667,-0.074 1.312,-0.321 1.86,-0.709c0.446,-0.315 0.826,-0.723 1.107,-1.191c0.25,-0.418 0.423,-0.883 0.508,-1.364c0.067,-0.384 0.078,-0.779 0.029,-1.167c-0.059,-0.476 -0.206,-0.94 -0.429,-1.364c-0.23,-0.438 -0.543,-0.833 -0.917,-1.157c-0.283,-0.245 -0.602,-0.449 -0.943,-0.605c-0.17,-0.077 -0.346,-0.142 -0.525,-0.196Z" style="fill:none;"/><path d="M654.793,19.76c2.774,-0.056 5.072,2.151 5.128,4.926c0.056,2.775 -2.151,5.073 -4.926,5.129c-2.774,0.055 -5.072,-2.152 -5.128,-4.926c-0.056,-2.775 2.151,-5.073 4.926,-5.129Z" style="fill:#96bce5;"/><path d="M629.153,0.113c3.091,-0.062 5.652,2.397 5.714,5.489c0.062,3.091 -2.397,5.652 -5.489,5.714c-3.091,0.062 -5.652,-2.397 -5.714,-5.489c-0.062,-3.091 2.397,-5.652 5.489,-5.714Z" style="fill:#96bce5;"/><path d="M532.904,91.092c4.023,-0.539 7.726,2.29 8.265,6.312c0.539,4.023 -2.29,7.726 -6.313,8.265c-4.022,0.539 -7.726,-2.29 -8.264,-6.313c-0.539,-4.022 2.289,-7.726 6.312,-8.264Z" style="fill:#96bce5;"/><path d="M712.715,72.387c7.305,2.267 11.396,10.039 9.128,17.345c-2.267,7.305 -10.039,11.396 -17.344,9.128c-7.306,-2.267 -11.396,-10.039 -9.129,-17.344c2.267,-7.306 10.039,-11.396 17.345,-9.129Z" style="fill:#7d9dbf;"/><path d="M712.8,72.414c0.644,0.206 1.274,0.455 1.882,0.751c1.177,0.572 2.271,1.313 3.24,2.194c1.194,1.086 2.195,2.382 2.947,3.811c0.673,1.279 1.146,2.663 1.395,4.088c0.204,1.171 0.256,2.368 0.154,3.552c-0.182,2.096 -0.846,4.148 -1.929,5.952c-0.552,0.921 -1.213,1.776 -1.964,2.544c-1.05,1.073 -2.275,1.973 -3.612,2.656c-1.538,0.787 -3.222,1.284 -4.941,1.456c-1.809,0.18 -3.648,-0.004 -5.388,-0.531c-1.742,-0.529 -3.377,-1.4 -4.783,-2.558c-1.334,-1.099 -2.457,-2.449 -3.298,-3.959c-0.731,-1.311 -1.248,-2.74 -1.524,-4.216c-0.207,-1.11 -0.278,-2.246 -0.209,-3.374c0.129,-2.1 0.744,-4.167 1.781,-5.998c0.586,-1.034 1.306,-1.991 2.137,-2.841c1.012,-1.033 2.185,-1.906 3.465,-2.58c1.428,-0.751 2.987,-1.253 4.586,-1.472c1.24,-0.17 2.502,-0.17 3.742,0c0.698,0.096 1.386,0.248 2.062,0.446c0.086,0.026 0.172,0.052 0.257,0.079Zm-0.824,2.1c-0.544,-0.163 -1.097,-0.29 -1.658,-0.375c-1.083,-0.162 -2.188,-0.17 -3.273,-0.021c-1.341,0.184 -2.647,0.604 -3.844,1.235c-1.114,0.586 -2.133,1.353 -3.002,2.263c-0.688,0.72 -1.281,1.529 -1.761,2.402c-0.804,1.46 -1.289,3.095 -1.412,4.757c-0.07,0.943 -0.023,1.895 0.14,2.828c0.216,1.24 0.636,2.443 1.235,3.55c0.69,1.272 1.616,2.415 2.722,3.349c1.163,0.982 2.52,1.727 3.971,2.187c1.453,0.461 2.994,0.636 4.514,0.503c1.443,-0.126 2.859,-0.526 4.156,-1.17c1.127,-0.56 2.163,-1.301 3.054,-2.19c0.669,-0.668 1.256,-1.417 1.742,-2.228c0.882,-1.47 1.434,-3.138 1.603,-4.844c0.098,-0.991 0.067,-1.994 -0.092,-2.977c-0.194,-1.197 -0.577,-2.362 -1.129,-3.441c-0.616,-1.205 -1.441,-2.3 -2.43,-3.223c-0.8,-0.745 -1.706,-1.376 -2.684,-1.866c-0.505,-0.254 -1.029,-0.469 -1.566,-0.648c-0.095,-0.032 -0.19,-0.062 -0.286,-0.091Z" style="fill:none;"/><path d="M793.925,48.206c3.341,1.037 5.212,4.591 4.175,7.933c-1.037,3.341 -4.592,5.212 -7.933,4.175c-3.341,-1.037 -5.212,-4.592 -4.175,-7.933c1.037,-3.342 4.591,-5.212 7.933,-4.175Z" style="fill:#7d9dbf;"/><path d="M4.866,90.171c2.685,1.058 5.724,-0.263 6.782,-2.949c1.058,-2.685 -0.263,-5.725 -2.949,-6.782c-2.685,-1.058 -5.725,0.263 -6.782,2.949c-1.058,2.685 0.263,5.724 2.949,6.782Z" style="fill:#96bce5;"/><path d="M135.045,146.308c1.988,0.783 4.239,-0.195 5.022,-2.184c0.783,-1.988 -0.195,-4.238 -2.184,-5.021c-1.988,-0.784 -4.239,0.195 -5.022,2.183c-0.783,1.989 0.195,4.239 2.184,5.022Z" style="fill:#96bce5;"/><path d="M179.445,56.229c2.025,0.684 3.113,2.883 2.429,4.908c-0.684,2.024 -2.883,3.113 -4.908,2.428c-2.024,-0.684 -3.113,-2.883 -2.429,-4.907c0.684,-2.025 2.884,-3.114 4.908,-2.429Z" style="fill:#96bce5;"/><path d="M233.83,231.941c1.997,-0.761 2.999,-3.001 2.238,-4.998c-0.762,-1.996 -3.002,-2.999 -4.998,-2.237c-1.997,0.761 -3,3.001 -2.238,4.998c0.762,1.996 3.001,2.999 4.998,2.237Z" style="fill:#7d9dbf;"/><path d="M233.876,231.923c0.523,-0.211 0.998,-0.526 1.386,-0.937c0.362,-0.384 0.645,-0.842 0.826,-1.339c0.144,-0.395 0.224,-0.814 0.234,-1.234c0.018,-0.763 -0.196,-1.526 -0.606,-2.17c-0.212,-0.334 -0.476,-0.634 -0.779,-0.887c-0.321,-0.269 -0.686,-0.485 -1.077,-0.638c-0.42,-0.165 -0.87,-0.256 -1.321,-0.266c-0.484,-0.012 -0.968,0.069 -1.423,0.236c-0.455,0.167 -0.879,0.42 -1.242,0.743c-0.337,0.301 -0.621,0.662 -0.835,1.06c-0.198,0.369 -0.336,0.77 -0.407,1.183c-0.069,0.405 -0.073,0.82 -0.012,1.225c0.111,0.739 0.44,1.442 0.937,2c0.28,0.314 0.613,0.582 0.979,0.79c0.446,0.253 0.941,0.417 1.45,0.479c0.557,0.068 1.121,0.009 1.656,-0.16c0.079,-0.026 0.157,-0.055 0.234,-0.085Zm-0.868,-2.076c-0.222,0.079 -0.457,0.114 -0.692,0.094c-0.221,-0.019 -0.439,-0.085 -0.635,-0.19c-0.178,-0.096 -0.339,-0.224 -0.47,-0.379c-0.288,-0.34 -0.426,-0.798 -0.372,-1.24c0.023,-0.188 0.079,-0.373 0.165,-0.542c0.088,-0.175 0.208,-0.334 0.353,-0.466c0.15,-0.137 0.325,-0.244 0.515,-0.316c0.189,-0.072 0.391,-0.109 0.594,-0.107c0.196,0.002 0.391,0.041 0.574,0.112c0.176,0.07 0.341,0.17 0.484,0.295c0.335,0.294 0.537,0.727 0.548,1.173c0.005,0.202 -0.029,0.405 -0.098,0.596c-0.074,0.203 -0.188,0.391 -0.334,0.55c-0.16,0.172 -0.356,0.306 -0.572,0.396c-0.02,0.008 -0.04,0.016 -0.06,0.024Z" style="fill:none;"/><path d="M110.602,61.331c1.988,0.783 4.239,-0.196 5.022,-2.184c0.783,-1.988 -0.195,-4.239 -2.184,-5.022c-1.988,-0.783 -4.239,0.195 -5.022,2.184c-0.783,1.988 0.195,4.238 2.184,5.022Z" style="fill:#96bce5;"/><path d="M83.656,44.886c1.765,0.695 3.762,-0.173 4.457,-1.938c0.695,-1.765 -0.173,-3.762 -1.938,-4.457c-1.764,-0.695 -3.761,0.174 -4.456,1.938c-0.696,1.765 0.173,3.762 1.937,4.457Z" style="fill:#96bce5;"/><path d="M167.585,255.034c1.772,-0.676 2.662,-2.663 1.986,-4.435c-0.676,-1.772 -2.663,-2.662 -4.435,-1.986c-1.772,0.676 -2.662,2.663 -1.986,4.435c0.676,1.772 2.663,2.662 4.435,1.986Z" style="fill:#7d9dbf;"/><path d="M167.627,255.018c0.438,-0.177 0.838,-0.436 1.171,-0.772c0.253,-0.254 0.465,-0.549 0.627,-0.87c0.175,-0.344 0.291,-0.717 0.342,-1.1c0.041,-0.305 0.041,-0.616 -0.001,-0.921c-0.095,-0.685 -0.4,-1.337 -0.866,-1.848c-0.28,-0.307 -0.616,-0.561 -0.986,-0.748c-0.394,-0.2 -0.826,-0.323 -1.266,-0.36c-0.484,-0.041 -0.97,0.025 -1.429,0.183c-0.407,0.141 -0.787,0.364 -1.112,0.647c-0.314,0.272 -0.576,0.602 -0.773,0.968c-0.195,0.365 -0.325,0.764 -0.38,1.173c-0.041,0.306 -0.04,0.617 0.002,0.922c0.102,0.741 0.45,1.442 0.982,1.969c0.255,0.253 0.549,0.465 0.87,0.627c0.344,0.174 0.717,0.291 1.1,0.342c0.362,0.049 0.731,0.039 1.09,-0.029c0.143,-0.027 0.282,-0.065 0.421,-0.108c0.07,-0.024 0.139,-0.048 0.208,-0.075Zm-0.858,-2.081c-0.162,0.059 -0.334,0.084 -0.505,0.069c-0.143,-0.012 -0.284,-0.051 -0.414,-0.113c-0.13,-0.061 -0.248,-0.146 -0.348,-0.25c-0.073,-0.077 -0.136,-0.163 -0.186,-0.257c-0.076,-0.142 -0.124,-0.299 -0.138,-0.46c-0.029,-0.335 0.092,-0.676 0.323,-0.92c0.107,-0.113 0.236,-0.204 0.379,-0.267c0.146,-0.064 0.304,-0.1 0.463,-0.102c0.144,-0.002 0.287,0.023 0.422,0.072c0.135,0.049 0.262,0.123 0.371,0.216c0.087,0.075 0.163,0.162 0.225,0.259c0.107,0.169 0.172,0.365 0.184,0.565c0.018,0.288 -0.073,0.578 -0.25,0.805c-0.107,0.138 -0.243,0.248 -0.398,0.328c-0.042,0.02 -0.085,0.039 -0.128,0.055Z" style="fill:none;"/><path d="M49.513,257.329c1.943,-0.741 2.919,-2.92 2.178,-4.863c-0.741,-1.943 -2.92,-2.919 -4.863,-2.177c-1.943,0.741 -2.919,2.92 -2.178,4.863c0.741,1.943 2.921,2.919 4.863,2.177Z" style="fill:#7d9dbf;"/><path d="M49.559,257.312c0.509,-0.206 0.97,-0.512 1.348,-0.912c0.353,-0.374 0.628,-0.82 0.804,-1.303c0.124,-0.342 0.199,-0.701 0.221,-1.064c0.05,-0.819 -0.177,-1.646 -0.634,-2.327c-0.206,-0.306 -0.456,-0.581 -0.742,-0.814c-0.304,-0.248 -0.647,-0.448 -1.013,-0.591c-0.409,-0.161 -0.846,-0.249 -1.286,-0.259c-0.471,-0.012 -0.942,0.067 -1.384,0.23c-0.443,0.162 -0.855,0.408 -1.208,0.722c-0.329,0.293 -0.605,0.644 -0.813,1.032c-0.186,0.346 -0.317,0.72 -0.388,1.106c-0.066,0.362 -0.08,0.733 -0.038,1.098c0.088,0.785 0.428,1.536 0.961,2.119c0.246,0.269 0.531,0.502 0.843,0.689c0.441,0.264 0.935,0.438 1.444,0.506c0.557,0.075 1.121,0.02 1.657,-0.15c0.076,-0.026 0.152,-0.053 0.228,-0.082Zm-0.866,-2.078c-0.208,0.075 -0.427,0.107 -0.647,0.088c-0.208,-0.018 -0.411,-0.079 -0.594,-0.177c-0.151,-0.081 -0.289,-0.187 -0.404,-0.314c-0.281,-0.308 -0.426,-0.731 -0.39,-1.147c0.013,-0.158 0.052,-0.314 0.113,-0.461c0.082,-0.195 0.204,-0.369 0.355,-0.516c0.138,-0.134 0.307,-0.238 0.485,-0.309c0.182,-0.072 0.378,-0.11 0.574,-0.107c0.184,0.002 0.367,0.038 0.538,0.105c0.159,0.063 0.308,0.152 0.439,0.263c0.321,0.276 0.516,0.687 0.527,1.11c0.004,0.165 -0.02,0.33 -0.069,0.488c-0.062,0.199 -0.164,0.385 -0.3,0.543c-0.147,0.171 -0.329,0.305 -0.535,0.397c-0.03,0.013 -0.061,0.026 -0.092,0.037Z" style="fill:none;"/><path d="M34.226,44.969c1.765,0.695 3.762,-0.174 4.457,-1.938c0.695,-1.765 -0.174,-3.762 -1.938,-4.457c-1.765,-0.695 -3.762,0.173 -4.457,1.938c-0.695,1.765 0.173,3.762 1.938,4.457Z" style="fill:#96bce5;"/><path d="M292.601,215.583c1.894,0.105 3.346,1.729 3.24,3.622c-0.106,1.894 -1.729,3.345 -3.623,3.24c-1.893,-0.106 -3.345,-1.729 -3.239,-3.623c0.106,-1.894 1.729,-3.345 3.622,-3.239Z" style="fill:#77c7a9;"/><path d="M292.646,215.585c0.471,0.036 0.93,0.161 1.35,0.38c0.318,0.166 0.61,0.382 0.862,0.638c0.271,0.275 0.495,0.596 0.66,0.944c0.132,0.279 0.226,0.575 0.278,0.879c0.118,0.681 0.026,1.395 -0.263,2.024c-0.174,0.377 -0.417,0.721 -0.713,1.012c-0.314,0.309 -0.688,0.558 -1.096,0.727c-0.449,0.187 -0.932,0.271 -1.417,0.26c-0.431,-0.011 -0.861,-0.108 -1.256,-0.278c-0.382,-0.165 -0.732,-0.4 -1.031,-0.689c-0.297,-0.287 -0.541,-0.628 -0.718,-1.002c-0.132,-0.278 -0.226,-0.575 -0.278,-0.879c-0.128,-0.737 -0.009,-1.51 0.337,-2.173c0.166,-0.319 0.382,-0.611 0.638,-0.863c0.275,-0.27 0.596,-0.494 0.944,-0.659c0.331,-0.157 0.686,-0.259 1.048,-0.304c0.145,-0.017 0.289,-0.024 0.434,-0.025c0.074,0.002 0.147,0.004 0.221,0.008Zm-0.186,2.243c-0.172,-0.006 -0.343,0.022 -0.502,0.088c-0.31,0.129 -0.56,0.391 -0.67,0.709c-0.052,0.153 -0.073,0.316 -0.061,0.476c0.007,0.106 0.029,0.211 0.065,0.311c0.048,0.135 0.122,0.261 0.215,0.37c0.093,0.11 0.206,0.202 0.332,0.272c0.136,0.075 0.287,0.123 0.442,0.139c0.159,0.017 0.32,0.003 0.473,-0.043c0.137,-0.042 0.266,-0.11 0.38,-0.197c0.113,-0.088 0.212,-0.197 0.287,-0.319c0.061,-0.098 0.106,-0.204 0.136,-0.315c0.051,-0.193 0.053,-0.4 0.004,-0.594c-0.07,-0.28 -0.246,-0.528 -0.483,-0.691c-0.144,-0.099 -0.307,-0.162 -0.479,-0.192c-0.046,-0.006 -0.092,-0.011 -0.139,-0.014Z" style="fill:#a7d1ff;fill-rule:nonzero;"/><path d="M352.402,215.228l-0.337,2.225l-43.033,-6.521l-16.28,8.982l-1.087,-1.97l16.949,-9.351c14.596,2.212 29.192,4.424 43.788,6.635Z" style="fill:#a7d1ff;fill-rule:nonzero;"/><path d="M54.486,143.555c3.246,1.278 6.92,-0.319 8.198,-3.565c1.279,-3.246 -0.319,-6.919 -3.565,-8.198c-3.246,-1.279 -6.919,0.319 -8.198,3.565c-1.278,3.246 0.319,6.919 3.565,8.198Z" style="fill:#96bce5;"/><path d="M88.489,191.949c3.26,-1.244 4.897,-4.9 3.653,-8.159c-1.243,-3.26 -4.899,-4.897 -8.159,-3.653c-3.259,1.243 -4.896,4.899 -3.653,8.159c1.244,3.259 4.9,4.896 8.159,3.653Z" style="fill:#7d9dbf;"/><path d="M88.565,191.919c0.274,-0.11 0.54,-0.235 0.797,-0.381c0.519,-0.295 0.996,-0.664 1.411,-1.093c0.974,-1.005 1.596,-2.33 1.748,-3.721c0.065,-0.591 0.045,-1.191 -0.058,-1.776c-0.121,-0.686 -0.357,-1.352 -0.693,-1.962c-0.313,-0.568 -0.715,-1.088 -1.187,-1.533c-0.553,-0.523 -1.201,-0.944 -1.903,-1.239c-0.727,-0.305 -1.51,-0.473 -2.299,-0.492c-0.816,-0.019 -1.634,0.123 -2.398,0.415c-0.763,0.291 -1.468,0.729 -2.065,1.288c-0.575,0.539 -1.047,1.186 -1.386,1.897c-0.328,0.688 -0.531,1.433 -0.595,2.192c-0.055,0.647 -0.009,1.301 0.136,1.934c0.155,0.679 0.423,1.333 0.789,1.925c0.313,0.506 0.698,0.966 1.14,1.364c1.04,0.936 2.386,1.51 3.782,1.611c0.595,0.044 1.197,0.002 1.78,-0.124c0.289,-0.063 0.571,-0.147 0.849,-0.247c0.076,-0.028 0.076,-0.028 0.152,-0.058Zm-0.927,-2.054c-0.18,0.065 -0.362,0.119 -0.549,0.159c-0.374,0.081 -0.76,0.108 -1.142,0.08c-0.851,-0.062 -1.674,-0.396 -2.328,-0.943c-0.305,-0.255 -0.572,-0.554 -0.789,-0.886c-0.274,-0.42 -0.47,-0.89 -0.575,-1.379c-0.085,-0.391 -0.11,-0.794 -0.076,-1.192c0.041,-0.489 0.173,-0.97 0.384,-1.413c0.218,-0.459 0.522,-0.877 0.893,-1.224c0.384,-0.359 0.838,-0.641 1.329,-0.828c0.491,-0.187 1.017,-0.28 1.543,-0.267c0.508,0.012 1.013,0.121 1.481,0.317c0.453,0.19 0.872,0.462 1.229,0.799c0.29,0.274 0.539,0.592 0.737,0.94c0.238,0.42 0.402,0.884 0.481,1.361c0.064,0.392 0.069,0.794 0.017,1.188c-0.114,0.845 -0.496,1.647 -1.082,2.267c-0.263,0.278 -0.565,0.519 -0.895,0.712c-0.164,0.095 -0.335,0.178 -0.51,0.252c-0.049,0.019 -0.099,0.039 -0.148,0.057Z" style="fill:none;"/><path d="M309.372,203.13c3.483,0.195 6.153,3.181 5.959,6.664c-0.195,3.484 -3.181,6.154 -6.664,5.959c-3.484,-0.194 -6.154,-3.18 -5.959,-6.664c0.194,-3.483 3.18,-6.153 6.664,-5.959Z" style="fill:#a7d1ff;"/><path d="M309.453,203.136c0.294,0.022 0.586,0.06 0.875,0.121c0.584,0.123 1.151,0.33 1.677,0.612c1.233,0.662 2.227,1.736 2.795,3.014c0.241,0.544 0.405,1.121 0.484,1.711c0.093,0.69 0.071,1.396 -0.064,2.079c-0.126,0.637 -0.351,1.253 -0.665,1.822c-0.368,0.666 -0.858,1.264 -1.437,1.758c-0.6,0.511 -1.295,0.909 -2.04,1.167c-0.773,0.266 -1.595,0.379 -2.411,0.333c-0.816,-0.045 -1.621,-0.249 -2.359,-0.6c-0.712,-0.338 -1.358,-0.812 -1.897,-1.387c-0.521,-0.555 -0.941,-1.203 -1.233,-1.907c-0.249,-0.599 -0.404,-1.237 -0.458,-1.884c-0.058,-0.694 -0.002,-1.398 0.168,-2.073c0.144,-0.577 0.371,-1.133 0.671,-1.646c0.707,-1.208 1.815,-2.164 3.114,-2.684c0.554,-0.223 1.14,-0.365 1.734,-0.422c0.294,-0.029 0.588,-0.034 0.883,-0.024c0.082,0.004 0.081,0.004 0.163,0.01Zm-0.26,2.238c-0.19,-0.007 -0.381,-0.003 -0.57,0.015c-0.382,0.037 -0.757,0.128 -1.113,0.271c-0.822,0.33 -1.527,0.93 -1.984,1.69c-0.196,0.326 -0.346,0.681 -0.443,1.049c-0.119,0.451 -0.16,0.923 -0.121,1.388c0.033,0.399 0.126,0.792 0.275,1.164c0.183,0.456 0.45,0.878 0.781,1.24c0.343,0.375 0.756,0.685 1.212,0.909c0.471,0.231 0.986,0.367 1.509,0.403c0.526,0.036 1.057,-0.029 1.557,-0.194c0.483,-0.16 0.934,-0.412 1.325,-0.737c0.377,-0.314 0.698,-0.696 0.941,-1.123c0.197,-0.347 0.342,-0.723 0.43,-1.112c0.105,-0.472 0.127,-0.964 0.062,-1.443c-0.055,-0.411 -0.174,-0.813 -0.351,-1.187c-0.351,-0.741 -0.926,-1.369 -1.634,-1.783c-0.494,-0.289 -1.044,-0.465 -1.612,-0.53c-0.088,-0.009 -0.176,-0.015 -0.264,-0.02Z" style="fill:none;"/><path d="M186.209,101.231c3.619,1.426 7.714,-0.355 9.139,-3.974c1.426,-3.619 -0.355,-7.714 -3.974,-9.139c-3.618,-1.426 -7.714,0.355 -9.139,3.974c-1.426,3.618 0.355,7.714 3.974,9.139Z" style="fill:#96bce5;"/><path d="M186.294,101.264c0.308,0.115 0.622,0.212 0.943,0.285c0.649,0.147 1.319,0.201 1.983,0.16c1.557,-0.096 3.064,-0.72 4.235,-1.751c0.498,-0.438 0.932,-0.947 1.287,-1.507c0.416,-0.655 0.722,-1.381 0.904,-2.135c0.169,-0.704 0.228,-1.434 0.175,-2.155c-0.063,-0.847 -0.281,-1.68 -0.637,-2.45c-0.37,-0.798 -0.888,-1.525 -1.523,-2.133c-0.659,-0.629 -1.439,-1.127 -2.287,-1.46c-0.847,-0.334 -1.757,-0.503 -2.668,-0.491c-0.879,0.011 -1.754,0.189 -2.568,0.52c-0.786,0.32 -1.514,0.782 -2.137,1.358c-0.531,0.491 -0.985,1.065 -1.342,1.695c-0.382,0.676 -0.652,1.415 -0.795,2.178c-0.123,0.652 -0.152,1.321 -0.087,1.98c0.153,1.553 0.831,3.037 1.904,4.169c0.458,0.484 0.984,0.901 1.56,1.235c0.284,0.166 0.58,0.309 0.883,0.435c0.085,0.034 0.085,0.034 0.17,0.067Zm0.682,-2.15c-0.208,-0.086 -0.41,-0.183 -0.604,-0.296c-0.39,-0.227 -0.747,-0.51 -1.058,-0.838c-0.704,-0.744 -1.16,-1.711 -1.285,-2.727c-0.057,-0.465 -0.045,-0.939 0.035,-1.4c0.095,-0.542 0.284,-1.067 0.554,-1.546c0.232,-0.41 0.526,-0.786 0.868,-1.11c0.42,-0.398 0.913,-0.719 1.446,-0.943c0.552,-0.232 1.146,-0.361 1.745,-0.376c0.618,-0.016 1.236,0.091 1.814,0.311c0.581,0.22 1.118,0.551 1.572,0.975c0.437,0.409 0.796,0.9 1.054,1.44c0.25,0.522 0.405,1.089 0.455,1.665c0.041,0.469 0.011,0.943 -0.087,1.403c-0.111,0.518 -0.308,1.019 -0.581,1.473c-0.231,0.387 -0.518,0.741 -0.85,1.047c-0.78,0.722 -1.798,1.171 -2.857,1.263c-0.449,0.039 -0.903,0.013 -1.344,-0.075c-0.219,-0.044 -0.434,-0.105 -0.645,-0.177c-0.078,-0.028 -0.155,-0.058 -0.232,-0.089Z" style="fill:none;"/><path d="M194.746,198.089c2.979,-1.137 4.476,-4.479 3.339,-7.458c-1.137,-2.98 -4.479,-4.477 -7.458,-3.34c-2.98,1.137 -4.476,4.479 -3.34,7.458c1.137,2.98 4.479,4.477 7.459,3.34Z" style="fill:#7d9dbf;"/><path d="M194.815,198.062c0.25,-0.101 0.494,-0.216 0.729,-0.349c0.474,-0.269 0.91,-0.607 1.29,-0.999c0.857,-0.885 1.416,-2.041 1.58,-3.262c0.076,-0.561 0.068,-1.133 -0.024,-1.692c-0.103,-0.628 -0.311,-1.239 -0.611,-1.8c-0.28,-0.524 -0.642,-1.004 -1.069,-1.418c-0.5,-0.484 -1.088,-0.876 -1.726,-1.153c-0.661,-0.286 -1.375,-0.449 -2.095,-0.475c-0.745,-0.026 -1.493,0.094 -2.192,0.351c-0.703,0.258 -1.354,0.651 -1.906,1.156c-0.533,0.486 -0.971,1.073 -1.289,1.72c-0.307,0.624 -0.501,1.303 -0.568,1.996c-0.058,0.59 -0.023,1.188 0.102,1.767c0.129,0.599 0.354,1.177 0.663,1.706c0.275,0.471 0.617,0.902 1.013,1.276c0.93,0.879 2.148,1.432 3.421,1.556c0.542,0.053 1.09,0.028 1.625,-0.073c0.264,-0.05 0.523,-0.12 0.777,-0.205c0.094,-0.032 0.187,-0.066 0.28,-0.102Zm-0.915,-2.059c-0.469,0.169 -0.966,0.243 -1.464,0.207c-0.738,-0.054 -1.452,-0.344 -2.019,-0.818c-0.253,-0.211 -0.475,-0.458 -0.659,-0.731c-0.242,-0.36 -0.416,-0.766 -0.513,-1.189c-0.077,-0.337 -0.104,-0.687 -0.079,-1.032c0.031,-0.425 0.14,-0.843 0.318,-1.23c0.185,-0.4 0.444,-0.765 0.762,-1.07c0.339,-0.325 0.743,-0.579 1.183,-0.747c0.439,-0.167 0.909,-0.247 1.379,-0.23c0.44,0.016 0.877,0.115 1.281,0.291c0.39,0.169 0.75,0.409 1.056,0.705c0.249,0.241 0.462,0.519 0.629,0.823c0.209,0.38 0.349,0.798 0.409,1.228c0.045,0.326 0.043,0.659 -0.005,0.985c-0.107,0.731 -0.446,1.423 -0.961,1.954c-0.347,0.359 -0.768,0.634 -1.23,0.821c-0.044,0.017 -0.043,0.017 -0.087,0.033Z" style="fill:none;"/><path d="M352.457,208.786c3.883,0.217 6.86,3.546 6.643,7.429c-0.217,3.884 -3.545,6.86 -7.429,6.644c-3.883,-0.217 -6.86,-3.546 -6.643,-7.429c0.217,-3.884 3.546,-6.86 7.429,-6.644Z" style="fill:#a7d1ff;"/><path d="M352.548,208.792c0.328,0.025 0.653,0.068 0.975,0.135c0.652,0.138 1.283,0.368 1.869,0.683c1.375,0.738 2.484,1.935 3.117,3.36c0.269,0.606 0.451,1.25 0.54,1.907c0.103,0.77 0.078,1.556 -0.072,2.318c-0.14,0.71 -0.391,1.398 -0.741,2.031c-0.411,0.743 -0.957,1.409 -1.603,1.96c-0.669,0.57 -1.443,1.014 -2.274,1.301c-0.861,0.297 -1.778,0.422 -2.688,0.372c-0.909,-0.051 -1.806,-0.278 -2.629,-0.669c-0.794,-0.378 -1.514,-0.905 -2.116,-1.546c-0.58,-0.619 -1.049,-1.342 -1.374,-2.126c-0.277,-0.669 -0.45,-1.38 -0.511,-2.101c-0.064,-0.774 -0.001,-1.558 0.187,-2.312c0.161,-0.643 0.414,-1.262 0.749,-1.834c0.788,-1.347 2.023,-2.412 3.471,-2.993c0.618,-0.248 1.271,-0.406 1.934,-0.47c0.327,-0.032 0.655,-0.038 0.984,-0.026c0.091,0.004 0.091,0.004 0.182,0.01Zm-0.279,2.238c-0.224,-0.008 -0.448,-0.004 -0.672,0.017c-0.449,0.044 -0.892,0.151 -1.312,0.32c-0.969,0.388 -1.798,1.096 -2.337,1.99c-0.221,0.368 -0.392,0.766 -0.507,1.18c-0.152,0.549 -0.205,1.125 -0.157,1.693c0.039,0.47 0.149,0.934 0.324,1.372c0.216,0.537 0.529,1.034 0.92,1.46c0.404,0.441 0.89,0.807 1.428,1.07c0.555,0.273 1.162,0.434 1.778,0.476c0.62,0.043 1.246,-0.034 1.836,-0.23c0.568,-0.188 1.099,-0.485 1.56,-0.868c0.444,-0.369 0.822,-0.819 1.108,-1.322c0.233,-0.409 0.404,-0.852 0.507,-1.311c0.12,-0.536 0.148,-1.094 0.081,-1.64c-0.057,-0.467 -0.183,-0.924 -0.374,-1.354c-0.415,-0.936 -1.133,-1.728 -2.022,-2.234c-0.392,-0.223 -0.815,-0.39 -1.253,-0.494c-0.217,-0.051 -0.437,-0.086 -0.659,-0.108c-0.083,-0.007 -0.166,-0.013 -0.249,-0.017Z" style="fill:none;"/><path d="M73.627,247.595c4.984,-1.901 7.487,-7.491 5.586,-12.476c-1.902,-4.984 -7.492,-7.487 -12.476,-5.586c-4.985,1.902 -7.488,7.492 -5.587,12.476c1.902,4.985 7.492,7.488 12.477,5.586Z" style="fill:#7d9dbf;"/><path d="M73.743,247.55c0.418,-0.169 0.826,-0.36 1.219,-0.583c0.794,-0.451 1.522,-1.015 2.158,-1.671c0.729,-0.753 1.333,-1.626 1.785,-2.572c0.467,-0.98 0.769,-2.038 0.887,-3.118c0.099,-0.904 0.069,-1.821 -0.089,-2.716c-0.185,-1.049 -0.546,-2.067 -1.059,-3c-0.48,-0.869 -1.094,-1.663 -1.815,-2.345c-0.847,-0.799 -1.838,-1.443 -2.911,-1.893c-1.112,-0.466 -2.309,-0.724 -3.514,-0.753c-1.25,-0.029 -2.5,0.189 -3.667,0.634c-1.168,0.445 -2.246,1.116 -3.158,1.97c-0.88,0.824 -1.602,1.813 -2.12,2.902c-0.501,1.05 -0.812,2.19 -0.91,3.35c-0.085,0.99 -0.014,1.991 0.208,2.959c0.237,1.038 0.647,2.037 1.207,2.942c0.478,0.774 1.067,1.478 1.743,2.086c0.807,0.727 1.737,1.315 2.738,1.735c0.967,0.405 1.999,0.653 3.045,0.73c0.91,0.066 1.83,0.001 2.722,-0.191c0.441,-0.096 0.873,-0.224 1.298,-0.377c0.117,-0.044 0.117,-0.044 0.233,-0.089Zm-1.008,-2.023c-0.327,0.117 -0.658,0.216 -0.997,0.289c-0.684,0.148 -1.388,0.197 -2.085,0.146c-1.608,-0.117 -3.162,-0.769 -4.374,-1.833c-0.522,-0.459 -0.979,-0.991 -1.352,-1.578c-0.456,-0.717 -0.788,-1.512 -0.977,-2.34c-0.17,-0.741 -0.224,-1.507 -0.159,-2.265c0.075,-0.891 0.314,-1.766 0.699,-2.573c0.398,-0.836 0.951,-1.595 1.627,-2.228c0.699,-0.655 1.526,-1.168 2.422,-1.51c0.895,-0.341 1.853,-0.509 2.811,-0.486c0.925,0.022 1.845,0.22 2.698,0.578c0.824,0.345 1.585,0.84 2.235,1.454c0.553,0.522 1.023,1.129 1.39,1.795c0.41,0.744 0.692,1.558 0.83,2.396c0.112,0.686 0.126,1.388 0.042,2.078c-0.195,1.601 -0.92,3.122 -2.042,4.281c-0.486,0.502 -1.044,0.934 -1.652,1.279c-0.302,0.171 -0.615,0.319 -0.937,0.448c-0.09,0.035 -0.089,0.035 -0.179,0.069Z" style="fill:none;"/><path d="M160.91,90.237c4.705,1.853 10.029,-0.462 11.882,-5.167c1.853,-4.705 -0.462,-10.029 -5.167,-11.882c-4.705,-1.853 -10.029,0.462 -11.882,5.167c-1.853,4.704 0.462,10.029 5.167,11.882Z" style="fill:#96bce5;"/><path d="M239.555,38.882c2.599,0.583 4.235,3.166 3.652,5.764c-0.583,2.599 -3.166,4.235 -5.765,3.652c-2.598,-0.583 -4.234,-3.166 -3.651,-5.765c0.583,-2.598 3.166,-4.234 5.764,-3.651Z" style="fill:#7d9dbf;"/><path d="M236.559,192.292c0,0 4.343,-7.089 -22.724,17.973l-19.447,-18.142l-1.535,1.646l20.976,19.568c7.577,-7.015 15.153,-14.03 22.73,-21.045Z" style="fill:#7d9dbf;fill-rule:nonzero;"/><path d="M142.607,274.872l-22.98,-6.209l35.812,-40.278l59.045,-15.251l18.077,16.288l1.506,-1.671l-18.975,-17.097l-60.879,15.724l-38.332,43.112l0.16,0.535l25.979,7.019c0.196,-0.724 0.392,-1.448 0.587,-2.172Z" style="fill:#7d9dbf;fill-rule:nonzero;"/><path d="M119.697,269.533l-0.017,-0.326l-49.548,-32.328l-22.194,15.79l1.304,1.834l20.945,-14.901l45.907,29.951l-25.612,20.714l1.415,1.749c9.267,-7.494 18.533,-14.989 27.8,-22.483Z" style="fill:#7d9dbf;fill-rule:nonzero;"/><path d="M86.924,186.599l-2.151,-0.658l-16.467,53.823l2.152,0.658c5.488,-17.941 10.977,-35.882 16.466,-53.823Z" style="fill:#7d9dbf;fill-rule:nonzero;"/><path d="M353.275,215.26l-2.204,0.45l-4.549,-22.296l2.205,-0.45c1.516,7.432 3.032,14.864 4.548,22.296Z" style="fill:#a7d1ff;fill-rule:nonzero;"/><path d="M214.441,102.617l0.502,-2.193l-25.346,-5.798l-23.516,-13.446l11.726,-18.918l-1.912,-1.185l-12.955,20.899l25.83,14.769c8.557,1.957 17.114,3.915 25.671,5.872Z" style="fill:#96bce5;fill-rule:nonzero;"/><path d="M113.527,58.142l-5.348,25.797l57.522,-4.38l0.065,0.066l-4.693,51.564l-24.324,12.89l-1.053,-1.988l23.247,-12.319l4.348,-47.773l-57.693,4.393l-0.182,-0.207l5.908,-28.5l2.203,0.457Z" style="fill:#96bce5;"/><path d="M108.782,84.294c-35.088,-23.169 -34.351,-24.537 -72.103,-43.05l-0.991,2.02l26.709,13.098l45.145,29.809c0.414,-0.626 0.827,-1.251 1.24,-1.877Z" style="fill:#96bce5;fill-rule:nonzero;"/><path d="M64.848,56.413l-33.47,37.649l27.454,44.057l-1.91,1.19l-28.343,-45.485l34.588,-38.906l1.681,1.495Z" style="fill:#96bce5;"/><path d="M30.62,92.488l-0.753,2.121l-22.273,-7.91l0.753,-2.12l22.273,7.909Z" style="fill:#96bce5;"/><path d="M167.757,251.164l-7.034,-16.533l-2.071,0.881l7.035,16.533c0.69,-0.294 1.38,-0.588 2.07,-0.881Z" style="fill:#7d9dbf;fill-rule:nonzero;"/><path d="M86.011,42.956l-1.081,-1.973l-16.467,9.026l1.081,1.973c5.489,-3.009 10.978,-6.017 16.467,-9.026Z" style="fill:#96bce5;fill-rule:nonzero;"/><path d="M285.222,67.055l17.527,27.134l-1.89,1.22l-17.21,-26.642l-47.202,-25.094l1.057,-1.987l47.718,25.369Z" style="fill:#7d9dbf;"/><path d="M439.502,217.043l17.437,-3.71l-0.468,-2.201l-15.812,3.364l-9.83,-17.634l-1.965,1.095c3.546,6.362 7.092,12.724 10.638,19.086Z" style="fill:#96bce5;fill-rule:nonzero;"/><path d="M559.909,215.574l2.143,-1.796l-1.239,-20.151l-2.246,0.138c0.447,7.27 0.894,14.54 1.342,21.809Z" style="fill:#a7d1ff;fill-rule:nonzero;"/><path d="M557.066,69.69l0.146,0.431l-22.406,29.077l-1.783,-1.374l20.596,-26.727l-58.615,-15.677l-34.471,41.173l-1.725,-1.444l35.391,-42.273l62.867,16.814Z" style="fill:#96bce5;"/><path d="M606.072,154.432l11.305,-53.227" style="fill:#7d9dbf;"/><path d="M617.727,101.439l-11.305,53.227l-2.201,-0.467l11.305,-53.228c0.734,0.156 1.468,0.312 2.201,0.468Z" style="fill:#7d9dbf;fill-rule:nonzero;"/><path d="M600.831,222.982l0.157,0.251l-10.012,25.594l-2.096,-0.819l8.999,-23.004c-15.369,-1.226 -23.531,-2.223 -31.228,-1.969c-8.462,0.278 -5.926,-3.253 -5.926,-3.253l40.106,3.2Z" style="fill:#a7d1ff;fill-rule:nonzero;"/><path d="M711.072,85.796l-54.028,23.94l4.944,29.426l-2.219,0.373l-5.233,-31.149l53.952,-23.906l-10.558,-49.152l2.2,-0.473l10.942,50.941Z" style="fill:#7d9dbf;"/><path d="M656.805,107.644l-0.65,2.154l-32.425,-9.793c0,0 -6.403,-4.284 0.649,-2.154c10.809,3.264 21.617,6.529 32.426,9.793Z" style="fill:#7d9dbf;fill-rule:nonzero;"/><path d="M656.808,24.05l-1.334,1.812l-26.412,-19.44l-65.587,25.439l-69.377,23.636l-0.726,-2.13l69.333,-23.621l66.696,-25.869l27.407,20.173Z" style="fill:#96bce5;"/><path d="M805.475,84.505l-14.642,25.458l-28.411,-12.758l-53.239,-11.426l0.473,-2.2l53.471,11.476l26.771,12.021l13.626,-23.693l1.951,1.122Z" style="fill:#7d9dbf;"/><path d="M793.207,55.424l-2.033,53.056l-2.248,-0.086l2.033,-53.057l2.248,0.087Z" style="fill:#7d9dbf;"/><path d="M667.489,275.828l37.162,9.51l-0.558,2.18c-35.68,-9.131 -36.165,-8.768 -67.452,-28.199l1.187,-1.912c9.887,6.141 19.774,12.281 29.661,18.421Z" style="fill:#a7d1ff;fill-rule:nonzero;"/><path d="M712.042,232.432l0.06,0.348l-43.201,43.741l-1.601,-1.581l41.203,-41.718l-48.82,-23.57l-59.841,15.296l-0.558,-2.18l60.638,-15.5c17.373,8.388 34.747,16.776 52.12,25.164Z" style="fill:#a7d1ff;fill-rule:nonzero;"/><g><path d="M243.003,198.158l-13.5,0l-21.75,-106.8l16.2,0l12.15,74.55l0.3,0l12.3,-74.55l16.2,0l-21.9,106.8Z" style="fill:#7d9dbf;fill-rule:nonzero;"/><path d="M289.353,139.058l8.7,0c2.7,0 4.85,-0.375 6.45,-1.125c1.6,-0.75 2.825,-1.825 3.675,-3.225c0.85,-1.4 1.425,-3.125 1.725,-5.175c0.3,-2.05 0.45,-4.425 0.45,-7.125c0,-2.7 -0.15,-5.075 -0.45,-7.125c-0.3,-2.05 -0.925,-3.8 -1.875,-5.25c-0.95,-1.45 -2.275,-2.525 -3.975,-3.225c-1.7,-0.7 -3.95,-1.05 -6.75,-1.05l-7.95,0l0,33.3Zm-15.3,-47.7l24.6,0c18,0 27,10.45 27,31.35c0,6.2 -0.975,11.525 -2.925,15.975c-1.95,4.45 -5.375,8.025 -10.275,10.725l16.5,48.75l-16.2,0l-14.25,-45.6l-9.15,0l0,45.6l-15.3,0l0,-106.8Z" style="fill:#7d9dbf;fill-rule:nonzero;"/><path d="M337.953,91.358l15.3,0l0,91.5l30.3,0l0,15.3l-45.6,0l0,-106.8Z" style="fill:#7d9dbf;fill-rule:nonzero;"/><path d="M421.503,190.358l-0.3,0c-2,2.8 -4.025,4.95 -6.075,6.45c-2.05,1.5 -4.925,2.25 -8.625,2.25c-1.8,0 -3.65,-0.275 -5.55,-0.825c-1.9,-0.55 -3.675,-1.55 -5.325,-3c-1.65,-1.45 -3,-3.5 -4.05,-6.15c-1.05,-2.65 -1.575,-6.075 -1.575,-10.275c0,-4.3 0.35,-8.075 1.05,-11.325c0.7,-3.25 1.975,-5.95 3.825,-8.1c1.85,-2.15 4.325,-3.75 7.425,-4.8c3.1,-1.05 7.05,-1.575 11.85,-1.575c1.1,0 2.2,0.05 3.3,0.15c1.1,0.1 2.45,0.2 4.05,0.3l0,-7.95c0,-2.6 -0.55,-4.75 -1.65,-6.45c-1.1,-1.7 -3.1,-2.55 -6,-2.55c-2,0 -3.825,0.65 -5.475,1.95c-1.65,1.3 -2.725,3.2 -3.225,5.7l-14.85,0c0.5,-6.9 2.8,-12.4 6.9,-16.5c2,-2 4.4,-3.575 7.2,-4.725c2.8,-1.15 5.95,-1.725 9.45,-1.725c3.2,0 6.2,0.5 9,1.5c2.8,1 5.225,2.5 7.275,4.5c2.05,2 3.675,4.5 4.875,7.5c1.2,3 1.8,6.5 1.8,10.5l0,52.95l-15.3,0l0,-7.8Zm0,-24.9c-1.7,-0.3 -3.1,-0.45 -4.2,-0.45c-3.3,0 -6.125,0.775 -8.475,2.325c-2.35,1.55 -3.525,4.375 -3.525,8.475c0,2.9 0.7,5.25 2.1,7.05c1.4,1.8 3.35,2.7 5.85,2.7c2.6,0 4.625,-0.85 6.075,-2.55c1.45,-1.7 2.175,-4.1 2.175,-7.2l0,-10.35Z" style="fill:#7d9dbf;fill-rule:nonzero;"/><path d="M448.053,91.358l15.3,0l0,37.65l0.3,0c1.7,-2.5 3.725,-4.425 6.075,-5.775c2.35,-1.35 5.025,-2.025 8.025,-2.025c3.7,0 6.575,0.65 8.625,1.95c2.05,1.3 3.725,2.95 5.025,4.95c1,1.6 1.65,3.7 1.95,6.3c0.3,2.6 0.45,6.65 0.45,12.15l0,28.95c0,4.2 -0.2,7.55 -0.6,10.05c-0.4,2.5 -1.05,4.6 -1.95,6.3c-2.6,4.8 -7.05,7.2 -13.35,7.2c-3.8,0 -6.7,-0.75 -8.7,-2.25c-2,-1.5 -3.95,-3.35 -5.85,-5.55l0,6.9l-15.3,0l0,-106.8Zm30.45,54.15c0,-2.4 -0.525,-4.5 -1.575,-6.3c-1.05,-1.8 -3.025,-2.7 -5.925,-2.7c-2.2,0 -4.025,0.775 -5.475,2.325c-1.45,1.55 -2.175,3.525 -2.175,5.925l0,29.55c0,2.8 0.7,5.075 2.1,6.825c1.4,1.75 3.25,2.625 5.55,2.625c2.6,0 4.5,-0.95 5.7,-2.85c1.2,-1.9 1.8,-4.4 1.8,-7.5l0,-27.9Z" style="fill:#7d9dbf;fill-rule:nonzero;"/><rect x="504.828" y="186.683" width="11.475" height="11.475" style="fill:#7d9dbf;fill-rule:nonzero;"/><path d="M525.978,118.058l11.025,0l17.325,48.262l0.225,0l0,-48.262l11.475,0l0,80.1l-10.8,0l-17.55,-48.15l-0.225,0l0,48.15l-11.475,0l0,-80.1Z" style="fill:#7d9dbf;fill-rule:nonzero;"/><path d="M613.503,180.158c0,2.625 -0.487,5.062 -1.462,7.312c-0.975,2.25 -2.306,4.219 -3.994,5.907c-1.687,1.687 -3.656,3.018 -5.906,3.993c-2.25,0.975 -4.65,1.463 -7.2,1.463c-2.55,0 -4.95,-0.488 -7.2,-1.463c-2.25,-0.975 -4.219,-2.306 -5.906,-3.993c-1.688,-1.688 -3.019,-3.657 -3.994,-5.907c-0.975,-2.25 -1.463,-4.687 -1.463,-7.312l0,-62.1l11.475,0l0,60.975c0,2.85 0.675,4.95 2.025,6.3c1.35,1.35 3.038,2.025 5.063,2.025c2.025,0 3.712,-0.675 5.062,-2.025c1.35,-1.35 2.025,-3.45 2.025,-6.3l0,-60.975l11.475,0l0,62.1Z" style="fill:#7d9dbf;fill-rule:nonzero;"/></g></svg>
