<?xml version="1.0" encoding="UTF-8" standalone="no"?><!DOCTYPE svg PUBLIC "-//W3C//DTD SVG 1.1//EN" "http://www.w3.org/Graphics/SVG/1.1/DTD/svg11.dtd"><svg width="100%" height="100%" viewBox="0 0 392 385" version="1.1" xmlns="http://www.w3.org/2000/svg" xmlns:xlink="http://www.w3.org/1999/xlink" xml:space="preserve" style="fill-rule:evenodd;clip-rule:evenodd;stroke-linejoin:round;stroke-miterlimit:1.41421;"><path d="M198.365,54.569l-21.424,0.748l-1.642,-45.41c0,0 -0.188,-7.084 8.064,-8.173c8.252,-1.088 14.55,-1.162 16.097,-1.215c1.547,-0.053 -1.095,54.05 -1.095,54.05" style="fill:#f2f2f2;"/><path d="M198.34,73.101l-28.813,0.987c0,0 -9.236,-0.38 -9.527,-8.897c-0.292,-8.517 -0.176,-5.115 -0.176,-5.115l37.816,-2.36" style="fill:#f2f2f2;"/><path d="M172.645,20.776l0.988,23.996c0,0 -10.041,5.783 -16.019,12.514c-15.578,2.194 -19.489,2.055 -30.892,6.768c3.792,-11.544 22.106,-38.237 45.923,-43.278" style="fill:#f2f2f2;"/><path d="M156.87,60.577c0,0 -4.41,17.932 17.892,17.169c22.303,-0.764 21.017,-1.153 21.017,-1.153l1.98,62.877c0,0 -12.574,1.935 -12.17,13.759c0.405,11.823 13.147,12.18 13.147,12.18l0.129,2.76c0,0 -24.923,0.682 -41.801,-0.032c-16.879,-0.713 -26.719,-1.432 -40.532,-14.904c-13.813,-13.471 -8.8,-36.021 -8.858,-39.161l-0.059,-3.141c0,0 0.375,-19.624 1.117,-22.146c0.741,-2.522 4.106,-10.693 10.038,-15.872c5.932,-5.18 18.696,-12.513 38.1,-12.336Z" style="fill:#f2f2f2;"/><path d="M236.484,57.851c0,0 5.626,17.589 -16.676,18.352c-22.302,0.764 -21.047,0.288 -21.047,0.288l2.326,62.865c0,0 12.677,1.071 13.082,12.894c0.404,11.824 -12.283,13.051 -12.283,13.051l0.06,2.763c0,0 24.911,-1.025 41.701,-2.891c16.79,-1.866 26.559,-3.256 39.418,-17.641c12.859,-14.385 6.315,-36.539 6.159,-39.676l-0.157,-3.137c0,0 -1.716,-19.552 -2.628,-22.018c-0.913,-2.466 -4.828,-10.387 -11.1,-15.148c-6.273,-4.762 -19.508,-11.206 -38.855,-9.702Z" style="fill:#f2f2f2;"/><path d="M195.968,73.183l28.813,-0.987c0,0 9.188,-1.01 8.896,-9.527c-0.291,-8.517 -0.175,-5.115 -0.175,-5.115l-37.888,0.231" style="fill:#f2f2f2;"/><path d="M194.675,54.695l21.425,-0.719l-1.468,-45.415c0,0 -0.296,-7.081 -8.603,-7.603c-8.307,-0.522 -14.596,-0.164 -16.143,-0.111c-1.547,0.053 4.789,53.848 4.789,53.848" style="fill:#f2f2f2;"/><path d="M218.024,19.222l0.656,24.007c0,0 10.413,5.084 16.837,11.39c15.691,1.123 19.584,0.718 31.282,4.639c-4.572,-11.257 -24.669,-36.635 -48.775,-40.036" style="fill:#f2f2f2;"/><path d="M199.433,142.729c6.162,-0.211 11.318,4.087 11.507,9.593c0.188,5.505 -4.662,10.146 -10.824,10.356c-6.162,0.211 -11.317,-4.087 -11.506,-9.592c-0.188,-5.505 4.661,-10.146 10.823,-10.357Z" style="fill:#f2f2f2;"/><path d="M137.704,186.472l33.741,159.638l83.362,6.182l11.665,-171.251l-30.716,-7.736l-70.809,4.423l-27.243,8.744Z" style="fill:#2a3440;"/><g id="Layer2"><path d="M235.836,173.331l24.522,16.676l-32.3,127.372l-25.168,-91.322l-17.852,93.031l-42.131,-123.6l22.821,-17.93l-80.022,19.163c0,0 -18.955,2.519 -23.143,23.799c-4.188,21.281 -19.007,115.183 -19.007,115.183l0,36.396l326.485,0l0,-49.968l-29.222,-115.824c0,0 -2.568,-15.33 -20.054,-18.252c-17.485,-2.923 -84.929,-14.724 -84.929,-14.724Z" style="fill:#f2f2f2;"/><path d="M200.633,187.637l20.469,7.685l-18.503,29.88l-20.575,-28.32l18.609,-9.245Z" style="fill:#f2f2f2;"/></g></svg>