<?xml version="1.0" encoding="UTF-8" standalone="no"?><!DOCTYPE svg PUBLIC "-//W3C//DTD SVG 1.1//EN" "http://www.w3.org/Graphics/SVG/1.1/DTD/svg11.dtd"><svg width="100%" height="100%" viewBox="0 0 335 201" version="1.1" xmlns="http://www.w3.org/2000/svg" xmlns:xlink="http://www.w3.org/1999/xlink" xml:space="preserve" style="fill-rule:evenodd;clip-rule:evenodd;stroke-linejoin:round;stroke-miterlimit:1.41421;"><path d="M164.255,29.452l-11.563,0.403l-0.886,-24.508c0,0 -0.102,-3.823 4.352,-4.411c4.454,-0.588 7.853,-0.627 8.688,-0.656c0.835,-0.028 -0.591,29.172 -0.591,29.172" style="fill:#f2f2f2;"/><path d="M164.241,39.454l-15.55,0.533c0,0 -4.985,-0.205 -5.142,-4.802c-0.158,-4.597 -0.095,-2.761 -0.095,-2.761l20.41,-1.274" style="fill:#f2f2f2;"/><path d="M150.373,11.213l0.534,12.951c0,0 -5.42,3.122 -8.646,6.755c-8.408,1.183 -10.518,1.109 -16.673,3.652c2.047,-6.23 11.931,-20.637 24.785,-23.358" style="fill:#f2f2f2;"/><path d="M141.859,32.695c0,0 -2.38,9.678 9.657,9.266c12.037,-0.412 11.344,-0.622 11.344,-0.622l1.068,33.936c0,0 -6.787,1.044 -6.568,7.425c0.218,6.382 7.095,6.574 7.095,6.574l0.07,1.49c0,0 -13.451,0.368 -22.561,-0.017c-9.11,-0.385 -14.421,-0.773 -21.876,-8.044c-7.455,-7.271 -4.749,-19.441 -4.781,-21.136l-0.031,-1.695c0,0 0.202,-10.592 0.602,-11.953c0.401,-1.361 2.216,-5.771 5.418,-8.567c3.202,-2.795 10.091,-6.753 20.563,-6.657Z" style="fill:#f2f2f2;"/><path d="M184.829,31.223c0,0 3.036,9.493 -9.001,9.905c-12.037,0.413 -11.359,0.156 -11.359,0.156l1.255,33.929c0,0 6.842,0.578 7.061,6.959c0.218,6.382 -6.629,7.044 -6.629,7.044l0.032,1.491c0,0 13.445,-0.553 22.507,-1.56c9.062,-1.007 14.334,-1.757 21.274,-9.521c6.94,-7.764 3.409,-19.721 3.324,-21.414l-0.084,-1.693c0,0 -0.926,-10.553 -1.419,-11.884c-0.492,-1.331 -2.605,-5.606 -5.991,-8.176c-3.385,-2.57 -10.529,-6.047 -20.97,-5.236Z" style="fill:#f2f2f2;"/><path d="M162.961,39.498l15.551,-0.532c0,0 4.959,-0.546 4.802,-5.143c-0.157,-4.596 -0.095,-2.76 -0.095,-2.76l-20.449,0.125" style="fill:#f2f2f2;"/><path d="M162.264,29.52l11.563,-0.388l-0.792,-24.512c0,0 -0.16,-3.821 -4.644,-4.103c-4.483,-0.281 -7.877,-0.089 -8.712,-0.06c-0.835,0.029 2.585,29.063 2.585,29.063" style="fill:#f2f2f2;"/><path d="M174.866,10.375l0.353,12.957c0,0 5.621,2.743 9.088,6.147c8.469,0.606 10.569,0.387 16.883,2.504c-2.468,-6.076 -13.314,-19.773 -26.324,-21.608" style="fill:#f2f2f2;"/><path d="M164.832,77.034c3.326,-0.114 6.108,2.206 6.21,5.177c0.102,2.971 -2.516,5.476 -5.842,5.59c-3.325,0.114 -6.108,-2.206 -6.21,-5.178c-0.101,-2.971 2.516,-5.476 5.842,-5.589Z" style="fill:#f2f2f2;"/><path d="M131.515,100.642l18.211,86.16l44.992,3.336l6.296,-92.427l-16.578,-4.175l-38.217,2.387l-14.704,4.719Z" style="fill:#2a3440;"/><path d="M184.479,93.55l13.235,9l-17.433,68.746l-13.583,-49.289l-9.635,50.211l-22.739,-66.71l12.316,-9.677l-43.189,10.343c0,0 -10.23,1.36 -12.491,12.845c-2.26,11.485 -10.258,62.166 -10.258,62.166l0,19.644l176.21,0l0,-26.969l-15.772,-62.512c0,0 -1.386,-8.274 -10.823,-9.851c-9.438,-1.578 -45.838,-7.947 -45.838,-7.947Z" style="fill:#f2f2f2;"/><path d="M165.479,101.271l11.048,4.148l-9.987,16.127l-11.104,-15.285l10.043,-4.99Z" style="fill:#f2f2f2;"/><path d="M47.039,91.4c4.584,25.095 8.179,49.781 4.758,50.558c-7.016,1.593 -9.948,-2.03 -11.447,-6.675c-1.499,-4.646 -12.877,-47.973 -14.407,-53.741c-1.529,-5.769 -2.847,-10.712 -4.026,-12.951c-1.179,-2.24 -6.844,-4.846 -6.844,-4.846c0,0 -2.053,3.704 -3.769,4.223c-1.717,0.519 -5.164,-1.056 -6.22,-1.702c-1.054,-0.648 -1.252,-5.366 0.926,-9.133c2.179,-3.768 3.054,-6.143 9.056,-12.449c6.001,-6.306 20.789,-7.002 20.789,-7.002c0,0 0.491,0.656 0.548,0.917c0.256,1.169 1.061,4.863 2.188,10.2c-2.074,0.137 -4.723,0.536 -7.569,1.182c-6.311,1.434 -11.22,3.542 -10.956,4.706c0.264,1.165 5.603,0.946 11.914,-0.487c2.822,-0.641 5.364,-1.417 7.288,-2.183c1.364,6.513 3.065,14.806 4.804,23.711c-2.183,-1.232 -4.815,-1.688 -7.451,-1.089c-5.625,1.277 -9.157,6.875 -7.881,12.494c1.276,5.618 6.879,9.143 12.504,7.865c2.372,-0.539 4.372,-1.845 5.795,-3.598l0,0Zm-5.059,9.593c1.163,-0.264 2.321,0.466 2.586,1.631c0.264,1.164 -0.465,2.323 -1.628,2.588c-1.164,0.263 -2.322,-0.467 -2.587,-1.631c-0.264,-1.165 0.465,-2.324 1.629,-2.588Zm-7.499,-33.025c1.162,-0.264 2.321,0.467 2.586,1.631c0.264,1.164 -0.466,2.323 -1.628,2.588c-1.163,0.264 -2.323,-0.467 -2.587,-1.631c-0.264,-1.164 0.466,-2.324 1.629,-2.588Z" style="fill:#f2f2f2;"/><path d="M30.622,78.495c-2.174,-8.611 -4.135,-16.691 -5.676,-23.153c1.986,-0.165 4.427,-0.55 7.034,-1.142c6.311,-1.433 11.22,-3.541 10.955,-4.706c-0.264,-1.164 -5.602,-0.946 -11.913,0.487c-2.622,0.596 -5.002,1.308 -6.869,2.02c-1.639,-6.929 -2.633,-11.301 -2.633,-11.301c0,0 13.379,-5.388 21.516,-2.293c8.136,3.096 9.952,4.861 13.544,7.317c3.591,2.457 5.451,6.799 4.779,7.837c-0.672,1.039 -3.102,3.948 -4.874,4.221c-1.772,0.274 -5.223,-2.18 -5.223,-2.18c0,0 -3.985,4.797 -4.081,7.326c-0.096,2.529 0.85,7.556 1.962,13.42c1.112,5.863 9.563,49.855 10.217,54.693c0.654,4.836 -0.426,9.37 -7.442,10.964c-3.396,0.771 -10.629,-22.949 -17.187,-47.628c1.979,0.871 4.244,1.136 6.513,0.621c5.625,-1.277 9.156,-6.876 7.881,-12.494c-1.276,-5.619 -6.879,-9.143 -12.504,-7.865c-2.488,0.564 -4.565,1.974 -5.999,3.856l0,0Zm11.358,22.498c1.163,-0.264 2.321,0.466 2.586,1.631c0.264,1.164 -0.465,2.323 -1.628,2.588c-1.164,0.263 -2.322,-0.467 -2.587,-1.631c-0.264,-1.165 0.465,-2.324 1.629,-2.588Zm-7.499,-33.025c1.162,-0.264 2.321,0.467 2.586,1.631c0.264,1.164 -0.466,2.323 -1.628,2.588c-1.163,0.264 -2.323,-0.467 -2.587,-1.631c-0.264,-1.164 0.466,-2.324 1.629,-2.588Z" style="fill:#f2f2f2;"/><path d="M287.274,92.15c-4.583,25.095 -8.178,49.781 -4.757,50.558c7.016,1.593 9.947,-2.03 11.447,-6.675c1.499,-4.646 12.876,-47.973 14.406,-53.741c1.529,-5.769 2.848,-10.712 4.026,-12.951c1.179,-2.24 6.845,-4.846 6.845,-4.846c0,0 2.052,3.704 3.769,4.223c1.717,0.519 5.164,-1.056 6.219,-1.702c1.055,-0.648 1.253,-5.366 -0.926,-9.133c-2.178,-3.768 -3.054,-6.143 -9.056,-12.449c-6.001,-6.306 -20.788,-7.002 -20.788,-7.002c0,0 -0.491,0.656 -0.549,0.917c-0.256,1.169 -1.06,4.863 -2.188,10.2c2.074,0.137 4.723,0.536 7.57,1.182c6.311,1.434 11.22,3.542 10.956,4.706c-0.265,1.165 -5.603,0.946 -11.914,-0.487c-2.823,-0.641 -5.364,-1.417 -7.288,-2.183c-1.364,6.513 -3.066,14.806 -4.805,23.711c2.183,-1.232 4.815,-1.688 7.452,-1.089c5.625,1.277 9.157,6.875 7.881,12.494c-1.276,5.618 -6.88,9.143 -12.505,7.865c-2.371,-0.539 -4.371,-1.845 -5.795,-3.598l0,0Zm5.06,9.593c-1.163,-0.264 -2.322,0.466 -2.586,1.631c-0.264,1.164 0.465,2.323 1.628,2.588c1.163,0.263 2.322,-0.467 2.587,-1.631c0.263,-1.165 -0.466,-2.324 -1.629,-2.588Zm7.499,-33.025c-1.163,-0.264 -2.321,0.467 -2.586,1.631c-0.265,1.164 0.465,2.323 1.628,2.588c1.163,0.264 2.322,-0.467 2.586,-1.631c0.265,-1.164 -0.465,-2.324 -1.628,-2.588Z" style="fill:#f2f2f2;"/><path d="M303.692,79.245c2.173,-8.611 4.135,-16.691 5.675,-23.153c-1.986,-0.165 -4.427,-0.55 -7.033,-1.142c-6.311,-1.433 -11.22,-3.541 -10.956,-4.706c0.264,-1.164 5.603,-0.946 11.914,0.487c2.622,0.596 5.001,1.308 6.869,2.02c1.639,-6.929 2.633,-11.301 2.633,-11.301c0,0 -13.379,-5.388 -21.516,-2.293c-8.136,3.096 -9.952,4.861 -13.544,7.317c-3.591,2.457 -5.451,6.799 -4.779,7.837c0.672,1.039 3.102,3.948 4.874,4.221c1.772,0.274 5.223,-2.18 5.223,-2.18c0,0 3.985,4.797 4.081,7.326c0.095,2.529 -0.85,7.556 -1.963,13.42c-1.111,5.863 -9.562,49.855 -10.216,54.693c-0.654,4.836 0.425,9.37 7.441,10.964c3.397,0.771 10.63,-22.949 17.188,-47.628c-1.979,0.871 -4.244,1.136 -6.514,0.621c-5.625,-1.277 -9.156,-6.876 -7.88,-12.494c1.275,-5.619 6.879,-9.143 12.504,-7.865c2.487,0.564 4.565,1.974 5.999,3.856l0,0Zm-11.358,22.498c-1.163,-0.264 -2.322,0.466 -2.586,1.631c-0.264,1.164 0.465,2.323 1.628,2.588c1.163,0.263 2.322,-0.467 2.587,-1.631c0.263,-1.165 -0.466,-2.324 -1.629,-2.588Zm7.499,-33.025c-1.163,-0.264 -2.321,0.467 -2.586,1.631c-0.265,1.164 0.465,2.323 1.628,2.588c1.163,0.264 2.322,-0.467 2.586,-1.631c0.265,-1.164 -0.465,-2.324 -1.628,-2.588Z" style="fill:#f2f2f2;"/></svg>