<?xml version="1.0" encoding="UTF-8" standalone="no"?><!DOCTYPE svg PUBLIC "-//W3C//DTD SVG 1.1//EN" "http://www.w3.org/Graphics/SVG/1.1/DTD/svg11.dtd"><svg width="100%" height="100%" viewBox="0 0 79 142" version="1.1" xmlns="http://www.w3.org/2000/svg" xmlns:xlink="http://www.w3.org/1999/xlink" xml:space="preserve" style="fill-rule:evenodd;clip-rule:evenodd;stroke-linejoin:round;stroke-miterlimit:1.41421;"><g id="controller"><path d="M47.881,74.308c-1.309,33.988 -3.785,67.157 -8.462,67.177c-9.593,0.04 -12.358,-5.525 -12.963,-12.005c-0.605,-6.481 -2.854,-66.166 -3.173,-74.117c-0.318,-7.951 -0.601,-14.766 -1.486,-18.022c-0.885,-3.257 -7.503,-8.29 -7.503,-8.29c0,0 -3.745,4.225 -6.129,4.403c-2.385,0.178 -6.415,-2.871 -7.601,-4.018c-1.185,-1.148 -0.075,-7.346 3.852,-11.617c3.927,-4.272 5.755,-7.11 15.394,-13.577c9.638,-6.467 29.085,-3.087 29.085,-3.087c0,0 0.449,0.996 0.448,1.352c-0.006,1.596 -0.029,6.636 -0.109,13.909c-2.739,-0.423 -6.302,-0.671 -10.194,-0.655c-8.629,0.036 -15.629,1.357 -15.623,2.949c0.007,1.592 7.018,2.855 15.647,2.819c3.859,-0.016 7.392,-0.289 10.118,-0.729c-0.113,8.872 -0.302,20.158 -0.62,32.252c-2.484,-2.237 -5.777,-3.593 -9.382,-3.578c-7.691,0.032 -13.91,6.294 -13.878,13.976c0.032,7.682 6.303,13.893 13.994,13.861c3.243,-0.014 6.224,-1.135 8.585,-3.003Zm-9.365,11.018c1.59,-0.007 2.886,1.28 2.893,2.872c0.006,1.592 -1.279,2.889 -2.869,2.896c-1.591,0.006 -2.887,-1.28 -2.894,-2.872c-0.006,-1.592 1.279,-2.89 2.87,-2.896Zm-0.188,-45.154c1.59,-0.007 2.886,1.28 2.893,2.872c0.007,1.592 -1.279,2.889 -2.869,2.896c-1.59,0.007 -2.887,-1.28 -2.893,-2.872c-0.007,-1.592 1.279,-2.889 2.869,-2.896Z" style="fill:#f2f2f2;"/><path d="M30.255,52.754c-0.333,-11.837 -0.544,-22.921 -0.676,-31.777c2.633,0.36 5.921,0.567 9.485,0.552c8.629,-0.036 15.629,-1.357 15.622,-2.949c-0.006,-1.592 -7.017,-2.855 -15.646,-2.819c-3.585,0.015 -6.888,0.252 -9.525,0.638c-0.125,-9.493 -0.151,-15.472 -0.151,-15.472c0,0 18.974,-3.134 28.666,3.253c9.692,6.387 11.544,9.21 15.506,13.448c3.962,4.239 5.124,10.428 3.948,11.585c-1.175,1.157 -5.181,4.239 -7.566,4.081c-2.386,-0.158 -6.166,-4.352 -6.166,-4.352c0,0 -6.576,5.088 -7.434,8.352c-0.858,3.264 -1.084,10.08 -1.336,18.034c-0.253,7.953 -2.005,67.656 -2.556,74.141c-0.551,6.484 -3.27,12.072 -12.863,12.112c-4.644,0.02 -7.182,-32.947 -8.564,-66.966c2.323,1.706 5.194,2.708 8.297,2.696c7.691,-0.032 13.909,-6.295 13.878,-13.977c-0.032,-7.682 -6.303,-13.892 -13.994,-13.86c-3.401,0.014 -6.513,1.246 -8.925,3.28Zm8.261,32.572c1.59,-0.007 2.886,1.28 2.893,2.872c0.006,1.592 -1.279,2.889 -2.869,2.896c-1.591,0.006 -2.887,-1.28 -2.894,-2.872c-0.006,-1.592 1.279,-2.89 2.87,-2.896Zm-0.188,-45.154c1.59,-0.007 2.886,1.28 2.893,2.872c0.007,1.592 -1.279,2.889 -2.869,2.896c-1.59,0.007 -2.887,-1.28 -2.893,-2.872c-0.007,-1.592 1.279,-2.889 2.869,-2.896Z" style="fill:#f2f2f2;"/></g></svg>