<svg viewBox="0 0 1225 164" xmlns="http://www.w3.org/2000/svg" fill-rule="evenodd" clip-rule="evenodd" stroke-linejoin="round" stroke-miterlimit="1.414"><path d="M120.402 10.679v147.736h5.142V10.801l-5.142-.122zm820.3 47.916v99.911h-5.142V58.677l5.142-.082zm-62.32 51.754l-8.09.005-.032-17.148s.02-2.674 3.146-2.978c3.127-.304 5.503-.251 6.087-.251.584 0-1.111 20.372-1.111 20.372m-.249 6.989h-10.879s-3.479-.262-3.479-3.478v-1.932l14.293-.402m-8.95-14.255l.063 9.063s-3.862 2.052-6.203 4.513c-5.904.627-7.378.524-11.739 2.154 1.579-4.305 8.831-14.136 17.879-15.73" fill="#77c7a9"/><path d="M862.654 112.079s-1.895 6.706 6.527 6.706c8.421 0 7.942-.163 7.942-.163l-.066 23.74s-4.767.568-4.767 5.032c0 4.465 4.801 4.764 4.801 4.764l.013 1.043s-9.409-.065-15.765-.552c-6.357-.487-10.059-.885-15.095-6.145-5.036-5.259-2.854-13.699-2.835-14.884l.018-1.185s.395-7.397.707-8.339c.313-.941 1.687-3.98 3.991-5.856 2.304-1.877 7.213-4.478 14.529-4.161zm30.063 0s1.895 6.706-6.527 6.706c-8.421 0-7.941-.163-7.941-.163l.065 23.74s4.767.568 4.767 5.032c0 4.465-4.8 4.764-4.8 4.764l-.014 1.043s9.409-.065 15.766-.552c6.356-.487 10.059-.885 15.094-6.145 5.036-5.259 2.854-13.699 2.836-14.884l-.019-1.185s-.395-7.397-.707-8.339c-.312-.941-1.687-3.98-3.991-5.856-2.304-1.877-7.213-4.478-14.529-4.161z" fill="#77c7a9"/><path d="M877.238 117.338h10.88s3.478-.262 3.478-3.478v-1.932l-14.293-.402m-.314-1.177l8.09.005.033-17.148s-.021-2.674-3.147-2.978c-3.126-.304-5.503-.251-6.087-.251-.584 0 1.111 20.372 1.111 20.372m9.264-13.078l-.062 9.063s3.861 2.052 6.203 4.513c5.904.627 7.377.524 11.738 2.154-1.579-4.305-8.831-14.136-17.879-15.73" fill="#77c7a9"/><ellipse cx="877.647" cy="147.38" rx="4.216" ry="3.766" fill="#77c7a9"/><path d="M937.498 94.793h-48.812l11.357 7.115c12.533.199 21.752.118 37.223-.088.154-6.116.232-7.027.232-7.027zm175.642-44.808v1.532s2.317.697 4.399 2.446c1.35 1.133 2.601 3.017 3.06 4.397.656 1.973 1.597 4.325 1.229 6.937-.287 2.033-1.575 4.223-3.053 6.514h-18.056s-3.412-2.647-3.412-8.767c0-2.744 1.262-5.824 3.241-7.803 2.435-2.435 5.683-3.474 5.683-3.474v-1.782h6.909zm-6.909-6.428v-3.84l-1.615-3.458 9.472-.286-.948 3.172v4.412h-6.909zm40.359 6.428v1.532s2.317.697 4.399 2.446c1.35 1.133 2.601 3.017 3.06 4.397.657 1.973 1.597 4.325 1.229 6.937-.286 2.033-1.575 4.223-3.053 6.514h-18.056s-3.412-2.647-3.412-8.767c0-2.744 1.262-5.824 3.241-7.803 2.435-2.435 5.683-3.474 5.683-3.474v-1.782h6.909zm-6.909-6.428v-3.84l-1.615-3.458 9.472-.286-.948 3.172v4.412h-6.909zm-350.916 66.631l8.09.006.033-17.148s-.021-2.675-3.147-2.979c-3.127-.304-5.503-.25-6.087-.25-.584 0 1.111 20.371 1.111 20.371m.249 6.99h10.879s3.479-.263 3.479-3.479v-1.931l-14.293-.402m8.95-14.255l-.063 9.063s3.862 2.051 6.204 4.513c5.903.626 7.377.523 11.738 2.153-1.579-4.304-8.831-14.135-17.879-15.729" fill="#77c7a9"/><path d="M804.493 111.918s1.895 6.707-6.527 6.707c-8.421 0-7.942-.164-7.942-.164l.066 23.741s4.767.567 4.767 5.032c0 4.464-4.801 4.764-4.801 4.764l-.013 1.042s9.409-.064 15.766-.552c6.356-.487 10.058-.885 15.094-6.144 5.036-5.26 2.854-13.699 2.835-14.885l-.018-1.185s-.395-7.396-.707-8.338c-.312-.942-1.687-3.98-3.991-5.857-2.304-1.877-7.213-4.478-14.529-4.161zm-30.063 0s-1.895 6.707 6.527 6.707c8.421 0 7.941-.164 7.941-.164l-.065 23.741s-4.767.567-4.767 5.032c0 4.464 4.801 4.764 4.801 4.764l.013 1.042s-9.409-.064-15.766-.552c-6.356-.487-10.059-.885-15.094-6.144-5.036-5.26-2.854-13.699-2.836-14.885l.019-1.185s.395-7.396.707-8.338c.312-.942 1.687-3.98 3.991-5.857 2.304-1.877 7.213-4.478 14.529-4.161z" fill="#77c7a9"/><path d="M789.909 117.178h-10.88s-3.478-.263-3.478-3.479v-1.931l14.293-.402m.314-1.178l-8.09.006-.033-17.148s.021-2.675 3.147-2.979c3.126-.304 5.503-.25 6.087-.25.584 0-1.111 20.371-1.111 20.371m-9.264-13.077l.062 9.063s-3.861 2.051-6.203 4.513c-5.903.626-7.377.523-11.738 2.153 1.579-4.304 8.831-14.135 17.879-15.729" fill="#77c7a9"/><ellipse cx="789.5" cy="147.219" rx="4.216" ry="3.766" fill="#77c7a9"/><path d="M729.649 94.632h48.812l-11.357 7.115c-12.533.199-21.751.118-37.223-.088-.154-6.116-.232-7.027-.232-7.027zm-70.116-9.091v58.195H556.07V85.541h103.463zm-2.963 3.105h-97.756v52.228h97.756V88.646zM150.993 109.47l8.12-12.759 1.155.684.467-4.649-3.422 2.109.727.942-8.373 12.775 1.326.898" fill="#77c7a9"/><circle cx="187.361" cy="71.011" r="11.575" fill="#77c7a9"/><circle cx="203.535" cy="87.463" r="10.079" fill="#77c7a9"/><circle cx="217.192" cy="101.241" r="8.909" fill="#77c7a9"/><path d="M116.546 13.67H26.313s-5.612-.18-5.612 5.612v28.534h5.419V18.537h92.341l-1.915-4.867zM227.804 128.4H80.876s-5.612-.18-5.612 5.611v28.535h5.419v-29.279h146.912l.209-4.867z" fill="#77c7a9"/><path fill="#77c7a9" d="M97.646 17.155h4.217v14.879h-4.217zm-33.452 0h4.217v14.879h-4.217zm59.874-.757l4.102-4.405 49.069 45.698-4.101 4.404-49.07-45.697z"/><path d="M172.216 59.702l2.674-2.87 53.322 49.658-2.673 2.87-53.323-49.658zM19.147 142.975h7.119v17.304h-7.119zm464.258-38.173h6.172v54.237h-6.172zm233.653-57.96h7.955v11.225h-7.955zM123.44 98.001h15.745v7.583H123.44zM92.149 45.222c0-.742.602-1.345 1.344-1.345h11.883c.742 0 1.344.603 1.344 1.345v2.69c0 .742-.602 1.345-1.344 1.345H93.493a1.345 1.345 0 0 1-1.344-1.345v-2.69zm-33.453 0c0-.742.603-1.345 1.345-1.345h11.883c.742 0 1.344.603 1.344 1.345v2.69c0 .742-.602 1.345-1.344 1.345H60.041a1.346 1.346 0 0 1-1.345-1.345v-2.69z" fill="#77c7a9"/><circle cx="123.289" cy="81.018" r="8.429" fill="#77c7a9"/><circle cx="123.289" cy="130.4" r="8.429" fill="#77c7a9"/><circle cx="225.769" cy="130.4" r="8.429" fill="#77c7a9"/><circle cx="289.221" cy="130.931" r="8.429" fill="#77c7a9"/><circle cx="289.221" cy="99.072" r="8.429" fill="#77c7a9"/><circle cx="485.686" cy="99.072" r="8.429" fill="#77c7a9"/><circle cx="123.289" cy="17.3" r="8.429" fill="#77c7a9"/><path d="M160.813 91.258l.743.47 1.418-1.658-1.092-.821-1.069 2.009zm4.251 3.97l.52.709 1.925-1.025-.716-1.163-1.729 1.479zm2.069 5.951l.045.879 2.172.2.04-1.365-2.257.286zm-1.461 6.226l-.372.797 1.825 1.195.675-1.187-2.128-.805zm-4.146 4.531l-.712.515 1.014 1.931 1.168-.709-1.47-1.737zm1016.624 40.338v-3.806h12.303v3.806h-.04a1.05 1.05 0 0 0 0 2.099l.04-.001v2.476h-12.303v-2.475a1.05 1.05 0 1 0 0-2.099zm-1022.4-38.679l-.878-.058-.452 2.134 1.352.199-.022-2.275zm-6.15-1.011l-.73-.491-1.462 1.62 1.069.85 1.123-1.979zm-4.428-4.397l-.49-.73-1.966.944.667 1.192 1.789-1.406zM63.191 45.736h58.132v2.337H63.191zm285.634 64.388l8.09.005.033-17.148s-.02-2.674-3.147-2.978c-3.126-.304-5.502-.251-6.087-.251-.584 0 1.111 20.372 1.111 20.372m.249 6.989h10.88s3.479-.262 3.479-3.478v-1.932l-14.293-.402m8.95-14.255l-.063 9.063s3.862 2.052 6.203 4.513c5.904.627 7.377.524 11.739 2.154-1.579-4.305-8.831-14.136-17.879-15.73" fill="#77c7a9"/><path d="M364.553 111.854s1.895 6.706-6.526 6.706c-8.422 0-7.942-.163-7.942-.163l.065 23.74s4.768.568 4.768 5.032c0 4.465-4.801 4.764-4.801 4.764l-.013 1.043s9.408-.065 15.765-.552c6.357-.487 10.059-.885 15.095-6.145 5.035-5.259 2.853-13.699 2.835-14.884l-.018-1.185s-.395-7.397-.708-8.339c-.312-.941-1.686-3.98-3.991-5.856-2.304-1.877-7.212-4.478-14.529-4.161zm-30.062 0s-1.895 6.706 6.526 6.706c8.422 0 7.942-.163 7.942-.163l-.065 23.74s-4.768.568-4.768 5.032c0 4.465 4.801 4.764 4.801 4.764l.013 1.043s-9.408-.065-15.765-.552c-6.357-.487-10.059-.885-15.095-6.145-5.035-5.259-2.853-13.699-2.835-14.884l.019-1.185s.394-7.397.707-8.339c.312-.941 1.686-3.98 3.991-5.856 2.304-1.877 7.213-4.478 14.529-4.161z" fill="#77c7a9"/><path d="M349.97 117.113h-10.88s-3.478-.262-3.478-3.478v-1.932l14.292-.402m.315-1.177l-8.09.005-.033-17.148s.02-2.674 3.147-2.978c3.126-.304 5.502-.251 6.087-.251.584 0-1.111 20.372-1.111 20.372m-9.265-13.078l.063 9.063s-3.862 2.052-6.203 4.513c-5.904.627-7.377.524-11.739 2.154 1.579-4.305 8.831-14.136 17.879-15.73" fill="#77c7a9"/><ellipse cx="349.561" cy="147.155" rx="4.216" ry="3.766" fill="#77c7a9"/><path d="M289.71 94.568h48.812l-11.358 7.115c-12.532.199-21.751.118-37.222-.088-.155-6.116-.232-7.027-.232-7.027zM96.069 49.76v1.532s-2.316.697-4.399 2.446c-1.349 1.133-2.6 3.017-3.059 4.397-.657 1.973-1.597 4.325-1.229 6.937.286 2.033 1.575 4.223 3.053 6.514h18.055s3.413-2.647 3.413-8.767c0-2.744-1.262-5.824-3.241-7.803-2.436-2.435-5.683-3.474-5.683-3.474V49.76h-6.91zm6.91-6.428v-3.84l1.615-3.458-9.472-.286.947 3.172v4.412h6.91zM62.617 49.76v1.532s-2.316.697-4.399 2.446c-1.349 1.133-2.6 3.017-3.059 4.397-.657 1.973-1.597 4.325-1.229 6.937.286 2.033 1.574 4.223 3.053 6.514h18.055s3.413-2.647 3.413-8.767c0-2.744-1.262-5.824-3.241-7.803-2.436-2.435-5.683-3.474-5.683-3.474V49.76h-6.91zm6.91-6.428v-3.84l1.615-3.458-9.472-.286.947 3.172v4.412h6.91zM15.752 57.859c0-.743.603-1.345 1.345-1.345h11.882c.742 0 1.345.602 1.345 1.345v2.689c0 .743-.603 1.345-1.345 1.345H17.097a1.345 1.345 0 0 1-1.345-1.345v-2.689zm0 82.805c0-.743.603-1.345 1.345-1.345h11.882c.742 0 1.345.602 1.345 1.345v2.689c0 .743-.603 1.345-1.345 1.345H17.097a1.345 1.345 0 0 1-1.345-1.345v-2.689zm4.212-78.268v1.532s-9.055 10.408-8.687 13.02c.286 2.033 1.574 58.16 3.053 60.452h18.055s3.413-55.065 3.413-61.185c0-2.744-8.924-12.037-8.924-12.037v-1.782h-6.91zm6.91-6.428v-3.84l1.615-3.458-9.472-.286.947 3.172v4.412h6.91zm395.569 53.995l-8.09.006-.033-17.148s.02-2.675 3.147-2.979c3.126-.304 5.503-.25 6.087-.25.584 0-1.111 20.371-1.111 20.371m-.249 6.99h-10.88s-3.478-.263-3.478-3.479v-1.931l14.293-.402m-8.951-14.255l.063 9.063s-3.861 2.051-6.203 4.513c-5.904.626-7.377.523-11.738 2.153 1.579-4.304 8.831-14.135 17.878-15.729" fill="#77c7a9"/><path d="M406.715 111.693s-1.895 6.707 6.526 6.707c8.422 0 7.942-.164 7.942-.164l-.065 23.741s-4.768.567-4.768 5.032c0 4.464 4.801 4.764 4.801 4.764l.014 1.042s-9.409-.064-15.766-.552c-6.357-.487-10.059-.885-15.094-6.144-5.036-5.26-2.854-13.699-2.836-14.885l.019-1.185s.395-7.396.707-8.338c.312-.942 1.687-3.98 3.991-5.857 2.304-1.877 7.213-4.478 14.529-4.161zm30.063 0s1.894 6.707-6.527 6.707-7.942-.164-7.942-.164l.065 23.741s4.768.567 4.768 5.032c0 4.464-4.801 4.764-4.801 4.764l-.013 1.042s9.409-.064 15.765-.552c6.357-.487 10.059-.885 15.095-6.144 5.036-5.26 2.854-13.699 2.835-14.885l-.018-1.185s-.395-7.396-.707-8.338c-.313-.942-1.687-3.98-3.991-5.857-2.305-1.877-7.213-4.478-14.529-4.161z" fill="#77c7a9"/><path d="M421.298 116.953h10.88s3.479-.263 3.479-3.479v-1.931l-14.293-.402m-.314-1.178l8.09.006.032-17.148s-.02-2.675-3.146-2.979c-3.127-.304-5.503-.25-6.087-.25-.585 0 1.111 20.371 1.111 20.371m9.264-13.077l-.063 9.063s3.862 2.051 6.203 4.513c5.904.626 7.377.523 11.739 2.153-1.579-4.304-8.831-14.135-17.879-15.729" fill="#77c7a9"/><ellipse cx="421.707" cy="146.994" rx="4.216" ry="3.766" fill="#77c7a9"/><path d="M481.559 94.407h-48.813l11.358 7.115c12.533.199 21.751.118 37.223-.088.154-6.116.232-7.027.232-7.027zm157.062-64.565v46.839h77.217V29.842h-77.217zm2.212 2.499h72.956v42.037h-72.956V32.341z" fill="#77c7a9"/><path d="M702.758 80.845a11.91 11.91 0 0 1 3.819.677 11.994 11.994 0 0 1 7.259 7.17 11.906 11.906 0 0 1 .726 3.957c.114 17.111.001 34.223.001 51.334a11.934 11.934 0 0 1-.677 3.966 11.994 11.994 0 0 1-7.171 7.259 11.957 11.957 0 0 1-3.957.726c-6.507.041-13.014.001-19.521.001a11.867 11.867 0 0 1-3.827-.63 11.99 11.99 0 0 1-7.398-7.218 11.906 11.906 0 0 1-.726-3.958c-.106-17.11-.001-34.222-.001-51.333a11.975 11.975 0 0 1 .677-3.966 11.997 11.997 0 0 1 7.171-7.259 11.957 11.957 0 0 1 3.957-.726c6.556-.042 13.112-.042 19.668 0zm-19.507 4.557a7.332 7.332 0 0 0-2.55.449 7.453 7.453 0 0 0-4.44 4.495 7.37 7.37 0 0 0-.418 2.361 4187.918 4187.918 0 0 0 0 51.365 7.37 7.37 0 0 0 1.634 4.54 7.459 7.459 0 0 0 3.224 2.316 7.321 7.321 0 0 0 2.447.448c6.517.042 13.035.042 19.552 0a7.321 7.321 0 0 0 2.447-.448 7.436 7.436 0 0 0 4.41-4.41 7.384 7.384 0 0 0 .448-2.447c.113-17.12.113-34.242 0-51.363a7.384 7.384 0 0 0-.448-2.447 7.44 7.44 0 0 0-4.495-4.441 7.311 7.311 0 0 0-2.362-.417c-6.483-.041-12.966-.001-19.449-.001z" fill="#77c7a9" fill-rule="nonzero"/><path d="M711.766 89.252v57.844h-37.97V89.252h37.97zm-6.272 6.205h-25.442v6.749h25.442v-6.749z" fill="#77c7a9"/><path d="M534.11 80.845a11.936 11.936 0 0 1 7.886 3.108 12.022 12.022 0 0 1 3.192 4.74 11.957 11.957 0 0 1 .726 3.956c.113 17.111.001 34.223.001 51.334a11.933 11.933 0 0 1-.677 3.966 12.012 12.012 0 0 1-2.627 4.277 12.013 12.013 0 0 1-4.544 2.982 11.985 11.985 0 0 1-3.957.726c-6.507.041-13.015.001-19.522.001a11.876 11.876 0 0 1-3.827-.63 11.982 11.982 0 0 1-4.311-2.576 12.017 12.017 0 0 1-3.087-4.643 11.899 11.899 0 0 1-.726-3.957c-.106-17.11-.001-34.222-.001-51.333a11.96 11.96 0 0 1 .629-3.827 11.999 11.999 0 0 1 7.219-7.398 11.985 11.985 0 0 1 3.957-.726c6.556-.042 13.113-.042 19.669 0zm-19.507 4.557a7.332 7.332 0 0 0-4.781 1.748 7.446 7.446 0 0 0-2.179 3.11 7.335 7.335 0 0 0-.448 2.447 4148.41 4148.41 0 0 0 0 51.365 7.335 7.335 0 0 0 .448 2.447 7.449 7.449 0 0 0 4.409 4.409 7.35 7.35 0 0 0 2.447.448c6.518.042 13.035.042 19.553 0a7.327 7.327 0 0 0 2.446-.448 7.45 7.45 0 0 0 4.41-4.409 7.335 7.335 0 0 0 .448-2.448c.113-17.12.113-34.242 0-51.363a7.35 7.35 0 0 0-.448-2.448 7.45 7.45 0 0 0-4.41-4.409 7.327 7.327 0 0 0-2.446-.448c-6.483-.041-12.966-.001-19.449-.001z" fill="#77c7a9" fill-rule="nonzero"/><path d="M543.117 89.252v57.844h-37.97V89.252h37.97zm-6.272 6.205h-25.442v6.749h25.442v-6.749zM61.667 88.973h7.119v72.733h-7.119z" fill="#77c7a9"/><path d="M58.272 86.662c0-.742.603-1.345 1.345-1.345h11.882c.742 0 1.345.603 1.345 1.345v2.69c0 .742-.603 1.345-1.345 1.345H59.617a1.346 1.346 0 0 1-1.345-1.345v-2.69zm36.821 2.311h7.119v67.404h-7.119z" fill="#77c7a9"/><path d="M91.698 86.662c0-.742.602-1.345 1.345-1.345h11.882c.742 0 1.345.603 1.345 1.345v2.69c0 .742-.603 1.345-1.345 1.345H93.043a1.345 1.345 0 0 1-1.345-1.345v-2.69z" fill="#77c7a9"/><path d="M31.995 57.308c.378.003.755.014 1.132.037.348.022.695.052 1.04.094 1.101.131 2.193.366 3.236.744 1.049.38 2.047.906 2.924 1.597a9.1 9.1 0 0 1 .968.884 9.256 9.256 0 0 1 1.219 1.616c.312.532.618 1.068.925 1.603.952 1.668 1.89 3.348 2.695 5.094a30.57 30.57 0 0 1 1.277 3.209c.601 1.811 1.006 3.679 1.283 5.565.102.696.188 1.395.261 2.095.046.437.084.875.127 1.312.019.185.039.369.061.553.248 2.023.679 4.03 1.395 5.941.449 1.198 1.01 2.361 1.728 3.421.143.21.292.417.447.617.125.161.254.318.388.471.789.905 1.762 1.691 2.906 2.091a4.947 4.947 0 0 0 1.602.284 22.855 22.855 0 0 0 3.196-.105 22.657 22.657 0 0 0 2.577-.412 15.788 15.788 0 0 0 1.642-.444l.036-.013c.028-.008.056-.017.085-.022a.514.514 0 0 1 .341.055.536.536 0 0 1 .238.68.537.537 0 0 1-.232.255c-.026.014-.054.024-.081.036-.083.029-.168.056-.252.083-.72.224-1.454.4-2.194.541a24.317 24.317 0 0 1-5.397.409 8.113 8.113 0 0 1-.562-.037 6.027 6.027 0 0 1-1.89-.523c-1.466-.667-2.649-1.838-3.571-3.139a15.629 15.629 0 0 1-.981-1.597 18.41 18.41 0 0 1-.601-1.241 20.88 20.88 0 0 1-.642-1.655 24.448 24.448 0 0 1-.578-1.966 28.27 28.27 0 0 1-.502-2.483 30.19 30.19 0 0 1-.197-1.501c-.054-.499-.095-1-.147-1.5a66.057 66.057 0 0 0-.099-.882 39.041 39.041 0 0 0-.657-3.888 28.052 28.052 0 0 0-1.048-3.546c-.711-1.922-1.64-3.754-2.629-5.546-.366-.663-.739-1.322-1.117-1.978-.248-.432-.495-.864-.747-1.294a8.264 8.264 0 0 0-1.185-1.54 7.87 7.87 0 0 0-.747-.667c-1.565-1.235-3.528-1.853-5.484-2.104a19.048 19.048 0 0 0-2.064-.14 21.084 21.084 0 0 0-3.046.187c-.359.049-.717.106-1.072.179l-.027.005c-.029.004-.058.01-.087.012a.519.519 0 0 1-.456-.22.537.537 0 0 1-.027-.581.538.538 0 0 1 .262-.225c.027-.011.056-.017.084-.025.122-.027.245-.05.368-.072a22.224 22.224 0 0 1 3.605-.324h.271z" fill="#77c7a9" fill-rule="nonzero"/><path fill="#77c7a9" d="M1129.91 125.585h2.835v6.891h-2.835zm.2-42.165h2.835v4.731h-2.835zm-1.71 8.586c0-.295.24-.535.536-.535h4.732c.295 0 .535.24.535.535v1.071c0 .296-.24.536-.535.536h-4.732a.536.536 0 0 1-.536-.536v-1.071z"/><path d="M1128.56 124.665c0-.296.24-.536.535-.536h4.732c.296 0 .535.24.535.536v1.071a.535.535 0 0 1-.535.535h-4.732a.536.536 0 0 1-.535-.535v-1.071zm1.4-30.852v.61s-3.606 4.145-3.46 5.185c.114.81.627 23.161 1.216 24.073h7.19s1.359-21.928 1.359-24.365c0-1.092-3.554-4.793-3.554-4.793v-.71h-2.751zm2.751-2.56v-1.529l.643-1.377-3.777.024.474 1.345-.024 1.519 2.684.018z" fill="#77c7a9"/><path d="M1137.91 92.063c.378.003.755.014 1.132.037.347.022.694.052 1.04.094 1.101.131 2.193.366 3.236.744a10.47 10.47 0 0 1 2.924 1.598 8.986 8.986 0 0 1 2.187 2.5c.312.532.618 1.067.925 1.602.952 1.668 1.89 3.348 2.695 5.094a30.877 30.877 0 0 1 1.277 3.209c.601 1.811 1.006 3.679 1.283 5.565.102.696.188 1.395.261 2.096.046.436 7.68 22.905 7.723 23.342l.061.553c.248 2.023.679 4.03 1.396 5.941.449 1.197 1.009 2.361 1.728 3.421a11.647 11.647 0 0 0 .834 1.088c.79.905 1.762 1.691 2.907 2.091a4.953 4.953 0 0 0 1.602.284 23.09 23.09 0 0 0 5.773-.518 15.46 15.46 0 0 0 1.641-.444l.037-.012c.028-.008.056-.017.085-.022a.54.54 0 0 1 .341.054.538.538 0 0 1 .238.68.542.542 0 0 1-.233.256c-.025.014-.053.024-.08.036-.084.029-.168.056-.252.083-.72.224-1.454.4-2.194.541a24.317 24.317 0 0 1-4.762.424 19.22 19.22 0 0 1-.635-.016 5.992 5.992 0 0 1-1.803-.305 6.339 6.339 0 0 1-.65-.254c-1.466-.667-2.648-1.839-3.57-3.139a15.403 15.403 0 0 1-.981-1.598c-.217-.405-.416-.82-.601-1.24a20.902 20.902 0 0 1-.642-1.656 23.907 23.907 0 0 1-.578-1.965 28.345 28.345 0 0 1-.502-2.483 31.596 31.596 0 0 1-.198-1.501c-.054-.5-7.691-23.031-7.743-23.531a66.057 66.057 0 0 0-.099-.882 39.041 39.041 0 0 0-.657-3.888 28.101 28.101 0 0 0-1.048-3.546c-.711-1.922-1.64-3.754-2.629-5.546-.366-.663-.739-1.321-1.117-1.978-.248-.431-.496-.864-.748-1.294a8.103 8.103 0 0 0-1.185-1.54 7.859 7.859 0 0 0-.746-.667c-1.566-1.234-3.528-1.853-5.484-2.104a18.343 18.343 0 0 0-2.064-.139c-.531-.007-1.865-.031-2.751-.269-.35-.093-1.012-.199-1.367-.126l-.027.006c-.029.004-.058.01-.087.011a.513.513 0 0 1-.331-.097.537.537 0 0 1-.152-.704.532.532 0 0 1 .262-.224c.027-.011.056-.017.084-.026.122-.026.355.067.377.194 1.191-.209 2.388.183 3.596.17h.271zM29.306 59.264c.426.022.85.062 1.273.112.557.066 1.112.15 1.664.249 1.498.269 2.977.65 4.418 1.139 2.405.817 4.712 1.943 6.79 3.408a22.662 22.662 0 0 1 2.938 2.462c.849.845 1.629 1.76 2.327 2.734a22.537 22.537 0 0 1 2.67 4.957c.432 1.109.78 2.25 1.054 3.408.205.869.359 1.749.517 2.627.281 1.558.545 3.119.786 4.683.344 2.237.644 4.481.867 6.733.186 1.878.32 3.762.36 5.648.012.536.013 1.071.009 1.606l-.002.178a105.224 105.224 0 0 1 2.316.097c4.778.255 9.551.799 14.228 1.83a62.45 62.45 0 0 1 4.021 1.024c.41.12.818.244 1.225.373.297.094.592.19.89.281a29.62 29.62 0 0 0 2.279.604c.431.095.865.179 1.302.247a16.816 16.816 0 0 0 1.858.189c.212.008.424.011.636.007 1.2-.018 2.432-.229 3.478-.845a4.985 4.985 0 0 0 1.236-1.032c.448-.515.789-1.112 1.072-1.731.225-.491.413-.997.613-1.498.049-.119.099-.239.15-.357.08-.179.164-.356.263-.525.071-.122.152-.237.228-.356.06-.097.06-.096.117-.193.22-.382.417-.776.611-1.171.177-.362.352-.725.533-1.085l.215-.419c.125-.235.251-.468.386-.697.094-.16.192-.319.293-.475.539-.828 1.212-1.616 2.111-2.062a3.519 3.519 0 0 1 1.758-.365.68.68 0 0 1 .31.071.536.536 0 0 1 .206.723.534.534 0 0 1-.377.266c-.083.014-.169.003-.253 0h-.124a2.415 2.415 0 0 0-.842.167c-.673.263-1.196.804-1.617 1.374a9.947 9.947 0 0 0-.548.84c-.1.171-.197.345-.291.52-.142.266-.279.535-.412.806-.196.398-.388.797-.586 1.194-.063.125-.128.251-.193.376-.105.197-.212.394-.328.586-.081.134-.171.263-.254.396-.027.043-.051.087-.076.131a8.398 8.398 0 0 0-.351.796c-.104.264-.207.528-.313.79a11.764 11.764 0 0 1-.625 1.334 7.447 7.447 0 0 1-.873 1.262 6.038 6.038 0 0 1-1.614 1.317c-1.416.792-3.083.985-4.682.913a17.526 17.526 0 0 1-1.762-.178 22.25 22.25 0 0 1-1.355-.249 29.25 29.25 0 0 1-1.621-.4 39.51 39.51 0 0 1-1.017-.299c-.352-.109-.701-.223-1.052-.333a62.129 62.129 0 0 0-3.633-.997c-2.794-.672-5.632-1.157-8.484-1.505a101.374 101.374 0 0 0-9.081-.679c-.01.241-.022.482-.037.723a26.18 26.18 0 0 1-.383 3.23c-.146.77-.337 1.533-.602 2.271-.43 1.201-1.07 2.37-2.062 3.197a4.842 4.842 0 0 1-2.306 1.062c-.49.086-.991.103-1.488.068-.667-.047-1.321-.189-1.963-.37a13.384 13.384 0 0 1-1.373-.47c-1.271-.523-2.485-1.303-3.278-2.448a5.039 5.039 0 0 1-.317-.522 4.809 4.809 0 0 1-.518-1.635c-.187-1.467.308-2.966 1.204-4.125a6.12 6.12 0 0 1 .534-.603c.641-.632 1.442-1.131 2.329-1.324.195-.042.392-.068.591-.079.168-.008.337-.009.506-.013l.46-.012a160.251 160.251 0 0 1 4.748-.075c.908 0 1.815.011 2.722.028l.199.005a56.624 56.624 0 0 0-.125-4.418 89.388 89.388 0 0 0-.398-4.386c-.425-3.732-1.036-7.441-1.72-11.133l-.083-.429a28.908 28.908 0 0 0-.233-1.041 24.679 24.679 0 0 0-.691-2.334 21.74 21.74 0 0 0-2.618-5.174 20.613 20.613 0 0 0-3.547-3.93c-2.801-2.405-6.192-4.056-9.736-5.043a29.6 29.6 0 0 0-3.198-.703 22.237 22.237 0 0 0-2.244-.258l-.064-.003-.053-.002-.118-.019c-.037-.014-.075-.025-.11-.044a.514.514 0 0 1-.238-.258.536.536 0 0 1 .391-.734c.039-.007.079-.005.119-.008l.058.002zm21.272 40.947c-.861.004-1.723.013-2.584.032-.861.018-1.722.043-2.583.062a4.117 4.117 0 0 0-.192.011c-.81.085-1.542.527-2.113 1.091-.18.177-.346.369-.497.572-.727.976-1.122 2.241-.903 3.455a3.64 3.64 0 0 0 .374 1.082c.55 1.045 1.543 1.775 2.589 2.274a10.784 10.784 0 0 0 1.251.494c.223.072.448.138.675.199.297.079.597.149.901.2.718.12 1.463.139 2.173-.039a3.72 3.72 0 0 0 1.051-.438c.288-.175.55-.389.785-.63.357-.366.649-.792.892-1.241a9.382 9.382 0 0 0 .72-1.784c.208-.694.357-1.406.47-2.122.152-.969.237-1.947.286-2.927l.007-.144.005-.116a106.932 106.932 0 0 0-2.031-.029c-.425-.002-.85-.003-1.276-.002z" fill="#77c7a9" fill-rule="nonzero"/><path d="M65.77 71.883s-.029 3.328 2.828 6.873c1.383 1.715.325 6.349-3.431 6.386-4.69.047-4.139-4.834-3.109-7.159.649-1.464 2.051-2.858 1.44-5.183 1.847 1.654-.782 7.218 2.003 7.195 2.661-.022-1.387-4.592.269-8.112z" fill="#77c7a9"/><path d="M65.491 76.846c-1.708 2.027-1.496 4.298-.005 4.456 1.49.158 1.701-1.129 1.085-1.773-.616-.644-1.446-.258-1.08-2.683zm1119.559 58.489s-.035 3.961 3.366 8.182c1.645 2.041.386 7.557-4.085 7.601-5.582.056-4.927-5.754-3.7-8.522.772-1.742 2.442-3.401 1.713-6.17 2.199 1.97-.93 8.593 2.386 8.566 3.167-.026-1.652-5.467.32-9.657z" fill="#77c7a9"/><path d="M1184.72 141.244c-2.033 2.411-1.78 5.115-.006 5.303 1.773.188 2.025-1.344 1.292-2.111-.733-.766-1.721-.306-1.286-3.192z" fill="#77c7a9"/><path d="M1180.1 140.423c-1.291 3.425-.271 6.69 1.51 6.52 1.781-.171 1.588-2.111.655-2.887-.933-.776-1.764.013-2.165-3.633zm7.57-2.103c2.034 4.366 1.781 9.26.007 9.6-1.774.341-2.025-2.433-1.292-3.821.733-1.387 1.721-.555 1.285-5.779zM99.196 71.883s-.029 3.328 2.828 6.873c1.382 1.715.324 6.349-3.432 6.386-4.689.047-4.138-4.834-3.108-7.159.649-1.464 2.051-2.858 1.439-5.183 1.848 1.654-.781 7.218 2.004 7.195 2.661-.022-1.387-4.592.269-8.112z" fill="#77c7a9"/><path d="M95.994 74.208c-1.472 2.535-1.253 5.355.059 5.536 1.313.181 1.48-1.421.929-2.214-.551-.794-1.275-.306-.988-3.322zm6.464.268c1.25 3.629.541 7.424-.971 7.497-1.512.073-1.44-2.12-.688-3.124s1.49-.247 1.659-4.373zm959.182 44.816h-26.423a3.8 3.8 0 0 1-3.792-3.804V82.365a3.8 3.8 0 0 1 3.792-3.804h26.423a3.8 3.8 0 0 1 3.793 3.804v33.123a3.8 3.8 0 0 1-3.793 3.804zm-13.153-3.254a1.234 1.234 0 1 1 0 2.469c-.679 0-1.23-.553-1.23-1.235 0-.681.551-1.234 1.23-1.234zm13.926-34.093h-28.11v33.234h28.11V81.945zm-797.652 72.697H250.67a4.768 4.768 0 0 1-4.759-4.772v-31.079c0-2.633 2.134-4.772 4.759-4.772h14.091c2.627 0 4.759 2.139 4.759 4.772v31.079a4.767 4.767 0 0 1-4.759 4.772zm-6.973-4.082c.854 0 1.545.694 1.545 1.549 0 .854-.691 1.548-1.545 1.548a1.546 1.546 0 0 1-1.542-1.548c0-.855.691-1.549 1.542-1.549zm8.897-33.249H248.57v32.172h18.115v-32.172z" fill="#77c7a9"/><circle cx="1021.85" cy="71.236" r="11.575" fill="#77c7a9"/><path d="M938.667 25.738a16.746 16.746 0 0 1 11.19 4.368 16.925 16.925 0 0 1 3.668 4.789 16.732 16.732 0 0 1 1.539 4.47 16.93 16.93 0 0 1 .152 5.423 16.73 16.73 0 0 1-1.466 4.948 16.871 16.871 0 0 1-8.652 8.292 16.825 16.825 0 0 1-12.89.079 16.89 16.89 0 0 1-8.796-8.278 16.72 16.72 0 0 1-1.481-4.832 16.906 16.906 0 0 1 .066-5.322c.264-1.528.74-3.019 1.415-4.415a16.868 16.868 0 0 1 8.047-7.951 16.752 16.752 0 0 1 7.208-1.571zm-.207 1.5a15.221 15.221 0 0 0-6.197 1.353 15.395 15.395 0 0 0-7.377 7.071 15.207 15.207 0 0 0-1.341 3.892 15.447 15.447 0 0 0-.157 5.035 15.257 15.257 0 0 0 4.481 8.905 15.367 15.367 0 0 0 4.735 3.153 15.3 15.3 0 0 0 5.856 1.203c2.011.012 4.019-.37 5.881-1.132a15.358 15.358 0 0 0 7.973-7.458 15.185 15.185 0 0 0 1.374-4.385c.26-1.7.234-3.443-.08-5.134a15.231 15.231 0 0 0-1.418-4.162 15.388 15.388 0 0 0-7.251-6.95 15.214 15.214 0 0 0-6.182-1.39l-.297-.001z" fill="#77c7a9" fill-rule="nonzero"/><path d="M938.84 24.241a18.199 18.199 0 0 1 7.577 1.768 18.417 18.417 0 0 1 5.894 4.458 18.326 18.326 0 0 1 3.507 5.968 18.357 18.357 0 0 1-.095 12.481 18.306 18.306 0 0 1-4.688 7.02 18.354 18.354 0 0 1-5.98 3.725 18.337 18.337 0 0 1-12.889.04 18.367 18.367 0 0 1-10.898-11.136 18.352 18.352 0 0 1 .167-12.501 18.42 18.42 0 0 1 5.488-7.648 18.28 18.28 0 0 1 3.902-2.466 18.293 18.293 0 0 1 4.836-1.483 19.546 19.546 0 0 1 2.545-.226c.211-.002.423-.003.634 0zm-.37 4.497c-.646.009-1.29.053-1.929.147a13.672 13.672 0 0 0-3.787 1.131 13.884 13.884 0 0 0-7.094 7.598 13.85 13.85 0 0 0-.047 9.735 13.764 13.764 0 0 0 1.889 3.459 13.862 13.862 0 0 0 5.843 4.523 13.82 13.82 0 0 0 5.294 1.019 13.815 13.815 0 0 0 5.056-.988 13.863 13.863 0 0 0 7.877-8.198 13.82 13.82 0 0 0 .788-4.982 13.778 13.778 0 0 0-.944-4.673 13.841 13.841 0 0 0-2.772-4.389 13.896 13.896 0 0 0-4.44-3.177 13.673 13.673 0 0 0-3.661-1.063 14.52 14.52 0 0 0-2.073-.142zM155.299 84.811c.785.007 1.568.064 2.344.178 1.539.225 3.045.666 4.462 1.308a16.889 16.889 0 0 1 8.051 7.671 16.725 16.725 0 0 1 1.539 4.469 16.93 16.93 0 0 1 .152 5.423 16.696 16.696 0 0 1-1.465 4.949 16.897 16.897 0 0 1-8.652 8.292 16.82 16.82 0 0 1-6.431 1.321 16.799 16.799 0 0 1-6.459-1.243 16.873 16.873 0 0 1-8.797-8.278 16.735 16.735 0 0 1-1.481-4.831 16.912 16.912 0 0 1 .067-5.323c.264-1.528.74-3.018 1.414-4.415a16.918 16.918 0 0 1 2.846-4.162 16.916 16.916 0 0 1 5.201-3.788 16.675 16.675 0 0 1 6.775-1.568c.145-.003.289-.004.434-.003zm-.208 1.5a15.226 15.226 0 0 0-10.325 4.102 15.414 15.414 0 0 0-3.249 4.321 15.205 15.205 0 0 0-1.34 3.892 15.42 15.42 0 0 0-.157 5.035 15.24 15.24 0 0 0 4.48 8.906 15.376 15.376 0 0 0 4.735 3.152 15.285 15.285 0 0 0 5.856 1.203c2.011.013 4.02-.369 5.882-1.131a15.386 15.386 0 0 0 7.973-7.459 15.176 15.176 0 0 0 1.374-4.385 15.463 15.463 0 0 0-.08-5.133 15.21 15.21 0 0 0-1.419-4.162 15.368 15.368 0 0 0-7.25-6.95 15.216 15.216 0 0 0-6.183-1.39l-.297-.001z" fill="#77c7a9" fill-rule="nonzero"/><path d="M155.472 83.313c.799.017 1.597.076 2.388.191 1.796.263 3.551.797 5.189 1.577a18.416 18.416 0 0 1 5.894 4.459 18.35 18.35 0 0 1 3.507 5.967 18.356 18.356 0 0 1-.096 12.482 18.288 18.288 0 0 1-4.688 7.019 18.338 18.338 0 0 1-6.085 3.766 18.347 18.347 0 0 1-12.994-.081 18.366 18.366 0 0 1-10.687-11.056 18.322 18.322 0 0 1-1.016-6.068 18.315 18.315 0 0 1 1.183-6.433 18.396 18.396 0 0 1 3.723-5.987 18.341 18.341 0 0 1 5.666-4.127 18.326 18.326 0 0 1 4.837-1.483 19.357 19.357 0 0 1 2.544-.225c.212-.003.423-.004.635-.001zm-.371 4.498a13.74 13.74 0 0 0-5.716 1.277 13.899 13.899 0 0 0-7.093 7.598 13.829 13.829 0 0 0-.047 9.735 13.763 13.763 0 0 0 1.797 3.336 13.868 13.868 0 0 0 6.013 4.678c1.6.642 3.322.976 5.046.987a13.883 13.883 0 0 0 3.861-.522 13.32 13.32 0 0 0 1.441-.497 13.985 13.985 0 0 0 3.335-1.948 13.914 13.914 0 0 0 4.33-5.853c.606-1.563.919-3.234.928-4.911a13.814 13.814 0 0 0-.816-4.76 13.853 13.853 0 0 0-2.627-4.432 13.906 13.906 0 0 0-4.337-3.306 13.74 13.74 0 0 0-5.729-1.379c-.129-.003-.257-.003-.386-.003z" fill="#77c7a9" fill-rule="nonzero"/><circle cx="1005.67" cy="87.688" r="10.079" fill="#77c7a9"/><circle cx="992.016" cy="101.466" r="8.909" fill="#77c7a9"/><path d="M1088.81 11.649V158.64h-5.142V11.77l5.142-.121zm3.85 2.246h90.234s5.611-.18 5.611 5.612v28.534h-5.418V18.762h-92.342l1.915-4.867z" fill="#77c7a9"/><path d="M981.404 128.625h146.928s5.611-.18 5.611 5.611v28.535h-5.418v-29.279H981.613l-.209-4.867zM1107.35 17.38h4.217v14.879h-4.217zm33.45 0h4.217v14.879h-4.217zm-50.2 62.162h87.012v4.089H1090.6zm-5.46-62.919l-4.102-4.405-49.07 45.698 4.102 4.404 49.07-45.697z" fill="#77c7a9"/><path d="M1036.99 59.927l-2.673-2.87-53.322 49.658 2.673 2.87 53.322-49.658zm15.55 71.118h8.379v30.451h-8.379zm125.06 17.025h13.47v1.804h-13.47zM723.158 29.425h4.627v129.839h-4.627zM598.294 145.068h20.129v11.225h-20.129z" fill="#77c7a9"/><path fill="#77c7a9" d="M-.145 155.797h1226.41v11.743H-.145zM1045.3 119.786h6.089v11.234h-6.089zm71.76-74.339c0-.742-.603-1.345-1.345-1.345h-11.882c-.742 0-1.345.603-1.345 1.345v2.69c0 .742.603 1.345 1.345 1.345h11.882c.742 0 1.345-.603 1.345-1.345v-2.69zm33.45 0c0-.742-.602-1.345-1.345-1.345h-11.882c-.742 0-1.345.603-1.345 1.345v2.69c0 .742.603 1.345 1.345 1.345h11.882c.743 0 1.345-.603 1.345-1.345v-2.69z"/><circle cx="1085.92" cy="81.243" r="8.429" fill="#77c7a9"/><circle cx="1085.92" cy="130.625" r="8.429" fill="#77c7a9"/><circle cx="981.919" cy="130.625" r="8.429" fill="#77c7a9"/><circle cx="937.987" cy="131.156" r="8.429" fill="#77c7a9"/><circle cx="937.987" cy="99.297" r="8.429" fill="#77c7a9"/><circle cx="725.522" cy="99.297" r="8.429" fill="#77c7a9"/><circle cx="725.478" cy="33.16" r="6.195" fill="#77c7a9"/><circle cx="1085.92" cy="17.525" r="8.429" fill="#77c7a9"/><path d="M1175.03 55.005h19.401s-2.477 1.263-2.628 5.626c-.151 4.363.22 15.983.22 15.983h-14.461s.827-14.72.199-16.76c-.628-2.039-2.731-4.849-2.731-4.849zm17.15 30.957l.054 1.268s8.35 3.397 10.941 6.102c2.59 2.705 6.858 9.742 7.071 14.325.213 4.583-3.084 11.293-6.117 15.428-3.034 4.136-10.514 8.995-13.714 10.352-3.2 1.356-12.522 2.721-20.184-4.456-7.662-7.176-9.31-10.892-10.647-17.399-1.337-6.508 2.176-14.678 7.922-19.575 5.746-4.897 10.136-5.086 10.136-5.086l.055-.882 14.483-.077zM930.804 46.994l12.76-8.12-.685-1.155 4.65-.467-2.109 3.422-.943-.728-12.774 8.374-.899-1.326m18.213-9.82l-.471-.743 1.658-1.418.821 1.092-2.008 1.069zm-3.97-4.251l-.71-.52 1.025-1.926 1.164.716-1.479 1.73zm-5.952-2.069l-.878-.045-.201-2.172 1.366-.04-.287 2.257zm-6.226 1.461l-.797.372-1.195-1.825 1.188-.675.804 2.128zm-4.53 4.146l-.516.712-1.931-1.014.71-1.168 1.737 1.47zm-1.66 5.776l.058.877-2.134.453-.199-1.352 2.275.022zm1.012 6.15l.49.73-1.619 1.462-.85-1.07 1.979-1.122zm4.396 4.428l.731.489-.945 1.967-1.192-.668 1.406-1.788zm155.793-6.854h58.132v2.337h-58.132zm114.35 33.7c0-1.01-.82-1.83-1.83-1.83h-30.195a1.83 1.83 0 0 0-1.829 1.83v3.659a1.83 1.83 0 0 0 1.829 1.829h30.195c1.01 0 1.83-.82 1.83-1.829v-3.659zM286.78 98.74v62.823h4.682V98.792l-4.682-.052zm-63.642 11.67l6.172-5.841v61.397h-6.172V110.41zm-29.48 20.52h6.172v32.785h-6.172zm-30.172-.11h6.172v30.346h-6.172zm821.824-20.185l-6.172-5.841v61.397h6.172v-55.556zm24.07 20.52h6.172v31.729h-6.172z" fill="#77c7a9"/></svg>