<svg viewBox="0 0 812 302" xmlns="http://www.w3.org/2000/svg" fill-rule="evenodd" clip-rule="evenodd" stroke-linejoin="round" stroke-miterlimit="1.414"><circle cx="704.822" cy="286.893" r="4.952" fill="#a7d1ff"/><path d="M144.395 279.604a3.438 3.438 0 0 0 1.986-4.435 3.438 3.438 0 0 0-4.435-1.986 3.438 3.438 0 0 0-1.986 4.435 3.438 3.438 0 0 0 4.435 1.986z" fill="#7d9dbf"/><path d="M144.436 279.588a3.494 3.494 0 0 0 1.172-.771 3.454 3.454 0 0 0 .967-2.892 3.45 3.45 0 0 0-.866-1.848 3.45 3.45 0 0 0-2.251-1.108 3.485 3.485 0 0 0-1.429.183 3.385 3.385 0 0 0-1.112.647 3.447 3.447 0 0 0-1.152 3.063c.103.741.451 1.442.982 1.969a3.449 3.449 0 0 0 3.481.832c.07-.024.14-.048.208-.075zm-.858-2.08a1.186 1.186 0 1 1-.814-2.229 1.186 1.186 0 0 1 .814 2.229z" fill="none"/><path d="M90.811 295.633a3.739 3.739 0 1 0-2.667-6.986 3.739 3.739 0 0 0 2.667 6.986z" fill="#7d9dbf"/><path d="M90.856 295.616a3.769 3.769 0 0 0 1.337-.905 3.756 3.756 0 0 0 1.018-2.348 3.764 3.764 0 0 0-.604-2.271 3.766 3.766 0 0 0-.692-.788 3.759 3.759 0 0 0-2.305-.9 3.73 3.73 0 0 0-3.424 1.967 3.768 3.768 0 0 0-.412 2.279 3.737 3.737 0 0 0 5.082 2.966zm-.866-2.078a1.486 1.486 0 0 1-1.625-.408 1.502 1.502 0 0 1-.363-1.183 1.525 1.525 0 0 1 .448-.883 1.47 1.47 0 0 1 .48-.307 1.45 1.45 0 0 1 .556-.106 1.532 1.532 0 0 1 .992.386 1.5 1.5 0 0 1 .49 1.1 1.486 1.486 0 0 1-.904 1.372l-.074.029z" fill="none"/><path d="M154.175 144.089c7.033 2.77 14.993-.691 17.764-7.724 2.77-7.034-.691-14.994-7.724-17.764-7.034-2.771-14.994.69-17.764 7.724-2.771 7.034.69 14.993 7.724 17.764zm-51.571-47.301c6.464 2.546 13.779-.634 16.325-7.098 2.546-6.464-.635-13.779-7.098-16.325-6.464-2.546-13.779.635-16.325 7.098-2.546 6.464.634 13.779 7.098 16.325zm-44.29-30.22c6.464 2.546 13.779-.635 16.325-7.099 2.546-6.464-.635-13.778-7.098-16.325-6.464-2.546-13.779.635-16.325 7.099-2.546 6.464.634 13.779 7.098 16.325z" fill="#96bce5"/><path d="M122.707 281.581c7.168-2.734 10.767-10.774 8.033-17.942-2.734-7.168-10.774-10.768-17.942-8.033-7.168 2.734-10.768 10.774-8.033 17.942 2.734 7.168 10.774 10.767 17.942 8.033z" fill="#7d9dbf"/><path d="M122.791 281.549a13.817 13.817 0 0 0 4.939-3.275 13.989 13.989 0 0 0 3.843-8.182c.13-1.185.106-2.386-.072-3.565a13.998 13.998 0 0 0-2.309-5.835 13.82 13.82 0 0 0-2.128-2.421 13.972 13.972 0 0 0-8.823-3.572 13.915 13.915 0 0 0-5.359.875 13.907 13.907 0 0 0-4.625 2.864 13.962 13.962 0 0 0-4.306 8.49 13.863 13.863 0 0 0-.015 3.219 14 14 0 0 0 2.091 5.916 13.782 13.782 0 0 0 2.29 2.739 13.959 13.959 0 0 0 8.272 3.645 13.849 13.849 0 0 0 6.202-.898zm-.957-2.044a11.565 11.565 0 0 1-4.913.711 11.722 11.722 0 0 1-7.079-3.068 11.51 11.51 0 0 1-1.917-2.293 11.735 11.735 0 0 1-1.736-4.817 11.594 11.594 0 0 1 .991-6.332 11.698 11.698 0 0 1 2.512-3.528 11.648 11.648 0 0 1 3.837-2.443 11.657 11.657 0 0 1 4.489-.791 11.692 11.692 0 0 1 7.435 2.906 11.558 11.558 0 0 1 1.805 2.002 11.742 11.742 0 0 1 1.996 4.868c.161.986.194 1.992.097 2.986a11.711 11.711 0 0 1-3.14 6.901 11.57 11.57 0 0 1-4.377 2.898z" fill="none"/><path d="M159.413 239.677c7.222-2.755 10.849-10.855 8.094-18.078-2.755-7.223-10.856-10.85-18.078-8.094-7.223 2.755-10.85 10.855-8.095 18.078 2.756 7.222 10.856 10.849 18.079 8.094z" fill="#7d9dbf"/><path d="M159.497 239.645a13.916 13.916 0 0 0 4.977-3.3 14.081 14.081 0 0 0 3.872-8.244 13.937 13.937 0 0 0-.004-3.076 14.101 14.101 0 0 0-2.201-6.107 13.91 13.91 0 0 0-2.338-2.728 14.084 14.084 0 0 0-8.89-3.599 14.005 14.005 0 0 0-5.484.914 13.996 13.996 0 0 0-4.699 2.971 14.065 14.065 0 0 0-4.235 8.605 13.937 13.937 0 0 0 .005 3.076 14.1 14.1 0 0 0 2.2 6.107 13.977 13.977 0 0 0 5.998 5.108 14.108 14.108 0 0 0 4.72 1.191 13.927 13.927 0 0 0 5.91-.854l.169-.064zm-.958-2.043a11.648 11.648 0 0 1-4.957.717 11.828 11.828 0 0 1-7.038-3 11.655 11.655 0 0 1-1.714-1.925 11.836 11.836 0 0 1-2.058-5.201 11.655 11.655 0 0 1-.04-2.867 11.822 11.822 0 0 1 3.453-7.127 11.777 11.777 0 0 1 8.218-3.367 11.792 11.792 0 0 1 4.035.713 11.768 11.768 0 0 1 5.316 3.893 11.84 11.84 0 0 1 2.272 5.262 11.679 11.679 0 0 1-.609 6.041 11.819 11.819 0 0 1-2.461 3.936 11.649 11.649 0 0 1-4.062 2.786c-.118.048-.236.094-.355.139z" fill="none"/><path d="M25.647 102.473c4.701 1.852 10.02-.461 11.872-5.162 1.851-4.7-.462-10.02-5.162-11.872-4.701-1.851-10.021.462-11.872 5.163-1.852 4.7.461 10.02 5.162 11.871z" fill="#96bce5"/><path d="M217.446 220.435c4.72-1.8 7.09-7.094 5.29-11.815-1.801-4.72-7.095-7.091-11.815-5.29-4.721 1.801-7.091 7.095-5.291 11.815 1.801 4.721 7.095 7.091 11.816 5.29z" fill="#7d9dbf"/><path d="M217.556 220.393a9.099 9.099 0 0 0 3.197-2.135 9.185 9.185 0 0 0 2.447-7.961 9.27 9.27 0 0 0-1.003-2.841 9.114 9.114 0 0 0-1.719-2.22 9.202 9.202 0 0 0-6.085-2.506 9.147 9.147 0 0 0-3.472.6 9.159 9.159 0 0 0-2.991 1.865 9.207 9.207 0 0 0-2.87 5.922 9.124 9.124 0 0 0 .197 2.801 9.24 9.24 0 0 0 1.144 2.787 9.111 9.111 0 0 0 4.244 3.618 9.19 9.19 0 0 0 2.883.691 9.075 9.075 0 0 0 3.807-.537l.221-.084zm-.996-2.028a6.87 6.87 0 0 1-2.869.405 6.977 6.977 0 0 1-4.009-1.652 6.824 6.824 0 0 1-1.322-1.524 6.964 6.964 0 0 1-.909-2.178 6.86 6.86 0 0 1 .502-4.505 6.931 6.931 0 0 1 1.515-2.073 6.906 6.906 0 0 1 4.872-1.859 6.948 6.948 0 0 1 4.593 1.892 6.86 6.86 0 0 1 1.293 1.671c.395.718.664 1.506.786 2.316.101.667.102 1.348.004 2.015a6.985 6.985 0 0 1-1.879 3.82 6.862 6.862 0 0 1-2.41 1.608l-.167.064z" fill="none"/><path d="M284.936 57.83c5.656 1.269 9.218 6.892 7.949 12.549-1.269 5.656-6.892 9.218-12.549 7.949-5.657-1.27-9.219-6.893-7.949-12.549 1.269-5.657 6.892-9.219 12.549-7.949z" fill="#7d9dbf"/><path d="M495.698 39.055c8.629-.174 15.775 6.69 15.949 15.319.174 8.628-6.69 15.774-15.319 15.948-8.628.174-15.775-6.69-15.949-15.319-.173-8.628 6.691-15.775 15.319-15.948zm66.511-20.831c6.507-.132 11.897 5.045 12.028 11.552.131 6.508-5.046 11.897-11.553 12.028-6.507.131-11.897-5.045-12.028-11.553-.131-6.507 5.046-11.896 11.553-12.027z" fill="#96bce5"/><path d="M617.965 89.269c4.641-.094 8.485 3.598 8.578 8.239.093 4.64-3.598 8.484-8.239 8.577-4.641.094-8.484-3.598-8.578-8.239-.093-4.64 3.599-8.484 8.239-8.577zm42.912 3.682c8.243 2.558 12.858 11.327 10.3 19.569-2.558 8.243-11.327 12.858-19.569 10.3-8.243-2.558-12.858-11.327-10.3-19.569 2.558-8.243 11.327-12.858 19.569-10.3z" fill="#7d9dbf"/><circle cx="659.417" cy="208.821" r="15.637" fill="#a7d1ff"/><path d="M659.518 193.184a15.556 15.556 0 0 1 6.418 1.422 15.738 15.738 0 0 1 5.054 3.703 15.68 15.68 0 0 1 2.834 4.428 15.506 15.506 0 0 1 1.003 3.414 15.754 15.754 0 0 1-.091 5.82 15.577 15.577 0 0 1-1.616 4.384 15.68 15.68 0 0 1-7.883 6.982 15.65 15.65 0 0 1-11.462.07 15.673 15.673 0 0 1-4.73-2.888 15.763 15.763 0 0 1-3.239-3.999 15.597 15.597 0 0 1-1.798-10.369 15.553 15.553 0 0 1 3.836-7.842 15.742 15.742 0 0 1 4.968-3.663 15.547 15.547 0 0 1 6.403-1.461l.303-.001zm-.188 2.25a13.321 13.321 0 0 0-5.492 1.216 13.475 13.475 0 0 0-6.819 7.114 13.3 13.3 0 0 0-.779 2.686c-.3 1.673-.279 3.404.062 5.069a13.312 13.312 0 0 0 1.344 3.679 13.492 13.492 0 0 0 2.773 3.531 13.423 13.423 0 0 0 3.941 2.49c1.548.632 3.212.967 4.884.988a13.407 13.407 0 0 0 4.926-.868 13.418 13.418 0 0 0 4.005-2.397 13.481 13.481 0 0 0 2.855-3.462 13.322 13.322 0 0 0 1.45-3.717 13.5 13.5 0 0 0 .129-5.23 13.278 13.278 0 0 0-.794-2.769 13.43 13.43 0 0 0-2.276-3.7 13.506 13.506 0 0 0-4.249-3.275 13.31 13.31 0 0 0-5.96-1.355z" fill="none"/><circle cx="667.218" cy="276.48" r="15.637" fill="#a7d1ff"/><path d="M667.319 260.843a15.556 15.556 0 0 1 6.418 1.422 15.708 15.708 0 0 1 7.888 8.131 15.49 15.49 0 0 1 1.003 3.414 15.754 15.754 0 0 1-.091 5.82 15.577 15.577 0 0 1-1.616 4.384 15.7 15.7 0 0 1-7.883 6.982 15.65 15.65 0 0 1-11.462.07 15.673 15.673 0 0 1-4.73-2.888 15.763 15.763 0 0 1-3.239-3.999 15.597 15.597 0 0 1-1.798-10.369 15.553 15.553 0 0 1 3.836-7.842 15.76 15.76 0 0 1 4.968-3.664 15.581 15.581 0 0 1 6.403-1.46l.303-.001zm-.188 2.25a13.284 13.284 0 0 0-5.492 1.216 13.475 13.475 0 0 0-6.819 7.114 13.344 13.344 0 0 0-.765 2.604 13.503 13.503 0 0 0 .032 5.069c.26 1.312.72 2.585 1.359 3.76a13.464 13.464 0 0 0 6.715 6.022c1.548.632 3.212.967 4.884.988a13.407 13.407 0 0 0 4.926-.868 13.439 13.439 0 0 0 8.291-9.495c.408-1.764.452-3.611.134-5.394a13.368 13.368 0 0 0-.78-2.686 13.45 13.45 0 0 0-6.526-6.975 13.258 13.258 0 0 0-5.526-1.351 20.771 20.771 0 0 0-.433-.004z" fill="none"/><circle cx="599.506" cy="224.03" r="10.708" fill="#a7d1ff"/><path d="M599.645 213.323a10.632 10.632 0 0 1 4.385 1 10.76 10.76 0 0 1 5.012 4.834c.46.896.791 1.858.981 2.847.222 1.159.251 2.354.088 3.523a10.662 10.662 0 0 1-.953 3.144 10.76 10.76 0 0 1-5.606 5.275 10.71 10.71 0 0 1-4.046.792c-1.384 0-2.764-.268-4.046-.792a10.744 10.744 0 0 1-5.605-5.275 10.632 10.632 0 0 1-.953-3.144 10.766 10.766 0 0 1 .088-3.523c.189-.989.521-1.951.98-2.847a10.766 10.766 0 0 1 5.013-4.834 10.615 10.615 0 0 1 4.385-1h.277zm-.249 2.249a8.435 8.435 0 0 0-3.461.789 8.55 8.55 0 0 0-3.867 3.641 8.403 8.403 0 0 0-.848 2.323 8.527 8.527 0 0 0-.09 2.89c.12.859.375 1.698.751 2.479a8.512 8.512 0 0 0 4.431 4.17 8.472 8.472 0 0 0 6.389 0 8.519 8.519 0 0 0 4.43-4.17 8.393 8.393 0 0 0 .751-2.48 8.437 8.437 0 0 0-.938-5.212 8.54 8.54 0 0 0-3.867-3.641 8.393 8.393 0 0 0-3.461-.789h-.22z" fill="none"/><circle cx="561.206" cy="220.2" r="10.708" fill="#a7d1ff"/><path d="M561.344 209.492a10.665 10.665 0 0 1 7.248 2.958 10.67 10.67 0 0 1 3.13 5.724c.222 1.159.252 2.354.088 3.523a10.662 10.662 0 0 1-.953 3.144 10.765 10.765 0 0 1-5.605 5.275 10.713 10.713 0 0 1-4.046.792c-1.385 0-2.765-.268-4.046-.792a10.749 10.749 0 0 1-5.606-5.275c-.478-.991-.8-2.055-.953-3.144a10.821 10.821 0 0 1 .088-3.523 10.67 10.67 0 0 1 3.13-5.724 10.665 10.665 0 0 1 7.248-2.958h.277zm-.248 2.25a8.417 8.417 0 0 0-3.461.789 8.548 8.548 0 0 0-3.868 3.641 8.403 8.403 0 0 0-.848 2.323 8.527 8.527 0 0 0-.089 2.89c.12.858.374 1.697.751 2.479a8.492 8.492 0 0 0 1.791 2.457 8.48 8.48 0 0 0 2.639 1.713 8.472 8.472 0 0 0 6.389 0 8.48 8.48 0 0 0 2.639-1.713 8.424 8.424 0 0 0 2.543-4.937 8.548 8.548 0 0 0-.09-2.889 8.403 8.403 0 0 0-.848-2.323 8.548 8.548 0 0 0-3.868-3.641 8.382 8.382 0 0 0-3.461-.789h-.219z" fill="none"/><circle cx="710.096" cy="232.578" r="10.708"/><path d="M710.235 221.871a10.667 10.667 0 0 1 7.248 2.957c.871.83 1.601 1.806 2.149 2.877.46.896.791 1.858.981 2.847.222 1.159.251 2.355.088 3.523a10.662 10.662 0 0 1-.953 3.144 10.77 10.77 0 0 1-5.606 5.276 10.728 10.728 0 0 1-8.092 0 10.747 10.747 0 0 1-6.558-8.42 10.794 10.794 0 0 1 .088-3.523 10.67 10.67 0 0 1 3.13-5.724 10.66 10.66 0 0 1 7.248-2.957h.277zm-.248 2.25a8.435 8.435 0 0 0-3.462.788 8.545 8.545 0 0 0-3.867 3.641 8.403 8.403 0 0 0-.848 2.323 8.452 8.452 0 0 0 .661 5.369 8.512 8.512 0 0 0 4.431 4.17 8.452 8.452 0 0 0 3.194.624 8.472 8.472 0 0 0 3.195-.624 8.496 8.496 0 0 0 4.43-4.17c.377-.781.631-1.62.751-2.479a8.528 8.528 0 0 0-.089-2.89 8.373 8.373 0 0 0-.849-2.323 8.546 8.546 0 0 0-3.867-3.641 8.428 8.428 0 0 0-3.461-.788h-.219z" fill="none"/><circle cx="710.096" cy="232.578" r="10.708" fill="#a7d1ff"/><path d="M710.235 221.871a10.667 10.667 0 0 1 7.248 2.957c.871.83 1.601 1.806 2.149 2.877.46.896.791 1.858.981 2.847.222 1.159.251 2.355.088 3.523a10.662 10.662 0 0 1-.953 3.144 10.77 10.77 0 0 1-5.606 5.276 10.728 10.728 0 0 1-8.092 0 10.747 10.747 0 0 1-6.558-8.42 10.794 10.794 0 0 1 .088-3.523 10.67 10.67 0 0 1 3.13-5.724 10.66 10.66 0 0 1 7.248-2.957h.277zm-.248 2.25a8.435 8.435 0 0 0-3.462.788 8.545 8.545 0 0 0-3.867 3.641 8.403 8.403 0 0 0-.848 2.323 8.452 8.452 0 0 0 .661 5.369 8.512 8.512 0 0 0 4.431 4.17 8.452 8.452 0 0 0 3.194.624 8.472 8.472 0 0 0 3.195-.624 8.496 8.496 0 0 0 4.43-4.17c.377-.781.631-1.62.751-2.479a8.528 8.528 0 0 0-.089-2.89 8.373 8.373 0 0 0-.849-2.323 8.546 8.546 0 0 0-3.867-3.641 8.428 8.428 0 0 0-3.461-.788h-.219z" fill="none"/><circle cx="733.47" cy="188.691" r="14.364" fill="#a7d1ff"/><path d="M733.562 174.327a14.277 14.277 0 0 1 5.975 1.343 14.438 14.438 0 0 1 6.879 6.796 14.263 14.263 0 0 1 1.089 3.157 14.46 14.46 0 0 1-.266 7.168 14.26 14.26 0 0 1-1.31 3.047 14.417 14.417 0 0 1-2.804 3.483 14.378 14.378 0 0 1-4.228 2.671 14.333 14.333 0 0 1-5.335 1.062 14.38 14.38 0 0 1-5.357-.996 14.412 14.412 0 0 1-8.504-9.267 14.453 14.453 0 0 1-.303-6.993 14.252 14.252 0 0 1 1.05-3.175 14.43 14.43 0 0 1 6.64-6.802 14.288 14.288 0 0 1 6.474-1.494zm-.171 2.25a12.018 12.018 0 0 0-5.037 1.131 12.201 12.201 0 0 0-5.804 5.735c-.43.892-.749 1.836-.948 2.806-.389 1.9-.317 3.892.213 5.757.256.899.617 1.767 1.073 2.583a12.209 12.209 0 0 0 6.006 5.321c1.425.582 2.958.885 4.497.894 1.542.01 3.082-.273 4.518-.839a12.192 12.192 0 0 0 6.07-5.249 12.058 12.058 0 0 0 1.58-6.804 11.66 11.66 0 0 0-.192-1.512 12.14 12.14 0 0 0-.915-2.824 12.124 12.124 0 0 0-1.919-2.919 12.21 12.21 0 0 0-3.816-2.886 12.029 12.029 0 0 0-5.012-1.192l-.314-.002z" fill="none"/><path d="M735.898 188.877l-24.162 43.37 33.623 4.833-.32 2.227-36.503-5.247-.181-.366 24.9-44.696-29.094-42.562 1.858-1.269 29.879 43.71z" fill="#a7d1ff" fill-rule="nonzero"/><circle cx="589.17" cy="250.092" r="4.952" fill="#a7d1ff"/><path d="M589.234 245.14a4.941 4.941 0 0 1 2.028.463 4.997 4.997 0 0 1 2.262 2.129 4.946 4.946 0 0 1-.895 5.903 4.947 4.947 0 0 1-3.395 1.409 4.97 4.97 0 0 1-1.879-.343 4.982 4.982 0 0 1-2.622-2.409 4.938 4.938 0 0 1-.448-3.015c.076-.461.219-.91.422-1.331a4.993 4.993 0 0 1 2.263-2.291 4.917 4.917 0 0 1 2.264-.515zm-.099 2.25a2.715 2.715 0 0 0-1.104.251 2.73 2.73 0 0 0-1.494 1.84 2.725 2.725 0 0 0 .182 1.751 2.727 2.727 0 0 0 1.401 1.351c.321.136.667.207 1.015.211a2.689 2.689 0 0 0 1.899-.746c.236-.225.431-.493.573-.787a2.66 2.66 0 0 0 .234-.755c.05-.328.041-.667-.03-.992a2.733 2.733 0 0 0-.279-.736 2.737 2.737 0 0 0-1.193-1.123 2.726 2.726 0 0 0-1.098-.264l-.106-.001z" fill="none"/><circle cx="745.675" cy="238.38" r="4.315" fill="#a7d1ff"/><path d="M745.73 234.065a4.307 4.307 0 0 1 1.768.403 4.35 4.35 0 0 1 1.971 1.856 4.329 4.329 0 0 1 .118 3.879 4.333 4.333 0 0 1-2.233 2.153 4.316 4.316 0 1 1-1.846-8.288c.074-.003.148-.003.222-.003zm-.082 2.25a2.07 2.07 0 0 0-.844.192 2.086 2.086 0 0 0-1.147 1.431 2.067 2.067 0 0 0 2.797 2.355 2.074 2.074 0 0 0 1.227-2.406 2.09 2.09 0 0 0-1.114-1.37 2.094 2.094 0 0 0-.838-.202h-.081z" fill="none"/><circle cx="636.296" cy="257.417" r="4.952" fill="#a7d1ff"/><path d="M636.36 252.465a4.941 4.941 0 0 1 2.028.463 4.999 4.999 0 0 1 2.262 2.13 4.928 4.928 0 0 1 .558 2.99 4.961 4.961 0 0 1-4.848 4.321 4.967 4.967 0 0 1-1.879-.343 4.97 4.97 0 0 1-3.08-3.855 4.975 4.975 0 0 1 .431-2.9 5 5 0 0 1 2.264-2.291 4.94 4.94 0 0 1 2.264-.515zm-.099 2.25c-.382.008-.758.09-1.105.251a2.734 2.734 0 0 0-1.485 1.807 2.721 2.721 0 0 0 .174 1.783 2.71 2.71 0 0 0 3.501 1.352 2.726 2.726 0 0 0 1.401-1.351 2.687 2.687 0 0 0 .182-1.751 2.732 2.732 0 0 0-1.494-1.84 2.748 2.748 0 0 0-1.104-.251h-.07z" fill="none"/><path d="M663.279 135.673a6.017 6.017 0 0 1 3.962 7.527 6.018 6.018 0 0 1-7.528 3.962 6.018 6.018 0 0 1-3.962-7.527 6.018 6.018 0 0 1 7.528-3.962z" fill="#7d9dbf"/><path d="M434.37 210.844a7.903 7.903 0 0 0 1.327 11.092 7.904 7.904 0 0 0 11.092-1.327 7.903 7.903 0 0 0-1.327-11.092 7.903 7.903 0 0 0-11.092 1.327z" fill="#96bce5"/><path d="M434.308 210.924a7.834 7.834 0 0 0-1.42 2.999 7.972 7.972 0 0 0 .518 5.111c.31.675.716 1.305 1.204 1.867a7.875 7.875 0 0 0 7.096 2.642 7.932 7.932 0 0 0 2.779-.949 7.908 7.908 0 0 0 3.957-7.617 7.937 7.937 0 0 0-.771-2.731 7.833 7.833 0 0 0-1.388-1.986 7.976 7.976 0 0 0-2.083-1.556 7.847 7.847 0 0 0-2.098-.729 7.972 7.972 0 0 0-5.089.702 7.864 7.864 0 0 0-2.579 2.087l-.126.16zm1.877 1.253a5.588 5.588 0 0 1 1.842-1.491 5.705 5.705 0 0 1 3.509-.528 5.63 5.63 0 0 1 3.173 1.712c.379.405.698.866.942 1.365a5.669 5.669 0 0 1 .36 4.049c-.2.701-.54 1.36-.991 1.934a5.631 5.631 0 0 1-3.635 2.098 5.638 5.638 0 0 1-5.076-1.891 5.574 5.574 0 0 1-.83-1.269 5.713 5.713 0 0 1-.415-3.655 5.613 5.613 0 0 1 1.121-2.324z" fill="none"/><path d="M454.875 209.553a3.85 3.85 0 0 0 .646 5.403 3.848 3.848 0 1 0-.646-5.403z" fill="#96bce5"/><circle cx="705.397" cy="145.963" r="6.537" fill="#a7d1ff"/><path d="M705.481 139.426a6.51 6.51 0 0 1 2.677.611 6.595 6.595 0 0 1 3.06 2.951c.28.547.483 1.134.598 1.738.136.707.154 1.437.054 2.15a6.555 6.555 0 0 1-4.003 5.14 6.539 6.539 0 0 1-2.47.483 6.535 6.535 0 0 1-2.47-.483 6.558 6.558 0 0 1-4.003-5.14 6.575 6.575 0 0 1 .053-2.15 6.486 6.486 0 0 1 .599-1.738 6.595 6.595 0 0 1 3.06-2.951 6.489 6.489 0 0 1 2.676-.611h.169zm-.14 2.25a4.234 4.234 0 0 0-1.753.4 4.329 4.329 0 0 0-1.937 1.801 4.254 4.254 0 0 0-.499 2.687 4.248 4.248 0 0 0 1.251 2.465 4.31 4.31 0 0 0 1.327.884 4.286 4.286 0 0 0 4.586-.813c.378-.352.693-.773.923-1.236a4.313 4.313 0 0 0 .368-2.714 4.301 4.301 0 0 0-.345-1.043 4.33 4.33 0 0 0-1.963-1.986 4.223 4.223 0 0 0-1.958-.445z" fill="none"/><path d="M794.103 97.882c5.881 1.825 9.173 8.081 7.348 13.961-1.825 5.88-8.08 9.173-13.96 7.348-5.881-1.825-9.173-8.081-7.348-13.961 1.825-5.88 8.08-9.172 13.96-7.348z" fill="#7d9dbf"/><path d="M794.241 97.926a11.096 11.096 0 0 1 6.298 5.181 11.228 11.228 0 0 1 1.251 3.526 11.09 11.09 0 0 1 .096 3.135 11.274 11.274 0 0 1-1 3.532 11.116 11.116 0 0 1-5.133 5.228 11.18 11.18 0 0 1-3.992 1.124 11.158 11.158 0 0 1-10.706-5.685 11.13 11.13 0 0 1-1.271-7.216 11.238 11.238 0 0 1 1.175-3.477 11.109 11.109 0 0 1 1.855-2.53 11.203 11.203 0 0 1 6.48-3.262 11.118 11.118 0 0 1 4.947.444zm-.915 2.072a8.832 8.832 0 0 0-3.727-.287 8.992 8.992 0 0 0-5.024 2.454 8.84 8.84 0 0 0-1.578 2.071 8.996 8.996 0 0 0-.992 2.877 8.85 8.85 0 0 0-.018 2.728 8.96 8.96 0 0 0 3.153 5.576 8.898 8.898 0 0 0 3.018 1.625 8.906 8.906 0 0 0 3.407.369 8.942 8.942 0 0 0 7.237-4.968 9.017 9.017 0 0 0 .848-2.925 8.84 8.84 0 0 0-.059-2.393 8.977 8.977 0 0 0-2.731-5.112 8.852 8.852 0 0 0-3.534-2.015z" fill="none"/><path d="M805.71 79.357a6.077 6.077 0 0 1 4.001 7.602 6.077 6.077 0 0 1-7.602 4.001 6.078 6.078 0 0 1-4.001-7.602 6.079 6.079 0 0 1 7.602-4.001z" fill="#7d9dbf"/><path d="M554.417 63.21a8.049 8.049 0 0 1 9.041 6.906 8.048 8.048 0 0 1-6.906 9.041 8.05 8.05 0 0 1-9.041-6.906 8.05 8.05 0 0 1 6.906-9.041z" fill="#96bce5"/><path d="M701.42 28.826a6.223 6.223 0 0 1 4.097 7.784 6.224 6.224 0 0 1-7.784 4.097 6.223 6.223 0 0 1-4.097-7.784 6.222 6.222 0 0 1 7.784-4.097zm63.447 61.339a6.224 6.224 0 0 1 4.097 7.784 6.223 6.223 0 0 1-7.784 4.097 6.222 6.222 0 0 1-4.097-7.784 6.223 6.223 0 0 1 7.784-4.097z" fill="#7d9dbf"/><path d="M764.943 90.19a6.21 6.21 0 0 1 2.261 1.309 6.283 6.283 0 0 1 1.949 3.545 6.208 6.208 0 0 1-.505 3.718 6.188 6.188 0 0 1-2.861 2.915 6.255 6.255 0 0 1-2.226.627 6.21 6.21 0 0 1-2.381-.258 6.21 6.21 0 0 1-4.31-5.027 6.203 6.203 0 0 1 .013-1.909 6.2 6.2 0 0 1 1.689-3.349 6.275 6.275 0 0 1 3.613-1.819 6.186 6.186 0 0 1 2.758.248zm-.793 2.109a4.011 4.011 0 0 0-1.659-.128 4.017 4.017 0 0 0-2.277 1.129 3.917 3.917 0 0 0-.668.888c-.227.413-.38.868-.45 1.335a3.942 3.942 0 0 0 .461 2.515c.241.433.563.82.945 1.136.409.337.886.588 1.394.738a3.957 3.957 0 0 0 3.424-.569 3.959 3.959 0 0 0 1.215-5.086 3.959 3.959 0 0 0-2.385-1.958z" fill="none"/><path d="M654.793 19.76a5.03 5.03 0 0 1 5.128 4.926 5.03 5.03 0 0 1-4.926 5.129 5.032 5.032 0 0 1-5.128-4.926 5.03 5.03 0 0 1 4.926-5.129zM629.153.113a5.605 5.605 0 0 1 5.714 5.489 5.605 5.605 0 0 1-5.489 5.714 5.605 5.605 0 0 1-5.714-5.489 5.605 5.605 0 0 1 5.489-5.714zm-96.249 90.979a7.357 7.357 0 0 1 8.265 6.312 7.357 7.357 0 0 1-6.313 8.265 7.356 7.356 0 0 1-8.264-6.313 7.356 7.356 0 0 1 6.312-8.264z" fill="#96bce5"/><path d="M712.715 72.387c7.305 2.267 11.396 10.039 9.128 17.345-2.267 7.305-10.039 11.396-17.344 9.128-7.306-2.267-11.396-10.039-9.129-17.344 2.267-7.306 10.039-11.396 17.345-9.129z" fill="#7d9dbf"/><path d="M712.8 72.414a13.772 13.772 0 0 1 5.122 2.945 13.932 13.932 0 0 1 4.342 7.899c.204 1.171.256 2.368.154 3.552a13.955 13.955 0 0 1-1.929 5.952 13.764 13.764 0 0 1-1.964 2.544 13.928 13.928 0 0 1-8.553 4.112 13.888 13.888 0 0 1-10.171-3.089 13.909 13.909 0 0 1-5.031-11.549c.129-2.1.744-4.167 1.781-5.998a13.806 13.806 0 0 1 5.602-5.421 13.943 13.943 0 0 1 4.586-1.472 13.792 13.792 0 0 1 5.804.446l.257.079zm-.824 2.1a11.54 11.54 0 0 0-4.931-.396 11.674 11.674 0 0 0-6.846 3.498 11.5 11.5 0 0 0-1.761 2.402 11.688 11.688 0 0 0-1.412 4.757c-.07.943-.023 1.895.14 2.828a11.683 11.683 0 0 0 3.957 6.899 11.603 11.603 0 0 0 3.971 2.187c1.453.461 2.994.636 4.514.503a11.647 11.647 0 0 0 4.156-1.17 11.703 11.703 0 0 0 3.054-2.19 11.524 11.524 0 0 0 1.742-2.228 11.695 11.695 0 0 0 1.603-4.844 11.548 11.548 0 0 0-1.221-6.418 11.702 11.702 0 0 0-2.43-3.223 11.512 11.512 0 0 0-4.25-2.514 9.496 9.496 0 0 0-.286-.091z" fill="none"/><path d="M793.925 48.206a6.342 6.342 0 0 1 4.175 7.933 6.342 6.342 0 0 1-7.933 4.175 6.342 6.342 0 0 1-4.175-7.933 6.341 6.341 0 0 1 7.933-4.175z" fill="#7d9dbf"/><path d="M4.866 90.171a5.231 5.231 0 0 0 6.782-2.949 5.23 5.23 0 0 0-2.949-6.782 5.23 5.23 0 0 0-6.782 2.949 5.231 5.231 0 0 0 2.949 6.782zm130.179 56.137a3.873 3.873 0 1 0-2.184-5.022 3.874 3.874 0 0 0 2.184 5.022zm44.4-90.079a3.874 3.874 0 0 1 2.429 4.908 3.873 3.873 0 0 1-7.337-2.479 3.873 3.873 0 0 1 4.908-2.429z" fill="#96bce5"/><path d="M233.83 231.941a3.874 3.874 0 0 0 2.238-4.998 3.873 3.873 0 0 0-7.236 2.761 3.874 3.874 0 0 0 4.998 2.237z" fill="#7d9dbf"/><path d="M233.876 231.923a3.912 3.912 0 0 0 1.386-.937 3.907 3.907 0 0 0 1.06-2.573 3.892 3.892 0 0 0-.606-2.17 3.88 3.88 0 0 0-4.6-1.555 3.89 3.89 0 0 0-1.242.743 3.904 3.904 0 0 0-1.242 2.243 3.873 3.873 0 0 0 5.244 4.249zm-.868-2.076a1.647 1.647 0 0 1-.692.094 1.652 1.652 0 0 1-1.105-.569 1.632 1.632 0 0 1-.372-1.24 1.638 1.638 0 0 1 .518-1.008 1.627 1.627 0 0 1 1.683-.311 1.628 1.628 0 0 1 1.032 1.468 1.64 1.64 0 0 1-.432 1.146c-.16.172-.356.306-.572.396l-.06.024z" fill="none"/><path d="M110.602 61.331a3.875 3.875 0 0 0 5.022-2.184 3.874 3.874 0 0 0-2.184-5.022 3.874 3.874 0 0 0-5.022 2.184 3.874 3.874 0 0 0 2.184 5.022zM83.656 44.886a3.438 3.438 0 0 0 4.457-1.938 3.438 3.438 0 0 0-1.938-4.457 3.438 3.438 0 0 0-2.519 6.395z" fill="#96bce5"/><path d="M167.585 255.034a3.438 3.438 0 0 0 1.986-4.435 3.438 3.438 0 0 0-4.435-1.986 3.438 3.438 0 0 0-1.986 4.435 3.438 3.438 0 0 0 4.435 1.986z" fill="#7d9dbf"/><path d="M167.627 255.018a3.414 3.414 0 0 0 1.798-1.642 3.427 3.427 0 0 0 .341-2.021 3.432 3.432 0 0 0-1.852-2.596 3.441 3.441 0 0 0-2.695-.177 3.436 3.436 0 1 0 2.408 6.436zm-.858-2.081a1.176 1.176 0 0 1-.919-.044 1.177 1.177 0 0 1-.672-.967 1.202 1.202 0 0 1 .323-.92 1.174 1.174 0 0 1 .842-.369 1.19 1.19 0 0 1 .952 1.917 1.192 1.192 0 0 1-.526.383z" fill="none"/><path d="M49.513 257.329a3.768 3.768 0 1 0-2.685-7.038 3.768 3.768 0 0 0 2.685 7.038z" fill="#7d9dbf"/><path d="M49.559 257.312c.509-.206.97-.512 1.348-.912a3.798 3.798 0 0 0 1.025-2.367 3.754 3.754 0 0 0-2.389-3.732 3.75 3.75 0 0 0-2.67-.029 3.77 3.77 0 0 0-1.208.722 3.769 3.769 0 0 0-1.201 2.138 3.784 3.784 0 0 0 .923 3.217 3.774 3.774 0 0 0 4.172.963zm-.866-2.078a1.518 1.518 0 1 1-1.046-2.849 1.518 1.518 0 0 1 1.046 2.849z" fill="none"/><path d="M34.226 44.969a3.439 3.439 0 0 0 4.457-1.938 3.439 3.439 0 0 0-1.938-4.457 3.438 3.438 0 0 0-4.457 1.938 3.438 3.438 0 0 0 1.938 4.457z" fill="#96bce5"/><path d="M292.601 215.583a3.437 3.437 0 0 1-.383 6.862 3.437 3.437 0 0 1 .383-6.862z" fill="#77c7a9"/><path d="M292.646 215.585c.471.036.93.161 1.35.38a3.456 3.456 0 0 1 1.522 1.582 3.461 3.461 0 0 1 .015 2.903 3.45 3.45 0 0 1-3.226 1.999 3.414 3.414 0 0 1-2.287-.967 3.445 3.445 0 0 1-.996-1.881 3.45 3.45 0 0 1 .975-3.036 3.437 3.437 0 0 1 2.647-.98zm-.186 2.243a1.197 1.197 0 0 0-.502.088c-.31.129-.56.391-.67.709a1.205 1.205 0 0 0 .004.787 1.184 1.184 0 0 0 .547.642 1.2 1.2 0 0 0 .915.096 1.213 1.213 0 0 0 .803-.831c.051-.193.053-.4.004-.594a1.2 1.2 0 0 0-.962-.883 2.11 2.11 0 0 0-.139-.014z" fill="#a7d1ff" fill-rule="nonzero"/><path d="M352.402 215.228l-.337 2.225-43.033-6.521-16.28 8.982-1.087-1.97 16.949-9.351 43.788 6.635z" fill="#a7d1ff" fill-rule="nonzero"/><path d="M54.486 143.555a6.325 6.325 0 0 0 8.198-3.565 6.324 6.324 0 0 0-3.565-8.198 6.324 6.324 0 0 0-8.198 3.565 6.325 6.325 0 0 0 3.565 8.198z" fill="#96bce5"/><path d="M88.489 191.949a6.324 6.324 0 0 0 3.653-8.159 6.323 6.323 0 0 0-8.159-3.653 6.325 6.325 0 0 0-3.653 8.159 6.325 6.325 0 0 0 8.159 3.653z" fill="#7d9dbf"/><path d="M88.565 191.919a6.292 6.292 0 0 0 2.208-1.474 6.374 6.374 0 0 0 1.748-3.721 6.293 6.293 0 0 0-.751-3.738 6.27 6.27 0 0 0-1.187-1.533 6.362 6.362 0 0 0-4.202-1.731 6.322 6.322 0 0 0-4.463 1.703 6.355 6.355 0 0 0-1.981 4.089 6.287 6.287 0 0 0 .136 1.934 6.293 6.293 0 0 0 1.929 3.289 6.376 6.376 0 0 0 3.782 1.611 6.26 6.26 0 0 0 2.629-.371l.152-.058zm-.927-2.054a4.018 4.018 0 0 1-1.691.239 4.115 4.115 0 0 1-2.328-.943 4.034 4.034 0 0 1-1.364-2.265 4.012 4.012 0 0 1-.076-1.192 4.091 4.091 0 0 1 1.277-2.637 4.073 4.073 0 0 1 4.353-.778 4.05 4.05 0 0 1 1.966 1.739 4.078 4.078 0 0 1 .498 2.549 4.12 4.12 0 0 1-1.082 2.267 4.049 4.049 0 0 1-1.405.964l-.148.057z" fill="none"/><path d="M309.372 203.13a6.326 6.326 0 0 1 5.959 6.664 6.324 6.324 0 0 1-6.664 5.959 6.323 6.323 0 0 1-5.959-6.664 6.324 6.324 0 0 1 6.664-5.959z" fill="#a7d1ff"/><path d="M309.453 203.136a6.308 6.308 0 0 1 2.552.733 6.383 6.383 0 0 1 2.795 3.014 6.29 6.29 0 0 1 .484 1.711 6.31 6.31 0 0 1-2.166 5.659c-.6.511-1.295.909-2.04 1.167a6.329 6.329 0 0 1-7.9-3.561 6.277 6.277 0 0 1-.458-1.884 6.345 6.345 0 0 1 .839-3.719 6.377 6.377 0 0 1 3.114-2.684 6.25 6.25 0 0 1 2.617-.446c.082.004.081.004.163.01zm-.26 2.238a4.028 4.028 0 0 0-1.683.286 4.12 4.12 0 0 0-1.984 1.69 4.04 4.04 0 0 0-.443 1.049 4.11 4.11 0 0 0-.121 1.388c.033.399.126.792.275 1.164a4.116 4.116 0 0 0 1.993 2.149 4.087 4.087 0 0 0 3.066.209 4.092 4.092 0 0 0 2.696-2.972c.105-.472.127-.964.062-1.443a4.03 4.03 0 0 0-.351-1.187 4.118 4.118 0 0 0-1.634-1.783 4.113 4.113 0 0 0-1.876-.55z" fill="none"/><path d="M186.209 101.231a7.049 7.049 0 0 0 9.139-3.974 7.049 7.049 0 0 0-3.974-9.139 7.05 7.05 0 0 0-9.139 3.974 7.05 7.05 0 0 0 3.974 9.139z" fill="#96bce5"/><path d="M186.294 101.264a7.03 7.03 0 0 0 2.926.445 7.11 7.11 0 0 0 4.235-1.751 7 7 0 0 0 1.287-1.507 7.04 7.04 0 0 0 .442-6.74 7.083 7.083 0 0 0-1.523-2.133 7.053 7.053 0 0 0-11.002 1.622 7.093 7.093 0 0 0-.795 2.178 6.995 6.995 0 0 0-.087 1.98 7.11 7.11 0 0 0 1.904 4.169 6.95 6.95 0 0 0 1.56 1.235 7.302 7.302 0 0 0 1.053.502zm.682-2.15a4.76 4.76 0 0 1-1.662-1.134 4.855 4.855 0 0 1-1.285-2.727 4.796 4.796 0 0 1 1.457-4.056 4.827 4.827 0 0 1 3.191-1.319 4.762 4.762 0 0 1 1.814.311c.581.22 1.118.551 1.572.975a4.827 4.827 0 0 1 1.422 4.508 4.83 4.83 0 0 1-1.431 2.52 4.85 4.85 0 0 1-2.857 1.263 4.77 4.77 0 0 1-2.221-.341z" fill="none"/><path d="M194.746 198.089a5.781 5.781 0 0 0 3.339-7.458 5.78 5.78 0 0 0-7.458-3.34 5.782 5.782 0 0 0-3.34 7.458 5.782 5.782 0 0 0 7.459 3.34z" fill="#7d9dbf"/><path d="M194.815 198.062a5.761 5.761 0 0 0 2.019-1.348 5.83 5.83 0 0 0 1.58-3.262 5.713 5.713 0 0 0-.024-1.692 5.827 5.827 0 0 0-.611-1.8 5.76 5.76 0 0 0-2.795-2.571 5.82 5.82 0 0 0-2.095-.475 5.783 5.783 0 0 0-5.19 8.696c.275.471.617.902 1.013 1.276a5.833 5.833 0 0 0 3.421 1.556 5.75 5.75 0 0 0 2.682-.38zm-.915-2.059a3.558 3.558 0 0 1-1.464.207 3.573 3.573 0 0 1-2.019-.818 3.498 3.498 0 0 1-1.172-1.92 3.51 3.51 0 0 1 .239-2.262c.185-.4.444-.765.762-1.07a3.53 3.53 0 0 1 5.932 3.055 3.564 3.564 0 0 1-.961 1.954 3.562 3.562 0 0 1-1.23.821l-.087.033z" fill="none"/><path d="M352.457 208.786a7.05 7.05 0 0 1 6.643 7.429 7.05 7.05 0 0 1-7.429 6.644 7.05 7.05 0 0 1-6.643-7.429 7.051 7.051 0 0 1 7.429-6.644z" fill="#a7d1ff"/><path d="M352.548 208.792a7.023 7.023 0 0 1 2.844.818 7.114 7.114 0 0 1 3.117 3.36 7.034 7.034 0 0 1-.273 6.256 7.1 7.1 0 0 1-3.877 3.261 7.07 7.07 0 0 1-5.317-.297 7.091 7.091 0 0 1-3.49-3.672 7.056 7.056 0 0 1-.324-4.413 6.996 6.996 0 0 1 .749-1.834 7.115 7.115 0 0 1 3.471-2.993 7.006 7.006 0 0 1 2.918-.496l.182.01zm-.279 2.238a4.762 4.762 0 0 0-1.984.337 4.854 4.854 0 0 0-2.337 1.99 4.78 4.78 0 0 0-.664 2.873 4.768 4.768 0 0 0 1.244 2.832 4.771 4.771 0 0 0 3.206 1.546 4.783 4.783 0 0 0 3.396-1.098 4.826 4.826 0 0 0 1.108-1.322c.233-.409.404-.852.507-1.311.12-.536.148-1.094.081-1.64a4.757 4.757 0 0 0-.374-1.354 4.849 4.849 0 0 0-2.022-2.234 4.764 4.764 0 0 0-2.161-.619z" fill="none"/><path d="M73.627 247.595c4.984-1.901 7.487-7.491 5.586-12.476-1.902-4.984-7.492-7.487-12.476-5.586-4.985 1.902-7.488 7.492-5.587 12.476 1.902 4.985 7.492 7.488 12.477 5.586z" fill="#7d9dbf"/><path d="M73.743 247.55a9.642 9.642 0 0 0 5.162-4.826c.467-.98.769-2.038.887-3.118a9.62 9.62 0 0 0-.089-2.716 9.666 9.666 0 0 0-2.874-5.345 9.72 9.72 0 0 0-6.425-2.646 9.683 9.683 0 0 0-6.825 2.604 9.68 9.68 0 0 0-2.12 2.902 9.694 9.694 0 0 0-.91 3.35 9.587 9.587 0 0 0 .208 2.959 9.715 9.715 0 0 0 1.207 2.942 9.582 9.582 0 0 0 1.743 2.086 9.712 9.712 0 0 0 5.783 2.465 9.645 9.645 0 0 0 4.02-.568l.233-.089zm-1.008-2.023a7.34 7.34 0 0 1-3.082.435 7.496 7.496 0 0 1-4.374-1.833 7.364 7.364 0 0 1-1.352-1.578 7.467 7.467 0 0 1-.977-2.34 7.338 7.338 0 0 1-.159-2.265 7.438 7.438 0 0 1 .699-2.573 7.435 7.435 0 0 1 1.627-2.228 7.412 7.412 0 0 1 2.422-1.51 7.412 7.412 0 0 1 2.811-.486 7.45 7.45 0 0 1 4.933 2.032 7.348 7.348 0 0 1 1.39 1.795 7.382 7.382 0 0 1 .872 4.474 7.494 7.494 0 0 1-2.042 4.281 7.355 7.355 0 0 1-2.589 1.727l-.179.069z" fill="none"/><path d="M160.91 90.237c4.705 1.853 10.029-.462 11.882-5.167 1.853-4.705-.462-10.029-5.167-11.882-4.705-1.853-10.029.462-11.882 5.167-1.853 4.704.462 10.029 5.167 11.882z" fill="#96bce5"/><path d="M239.555 38.882a4.827 4.827 0 0 1 3.652 5.764 4.828 4.828 0 0 1-5.765 3.652 4.828 4.828 0 0 1-3.651-5.765 4.827 4.827 0 0 1 5.764-3.651z" fill="#7d9dbf"/><path d="M236.559 192.292s4.343-7.089-22.724 17.973l-19.447-18.142-1.535 1.646 20.976 19.568 22.73-21.045z" fill="#7d9dbf" fill-rule="nonzero"/><path d="M142.607 274.872l-22.98-6.209 35.812-40.278 59.045-15.251 18.077 16.288 1.506-1.671-18.975-17.097-60.879 15.724-38.332 43.112.16.535 25.979 7.019.587-2.172z" fill="#7d9dbf" fill-rule="nonzero"/><path d="M119.697 269.533l-.017-.326-49.548-32.328-22.194 15.79 1.304 1.834 20.945-14.901 45.907 29.951-25.612 20.714 1.415 1.749 27.8-22.483z" fill="#7d9dbf" fill-rule="nonzero"/><path d="M86.924 186.599l-2.151-.658-16.467 53.823 2.152.658 16.466-53.823z" fill="#7d9dbf" fill-rule="nonzero"/><path d="M353.275 215.26l-2.204.45-4.549-22.296 2.205-.45 4.548 22.296z" fill="#a7d1ff" fill-rule="nonzero"/><path d="M214.441 102.617l.502-2.193-25.346-5.798-23.516-13.446 11.726-18.918-1.912-1.185-12.955 20.899 25.83 14.769 25.671 5.872z" fill="#96bce5" fill-rule="nonzero"/><path d="M113.527 58.142l-5.348 25.797 57.522-4.38.065.066-4.693 51.564-24.324 12.89-1.053-1.988 23.247-12.319 4.348-47.773-57.693 4.393-.182-.207 5.908-28.5 2.203.457z" fill="#96bce5"/><path d="M108.782 84.294c-35.088-23.169-34.351-24.537-72.103-43.05l-.991 2.02 26.709 13.098 45.145 29.809 1.24-1.877z" fill="#96bce5" fill-rule="nonzero"/><path d="M64.848 56.413l-33.47 37.649 27.454 44.057-1.91 1.19-28.343-45.485 34.588-38.906 1.681 1.495z" fill="#96bce5"/><path d="M30.62 92.488l-.753 2.121-22.273-7.91.753-2.12 22.273 7.909z" fill="#96bce5"/><path d="M167.757 251.164l-7.034-16.533-2.071.881 7.035 16.533 2.07-.881z" fill="#7d9dbf" fill-rule="nonzero"/><path d="M86.011 42.956l-1.081-1.973-16.467 9.026 1.081 1.973 16.467-9.026z" fill="#96bce5" fill-rule="nonzero"/><path d="M285.222 67.055l17.527 27.134-1.89 1.22-17.21-26.642-47.202-25.094 1.057-1.987 47.718 25.369z" fill="#7d9dbf"/><path d="M439.502 217.043l17.437-3.71-.468-2.201-15.812 3.364-9.83-17.634-1.965 1.095 10.638 19.086z" fill="#96bce5" fill-rule="nonzero"/><path d="M559.909 215.574l2.143-1.796-1.239-20.151-2.246.138 1.342 21.809z" fill="#a7d1ff" fill-rule="nonzero"/><path d="M557.066 69.69l.146.431-22.406 29.077-1.783-1.374 20.596-26.727-58.615-15.677-34.471 41.173-1.725-1.444 35.391-42.273 62.867 16.814z" fill="#96bce5"/><path d="M606.072 154.432l11.305-53.227" fill="#7d9dbf"/><path d="M617.727 101.439l-11.305 53.227-2.201-.467 11.305-53.228 2.201.468z" fill="#7d9dbf" fill-rule="nonzero"/><path d="M600.831 222.982l.157.251-10.012 25.594-2.096-.819 8.999-23.004c-15.369-1.226-23.531-2.223-31.228-1.969-8.462.278-5.926-3.253-5.926-3.253l40.106 3.2z" fill="#a7d1ff" fill-rule="nonzero"/><path d="M711.072 85.796l-54.028 23.94 4.944 29.426-2.219.373-5.233-31.149 53.952-23.906-10.558-49.152 2.2-.473 10.942 50.941z" fill="#7d9dbf"/><path d="M656.805 107.644l-.65 2.154-32.425-9.793s-6.403-4.284.649-2.154l32.426 9.793z" fill="#7d9dbf" fill-rule="nonzero"/><path d="M656.808 24.05l-1.334 1.812-26.412-19.44-65.587 25.439-69.377 23.636-.726-2.13 69.333-23.621 66.696-25.869 27.407 20.173z" fill="#96bce5"/><path d="M805.475 84.505l-14.642 25.458-28.411-12.758-53.239-11.426.473-2.2 53.471 11.476 26.771 12.021 13.626-23.693 1.951 1.122z" fill="#7d9dbf"/><path d="M793.207 55.424l-2.033 53.056-2.248-.086 2.033-53.057 2.248.087z" fill="#7d9dbf"/><path d="M667.489 275.828l37.162 9.51-.558 2.18c-35.68-9.131-36.165-8.768-67.452-28.199l1.187-1.912 29.661 18.421z" fill="#a7d1ff" fill-rule="nonzero"/><path d="M712.042 232.432l.06.348-43.201 43.741-1.601-1.581 41.203-41.718-48.82-23.57-59.841 15.296-.558-2.18 60.638-15.5 52.12 25.164z" fill="#a7d1ff" fill-rule="nonzero"/><path d="M243.003 198.158h-13.5l-21.75-106.8h16.2l12.15 74.55h.3l12.3-74.55h16.2l-21.9 106.8zm46.35-59.1h8.7c2.7 0 4.85-.375 6.45-1.125 1.6-.75 2.825-1.825 3.675-3.225.85-1.4 1.425-3.125 1.725-5.175.3-2.05.45-4.425.45-7.125s-.15-5.075-.45-7.125c-.3-2.05-.925-3.8-1.875-5.25-.95-1.45-2.275-2.525-3.975-3.225-1.7-.7-3.95-1.05-6.75-1.05h-7.95v33.3zm-15.3-47.7h24.6c18 0 27 10.45 27 31.35 0 6.2-.975 11.525-2.925 15.975-1.95 4.45-5.375 8.025-10.275 10.725l16.5 48.75h-16.2l-14.25-45.6h-9.15v45.6h-15.3v-106.8zm63.9 0h15.3v91.5h30.3v15.3h-45.6v-106.8zm83.55 99h-.3c-2 2.8-4.025 4.95-6.075 6.45s-4.925 2.25-8.625 2.25c-1.8 0-3.65-.275-5.55-.825-1.9-.55-3.675-1.55-5.325-3-1.65-1.45-3-3.5-4.05-6.15-1.05-2.65-1.575-6.075-1.575-10.275 0-4.3.35-8.075 1.05-11.325.7-3.25 1.975-5.95 3.825-8.1 1.85-2.15 4.325-3.75 7.425-4.8 3.1-1.05 7.05-1.575 11.85-1.575 1.1 0 2.2.05 3.3.15 1.1.1 2.45.2 4.05.3v-7.95c0-2.6-.55-4.75-1.65-6.45-1.1-1.7-3.1-2.55-6-2.55-2 0-3.825.65-5.475 1.95-1.65 1.3-2.725 3.2-3.225 5.7h-14.85c.5-6.9 2.8-12.4 6.9-16.5 2-2 4.4-3.575 7.2-4.725 2.8-1.15 5.95-1.725 9.45-1.725 3.2 0 6.2.5 9 1.5s5.225 2.5 7.275 4.5c2.05 2 3.675 4.5 4.875 7.5 1.2 3 1.8 6.5 1.8 10.5v52.95h-15.3v-7.8zm0-24.9c-1.7-.3-3.1-.45-4.2-.45-3.3 0-6.125.775-8.475 2.325-2.35 1.55-3.525 4.375-3.525 8.475 0 2.9.7 5.25 2.1 7.05 1.4 1.8 3.35 2.7 5.85 2.7 2.6 0 4.625-.85 6.075-2.55 1.45-1.7 2.175-4.1 2.175-7.2v-10.35zm26.55-74.1h15.3v37.65h.3c1.7-2.5 3.725-4.425 6.075-5.775 2.35-1.35 5.025-2.025 8.025-2.025 3.7 0 6.575.65 8.625 1.95 2.05 1.3 3.725 2.95 5.025 4.95 1 1.6 1.65 3.7 1.95 6.3.3 2.6.45 6.65.45 12.15v28.95c0 4.2-.2 7.55-.6 10.05-.4 2.5-1.05 4.6-1.95 6.3-2.6 4.8-7.05 7.2-13.35 7.2-3.8 0-6.7-.75-8.7-2.25-2-1.5-3.95-3.35-5.85-5.55v6.9h-15.3v-106.8zm30.45 54.15c0-2.4-.525-4.5-1.575-6.3-1.05-1.8-3.025-2.7-5.925-2.7-2.2 0-4.025.775-5.475 2.325-1.45 1.55-2.175 3.525-2.175 5.925v29.55c0 2.8.7 5.075 2.1 6.825 1.4 1.75 3.25 2.625 5.55 2.625 2.6 0 4.5-.95 5.7-2.85 1.2-1.9 1.8-4.4 1.8-7.5v-27.9zm26.325 41.175h11.475v11.475h-11.475zm21.15-68.625h11.025l17.325 48.262h.225v-48.262h11.475v80.1h-10.8l-17.55-48.15h-.225v48.15h-11.475v-80.1zm87.525 62.1c0 2.625-.487 5.062-1.462 7.312a18.887 18.887 0 0 1-3.994 5.907 18.885 18.885 0 0 1-5.906 3.993c-2.25.975-4.65 1.463-7.2 1.463s-4.95-.488-7.2-1.463a18.885 18.885 0 0 1-5.906-3.993 18.887 18.887 0 0 1-3.994-5.907c-.975-2.25-1.463-4.687-1.463-7.312v-62.1h11.475v60.975c0 2.85.675 4.95 2.025 6.3 1.35 1.35 3.038 2.025 5.063 2.025s3.712-.675 5.062-2.025c1.35-1.35 2.025-3.45 2.025-6.3v-60.975h11.475v62.1z" fill="#7d9dbf" fill-rule="nonzero"/></svg>