<svg viewBox="0 0 335 201" xmlns="http://www.w3.org/2000/svg" fill-rule="evenodd" clip-rule="evenodd" stroke-linejoin="round" stroke-miterlimit="1.414"><path d="M164.255 29.452l-11.563.403-.886-24.508s-.102-3.823 4.352-4.411c4.454-.588 7.853-.627 8.688-.656.835-.028-.591 29.172-.591 29.172m-.014 10.002l-15.55.533s-4.985-.205-5.142-4.802l-.095-2.761 20.41-1.274m-13.491-19.937l.534 12.951s-5.42 3.122-8.646 6.755c-8.408 1.183-10.518 1.109-16.673 3.652 2.047-6.23 11.931-20.637 24.785-23.358" fill="#f2f2f2"/><path d="M141.859 32.695s-2.38 9.678 9.657 9.266c12.037-.412 11.344-.622 11.344-.622l1.068 33.936s-6.787 1.044-6.568 7.425c.218 6.382 7.095 6.574 7.095 6.574l.07 1.49s-13.451.368-22.561-.017-14.421-.773-21.876-8.044c-7.455-7.271-4.749-19.441-4.781-21.136l-.031-1.695s.202-10.592.602-11.953c.401-1.361 2.216-5.771 5.418-8.567 3.202-2.795 10.091-6.753 20.563-6.657zm42.97-1.472s3.036 9.493-9.001 9.905c-12.037.413-11.359.156-11.359.156l1.255 33.929s6.842.578 7.061 6.959c.218 6.382-6.629 7.044-6.629 7.044l.032 1.491s13.445-.553 22.507-1.56c9.062-1.007 14.334-1.757 21.274-9.521 6.94-7.764 3.409-19.721 3.324-21.414l-.084-1.693s-.926-10.553-1.419-11.884c-.492-1.331-2.605-5.606-5.991-8.176-3.385-2.57-10.529-6.047-20.97-5.236z" fill="#f2f2f2"/><path d="M162.961 39.498l15.551-.532s4.959-.546 4.802-5.143c-.157-4.596-.095-2.76-.095-2.76l-20.449.125m-.506-1.668l11.563-.388-.792-24.512s-.16-3.821-4.644-4.103c-4.483-.281-7.877-.089-8.712-.06-.835.029 2.585 29.063 2.585 29.063m12.602-19.145l.353 12.957s5.621 2.743 9.088 6.147c8.469.606 10.569.387 16.883 2.504-2.468-6.076-13.314-19.773-26.324-21.608m-10.034 66.659c3.326-.114 6.108 2.206 6.21 5.177.102 2.971-2.516 5.476-5.842 5.59-3.325.114-6.108-2.206-6.21-5.178-.101-2.971 2.516-5.476 5.842-5.589z" fill="#f2f2f2"/><path d="M131.515 100.642l18.211 86.16 44.992 3.336 6.296-92.427-16.578-4.175-38.217 2.387-14.704 4.719z" fill="#2a3440"/><path d="M184.479 93.55l13.235 9-17.433 68.746-13.583-49.289-9.635 50.211-22.739-66.71 12.316-9.677-43.189 10.343s-10.23 1.36-12.491 12.845c-2.26 11.485-10.258 62.166-10.258 62.166v19.644h176.21V173.86l-15.772-62.512s-1.386-8.274-10.823-9.851c-9.438-1.578-45.838-7.947-45.838-7.947z" fill="#f2f2f2"/><path d="M165.479 101.271l11.048 4.148-9.987 16.127-11.104-15.285 10.043-4.99zM47.039 91.4c4.584 25.095 8.179 49.781 4.758 50.558-7.016 1.593-9.948-2.03-11.447-6.675-1.499-4.646-12.877-47.973-14.407-53.741-1.529-5.769-2.847-10.712-4.026-12.951-1.179-2.24-6.844-4.846-6.844-4.846s-2.053 3.704-3.769 4.223c-1.717.519-5.164-1.056-6.22-1.702-1.054-.648-1.252-5.366.926-9.133 2.179-3.768 3.054-6.143 9.056-12.449 6.001-6.306 20.789-7.002 20.789-7.002s.491.656.548.917c.256 1.169 1.061 4.863 2.188 10.2-2.074.137-4.723.536-7.569 1.182-6.311 1.434-11.22 3.542-10.956 4.706.264 1.165 5.603.946 11.914-.487 2.822-.641 5.364-1.417 7.288-2.183a1805.487 1805.487 0 0 1 4.804 23.711 10.417 10.417 0 0 0-7.451-1.089c-5.625 1.277-9.157 6.875-7.881 12.494 1.276 5.618 6.879 9.143 12.504 7.865a10.408 10.408 0 0 0 5.795-3.598zm-5.059 9.593a2.163 2.163 0 0 1 .958 4.219 2.163 2.163 0 1 1-.958-4.219zm-7.499-33.025a2.164 2.164 0 0 1 .958 4.219 2.164 2.164 0 0 1-.958-4.219z" fill="#f2f2f2"/><path d="M30.622 78.495a1827.944 1827.944 0 0 1-5.676-23.153c1.986-.165 4.427-.55 7.034-1.142 6.311-1.433 11.22-3.541 10.955-4.706-.264-1.164-5.602-.946-11.913.487-2.622.596-5.002 1.308-6.869 2.02A1475.104 1475.104 0 0 1 21.52 40.7s13.379-5.388 21.516-2.293c8.136 3.096 9.952 4.861 13.544 7.317 3.591 2.457 5.451 6.799 4.779 7.837-.672 1.039-3.102 3.948-4.874 4.221-1.772.274-5.223-2.18-5.223-2.18s-3.985 4.797-4.081 7.326c-.096 2.529.85 7.556 1.962 13.42 1.112 5.863 9.563 49.855 10.217 54.693.654 4.836-.426 9.37-7.442 10.964-3.396.771-10.629-22.949-17.187-47.628a10.4 10.4 0 0 0 6.513.621c5.625-1.277 9.156-6.876 7.881-12.494-1.276-5.619-6.879-9.143-12.504-7.865a10.41 10.41 0 0 0-5.999 3.856zm11.358 22.498a2.163 2.163 0 0 1 .958 4.219 2.163 2.163 0 1 1-.958-4.219zm-7.499-33.025a2.164 2.164 0 0 1 .958 4.219 2.164 2.164 0 0 1-.958-4.219zM287.274 92.15c-4.583 25.095-8.178 49.781-4.757 50.558 7.016 1.593 9.947-2.03 11.447-6.675 1.499-4.646 12.876-47.973 14.406-53.741 1.529-5.769 2.848-10.712 4.026-12.951 1.179-2.24 6.845-4.846 6.845-4.846s2.052 3.704 3.769 4.223c1.717.519 5.164-1.056 6.219-1.702 1.055-.648 1.253-5.366-.926-9.133-2.178-3.768-3.054-6.143-9.056-12.449-6.001-6.306-20.788-7.002-20.788-7.002s-.491.656-.549.917c-.256 1.169-1.06 4.863-2.188 10.2 2.074.137 4.723.536 7.57 1.182 6.311 1.434 11.22 3.542 10.956 4.706-.265 1.165-5.603.946-11.914-.487-2.823-.641-5.364-1.417-7.288-2.183a1803.872 1803.872 0 0 0-4.805 23.711 10.42 10.42 0 0 1 7.452-1.089c5.625 1.277 9.157 6.875 7.881 12.494-1.276 5.618-6.88 9.143-12.505 7.865a10.415 10.415 0 0 1-5.795-3.598zm5.06 9.593a2.162 2.162 0 1 0-.955 4.218 2.162 2.162 0 0 0 .955-4.218zm7.499-33.025a2.163 2.163 0 0 0-.958 4.219 2.163 2.163 0 0 0 .958-4.219z" fill="#f2f2f2"/><path d="M303.692 79.245a1826.292 1826.292 0 0 0 5.675-23.153c-1.986-.165-4.427-.55-7.033-1.142-6.311-1.433-11.22-3.541-10.956-4.706.264-1.164 5.603-.946 11.914.487 2.622.596 5.001 1.308 6.869 2.02a1475.104 1475.104 0 0 0 2.633-11.301s-13.379-5.388-21.516-2.293c-8.136 3.096-9.952 4.861-13.544 7.317-3.591 2.457-5.451 6.799-4.779 7.837.672 1.039 3.102 3.948 4.874 4.221 1.772.274 5.223-2.18 5.223-2.18s3.985 4.797 4.081 7.326c.095 2.529-.85 7.556-1.963 13.42-1.111 5.863-9.562 49.855-10.216 54.693-.654 4.836.425 9.37 7.441 10.964 3.397.771 10.63-22.949 17.188-47.628a10.402 10.402 0 0 1-6.514.621c-5.625-1.277-9.156-6.876-7.88-12.494 1.275-5.619 6.879-9.143 12.504-7.865a10.414 10.414 0 0 1 5.999 3.856zm-11.358 22.498a2.162 2.162 0 1 0-.955 4.218 2.162 2.162 0 0 0 .955-4.218zm7.499-33.025a2.163 2.163 0 0 0-.958 4.219 2.163 2.163 0 0 0 .958-4.219z" fill="#f2f2f2"/></svg>